<svg width="47" height="47" viewBox="0 0 47 47" fill="none" xmlns="http://www.w3.org/2000/svg">
<circle cx="23.4628" cy="23.4628" r="23.4628" fill="white"/>
<path d="M23.3988 18.0717C22.3081 18.0717 21.2419 18.3951 20.335 19.0011C19.4282 19.607 18.7214 20.4683 18.304 21.4759C17.8866 22.4836 17.7774 23.5924 17.9902 24.6621C18.203 25.7318 18.7282 26.7144 19.4994 27.4856C20.2706 28.2568 21.2532 28.782 22.3229 28.9948C23.3926 29.2076 24.5014 29.0984 25.5091 28.681C26.5167 28.2636 27.378 27.5568 27.9839 26.65C28.5899 25.7431 28.9133 24.6769 28.9133 23.5863C28.9133 22.1237 28.3323 20.7211 27.2981 19.6869C26.2639 18.6527 24.8613 18.0717 23.3988 18.0717ZM23.3988 27.2626C22.6716 27.2626 21.9609 27.047 21.3563 26.643C20.7517 26.2391 20.2805 25.6649 20.0022 24.9931C19.724 24.3214 19.6512 23.5822 19.793 22.869C19.9349 22.1559 20.285 21.5008 20.7992 20.9867C21.3133 20.4725 21.9684 20.1224 22.6815 19.9805C23.3947 19.8387 24.1339 19.9115 24.8056 20.1897C25.4774 20.468 26.0516 20.9392 26.4555 21.5438C26.8595 22.1484 27.0751 22.8591 27.0751 23.5863C27.0721 24.5604 26.6838 25.4937 25.995 26.1825C25.3062 26.8713 24.3729 27.2596 23.3988 27.2626ZM28.4537 12.0977H18.3438C16.6375 12.0977 15.0011 12.7755 13.7945 13.982C12.588 15.1886 11.9102 16.825 11.9102 18.5313V28.6412C11.9102 30.3475 12.588 31.984 13.7945 33.1905C15.0011 34.397 16.6375 35.0749 18.3438 35.0749H28.4537C30.16 35.0749 31.7965 34.397 33.003 33.1905C34.2095 31.984 34.8874 30.3475 34.8874 28.6412V18.5313C34.8874 16.825 34.2095 15.1886 33.003 13.982C31.7965 12.7755 30.16 12.0977 28.4537 12.0977ZM33.0492 28.6412C33.0492 29.2447 32.9303 29.8423 32.6994 30.3998C32.4684 30.9574 32.1299 31.464 31.7032 31.8907C31.2765 32.3174 30.7699 32.6559 30.2123 32.8869C29.6548 33.1178 29.0572 33.2367 28.4537 33.2367H18.3438C17.7403 33.2367 17.1427 33.1178 16.5852 32.8869C16.0276 32.6559 15.521 32.3174 15.0943 31.8907C14.6676 31.464 14.3291 30.9574 14.0981 30.3998C13.8672 29.8423 13.7483 29.2447 13.7483 28.6412V18.5313C13.7483 17.3125 14.2325 16.1436 15.0943 15.2818C15.9561 14.42 17.125 13.9358 18.3438 13.9358H28.4537C29.0572 13.9358 29.6548 14.0547 30.2123 14.2856C30.7699 14.5166 31.2765 14.8551 31.7032 15.2818C32.1299 15.7085 32.4684 16.2151 32.6994 16.7727C32.9303 17.3302 33.0492 17.9278 33.0492 18.5313V28.6412ZM30.7515 17.6122C30.7515 17.8849 30.6706 18.1514 30.5191 18.3781C30.3676 18.6048 30.1523 18.7815 29.9004 18.8859C29.6485 18.9902 29.3713 19.0175 29.1039 18.9643C28.8364 18.9111 28.5908 18.7798 28.398 18.587C28.2052 18.3942 28.0739 18.1486 28.0207 17.8811C27.9675 17.6137 27.9948 17.3365 28.0991 17.0846C28.2035 16.8327 28.3802 16.6174 28.6069 16.4659C28.8336 16.3144 29.1002 16.2336 29.3728 16.2336C29.7385 16.2336 30.0891 16.3788 30.3477 16.6373C30.6062 16.8959 30.7515 17.2465 30.7515 17.6122Z" fill="#281B1B"/>
</svg>
