<svg width="198" height="72" viewBox="0 0 198 72" fill="none" xmlns="http://www.w3.org/2000/svg">
<path fill-rule="evenodd" clip-rule="evenodd" d="M53.6698 60L52.4698 72H40.5906L47.6389 12H43.8613L45.271 0C52.7707 0 60.2705 0 67.7702 0L76.2282 72H64.349L63.1484 60H53.6698ZM0 0C11.0399 0 22.0793 0 33.1192 0L31.7095 12H11.8792V24H17.8182C27.66 24 35.6382 32.0587 35.6382 42V54C35.6382 63.9413 27.66 72 17.8182 72H0C0 48 0 24 0 0ZM23.7584 54V42C23.7584 38.6865 21.099 36 17.8182 36H11.8792V60H17.8182C21.099 60 23.7584 57.3135 23.7584 54ZM159.338 0C166.286 0 173.234 0 180.182 0C190.023 0 198 8.05872 198 18V30C198 39.9413 190.023 48 180.182 48H174.242V72H162.363C162.363 51.9998 162.363 32.0002 162.363 12H157.928L159.338 0ZM186.121 18C186.121 14.6865 183.462 12 180.182 12H174.242V36H180.182C183.462 36 186.121 33.3135 186.121 30V18ZM134.852 60L133.651 72H121.772L128.82 12H125.043L126.452 0C133.952 0 141.452 0 148.951 0L157.409 72H145.53L144.33 60H134.852ZM139.591 12.594L136.05 48H143.131L139.591 12.594ZM81.1812 30.601C81.1812 38.4384 86.1399 45.1043 93.0604 47.5751V60L81.1812 61.272V72C93.0604 72 104.94 72 116.819 72V61.272L104.94 60V47.5751C111.86 45.1043 116.819 38.4384 116.819 30.601C116.819 20.4009 116.819 10.2001 116.819 0H104.94C104.94 10.2001 104.94 20.4009 104.94 30.601C104.94 33.9146 102.28 36.601 99 36.601C95.7198 36.601 93.0604 33.9146 93.0604 30.601C93.0604 20.4009 93.0604 10.2001 93.0604 0H81.1812C81.1812 10.2001 81.1812 20.4009 81.1812 30.601ZM58.4094 12.594L54.8692 48H61.9496L58.4094 12.594Z" fill="#DEB279"/>
</svg>
