<svg width="136" height="143" viewBox="0 0 136 143" fill="none" xmlns="http://www.w3.org/2000/svg">
<path fill-rule="evenodd" clip-rule="evenodd" d="M37.7799 94.0807L36.9799 102H29.0604L33.7593 62.4029H31.2409L32.1807 54.4834C37.1805 54.4834 42.1803 54.4834 47.1801 54.4834L52.8188 102H44.8993L44.0989 94.0807H37.7799ZM2 54.4834C9.35996 54.4834 16.7195 54.4834 24.0795 54.4834L23.1397 62.4029H9.91946V70.3223H13.8788C20.44 70.3223 25.7588 75.6407 25.7588 82.2015V90.1209C25.7588 96.6817 20.44 102 13.8788 102H2C2 86.1612 2 70.3223 2 54.4834ZM17.8389 90.1209V82.2015C17.8389 80.0147 16.066 78.2418 13.8788 78.2418H9.91946V94.0807H13.8788C16.066 94.0807 17.8389 92.3077 17.8389 90.1209ZM108.225 54.4834C112.857 54.4834 117.489 54.4834 122.121 54.4834C128.682 54.4834 134 59.8018 134 66.3626V74.282C134 80.8428 128.682 86.1612 122.121 86.1612H118.161V102H110.242C110.242 88.8009 110.242 75.6021 110.242 62.4029H107.285L108.225 54.4834ZM126.081 66.3626C126.081 64.1758 124.308 62.4029 122.121 62.4029H118.161V78.2418H122.121C124.308 78.2418 126.081 76.4688 126.081 74.282V66.3626ZM91.9011 94.0807L91.1007 102H83.1812L87.8801 62.4029H85.3617L86.3015 54.4834C91.3013 54.4834 96.3011 54.4834 101.301 54.4834L106.94 102H99.0201L98.2201 94.0807H91.9011ZM95.0604 62.7949L92.7003 86.1612H97.4205L95.0604 62.7949ZM56.1208 74.6787C56.1208 79.851 59.4266 84.2502 64.0403 85.8808V94.0807L56.1208 94.9201V102C64.0403 102 71.9597 102 79.8792 102V94.9201L71.9597 94.0807V85.8808C76.5734 84.2502 79.8792 79.851 79.8792 74.6787C79.8792 67.9471 79.8792 61.215 79.8792 54.4834H71.9597C71.9597 61.215 71.9597 67.9471 71.9597 74.6787C71.9597 76.8655 70.1868 78.6384 68 78.6384C65.8132 78.6384 64.0403 76.8655 64.0403 74.6787C64.0403 67.9471 64.0403 61.215 64.0403 54.4834H56.1208C56.1208 61.215 56.1208 67.9471 56.1208 74.6787ZM40.9396 62.7949L38.5795 86.1612H43.2997L40.9396 62.7949Z" fill="white"/>
<path fill-rule="evenodd" clip-rule="evenodd" d="M68.0001 0.75293C67.8346 1.35022 67.5963 1.92767 67.3 2.49061V14.6661C67.5516 14.4005 67.7869 14.1281 68.0001 13.8451C68.2132 14.1281 68.4485 14.4003 68.7001 14.6661V2.49061C68.4038 1.92781 68.1656 1.35022 68.0001 0.75293ZM65.1844 5.36367C64.7698 5.80165 64.3212 6.23266 63.8438 6.65863L64.3105 17.3479C64.7605 16.9525 65.2152 16.5715 65.6571 16.1922L65.1844 5.36367ZM61.9128 8.24693C61.4867 8.57349 61.0452 8.89826 60.5931 9.22245L61.5668 20.352C61.9417 19.7744 62.3717 19.2488 62.8325 18.7579L61.9128 8.24693ZM58.7808 10.4819C58.3559 10.7693 57.9243 11.0572 57.4872 11.3462L59.5037 26.6624C59.7475 26.7005 59.9953 26.7435 60.247 26.791C60.0644 25.3165 60.1497 24.0587 60.4238 22.9617L58.7808 10.4819ZM55.7711 12.4723C55.3489 12.7481 54.9241 13.0258 54.4974 13.3056L56.8106 26.4247C57.2706 26.4294 57.7491 26.4558 58.2452 26.5031L55.7711 12.4723ZM52.8692 14.3822C52.4546 14.6593 52.0403 14.9394 51.6273 15.2227L54.1654 26.6714C54.6032 26.5763 55.0643 26.5084 55.5485 26.4681L52.8692 14.3822ZM50.0871 16.3018C49.6804 16.5932 49.2769 16.8885 48.8772 17.1882L51.6803 27.6499C52.0757 27.4042 52.5021 27.1952 52.9599 27.0232L50.0871 16.3018ZM47.4347 18.3061C47.0411 18.6217 46.6536 18.9426 46.2729 19.2689L49.5707 29.728C49.8818 29.2518 50.2361 28.8265 50.6339 28.4527L47.4347 18.3061ZM44.9415 20.461C44.5673 20.8127 44.2021 21.171 43.8474 21.5365L48.1763 33.4301C48.332 32.5956 48.5504 31.8349 48.8314 31.1483L44.9415 20.461ZM42.6552 22.8437C42.3089 23.2478 41.9764 23.6609 41.6585 24.0832L51.637 48.1734C52.1171 48.1146 52.5864 48.0292 53.0413 47.9177L48.2983 36.4672C48.1619 36.5075 48.0248 36.5486 47.8862 36.5918C47.8907 36.2391 47.9032 35.8959 47.9232 35.5614L42.6552 22.8437ZM40.647 25.5397C40.3416 26.0206 40.0561 26.513 39.7924 27.0186L49.7 48.2658C50.2136 48.2791 50.7225 48.2624 51.2221 48.2178L40.647 25.5397ZM39.0267 28.6823C38.7881 29.275 38.5781 29.8837 38.4016 30.5113L47.5232 48.0336C48.0849 48.1396 48.6492 48.21 49.2102 48.2447L39.0267 28.6823ZM37.9724 32.4513C37.962 32.5152 37.9488 32.5779 37.9391 32.6423C37.8243 33.3942 37.7553 34.114 37.7227 34.8062L44.9118 47.258C45.5568 47.5257 46.22 47.7387 46.8913 47.8989L37.9724 32.4513ZM37.7564 37.0841C37.8862 38.6403 38.2307 40.0226 38.7477 41.2351L40.7293 44.3455C41.6652 45.3795 42.7658 46.1962 43.954 46.8122L37.7564 37.0841ZM53.4141 47.8204C53.8714 47.6918 54.3114 47.5363 54.73 47.3545L50.568 35.9196C50.1247 36.0003 49.6662 36.1009 49.1923 36.2214L53.4141 47.8204ZM55.0785 47.196C55.52 46.9826 55.9323 46.737 56.3126 46.4635L52.9113 35.6762C52.4566 35.682 51.9791 35.716 51.4784 35.7786L55.0785 47.196ZM56.652 46.2043C57.0844 45.8535 57.4657 45.4607 57.7842 45.0274L55.3619 35.9876C54.8964 35.8448 54.3884 35.751 53.839 35.7062L56.652 46.2043ZM58.1197 44.5081C58.5687 43.732 58.8338 42.8467 58.8574 41.8579C58.8612 41.7018 58.8612 41.5493 58.8587 41.3994L58.1609 38.2517C57.7325 37.4317 57.1129 36.81 56.3184 36.383L58.1197 44.5081ZM70.343 16.192C70.7847 16.5714 71.2396 16.9524 71.6896 17.3478L72.1564 6.65863C71.679 6.2328 71.2301 5.8018 70.8157 5.36367L70.343 16.192ZM73.1676 18.7579C73.6285 19.2488 74.0584 19.7745 74.4333 20.352L75.407 9.22245C74.9549 8.89826 74.5134 8.57336 74.0873 8.24679L73.1676 18.7579ZM75.5763 22.9617C75.8504 24.0587 75.9357 25.3165 75.7531 26.791C76.0048 26.7435 76.2525 26.7007 76.4964 26.6624L78.5129 11.3462C78.0758 11.0572 77.6442 10.7694 77.2193 10.4819L75.5763 22.9617ZM77.7549 26.5031C78.2511 26.4556 78.7295 26.4295 79.1895 26.4247L81.5027 13.3056C81.076 13.0258 80.6513 12.7481 80.2291 12.4723L77.7549 26.5031ZM80.4517 26.4681C80.936 26.5084 81.3967 26.5764 81.8347 26.6714L84.3728 15.2227C83.9597 14.9394 83.5455 14.6593 83.1309 14.3822L80.4517 26.4681ZM83.0402 27.0232C83.498 27.1952 83.9244 27.4042 84.3198 27.6498L87.1229 17.1882C86.7232 16.8885 86.3195 16.5932 85.913 16.3018L83.0402 27.0232ZM85.3662 28.4527C85.7641 28.8264 86.1182 29.2518 86.4294 29.7279L89.7272 19.2688C89.3465 18.9425 88.9589 18.6217 88.5654 18.3061L85.3662 28.4527ZM87.1688 31.1482C87.4499 31.8346 87.668 32.5955 87.8238 33.4298L92.1528 21.5363C91.7982 21.1708 91.4328 20.8126 91.0586 20.4609L87.1688 31.1482ZM88.0771 35.5611C88.097 35.8956 88.1096 36.239 88.1141 36.5918C87.9754 36.5486 87.8382 36.5075 87.7018 36.4672L82.9588 47.9177C83.4137 48.0293 83.8832 48.1145 84.3631 48.1734L94.3416 24.0832C94.0236 23.6609 93.6913 23.2476 93.3449 22.8436L88.0771 35.5611ZM86.8078 36.2212C86.3341 36.1009 85.8754 36.0003 85.4321 35.9196L81.2701 47.3545C81.6885 47.5363 82.1288 47.6917 82.586 47.8204L86.8078 36.2212ZM84.5217 35.7785C84.0211 35.7158 83.5434 35.682 83.0888 35.6762L79.6875 46.4635C80.0677 46.7371 80.4803 46.9824 80.9216 47.196L84.5217 35.7785ZM82.1611 35.7062C81.6119 35.7511 81.1035 35.8448 80.6382 35.9878L78.2159 45.0274C78.534 45.461 78.9157 45.8533 79.3481 46.2043L82.1611 35.7062ZM79.6817 36.383C78.8874 36.8101 78.2676 37.4317 77.8393 38.2517L77.1414 41.3994C77.1389 41.5493 77.1389 41.7018 77.1427 41.8579C77.1663 42.8467 77.4316 43.7318 77.8804 44.5081L79.6817 36.383ZM84.778 48.2178C85.2776 48.2626 85.7865 48.2789 86.3001 48.2658L96.2077 27.0186C95.9439 26.5133 95.6586 26.0203 95.3531 25.5397L84.778 48.2178ZM86.7899 48.2447C87.3509 48.2101 87.9152 48.1394 88.4769 48.0336L97.5985 30.5113C97.4212 29.8841 97.2123 29.2748 96.9734 28.6823L86.7899 48.2447ZM89.1088 47.8989C89.7801 47.7389 90.4432 47.5256 91.0884 47.258L98.2774 34.8062C98.2439 34.1133 98.1758 33.3942 98.061 32.6423C98.0513 32.5779 98.0381 32.5152 98.0277 32.4513L89.1088 47.8989ZM92.0461 46.8122C93.2341 46.1964 94.3353 45.3796 95.2708 44.3455L97.2524 41.2351C97.7688 40.0222 98.1145 38.6407 98.2437 37.0841L92.0461 46.8122Z" fill="#DEB279"/>
<path d="M39.6435 114.67C39.6435 115.41 39.4035 115.987 38.9235 116.4C38.4702 116.8 37.8702 117 37.1235 117H35.5235C34.9968 117 34.7335 116.727 34.7335 116.18V110.54C34.7335 109.98 34.9868 109.7 35.4935 109.7H38.4035C38.9435 109.7 39.2135 109.897 39.2135 110.29C39.2135 110.677 38.9435 110.87 38.4035 110.87H36.0135V112.33H37.2535C37.9668 112.33 38.5435 112.543 38.9835 112.97C39.4235 113.397 39.6435 113.963 39.6435 114.67ZM36.9535 113.48H36.0135V115.85H36.9735C37.8535 115.85 38.2935 115.457 38.2935 114.67C38.2935 113.877 37.8468 113.48 36.9535 113.48ZM46.2241 116.52C46.2241 116.687 46.1607 116.823 46.0341 116.93C45.9141 117.03 45.7674 117.08 45.5941 117.08C45.2874 117.08 45.0707 116.893 44.9441 116.52L44.5441 115.35H41.6041L41.1841 116.55C41.0574 116.903 40.8541 117.08 40.5741 117.08C40.4007 117.08 40.2541 117.03 40.1341 116.93C40.0207 116.823 39.9641 116.683 39.9641 116.51C39.9641 116.377 39.9841 116.257 40.0241 116.15L42.1541 110.42C42.3541 109.88 42.6707 109.61 43.1041 109.61C43.5507 109.61 43.8641 109.86 44.0441 110.36L46.1441 116.14C46.1974 116.287 46.2241 116.413 46.2241 116.52ZM44.1741 114.23L43.0941 111.05C43.0807 111.07 43.0641 111.103 43.0441 111.15L41.9841 114.23H44.1741ZM54.972 116.16C54.972 116.72 54.712 117 54.192 117H47.662C47.142 117 46.882 116.72 46.882 116.16V110.45C46.882 109.903 47.092 109.63 47.512 109.63C47.9453 109.63 48.162 109.907 48.162 110.46V115.92H50.332V110.45C50.332 109.903 50.5286 109.63 50.922 109.63C51.322 109.63 51.522 109.907 51.522 110.46V115.92H53.692V110.46C53.692 109.907 53.9053 109.63 54.332 109.63C54.7586 109.63 54.972 109.903 54.972 110.45V116.16ZM61.7279 116.51C61.7279 116.677 61.6679 116.817 61.5479 116.93C61.4279 117.037 61.2846 117.09 61.1179 117.09C60.9179 117.09 60.6912 116.957 60.4379 116.69L57.9779 114.07L57.4979 113.86V116.26C57.4979 116.807 57.2812 117.08 56.8479 117.08C56.4279 117.08 56.2179 116.807 56.2179 116.26V110.46C56.2179 109.907 56.4279 109.63 56.8479 109.63C57.2812 109.63 57.4979 109.903 57.4979 110.45V112.58L60.1679 110.01C60.4279 109.757 60.6446 109.63 60.8179 109.63C60.9846 109.63 61.1246 109.69 61.2379 109.81C61.3579 109.923 61.4179 110.063 61.4179 110.23C61.4179 110.403 61.2779 110.62 60.9979 110.88L58.6579 113.07L61.4379 115.92C61.6312 116.12 61.7279 116.317 61.7279 116.51ZM68.263 116.26C68.263 116.807 68.0497 117.08 67.623 117.08C67.1964 117.08 66.983 116.81 66.983 116.27V111.91L63.553 116.66C63.353 116.94 63.1097 117.08 62.823 117.08C62.443 117.08 62.253 116.837 62.253 116.35V110.46C62.253 109.907 62.4664 109.63 62.893 109.63C63.3197 109.63 63.533 109.907 63.533 110.46V114.81C63.5464 114.797 63.563 114.777 63.583 114.75L66.953 110.08C67.1664 109.78 67.4064 109.63 67.673 109.63C68.0664 109.63 68.263 109.89 68.263 110.41V116.26ZM74.4789 112.08C74.4789 112.58 74.3622 113.023 74.1289 113.41C73.8822 113.817 73.5322 114.11 73.0789 114.29C72.7856 114.41 72.4556 114.47 72.0889 114.47H70.7889V116.27C70.7889 116.81 70.5722 117.08 70.1389 117.08C69.7189 117.08 69.5089 116.807 69.5089 116.26V110.53C69.5089 109.977 69.7722 109.7 70.2989 109.7H71.9589C72.7122 109.7 73.3189 109.91 73.7789 110.33C74.2456 110.75 74.4789 111.333 74.4789 112.08ZM73.1289 112.07C73.1289 111.263 72.6889 110.86 71.8089 110.86H70.7889V113.33H71.7889C72.1889 113.33 72.5122 113.22 72.7589 113C73.0056 112.78 73.1289 112.47 73.1289 112.07ZM80.6602 116C80.6602 116.28 80.4702 116.523 80.0902 116.73C79.8102 116.883 79.4935 116.99 79.1402 117.05C78.8735 117.097 78.6135 117.12 78.3602 117.12C77.3202 117.12 76.4868 116.747 75.8602 116C75.2668 115.3 74.9702 114.42 74.9702 113.36C74.9702 112.307 75.2702 111.423 75.8702 110.71C76.5035 109.957 77.3402 109.58 78.3802 109.58C79.3002 109.58 79.9635 109.82 80.3702 110.3C80.4835 110.433 80.5402 110.573 80.5402 110.72C80.5402 110.867 80.4835 110.997 80.3702 111.11C80.2635 111.217 80.1368 111.27 79.9902 111.27C79.9102 111.27 79.8068 111.233 79.6802 111.16C79.4068 111.007 79.1502 110.897 78.9102 110.83C78.7568 110.79 78.5668 110.77 78.3402 110.77C77.7068 110.77 77.2035 111.057 76.8302 111.63C76.5102 112.13 76.3502 112.713 76.3502 113.38C76.3502 114.053 76.5135 114.627 76.8402 115.1C77.2202 115.647 77.7302 115.92 78.3702 115.92C78.6502 115.92 78.8868 115.893 79.0802 115.84C79.2735 115.78 79.4735 115.697 79.6802 115.59C79.8935 115.483 80.0502 115.43 80.1502 115.43C80.2968 115.43 80.4168 115.49 80.5102 115.61C80.6102 115.723 80.6602 115.853 80.6602 116ZM86.9427 116.51C86.9427 116.677 86.8827 116.817 86.7627 116.93C86.6427 117.037 86.4994 117.09 86.3327 117.09C86.1327 117.09 85.9061 116.957 85.6527 116.69L83.1927 114.07L82.7127 113.86V116.26C82.7127 116.807 82.4961 117.08 82.0627 117.08C81.6427 117.08 81.4327 116.807 81.4327 116.26V110.46C81.4327 109.907 81.6427 109.63 82.0627 109.63C82.4961 109.63 82.7127 109.903 82.7127 110.45V112.58L85.3827 110.01C85.6427 109.757 85.8594 109.63 86.0327 109.63C86.1994 109.63 86.3394 109.69 86.4527 109.81C86.5727 109.923 86.6327 110.063 86.6327 110.23C86.6327 110.403 86.4927 110.62 86.2127 110.88L83.8727 113.07L86.6527 115.92C86.8461 116.12 86.9427 116.317 86.9427 116.51ZM93.1479 116.52C93.1479 116.687 93.0846 116.823 92.9579 116.93C92.8379 117.03 92.6912 117.08 92.5179 117.08C92.2112 117.08 91.9946 116.893 91.8679 116.52L91.4679 115.35H88.5279L88.1079 116.55C87.9812 116.903 87.7779 117.08 87.4979 117.08C87.3246 117.08 87.1779 117.03 87.0579 116.93C86.9446 116.823 86.8879 116.683 86.8879 116.51C86.8879 116.377 86.9079 116.257 86.9479 116.15L89.0779 110.42C89.2779 109.88 89.5946 109.61 90.0279 109.61C90.4746 109.61 90.7879 109.86 90.9679 110.36L93.0679 116.14C93.1212 116.287 93.1479 116.413 93.1479 116.52ZM91.0979 114.23L90.0179 111.05C90.0046 111.07 89.9879 111.103 89.9679 111.15L88.9079 114.23H91.0979ZM98.4858 116.26C98.4858 116.807 98.2724 117.08 97.8458 117.08C97.4191 117.08 97.2058 116.81 97.2058 116.27V113.89H97.1758L94.8758 116.66C94.6424 116.94 94.4191 117.08 94.2058 117.08C94.0458 117.08 93.9058 117.03 93.7858 116.93C93.6658 116.83 93.6058 116.7 93.6058 116.54C93.6058 116.327 93.7191 116.09 93.9458 115.83L95.6158 113.89C94.3291 113.703 93.6858 113.033 93.6858 111.88C93.6858 111.193 93.9324 110.65 94.4258 110.25C94.8791 109.883 95.4591 109.7 96.1658 109.7H97.6858C98.2191 109.7 98.4858 109.977 98.4858 110.53V116.26ZM97.2058 113V110.86H96.1958C95.8424 110.86 95.5591 110.95 95.3458 111.13C95.1124 111.323 94.9958 111.593 94.9958 111.94C94.9958 112.693 95.4158 113.07 96.2558 113.07C96.7491 113.07 97.0658 113.047 97.2058 113ZM9.21234 128.52C9.21234 128.687 9.14901 128.823 9.02234 128.93C8.90234 129.03 8.75568 129.08 8.58234 129.08C8.27568 129.08 8.05901 128.893 7.93234 128.52L7.53234 127.35H4.59234L4.17234 128.55C4.04568 128.903 3.84234 129.08 3.56234 129.08C3.38901 129.08 3.24234 129.03 3.12234 128.93C3.00901 128.823 2.95234 128.683 2.95234 128.51C2.95234 128.377 2.97234 128.257 3.01234 128.15L5.14234 122.42C5.34234 121.88 5.65901 121.61 6.09234 121.61C6.53901 121.61 6.85234 121.86 7.03234 122.36L9.13234 128.14C9.18568 128.287 9.21234 128.413 9.21234 128.52ZM7.16234 126.23L6.08234 123.05C6.06901 123.07 6.05234 123.103 6.03234 123.15L4.97234 126.23H7.16234ZM15.0645 128C15.0645 128.28 14.8745 128.523 14.4945 128.73C14.2145 128.883 13.8978 128.99 13.5445 129.05C13.2778 129.097 13.0178 129.12 12.7645 129.12C11.7245 129.12 10.8911 128.747 10.2645 128C9.67112 127.3 9.37445 126.42 9.37445 125.36C9.37445 124.307 9.67445 123.423 10.2745 122.71C10.9078 121.957 11.7445 121.58 12.7845 121.58C13.7045 121.58 14.3678 121.82 14.7745 122.3C14.8878 122.433 14.9445 122.573 14.9445 122.72C14.9445 122.867 14.8878 122.997 14.7745 123.11C14.6678 123.217 14.5411 123.27 14.3945 123.27C14.3145 123.27 14.2111 123.233 14.0845 123.16C13.8111 123.007 13.5545 122.897 13.3145 122.83C13.1611 122.79 12.9711 122.77 12.7445 122.77C12.1111 122.77 11.6078 123.057 11.2345 123.63C10.9145 124.13 10.7545 124.713 10.7545 125.38C10.7545 126.053 10.9178 126.627 11.2445 127.1C11.6245 127.647 12.1345 127.92 12.7745 127.92C13.0545 127.92 13.2911 127.893 13.4845 127.84C13.6778 127.78 13.8778 127.697 14.0845 127.59C14.2978 127.483 14.4545 127.43 14.5545 127.43C14.7011 127.43 14.8211 127.49 14.9145 127.61C15.0145 127.723 15.0645 127.853 15.0645 128ZM21.207 128C21.207 128.28 21.017 128.523 20.637 128.73C20.357 128.883 20.0404 128.99 19.687 129.05C19.4204 129.097 19.1604 129.12 18.907 129.12C17.867 129.12 17.0337 128.747 16.407 128C15.8137 127.3 15.517 126.42 15.517 125.36C15.517 124.307 15.817 123.423 16.417 122.71C17.0504 121.957 17.887 121.58 18.927 121.58C19.847 121.58 20.5104 121.82 20.917 122.3C21.0304 122.433 21.087 122.573 21.087 122.72C21.087 122.867 21.0304 122.997 20.917 123.11C20.8104 123.217 20.6837 123.27 20.537 123.27C20.457 123.27 20.3537 123.233 20.227 123.16C19.9537 123.007 19.697 122.897 19.457 122.83C19.3037 122.79 19.1137 122.77 18.887 122.77C18.2537 122.77 17.7504 123.057 17.377 123.63C17.057 124.13 16.897 124.713 16.897 125.38C16.897 126.053 17.0604 126.627 17.387 127.1C17.767 127.647 18.277 127.92 18.917 127.92C19.197 127.92 19.4337 127.893 19.627 127.84C19.8204 127.78 20.0204 127.697 20.227 127.59C20.4404 127.483 20.597 127.43 20.697 127.43C20.8437 127.43 20.9637 127.49 21.057 127.61C21.157 127.723 21.207 127.853 21.207 128ZM28.0176 125.36C28.0176 126.413 27.7276 127.287 27.1476 127.98C26.5276 128.713 25.7009 129.08 24.6676 129.08C23.6409 129.08 22.8176 128.71 22.1976 127.97C21.6109 127.277 21.3176 126.407 21.3176 125.36C21.3176 124.3 21.6076 123.427 22.1876 122.74C22.8076 122 23.6342 121.63 24.6676 121.63C25.7076 121.63 26.5376 121.997 27.1576 122.73C27.7309 123.417 28.0176 124.293 28.0176 125.36ZM24.6676 122.8C24.1009 122.8 23.6276 123.017 23.2476 123.45C22.8676 123.883 22.6776 124.52 22.6776 125.36C22.6776 126.053 22.8309 126.633 23.1376 127.1C23.4909 127.64 24.0009 127.91 24.6676 127.91C25.3342 127.91 25.8476 127.64 26.2076 127.1C26.5076 126.64 26.6576 126.06 26.6576 125.36C26.6576 124.513 26.4676 123.877 26.0876 123.45C25.7142 123.017 25.2409 122.8 24.6676 122.8ZM35.4823 129.82C35.4823 130.22 35.2823 130.42 34.8823 130.42C34.7023 130.42 34.5589 130.363 34.4523 130.25C34.3456 130.143 34.2923 130 34.2923 129.82V129H29.7423C29.2356 129 28.9823 128.72 28.9823 128.16V122.45C28.9823 121.903 29.1956 121.63 29.6223 121.63C30.0489 121.63 30.2623 121.907 30.2623 122.46V127.92H33.3823V122.46C33.3823 121.907 33.5956 121.63 34.0223 121.63C34.4489 121.63 34.6623 121.903 34.6623 122.45V127.92C34.9289 127.92 35.1156 127.943 35.2223 127.99C35.3956 128.07 35.4823 128.23 35.4823 128.47V129.82ZM42.1107 128.26C42.1107 128.807 41.8974 129.08 41.4707 129.08C41.044 129.08 40.8307 128.81 40.8307 128.27V123.91L37.4007 128.66C37.2007 128.94 36.9574 129.08 36.6707 129.08C36.2907 129.08 36.1007 128.837 36.1007 128.35V122.46C36.1007 121.907 36.314 121.63 36.7407 121.63C37.1674 121.63 37.3807 121.907 37.3807 122.46V126.81C37.394 126.797 37.4107 126.777 37.4307 126.75L40.8007 122.08C41.014 121.78 41.254 121.63 41.5207 121.63C41.914 121.63 42.1107 121.89 42.1107 122.41V128.26ZM49.0366 128.52C49.0366 128.687 48.9732 128.823 48.8466 128.93C48.7266 129.03 48.5799 129.08 48.4066 129.08C48.0999 129.08 47.8832 128.893 47.7566 128.52L47.3566 127.35H44.4166L43.9966 128.55C43.8699 128.903 43.6666 129.08 43.3866 129.08C43.2132 129.08 43.0666 129.03 42.9466 128.93C42.8332 128.823 42.7766 128.683 42.7766 128.51C42.7766 128.377 42.7966 128.257 42.8366 128.15L44.9666 122.42C45.1666 121.88 45.4832 121.61 45.9166 121.61C46.3632 121.61 46.6766 121.86 46.8566 122.36L48.9566 128.14C49.0099 128.287 49.0366 128.413 49.0366 128.52ZM46.9866 126.23L45.9066 123.05C45.8932 123.07 45.8766 123.103 45.8566 123.15L44.7966 126.23H46.9866ZM56.2245 129.82C56.2245 130.22 56.0245 130.42 55.6245 130.42C55.4445 130.42 55.3011 130.363 55.1945 130.25C55.0878 130.143 55.0345 130 55.0345 129.82V129H50.4845C49.9778 129 49.7245 128.72 49.7245 128.16V122.45C49.7245 121.903 49.9378 121.63 50.3645 121.63C50.7911 121.63 51.0045 121.907 51.0045 122.46V127.92H54.1245V122.46C54.1245 121.907 54.3378 121.63 54.7645 121.63C55.1911 121.63 55.4045 121.903 55.4045 122.45V127.92C55.6711 127.92 55.8578 127.943 55.9645 127.99C56.1378 128.07 56.2245 128.23 56.2245 128.47V129.82ZM62.8529 128.26C62.8529 128.807 62.6396 129.08 62.2129 129.08C61.7862 129.08 61.5729 128.81 61.5729 128.27V123.91L58.1429 128.66C57.9429 128.94 57.6996 129.08 57.4129 129.08C57.0329 129.08 56.8429 128.837 56.8429 128.35V122.46C56.8429 121.907 57.0562 121.63 57.4829 121.63C57.9096 121.63 58.1229 121.907 58.1229 122.46V126.81C58.1362 126.797 58.1529 126.777 58.1729 126.75L61.5429 122.08C61.7562 121.78 61.9962 121.63 62.2629 121.63C62.6562 121.63 62.8529 121.89 62.8529 122.41V128.26ZM68.7788 128.26C68.7788 128.807 68.5654 129.08 68.1388 129.08C67.7121 129.08 67.4988 128.81 67.4988 128.27V125.89H67.4688L65.1688 128.66C64.9354 128.94 64.7121 129.08 64.4988 129.08C64.3388 129.08 64.1988 129.03 64.0788 128.93C63.9588 128.83 63.8988 128.7 63.8988 128.54C63.8988 128.327 64.0121 128.09 64.2388 127.83L65.9088 125.89C64.6221 125.703 63.9788 125.033 63.9788 123.88C63.9788 123.193 64.2254 122.65 64.7188 122.25C65.1721 121.883 65.7521 121.7 66.4588 121.7H67.9788C68.5121 121.7 68.7788 121.977 68.7788 122.53V128.26ZM67.4988 125V122.86H66.4888C66.1354 122.86 65.8521 122.95 65.6388 123.13C65.4054 123.323 65.2888 123.593 65.2888 123.94C65.2888 124.693 65.7088 125.07 66.5488 125.07C67.0421 125.07 67.3588 125.047 67.4988 125ZM77.8695 122.2C77.8695 122.327 77.8428 122.453 77.7895 122.58L75.0095 129.25C74.8695 129.583 74.6595 129.75 74.3795 129.75C74.2061 129.75 74.0695 129.693 73.9695 129.58C73.8695 129.473 73.8195 129.333 73.8195 129.16C73.8195 129.04 73.8528 128.9 73.9195 128.74L74.4895 127.39L72.3295 122.61C72.2695 122.477 72.2395 122.353 72.2395 122.24C72.2395 122.067 72.2928 121.92 72.3995 121.8C72.5061 121.68 72.6461 121.62 72.8195 121.62C73.0661 121.62 73.2661 121.787 73.4195 122.12L75.1295 125.84H75.1495L76.6595 122.16C76.8061 121.8 77.0128 121.62 77.2795 121.62C77.6728 121.62 77.8695 121.813 77.8695 122.2ZM83.0342 128.26C83.0342 128.807 82.8209 129.08 82.3942 129.08C81.9676 129.08 81.7542 128.81 81.7542 128.27V126.32C81.5009 126.38 81.0876 126.41 80.5142 126.41C79.7742 126.41 79.2009 126.203 78.7942 125.79C78.3942 125.37 78.1942 124.787 78.1942 124.04V122.45C78.1942 121.903 78.4076 121.63 78.8342 121.63C79.2609 121.63 79.4742 121.903 79.4742 122.45V124.03C79.4742 124.47 79.5609 124.79 79.7342 124.99C79.9142 125.183 80.2209 125.28 80.6542 125.28C81.1809 125.28 81.5476 125.25 81.7542 125.19V122.45C81.7542 121.903 81.9676 121.63 82.3942 121.63C82.8209 121.63 83.0342 121.903 83.0342 122.45V128.26ZM89.4077 128.52C89.4077 128.687 89.3443 128.823 89.2177 128.93C89.0977 129.03 88.951 129.08 88.7777 129.08C88.471 129.08 88.2543 128.893 88.1277 128.52L87.7277 127.35H84.7877L84.3677 128.55C84.241 128.903 84.0377 129.08 83.7577 129.08C83.5843 129.08 83.4377 129.03 83.3177 128.93C83.2043 128.823 83.1477 128.683 83.1477 128.51C83.1477 128.377 83.1677 128.257 83.2077 128.15L85.3377 122.42C85.5377 121.88 85.8543 121.61 86.2877 121.61C86.7343 121.61 87.0477 121.86 87.2277 122.36L89.3277 128.14C89.381 128.287 89.4077 128.413 89.4077 128.52ZM87.3577 126.23L86.2777 123.05C86.2643 123.07 86.2477 123.103 86.2277 123.15L85.1677 126.23H87.3577ZM95.2598 128C95.2598 128.28 95.0698 128.523 94.6898 128.73C94.4098 128.883 94.0931 128.99 93.7398 129.05C93.4731 129.097 93.2131 129.12 92.9598 129.12C91.9198 129.12 91.0864 128.747 90.4598 128C89.8664 127.3 89.5698 126.42 89.5698 125.36C89.5698 124.307 89.8698 123.423 90.4698 122.71C91.1031 121.957 91.9398 121.58 92.9798 121.58C93.8998 121.58 94.5631 121.82 94.9698 122.3C95.0831 122.433 95.1398 122.573 95.1398 122.72C95.1398 122.867 95.0831 122.997 94.9698 123.11C94.8631 123.217 94.7364 123.27 94.5898 123.27C94.5098 123.27 94.4064 123.233 94.2798 123.16C94.0064 123.007 93.7498 122.897 93.5098 122.83C93.3564 122.79 93.1664 122.77 92.9398 122.77C92.3064 122.77 91.8031 123.057 91.4298 123.63C91.1098 124.13 90.9498 124.713 90.9498 125.38C90.9498 126.053 91.1131 126.627 91.4398 127.1C91.8198 127.647 92.3298 127.92 92.9698 127.92C93.2498 127.92 93.4864 127.893 93.6798 127.84C93.8731 127.78 94.0731 127.697 94.2798 127.59C94.4931 127.483 94.6498 127.43 94.7498 127.43C94.8964 127.43 95.0164 127.49 95.1098 127.61C95.2098 127.723 95.2598 127.853 95.2598 128ZM100.165 122.29C100.165 122.677 99.9016 122.87 99.3749 122.87H98.3549V128.26C98.3549 128.807 98.1416 129.08 97.7149 129.08C97.2883 129.08 97.0749 128.807 97.0749 128.26V122.87H96.0649C95.5316 122.87 95.2649 122.677 95.2649 122.29C95.2649 121.897 95.5349 121.7 96.0749 121.7H99.3549C99.8949 121.7 100.165 121.897 100.165 122.29ZM102.049 124.63H105.159V122.48C105.159 121.913 105.372 121.63 105.799 121.63C106.225 121.63 106.439 121.913 106.439 122.48V128.24C106.439 128.8 106.225 129.08 105.799 129.08C105.372 129.08 105.159 128.8 105.159 128.24V125.79H102.049V128.24C102.049 128.8 101.832 129.08 101.399 129.08C100.979 129.08 100.769 128.8 100.769 128.24V122.48C100.769 121.913 100.979 121.63 101.399 121.63C101.832 121.63 102.049 121.913 102.049 122.48V124.63ZM113.712 128.26C113.712 128.807 113.499 129.08 113.072 129.08C112.646 129.08 112.432 128.81 112.432 128.27V123.91L109.002 128.66C108.802 128.94 108.559 129.08 108.272 129.08C107.892 129.08 107.702 128.837 107.702 128.35V122.46C107.702 121.907 107.916 121.63 108.342 121.63C108.769 121.63 108.982 121.907 108.982 122.46V126.81C108.996 126.797 109.012 126.777 109.032 126.75L112.402 122.08C112.616 121.78 112.856 121.63 113.122 121.63C113.516 121.63 113.712 121.89 113.712 122.41V128.26ZM120.468 128.51C120.468 128.677 120.408 128.817 120.288 128.93C120.168 129.037 120.025 129.09 119.858 129.09C119.658 129.09 119.431 128.957 119.178 128.69L116.718 126.07L116.238 125.86V128.26C116.238 128.807 116.021 129.08 115.588 129.08C115.168 129.08 114.958 128.807 114.958 128.26V122.46C114.958 121.907 115.168 121.63 115.588 121.63C116.021 121.63 116.238 121.903 116.238 122.45V124.58L118.908 122.01C119.168 121.757 119.385 121.63 119.558 121.63C119.725 121.63 119.865 121.69 119.978 121.81C120.098 121.923 120.158 122.063 120.158 122.23C120.158 122.403 120.018 122.62 119.738 122.88L117.398 125.07L120.178 127.92C120.371 128.12 120.468 128.317 120.468 128.51ZM126.885 125.36C126.885 126.413 126.595 127.287 126.015 127.98C125.395 128.713 124.568 129.08 123.535 129.08C122.508 129.08 121.685 128.71 121.065 127.97C120.478 127.277 120.185 126.407 120.185 125.36C120.185 124.3 120.475 123.427 121.055 122.74C121.675 122 122.501 121.63 123.535 121.63C124.575 121.63 125.405 121.997 126.025 122.73C126.598 123.417 126.885 124.293 126.885 125.36ZM123.535 122.8C122.968 122.8 122.495 123.017 122.115 123.45C121.735 123.883 121.545 124.52 121.545 125.36C121.545 126.053 121.698 126.633 122.005 127.1C122.358 127.64 122.868 127.91 123.535 127.91C124.201 127.91 124.715 127.64 125.075 127.1C125.375 126.64 125.525 126.06 125.525 125.36C125.525 124.513 125.335 123.877 124.955 123.45C124.581 123.017 124.108 122.8 123.535 122.8ZM132.799 126.85C132.799 127.53 132.556 128.067 132.069 128.46C131.616 128.82 131.043 129 130.349 129H128.629C128.343 129 128.136 128.943 128.009 128.83C127.883 128.717 127.819 128.52 127.819 128.24V122.53C127.819 121.977 128.086 121.7 128.619 121.7H130.119C130.706 121.7 131.209 121.847 131.629 122.14C132.109 122.467 132.349 122.91 132.349 123.47C132.349 124.29 132.036 124.83 131.409 125.09V125.11C132.336 125.343 132.799 125.923 132.799 126.85ZM131.059 123.73C131.059 123.423 130.963 123.193 130.769 123.04C130.583 122.88 130.336 122.8 130.029 122.8H129.099V124.67H129.979C130.699 124.67 131.059 124.357 131.059 123.73ZM131.479 126.82C131.479 126.067 131.036 125.69 130.149 125.69H129.099V127.9H130.109C131.023 127.9 131.479 127.54 131.479 126.82ZM18.7485 140.52C18.7485 140.687 18.6851 140.823 18.5585 140.93C18.4385 141.03 18.2918 141.08 18.1185 141.08C17.8118 141.08 17.5951 140.893 17.4685 140.52L17.0685 139.35H14.1285L13.7085 140.55C13.5818 140.903 13.3785 141.08 13.0985 141.08C12.9251 141.08 12.7785 141.03 12.6585 140.93C12.5451 140.823 12.4885 140.683 12.4885 140.51C12.4885 140.377 12.5085 140.257 12.5485 140.15L14.6785 134.42C14.8785 133.88 15.1951 133.61 15.6285 133.61C16.0751 133.61 16.3885 133.86 16.5685 134.36L18.6685 140.14C18.7218 140.287 18.7485 140.413 18.7485 140.52ZM16.6985 138.23L15.6185 135.05C15.6051 135.07 15.5885 135.103 15.5685 135.15L14.5085 138.23H16.6985ZM25.0564 140.26C25.0564 140.807 24.843 141.08 24.4164 141.08C23.9897 141.08 23.7764 140.803 23.7764 140.25V134.78H21.7864C21.513 134.78 21.3764 134.93 21.3764 135.23V139.58C21.3764 140.58 20.873 141.08 19.8664 141.08C19.2464 141.08 18.9364 140.887 18.9364 140.5C18.9364 140.187 19.0464 140.01 19.2664 139.97C19.4664 139.957 19.6697 139.94 19.8764 139.92C20.0964 139.86 20.2064 139.65 20.2064 139.29V135.18C20.2064 134.627 20.3197 134.237 20.5464 134.01C20.7797 133.777 21.173 133.66 21.7264 133.66H24.4464C24.853 133.66 25.0564 133.94 25.0564 134.5V140.26ZM31.85 140.51C31.85 140.677 31.79 140.817 31.67 140.93C31.55 141.037 31.4066 141.09 31.24 141.09C31.04 141.09 30.8133 140.957 30.56 140.69L28.1 138.07L27.62 137.86V140.26C27.62 140.807 27.4033 141.08 26.97 141.08C26.55 141.08 26.34 140.807 26.34 140.26V134.46C26.34 133.907 26.55 133.63 26.97 133.63C27.4033 133.63 27.62 133.903 27.62 134.45V136.58L30.29 134.01C30.55 133.757 30.7666 133.63 30.94 133.63C31.1066 133.63 31.2466 133.69 31.36 133.81C31.48 133.923 31.54 134.063 31.54 134.23C31.54 134.403 31.4 134.62 31.12 134.88L28.78 137.07L31.56 139.92C31.7533 140.12 31.85 140.317 31.85 140.51ZM38.2666 137.36C38.2666 138.413 37.9766 139.287 37.3966 139.98C36.7766 140.713 35.9499 141.08 34.9166 141.08C33.8899 141.08 33.0666 140.71 32.4466 139.97C31.8599 139.277 31.5666 138.407 31.5666 137.36C31.5666 136.3 31.8566 135.427 32.4366 134.74C33.0566 134 33.8833 133.63 34.9166 133.63C35.9566 133.63 36.7866 133.997 37.4066 134.73C37.9799 135.417 38.2666 136.293 38.2666 137.36ZM34.9166 134.8C34.3499 134.8 33.8766 135.017 33.4966 135.45C33.1166 135.883 32.9266 136.52 32.9266 137.36C32.9266 138.053 33.0799 138.633 33.3866 139.1C33.7399 139.64 34.2499 139.91 34.9166 139.91C35.5833 139.91 36.0966 139.64 36.4566 139.1C36.7566 138.64 36.9066 138.06 36.9066 137.36C36.9066 136.513 36.7166 135.877 36.3366 135.45C35.9633 135.017 35.4899 134.8 34.9166 134.8ZM42.9613 134.29C42.9613 134.677 42.6946 134.87 42.1613 134.87H40.4813V140.25C40.4813 140.803 40.2646 141.08 39.8313 141.08C39.4113 141.08 39.2013 140.807 39.2013 140.26V134.54C39.2013 133.98 39.4546 133.7 39.9613 133.7H42.1613C42.6946 133.7 42.9613 133.897 42.9613 134.29ZM49.4092 137.36C49.4092 138.413 49.1192 139.287 48.5392 139.98C47.9192 140.713 47.0925 141.08 46.0592 141.08C45.0325 141.08 44.2092 140.71 43.5892 139.97C43.0025 139.277 42.7092 138.407 42.7092 137.36C42.7092 136.3 42.9992 135.427 43.5792 134.74C44.1992 134 45.0258 133.63 46.0592 133.63C47.0992 133.63 47.9292 133.997 48.5492 134.73C49.1225 135.417 49.4092 136.293 49.4092 137.36ZM46.0592 134.8C45.4925 134.8 45.0192 135.017 44.6392 135.45C44.2592 135.883 44.0692 136.52 44.0692 137.36C44.0692 138.053 44.2225 138.633 44.5292 139.1C44.8825 139.64 45.3925 139.91 46.0592 139.91C46.7258 139.91 47.2392 139.64 47.5992 139.1C47.8992 138.64 48.0492 138.06 48.0492 137.36C48.0492 136.513 47.8592 135.877 47.4792 135.45C47.1058 135.017 46.6325 134.8 46.0592 134.8ZM55.6618 140.26C55.6618 140.807 55.4485 141.08 55.0218 141.08C54.5952 141.08 54.3818 140.803 54.3818 140.25V134.78H52.3918C52.1185 134.78 51.9818 134.93 51.9818 135.23V139.58C51.9818 140.58 51.4785 141.08 50.4718 141.08C49.8518 141.08 49.5418 140.887 49.5418 140.5C49.5418 140.187 49.6518 140.01 49.8718 139.97C50.0718 139.957 50.2752 139.94 50.4818 139.92C50.7018 139.86 50.8118 139.65 50.8118 139.29V135.18C50.8118 134.627 50.9252 134.237 51.1518 134.01C51.3852 133.777 51.7785 133.66 52.3318 133.66H55.0518C55.4585 133.66 55.6618 133.94 55.6618 134.5V140.26ZM61.8554 138.67C61.8554 139.41 61.6154 139.987 61.1354 140.4C60.6821 140.8 60.0821 141 59.3354 141H57.7354C57.2088 141 56.9454 140.727 56.9454 140.18V134.48C56.9454 133.913 57.1588 133.63 57.5854 133.63C58.0121 133.63 58.2254 133.913 58.2254 134.48V136.33H59.4654C60.1721 136.33 60.7454 136.543 61.1854 136.97C61.6321 137.397 61.8554 137.963 61.8554 138.67ZM59.1654 137.48H58.2254V139.85H59.1854C60.0654 139.85 60.5054 139.457 60.5054 138.67C60.5054 137.877 60.0588 137.48 59.1654 137.48ZM64.036 136.63H67.146V134.48C67.146 133.913 67.3593 133.63 67.786 133.63C68.2126 133.63 68.426 133.913 68.426 134.48V140.24C68.426 140.8 68.2126 141.08 67.786 141.08C67.3593 141.08 67.146 140.8 67.146 140.24V137.79H64.036V140.24C64.036 140.8 63.8193 141.08 63.386 141.08C62.966 141.08 62.756 140.8 62.756 140.24V134.48C62.756 133.913 62.966 133.63 63.386 133.63C63.8193 133.63 64.036 133.913 64.036 134.48V136.63ZM76.0596 137.36C76.0596 138.413 75.7696 139.287 75.1896 139.98C74.5696 140.713 73.7429 141.08 72.7096 141.08C71.6829 141.08 70.8596 140.71 70.2396 139.97C69.6529 139.277 69.3596 138.407 69.3596 137.36C69.3596 136.3 69.6496 135.427 70.2296 134.74C70.8496 134 71.6762 133.63 72.7096 133.63C73.7496 133.63 74.5796 133.997 75.1996 134.73C75.7729 135.417 76.0596 136.293 76.0596 137.36ZM72.7096 134.8C72.1429 134.8 71.6696 135.017 71.2896 135.45C70.9096 135.883 70.7196 136.52 70.7196 137.36C70.7196 138.053 70.8729 138.633 71.1796 139.1C71.5329 139.64 72.0429 139.91 72.7096 139.91C73.3762 139.91 73.8896 139.64 74.2496 139.1C74.5496 138.64 74.6996 138.06 74.6996 137.36C74.6996 136.513 74.5096 135.877 74.1296 135.45C73.7562 135.017 73.2829 134.8 72.7096 134.8ZM80.7543 134.29C80.7543 134.677 80.4876 134.87 79.9543 134.87H78.2743V140.25C78.2743 140.803 78.0576 141.08 77.6243 141.08C77.2043 141.08 76.9943 140.807 76.9943 140.26V134.54C76.9943 133.98 77.2476 133.7 77.7543 133.7H79.9543C80.4876 133.7 80.7543 133.897 80.7543 134.29ZM87.2021 137.36C87.2021 138.413 86.9121 139.287 86.3321 139.98C85.7121 140.713 84.8855 141.08 83.8521 141.08C82.8255 141.08 82.0021 140.71 81.3821 139.97C80.7955 139.277 80.5021 138.407 80.5021 137.36C80.5021 136.3 80.7921 135.427 81.3721 134.74C81.9921 134 82.8188 133.63 83.8521 133.63C84.8921 133.63 85.7221 133.997 86.3421 134.73C86.9155 135.417 87.2021 136.293 87.2021 137.36ZM83.8521 134.8C83.2855 134.8 82.8121 135.017 82.4321 135.45C82.0521 135.883 81.8621 136.52 81.8621 137.36C81.8621 138.053 82.0155 138.633 82.3221 139.1C82.6755 139.64 83.1855 139.91 83.8521 139.91C84.5188 139.91 85.0321 139.64 85.3921 139.1C85.6921 138.64 85.8421 138.06 85.8421 137.36C85.8421 136.513 85.6521 135.877 85.2721 135.45C84.8988 135.017 84.4255 134.8 83.8521 134.8ZM96.1049 136.08C96.1049 136.58 95.9882 137.023 95.7549 137.41C95.5082 137.817 95.1582 138.11 94.7049 138.29C94.4115 138.41 94.0815 138.47 93.7149 138.47H92.4149V140.27C92.4149 140.81 92.1982 141.08 91.7649 141.08C91.3449 141.08 91.1349 140.807 91.1349 140.26V134.53C91.1349 133.977 91.3982 133.7 91.9249 133.7H93.5849C94.3382 133.7 94.9449 133.91 95.4049 134.33C95.8715 134.75 96.1049 135.333 96.1049 136.08ZM94.7549 136.07C94.7549 135.263 94.3149 134.86 93.4349 134.86H92.4149V137.33H93.4149C93.8149 137.33 94.1382 137.22 94.3849 137C94.6315 136.78 94.7549 136.47 94.7549 136.07ZM103.636 140.24C103.636 140.8 103.423 141.08 102.996 141.08C102.569 141.08 102.356 140.803 102.356 140.25V134.46C102.356 133.907 102.569 133.63 102.996 133.63C103.423 133.63 103.636 133.907 103.636 134.46V140.24ZM101.546 138.67C101.546 139.403 101.313 139.977 100.846 140.39C100.386 140.797 99.7828 141 99.0361 141H97.7061C97.1795 141 96.9161 140.727 96.9161 140.18V134.48C96.9161 133.913 97.1295 133.63 97.5561 133.63C97.9828 133.63 98.1961 133.913 98.1961 134.48V136.33H99.1561C99.8628 136.33 100.436 136.543 100.876 136.97C101.323 137.397 101.546 137.963 101.546 138.67ZM98.8861 137.48H98.1961V139.85H98.9061C99.7861 139.85 100.226 139.457 100.226 138.67C100.226 137.877 99.7795 137.48 98.8861 137.48ZM106.165 136.63H109.275V134.48C109.275 133.913 109.488 133.63 109.915 133.63C110.342 133.63 110.555 133.913 110.555 134.48V140.24C110.555 140.8 110.342 141.08 109.915 141.08C109.488 141.08 109.275 140.8 109.275 140.24V137.79H106.165V140.24C106.165 140.8 105.948 141.08 105.515 141.08C105.095 141.08 104.885 140.8 104.885 140.24V134.48C104.885 133.913 105.095 133.63 105.515 133.63C105.948 133.63 106.165 133.913 106.165 134.48V136.63ZM117.328 140.51C117.328 140.677 117.268 140.817 117.148 140.93C117.028 141.037 116.885 141.09 116.718 141.09C116.518 141.09 116.292 140.957 116.038 140.69L113.578 138.07L113.098 137.86V140.26C113.098 140.807 112.882 141.08 112.448 141.08C112.028 141.08 111.818 140.807 111.818 140.26V134.46C111.818 133.907 112.028 133.63 112.448 133.63C112.882 133.63 113.098 133.903 113.098 134.45V136.58L115.768 134.01C116.028 133.757 116.245 133.63 116.418 133.63C116.585 133.63 116.725 133.69 116.838 133.81C116.958 133.923 117.018 134.063 117.018 134.23C117.018 134.403 116.878 134.62 116.598 134.88L114.258 137.07L117.038 139.92C117.232 140.12 117.328 140.317 117.328 140.51ZM123.534 140.52C123.534 140.687 123.47 140.823 123.344 140.93C123.224 141.03 123.077 141.08 122.904 141.08C122.597 141.08 122.38 140.893 122.254 140.52L121.854 139.35H118.914L118.494 140.55C118.367 140.903 118.164 141.08 117.884 141.08C117.71 141.08 117.564 141.03 117.444 140.93C117.33 140.823 117.274 140.683 117.274 140.51C117.274 140.377 117.294 140.257 117.334 140.15L119.464 134.42C119.664 133.88 119.98 133.61 120.414 133.61C120.86 133.61 121.174 133.86 121.354 134.36L123.454 140.14C123.507 140.287 123.534 140.413 123.534 140.52ZM121.484 138.23L120.404 135.05C120.39 135.07 120.374 135.103 120.354 135.15L119.294 138.23H121.484Z" fill="white"/>
</svg>
