<svg width="100" height="100" viewBox="0 0 100 100" fill="none" xmlns="http://www.w3.org/2000/svg">
<path d="M99.0204 84.5788L79.1182 64.6778L93.3168 56.4768C93.8606 56.1628 94.3049 55.702 94.599 55.1473C94.893 54.5926 95.0249 53.9663 94.9796 53.3401C94.9347 52.7138 94.7142 52.1129 94.3435 51.6061C93.9727 51.0993 93.4667 50.7072 92.8835 50.4747L29.5673 25.2205C28.9599 24.978 28.2948 24.9189 27.6542 25.0506C27.0135 25.1822 26.4256 25.4988 25.9631 25.9612C25.5006 26.4236 25.1839 27.0114 25.0521 27.652C24.9204 28.2925 24.9794 28.9576 25.2218 29.565L50.4746 92.8825C50.7073 93.4657 51.0995 93.9715 51.6063 94.3423C52.1131 94.713 52.714 94.9336 53.3403 94.9788C53.9666 95.024 54.593 94.892 55.1478 94.5979C55.7026 94.3038 56.1634 93.8595 56.4775 93.3158L64.6779 79.1185L84.5793 99.0199C84.8898 99.3306 85.2584 99.5771 85.6641 99.7453C86.0699 99.9134 86.5048 100 86.944 100C87.3833 100 87.8182 99.9134 88.2239 99.7453C88.6297 99.5771 88.9983 99.3306 89.3087 99.0199L99.0204 89.3081C100.327 88.002 100.327 85.8848 99.0204 84.5788ZM86.9442 91.9266L66.3265 71.3087C65.9638 70.946 65.5225 70.6715 65.0368 70.5066C64.551 70.3417 64.0339 70.2907 63.5252 70.3576C63.0166 70.4245 62.5303 70.6076 62.1037 70.8925C61.6772 71.1775 61.3219 71.5568 61.0654 72.001L54.1342 84.0017L34.3179 34.3168L84.0022 54.134L71.9994 61.066C71.5551 61.3224 71.1757 61.6776 70.8907 62.1041C70.6057 62.5306 70.4226 63.017 70.3557 63.5255C70.2887 64.0341 70.3397 64.5513 70.5047 65.037C70.6697 65.5227 70.9442 65.964 71.3071 66.3266L91.9258 86.9444L86.9442 91.9266ZM14.6808 9.95017C13.3743 8.64512 11.2576 8.64512 9.95039 9.95017C8.64421 11.2566 8.64421 13.3737 9.95039 14.6801L17.3817 22.1108C17.692 22.4217 18.0607 22.6683 18.4666 22.8364C18.8725 23.0044 19.3076 23.0907 19.7469 23.0902C20.1862 23.0906 20.6212 23.0043 21.027 22.8362C21.4328 22.6682 21.8014 22.4216 22.1118 22.1108C23.4176 20.8047 23.4176 18.6872 22.1118 17.3811L14.6808 9.95017ZM17.1989 33.069C17.1989 31.2222 15.7011 29.7252 13.8541 29.7252H3.34475C1.49811 29.7252 0 31.2219 0 33.069C0 34.9155 1.49778 36.4131 3.34475 36.4131H13.8541C15.7011 36.4128 17.1989 34.9155 17.1989 33.069ZM15.8432 43.3906L8.4112 50.8219C7.10468 52.1273 7.10468 54.2448 8.4112 55.5508C8.72138 55.8619 9.08999 56.1085 9.49584 56.2766C9.90169 56.4447 10.3368 56.5309 10.7761 56.5303C11.6317 56.5303 12.4873 56.2037 13.1402 55.5508L20.5726 48.1199C21.8787 46.8141 21.8787 44.6963 20.5726 43.3906C19.2671 42.0848 17.1497 42.0848 15.8432 43.3906ZM33.07 17.198C34.9166 17.198 36.4144 15.7003 36.4144 13.8535V3.34411C36.4144 1.49764 34.917 0 33.07 0C31.223 0 29.7259 1.49731 29.7259 3.34411V13.8539C29.7259 15.7003 31.2227 17.198 33.07 17.198ZM45.755 21.5505C46.1943 21.5513 46.6294 21.4652 47.0354 21.2971C47.4413 21.1291 47.8099 20.8824 48.1202 20.5714L55.5511 13.1407C56.8577 11.8347 56.8577 9.71717 55.5511 8.41145C54.2453 7.10539 52.1269 7.10539 50.8218 8.41145L43.3904 15.8421C42.0843 17.1478 42.0843 19.2657 43.3904 20.5714C43.7006 20.8823 44.0692 21.1289 44.4749 21.297C44.8807 21.465 45.3158 21.5512 45.755 21.5505Z" fill="#646464"/>
</svg>
