<svg width="135" height="146" viewBox="0 0 135 146" fill="none" xmlns="http://www.w3.org/2000/svg">
<path fill-rule="evenodd" clip-rule="evenodd" d="M1.59208 41.9739L3.12551 40.4183L4.72155 39.68L7.17818 40.2864L6.56793 37.4125L9.85388 33.5365L12.3731 34.5385L12.6078 32.9301L18.3191 33.563L19.4144 28.5269L23.2324 28.3951L26.3931 30.1617L25.9237 27.8413L26.3305 25.4683L25.9707 23.6491L37.2837 25.0993L36.5013 31.0317L37.581 32.1918L38.0974 34.1694L39.9751 34.1957L41.618 37.1224L41.571 42.4484L51.4132 41.0247L52.4616 38.8626L54.4175 38.3353L59.0178 37.5179L60.3009 36.5423L61.0676 34.4594L61.7561 30.5571L64.2753 28.7378L64.3692 26.6284L62.8358 24.3609L63.0705 22.7789L64.7134 23.1744L66.2938 25.442L68.3749 25.4683L69.6737 23.3062L71.7078 21.856L73.8515 20.2741L75.2285 17.1892L77.5599 15.6072L77.8103 12.5223L83.2399 8.2245L80.6268 4.26951L81.5657 1L84.7421 1.36914L90.3125 9.41098L87.5116 14.1833L85.6027 15.5808L85.5713 20.8278L85.7591 24.7828L91.3452 30.1616L93.129 29.3178L95.3666 31.5854H95.3979L96.3055 33.0355L99.122 32.6664L99.9982 30.2934L102.455 31.9545L101.939 34.3275L104.442 33.6947L104.849 31.8226L109.903 32.0072L110.701 34.9603L112.36 37.3597L118.368 39.9436L115.552 50.6485L115.599 53.2852L114.816 55.1572L116.115 57.3456L114.957 58.9276L115.161 61.0106L115.865 63.99L119.135 63.2518L122.092 61.9598L124.768 65.4929L127.084 67.0749L128.555 68.3932L130.401 68.446L132.404 68.6306L132.279 71.5572L121.623 74.9585L116.897 77.3579L120.449 81.0493L129.055 99.9278L127.569 101.721L128.445 103.25L127.068 107.891L127.913 109.13L130.542 110.184L131.309 111.925L134 114.878L125.159 115.669L122.39 111.925L118.759 115.326L119.98 118.859L115.567 119.597L115.067 123.763L104.051 130.144L101.156 127.191L96.5402 129.696L94.4904 125.846L95.2102 125.319L93.1604 120.415L92.112 120.705L82.5202 128.219L69.5172 126.453L69.3607 124.871L69.0791 121.944L67.1858 119.914L66.7007 116.143L58.0634 115.642L54.2767 122.946L54.3705 130.566L50.3022 130.408L49.2226 129.617L45.1856 128.878L40.7573 131.199L38.1286 126.321L34.1072 126.558L31.5567 129.538L28.5242 134.89L28.8998 135.18L29.51 135.918L28.2426 138.344L27.9922 139.531L27.5854 140.796L28.1487 141.06L29.8371 142.695L29.5397 144.25L28.8043 144.646L28.1784 144.684L27.6464 144.183L26.7389 145L25.4558 144.314L25.1272 144.71L24.5326 144.367L23.9536 144.216L24.0968 144.611L23.424 144.084L22.4695 143.583L22.6222 143.161L22.4188 142.871L23.5141 141.843L23.9522 141.21L22.364 140.05L21.5817 139.443L20.9088 138.784L21.0143 138.645L21.2177 138.275L20.9673 138.159L21.3742 137.632L21.4836 137.585L21.7496 137.269L22.0782 136.899L22.3442 136.53L22.3668 136.546L22.4212 136.444L22.609 136.53L22.828 136.698L23.5791 135.512L23.5317 135.432L23.6367 135.323L23.7667 135.432L24.2049 134.852L24.4396 134.642L25.0655 134.194L25.1127 134.038L24.3772 132.588L23.235 126.418L12.4383 124.546L12.5321 120.38L10.4667 119.457L11.0613 115.028L13.1424 115.634L16.5692 110.756L14.2221 108.99L16.444 106.696L17.242 101.818L8.63595 96.3338L9.24619 93.9608L11.8593 88.4502L14.4724 83.2559L17.4141 82.0958L14.5194 81.0939L12.3444 81.7267L10.5449 79.1691L5.35 76.0578L6.75827 70.7845L10.7796 71.4173L15.1766 65.1948L13.8622 56.3092L8.80807 54.9909L8.76109 47.1072L7.32154 46.369L7.80661 44.5233L8.91757 44.1805L7.65014 42.493L5.11526 43.3632L4.88054 47.0545L2.23613 44.6288L1 43.6532L1.59461 41.9658" fill="#646464"/>
<path d="M1.59208 41.9739L3.12551 40.4183L4.72155 39.68L7.17818 40.2864L6.56793 37.4125L9.85388 33.5365L12.3731 34.5385L12.6078 32.9301L18.3191 33.563L19.4144 28.5269L23.2324 28.3951L26.3931 30.1617L25.9237 27.8413L26.3305 25.4683L25.9707 23.6491L37.2837 25.0993L36.5013 31.0317L37.581 32.1918L38.0974 34.1694L39.9751 34.1957L41.618 37.1224L41.571 42.4484L51.4132 41.0247L52.4616 38.8626L54.4175 38.3353L59.0178 37.5179L60.3009 36.5423L61.0676 34.4594L61.7561 30.5571L64.2753 28.7378L64.3692 26.6284L62.8358 24.3609L63.0705 22.7789L64.7134 23.1744L66.2938 25.442L68.3749 25.4683L69.6737 23.3062L71.7078 21.856L73.8515 20.2741L75.2285 17.1892L77.5599 15.6072L77.8103 12.5223L83.2399 8.2245L80.6268 4.26951L81.5656 1L84.7421 1.36914L90.3125 9.41098L87.5116 14.1833L85.6027 15.5808L85.5713 20.8278L85.7591 24.7828L91.3452 30.1616L93.129 29.3178L95.3666 31.5854H95.3979L96.3055 33.0355L99.122 32.6664L99.9982 30.2934L102.455 31.9545L101.939 34.3275L104.442 33.6947L104.849 31.8226L109.903 32.0072L110.701 34.9603L112.36 37.3597L118.368 39.9436L115.552 50.6485L115.599 53.2852L114.816 55.1572L116.115 57.3456L114.957 58.9276L115.161 61.0106L115.865 63.99L119.135 63.2518L122.092 61.9598L124.768 65.4929L127.084 67.0749L128.555 68.3932L130.401 68.446L132.404 68.6306L132.279 71.5572L121.623 74.9585L116.897 77.3579L120.449 81.0493L129.055 99.9278L127.569 101.721L128.445 103.25L127.068 107.891L127.913 109.13L130.542 110.184L131.309 111.925L134 114.878L125.159 115.669L122.39 111.925L118.759 115.326L119.98 118.859L115.567 119.597L115.067 123.763L104.051 130.144L101.156 127.191L96.5402 129.696L94.4904 125.846L95.2102 125.319L93.1604 120.415L92.112 120.705L82.5202 128.219L69.5172 126.453L69.3607 124.871L69.0791 121.944L67.1858 119.914L66.7007 116.143L58.0634 115.642L54.2767 122.946L54.3705 130.566L50.3022 130.408L49.2226 129.617L45.1856 128.878L40.7573 131.199L38.1286 126.321L34.1072 126.558L31.5567 129.538L28.5242 134.89L28.8998 135.18L29.51 135.918L28.2426 138.344L27.9922 139.531L27.5854 140.796L28.1487 141.06L29.8371 142.695L29.5397 144.25L28.8043 144.646L28.1784 144.684L27.6464 144.183L26.7389 145L25.4558 144.314L25.1272 144.71L24.5326 144.367L23.9536 144.216L24.0968 144.611L23.424 144.084L22.4695 143.583L22.6222 143.161L22.4188 142.871L23.5141 141.843L23.9522 141.21L22.364 140.05L21.5817 139.443L20.9088 138.784L21.0143 138.645L21.2177 138.275L20.9673 138.159L21.3742 137.632L21.4836 137.585L21.7496 137.269L22.0782 136.899L22.3442 136.53L22.3668 136.546L22.4212 136.444L22.609 136.53L22.828 136.698L23.5791 135.512L23.5317 135.432L23.6367 135.323L23.7667 135.432L24.2049 134.852L24.4396 134.642L25.0655 134.194L25.1127 134.038L24.3772 132.588L23.235 126.418L12.4383 124.546L12.5321 120.38L10.4667 119.457L11.0613 115.028L13.1424 115.634L16.5692 110.756L14.2221 108.99L16.444 106.696L17.242 101.818L8.63595 96.3338L9.24619 93.9608L11.8593 88.4502L14.4724 83.2559L17.4141 82.0958L14.5194 81.0939L12.3444 81.7267L10.5449 79.1691L5.35 76.0578L6.75827 70.7845L10.7796 71.4173L15.1766 65.1948L13.8622 56.3092L8.80807 54.9909L8.76109 47.1072L7.32154 46.369L7.80661 44.5233L8.91757 44.1805L7.65014 42.493L5.11526 43.3632L4.88054 47.0545L2.23613 44.6288L1 43.6532L1.59461 41.9658" stroke="#646464" stroke-linecap="round" stroke-linejoin="round"/>
</svg>
