<svg width="254" height="240" viewBox="0 0 254 240" fill="none" xmlns="http://www.w3.org/2000/svg">
<g clip-path="url(#clip0_166_143)">
<path d="M125.988 0.207573C125.91 0.337302 125.781 2.80217 125.677 5.65622L125.495 10.8973H126.533H127.597L127.778 8.56217L127.96 6.20109L129.958 6.27892L131.929 6.35676V8.6919V11.027L132.812 11.1049C133.279 11.1568 133.772 11.1049 133.901 10.9751C134.005 10.8714 134.135 8.43244 134.135 5.57838L134.187 0.389194L133.123 0.311357L132.059 0.233519V2.30919V4.41082H129.984H127.934L127.856 2.2573L127.778 0.129735L126.948 0.051897C126.507 5.72205e-06 126.066 0.0778427 125.988 0.207573Z" fill="#111111"/>
<path d="M119.709 3.03584C119.813 4.5926 119.943 6.61638 120.047 7.55043L120.202 9.26287L119.346 9.41854C118.879 9.52233 118.127 9.60016 117.66 9.60016H116.83L116.492 5.24125C116.337 2.85422 116.129 0.830435 116.051 0.700706C115.896 0.441246 114.884 0.467192 114.443 0.752597C114.105 0.960165 114.105 1.60881 114.391 5.31908C114.572 7.70611 114.676 9.678 114.624 9.72989C114.417 9.88557 111.563 10.0672 111.459 9.91152C111.407 9.80773 111.2 7.78395 111.044 5.37098L110.707 1.038H109.721H108.709L108.735 2.38719C108.735 4.56665 109.357 11.6239 109.539 11.8056C109.773 12.065 121.681 11.0791 122.07 10.7937C122.382 10.5602 122.382 9.83368 122.07 6.09746C121.863 3.65854 121.681 1.3753 121.681 0.960165C121.681 0.311516 121.603 0.259624 120.618 0.259624H119.528L119.709 3.03584Z" fill="#111111"/>
<path d="M138.701 0.752638C138.364 1.2975 137.196 10.9494 137.43 11.1829C137.56 11.3126 138.623 11.5462 139.791 11.6759C143.345 12.117 144.954 11.3126 145.213 8.9775C145.473 6.69426 144.591 5.65642 141.84 5.08561C140.958 4.90399 140.258 4.64453 140.284 4.5148C140.284 4.38507 140.388 3.50291 140.491 2.51696C140.647 1.14183 140.621 0.778584 140.336 0.778584C140.128 0.778584 139.713 0.700746 139.428 0.622908C139.116 0.54507 138.779 0.596962 138.701 0.752638ZM142.645 7.36885C143.112 7.78399 143.215 8.09534 143.112 8.6921C142.904 9.75588 142.307 10.1191 140.803 10.1191H139.505L139.687 8.51047C139.791 7.62831 139.946 6.79804 140.024 6.69426C140.232 6.33102 142.022 6.7721 142.645 7.36885Z" fill="#111111"/>
<path d="M103.494 2.10176C102.871 2.33527 102.793 2.54284 102.508 4.64446C102.352 5.88986 102.223 7.21311 102.223 7.6023C102.223 7.99149 102.145 8.30284 102.041 8.30284C101.911 8.30284 101.029 7.23905 100.069 5.9677C98.5645 3.99581 98.1753 3.63257 97.5526 3.63257C96.6705 3.63257 95.9959 3.86608 95.9959 4.17743C95.9959 4.28121 97.1375 5.76013 98.5126 7.44662C99.8876 9.13311 101.133 10.638 101.237 10.8196C101.704 11.4163 100.977 12.1947 100.017 12.1947C99.0315 12.1947 98.9796 12.3245 99.3687 13.3363C99.8876 14.7374 102.638 13.9591 103.312 12.2207C103.65 11.3904 105.051 2.28338 104.895 1.99797C104.765 1.76446 104.35 1.7904 103.494 2.10176Z" fill="#111111"/>
<path d="M147.626 2.04961C147.626 2.17934 147.341 4.46258 146.978 7.13501C146.614 9.83339 146.355 12.1685 146.433 12.3761C146.511 12.5577 146.952 12.7134 147.471 12.7134C148.534 12.7134 148.431 13.0247 149.209 6.92744C149.728 2.93177 149.754 2.25717 149.416 2.04961C148.949 1.7642 147.626 1.73826 147.626 2.04961Z" fill="#111111"/>
<path d="M153.282 2.98403C153.204 3.08781 153.463 4.38511 153.879 5.88997L154.605 8.64024L152.685 10.7938C151.621 11.9613 150.739 13.0251 150.739 13.1808C150.739 13.3105 150.921 13.5181 151.154 13.5959C152.192 13.9851 152.711 13.7256 154.268 12.0392L155.85 10.3008L156.421 12.6359C157.044 15.1267 157.2 15.3083 158.73 15.3083C159.197 15.3083 159.301 15.2046 159.197 14.8413C159.145 14.6078 158.782 13.2586 158.393 11.8575L157.718 9.31484L159.561 7.29105C160.546 6.17538 161.377 5.13754 161.377 4.98186C161.377 4.82619 160.936 4.61862 160.417 4.51484C159.509 4.33321 159.405 4.41105 158.237 5.7343C157.537 6.51267 156.966 7.21321 156.966 7.317C156.966 7.44673 156.862 7.52457 156.733 7.52457C156.603 7.52457 156.291 6.6943 156.058 5.70835C155.617 3.86619 155.15 3.11376 154.501 3.11376C154.32 3.11376 153.982 3.06186 153.801 2.98403C153.593 2.90619 153.36 2.90619 153.282 2.98403Z" fill="#111111"/>
<path d="M89.7691 5.60455C88.42 6.09752 87.2265 6.59049 87.1227 6.69428C87.0189 6.79806 87.1746 7.99157 87.4859 9.34076C88.1865 12.6618 88.2383 15.49 87.6416 15.931C87.0449 16.3721 87.0449 16.3981 87.8751 18.6294C88.5237 20.4456 88.6016 20.5235 89.2242 20.3678C90.262 20.1083 90.3139 19.9267 89.8729 18.5775C89.6394 17.9029 89.4837 17.3321 89.5356 17.2802C89.7691 17.0986 95.7883 15.0489 96.0996 15.0489C96.2553 15.0489 96.5926 15.5418 96.8261 16.1386C97.1634 17.0986 97.319 17.2543 97.9417 17.2024C98.3309 17.1764 98.7201 17.0727 98.7979 16.9948C98.8757 16.917 98.6682 15.957 98.3049 14.8413C97.6823 12.9732 97.6044 12.8435 96.9039 12.8435C96.2034 12.8435 96.1515 12.7397 94.7505 8.74401C93.5051 5.18941 93.2716 4.67049 92.7787 4.69644C92.4933 4.69644 91.1182 5.11157 89.7691 5.60455ZM92.9863 10.2229C93.6349 12.0651 94.1278 13.6218 94.1019 13.6478C93.9462 13.8035 90.5474 15.0489 90.288 15.0489C90.1583 15.0489 90.1323 14.6597 90.1842 14.1927C90.288 13.544 89.8729 10.0154 89.4318 7.99157C89.4059 7.75806 91.5852 6.66833 91.7668 6.84995C91.7928 6.8759 92.3376 8.38076 92.9863 10.2229Z" fill="#111111"/>
<path d="M168.979 7.83573C168.849 8.01735 167.889 10.2487 166.877 12.7914L165.035 17.4098L165.865 17.773C166.514 18.0584 166.773 18.0584 166.981 17.8249C167.137 17.6433 167.941 15.8011 168.771 13.6995C169.601 11.5979 170.328 9.88546 170.354 9.93735C170.406 9.9633 170.328 11.7536 170.198 13.8811C169.835 19.5114 169.835 19.3298 170.587 19.6671C170.951 19.8487 171.418 19.9784 171.599 19.9784C171.807 19.9784 173.052 18.733 174.375 17.2282C175.724 15.6974 177.125 14.0887 177.541 13.6476L178.241 12.8433L177.748 14.1406C177.489 14.8411 176.736 16.7352 176.088 18.3438C174.842 21.4314 174.868 21.5871 176.165 21.9244C176.788 22.0801 176.866 21.9244 178.708 17.4098C179.72 14.8411 180.576 12.5579 180.576 12.3244C180.576 11.9092 178.967 11.1049 178.059 11.1049C177.644 11.1049 176.918 11.7017 175.724 12.999C174.738 14.0628 173.545 15.386 173.026 15.9309L172.066 16.9687L172.118 12.8433L172.144 8.69195L170.976 8.12113C169.601 7.44654 169.316 7.42059 168.979 7.83573Z" fill="#111111"/>
<path d="M78.7426 9.54819C76.0703 10.4563 74.9806 11.8314 74.9806 14.1925C74.9806 17.4358 77.4454 20.7568 79.8582 20.7568C82.323 20.7568 85.1769 18.6293 85.4883 16.5276C85.8515 14.0887 84.1391 10.4822 82.1673 9.60008C80.8182 8.97738 80.4031 8.97738 78.7426 9.54819ZM81.4149 11.8055C82.9197 13.0509 83.7499 16.0087 83.0235 17.4098C82.3489 18.6293 80.1696 19.0444 79.0539 18.1622C78.1978 17.4876 77.0562 15.1785 77.0562 14.1147C77.0562 11.6239 79.5988 10.2747 81.4149 11.8055Z" fill="#111111"/>
<path d="M67.6382 14.8931C65.7182 15.6974 64.8621 16.2682 64.8621 16.7352C64.8621 17.5396 69.2727 25.946 69.6878 25.946C70.3364 25.946 71.0888 25.4531 71.0888 25.012C71.0888 24.8044 70.8034 24.052 70.4402 23.3515C70.077 22.6509 69.7916 22.0282 69.7916 21.9763C69.7916 21.9244 70.3624 21.5093 71.0629 21.0682C72.3601 20.212 73.1644 18.9925 73.1644 17.8509C73.1385 16.7871 72.2045 15.1006 71.3742 14.6855C70.3105 14.1147 69.4024 14.1666 67.6382 14.8931ZM70.1029 16.6055C71.3223 17.5655 71.1667 19.1223 69.7916 19.8487C69.3246 20.0823 68.9354 20.2379 68.8835 20.186C68.8576 20.1342 68.4424 19.3817 68.0273 18.4996L67.223 16.9169L68.183 16.5017C69.4024 16.0087 69.3505 16.0087 70.1029 16.6055Z" fill="#111111"/>
<path d="M117.53 15.0748C85.7477 17.5137 57.4937 33.2889 36.7897 60.1948C30.537 68.3419 23.2206 82.0932 20.9115 90.1364C20.5483 91.4078 20.2369 92.5494 20.2369 92.6792C20.2369 92.9646 24.1287 92.7051 25.0367 92.3678C25.4 92.2121 26.1524 90.7073 27.735 86.8932C31.7824 77.0597 33.9877 73.0121 39.2805 65.5397C43.1462 60.091 45.6629 57.0813 50.2032 52.437C71.945 30.2273 101.496 18.3959 131.255 19.9786C147.963 20.8608 162.57 24.597 176.269 31.4467C185.895 36.2727 193.782 42.0846 202.966 51.0878C206.884 54.9278 209.038 57.4186 212.851 62.4781C217.521 68.6791 219.597 72.0781 223.411 79.784C225.383 83.7797 227.225 87.3083 227.484 87.6456L227.951 88.2424L228.652 87.6975C229.871 86.7375 230.753 84.8954 230.727 83.4164C230.701 81.8597 230.338 80.9775 228.185 77.1894C227.303 75.6327 225.824 72.9343 224.916 71.2219C224.008 69.5354 222.243 66.5775 220.998 64.6835C216.432 57.73 212.41 52.8521 206.236 46.8327C187.192 28.2554 161.481 16.9948 133.616 15.0489C129.309 14.7635 121.552 14.7635 117.53 15.0748Z" fill="#111111"/>
<path d="M182.937 19.2519C180.654 21.2497 178.76 23.014 178.76 23.1178C178.76 23.2475 179.123 23.533 179.538 23.7405C180.317 24.1557 180.368 24.1297 181.354 23.3513C181.925 22.8843 182.47 22.573 182.6 22.6248C182.704 22.6508 183.508 23.1178 184.416 23.6108C185.506 24.2075 185.973 24.6227 185.895 24.9081C185.843 25.1157 185.713 25.7124 185.635 26.2313C185.48 27.0616 185.531 27.1654 186.388 27.6324C186.881 27.9178 187.348 28.0735 187.425 27.9957C187.581 27.84 189.397 17.9805 189.397 17.254C189.397 16.8908 189.06 16.5275 188.385 16.1384C187.841 15.827 187.322 15.5675 187.27 15.5675C187.192 15.5675 185.246 17.2281 182.937 19.2519ZM186.829 20.2119C186.595 21.3535 186.336 22.3654 186.232 22.4432C186.128 22.547 185.506 22.3135 184.831 21.9243L183.612 21.1978L185.272 19.693C186.18 18.8627 187.01 18.1881 187.088 18.1621C187.166 18.1621 187.062 19.0962 186.829 20.2119Z" fill="#111111"/>
<path d="M57.9348 20.653C56.4041 21.639 55.2625 22.5471 55.2625 22.7806C55.2625 23.1698 60.2958 31.2649 60.685 31.4984C60.9963 31.706 64.1356 29.7082 65.1216 28.6703C65.9258 27.866 66.0296 27.5546 66.0296 26.439C66.0296 25.2455 65.9258 25.0379 65.0178 24.2076C64.1356 23.3773 63.9021 23.2995 62.8903 23.4292C62.2417 23.4811 61.2039 23.8963 60.4515 24.3892C59.725 24.8563 59.1023 25.1936 59.0764 25.1417C59.0245 25.0898 58.6872 24.5449 58.324 23.9741L57.6235 22.8844L59.725 21.5611C61.7228 20.2898 61.8006 20.2119 61.4374 19.6671C61.2298 19.3557 60.9444 19.0703 60.8147 19.0184C60.685 18.9925 59.3877 19.719 57.9348 20.653ZM63.4092 25.7125C64.3692 26.4649 64.2913 27.2952 63.1238 28.2552C62.579 28.6963 62.0082 29.0595 61.8525 29.0595C61.6968 29.0595 61.2039 28.4887 60.7888 27.8141L60.0104 26.5428L60.5553 26.2055C61.3596 25.6865 62.3714 25.1676 62.553 25.1676C62.6568 25.1676 63.02 25.4011 63.4092 25.7125Z" fill="#111111"/>
<path d="M193.99 21.8467C193.497 22.5991 192.225 24.5969 191.136 26.2575L189.164 29.2931L189.838 29.838C190.202 30.1234 190.643 30.3569 190.798 30.3569C190.954 30.3569 192.147 28.7223 193.419 26.7245C194.716 24.7267 195.832 23.0921 195.935 23.0921C196.039 23.0921 196.792 23.5072 197.622 24.0261L199.101 24.9861L199.568 24.3894C199.827 24.078 200.035 23.7407 200.035 23.6369C200.035 23.4034 195.52 20.4975 195.157 20.4975C195.001 20.4975 194.457 21.1202 193.99 21.8467Z" fill="#111111"/>
<path d="M198.452 28.8261C195.961 30.4088 193.834 31.8099 193.704 31.9137C193.445 32.1731 193.886 32.8477 194.586 33.211C194.898 33.3666 195.287 33.2629 195.987 32.7958C197.129 32.0175 197.44 32.0953 199.127 33.5742L200.398 34.6899L199.957 35.8315L199.49 36.9731L200.32 37.6996C200.761 38.1148 201.228 38.3483 201.358 38.2185C201.617 37.9591 204.964 28.2293 204.964 27.7104C204.964 27.3991 204.238 26.7245 203.252 26.1277C203.096 26.0239 200.917 27.2434 198.452 28.8261ZM202.499 28.9818C202.396 29.2412 202.11 30.0715 201.851 30.798C201.047 33.0553 201.073 33.0293 199.801 31.9396L198.634 30.9537L200.45 29.7342C202.396 28.4369 202.785 28.3072 202.499 28.9818Z" fill="#111111"/>
<path d="M49.7883 26.8285C45.7409 28.2814 44.7031 32.3031 47.5052 35.8317C48.7246 37.3625 50.3591 38.2447 51.7601 38.089C55.3924 37.6739 57.7534 33.9377 56.3524 30.8501C55.6519 29.2674 54.173 27.6587 52.8498 27.0101C51.5526 26.3874 51.0856 26.3614 49.7883 26.8285ZM52.746 29.7863C55.1849 32.1474 55.3665 34.5344 53.1871 35.676C52.0974 36.2468 51.2672 36.1431 50.3072 35.3647C48.8803 34.1452 47.9981 32.7182 47.9981 31.6025C47.9981 30.3052 48.3354 29.6825 49.3732 29.0339C50.4888 28.3333 51.5007 28.5668 52.746 29.7863Z" fill="#111111"/>
<path d="M208.986 32.6919C208.441 33.2887 208.441 33.2627 209.556 33.7038C211.476 34.4822 212.099 36.4281 210.62 36.947C209.998 37.1546 209.712 37.0768 208.7 36.3503C208.026 35.8832 207.325 35.5719 207.144 35.6497C206.365 35.9611 206.443 36.6097 207.403 37.5438C208.519 38.6595 208.648 39.6973 207.766 40.32C207.455 40.5535 206.988 40.7351 206.754 40.7351C206.106 40.7351 205.068 39.827 204.601 38.7892C204.108 37.7514 203.926 37.6995 203.278 38.4C202.889 38.8411 202.863 39.0227 203.148 39.6973C203.615 40.813 205.146 42.2141 206.417 42.707C207.325 43.0443 207.688 43.0703 208.441 42.8108C209.868 42.3438 210.49 41.3838 210.335 39.9049C210.231 38.7114 210.257 38.6854 210.854 38.8151C211.658 39.0227 212.877 38.5038 213.396 37.6995C214.46 36.0649 213.422 33.8076 211.009 32.5881C209.92 32.0432 209.556 32.0692 208.986 32.6919Z" fill="#111111"/>
<path d="M38.8135 36.1688C37.7238 37.3623 36.8417 38.478 36.8417 38.6336C36.8417 38.7893 37.646 39.9569 38.6578 41.2023C40.6037 43.6931 41.9269 46.132 41.5117 46.5471C41.0447 47.0142 41.2523 47.3515 42.8349 48.7526L44.3916 50.1277L45.0402 49.5309L45.6629 48.9342L44.7289 47.9742C43.8468 47.0661 43.8208 46.9623 44.1841 46.4434C44.7289 45.665 48.5428 41.7731 48.7504 41.7731C48.8541 41.7731 49.2693 42.1104 49.6844 42.5515C50.0995 42.9666 50.5665 43.3298 50.7222 43.3298C51.1373 43.3298 51.9675 42.3958 51.8637 42.0844C51.8118 41.9547 51.0854 41.2282 50.2552 40.4758C48.8282 39.1785 48.7504 39.1266 48.2574 39.5677C47.7904 39.9828 47.6607 39.905 44.6251 36.999C42.8868 35.3385 41.3042 33.9893 41.1226 33.9893C40.941 33.9893 39.9032 34.9753 38.8135 36.1688ZM43.7171 39.1007L46.2337 41.4877L44.8586 43.0704C44.0803 43.9266 43.4057 44.6271 43.3279 44.6012C43.2501 44.6012 42.8868 43.9266 42.4977 43.1223C42.1085 42.318 41.2004 40.8909 40.448 40.0088L39.1248 38.3482L39.981 37.4661C40.448 36.9731 40.915 36.6098 41.0188 36.6358C41.0966 36.6877 42.316 37.7774 43.7171 39.1007Z" fill="#111111"/>
<path d="M213.526 42.4478C211.45 44.238 209.738 45.8467 209.686 46.0283C209.634 46.2359 209.894 46.5991 210.257 46.8845C210.88 47.3775 210.932 47.3775 214.616 46.9105C216.665 46.651 218.481 46.4694 218.663 46.4953C218.871 46.5472 217.911 47.5072 216.562 48.6489C215.186 49.7905 214.071 50.9062 214.071 51.1397C214.045 51.3472 214.304 51.7883 214.642 52.0997L215.238 52.6445L219.156 49.3234C221.309 47.4813 223.126 45.8726 223.203 45.7429C223.281 45.6132 223.126 45.224 222.866 44.8867L222.399 44.264L218.274 44.7051C216.017 44.9645 214.071 45.1462 213.967 45.1462C213.837 45.1462 214.927 44.1343 216.354 42.9148C217.807 41.6694 218.974 40.6316 218.974 40.5537C218.974 40.1645 218.066 39.1786 217.703 39.1786C217.47 39.2045 215.602 40.6575 213.526 42.4478Z" fill="#111111"/>
<path d="M115.844 42.4478C87.0709 43.1742 64.9399 45.7688 60.8147 48.9083C59.5953 49.8424 58.9985 50.8542 58.3499 53.0597C58.0645 54.0456 57.0267 57.3148 56.0408 60.3245C54.4582 65.1505 53.4464 69.0424 53.4464 70.158C53.4464 70.3656 53.7317 70.8845 54.095 71.2997C55.029 72.4153 54.9512 73.4272 53.4723 79.3429C52.7718 82.1451 51.8118 86.0629 51.3708 88.0088C50.9297 89.9807 50.2292 92.6013 49.7881 93.8467C49.373 95.0661 49.0876 96.1299 49.1395 96.2078C49.399 96.4672 51.267 95.5332 52.2788 94.651C54.4063 92.757 55.5998 89.6953 56.8451 82.664C57.9867 76.2553 58.6094 73.9461 59.258 73.9461C59.4137 73.9461 60.3736 74.2575 61.4114 74.6207L63.2535 75.2953L62.3714 78.6164C60.4515 85.9332 59.7509 90.9148 60.5293 91.9007C60.8147 92.2899 62.7865 92.7051 62.7865 92.3678C62.8124 91.5894 66.2372 77.864 66.5485 77.4229C66.7561 77.0856 67.2231 76.7483 67.5603 76.6445C68.65 76.3851 80.1955 78.3051 80.7663 78.8499C80.87 78.9797 80.6884 81.9115 80.3252 85.3883C79.936 88.8651 79.6506 91.9007 79.6506 92.1602C79.6506 92.4456 79.9879 92.757 80.5068 92.9905C82.2711 93.717 82.4008 93.717 82.7381 92.9905C83.2051 91.9267 83.7759 87.6975 83.9575 83.7537C84.0613 81.8078 84.2429 80.0694 84.3467 79.8878C84.5023 79.6024 86.0331 79.6802 92.0263 80.277C96.1256 80.6661 101.574 81.1332 104.117 81.2888L108.709 81.5743V83.6759C108.709 84.8175 108.527 87.1526 108.346 88.8651C107.853 92.9645 107.593 98.3872 107.853 98.7505C108.164 99.1915 109.643 99.8921 110.266 99.8921C111.433 99.8921 112.082 96.078 112.082 89.0467C112.082 86.7634 112.16 84.1948 112.237 83.3126L112.419 81.7299H115.091H117.79V83.8834C117.79 85.077 117.608 87.3861 117.4 89.0207C116.57 95.3256 116.466 96.571 116.778 97.4791C117.193 98.7764 118.438 98.517 119.268 96.9602C119.684 96.2337 119.735 95.3256 119.735 89.2024C119.735 85.4143 119.839 82.197 119.943 82.0672C120.073 81.9634 122.408 81.8597 125.132 81.8337C127.882 81.8337 132.345 81.704 135.095 81.6002L140.05 81.3926L140.206 82.7937C140.284 83.5721 140.491 87.2824 140.647 91.0705C140.803 94.8586 140.958 97.9721 140.984 97.998C140.984 97.998 141.789 97.9721 142.774 97.8943C144.305 97.7645 144.513 97.6867 144.383 97.2715C144.201 96.7786 143.76 81.9375 143.89 81.7559C144.124 81.4705 159.82 79.9915 164.075 79.8359L165.891 79.784L166.618 82.1191C167.474 84.8694 168.771 90.9667 169.031 93.5353C169.368 96.8045 170.042 97.7645 172.352 98.1797C173.156 98.3353 173.312 98.2834 173.312 97.8943C173.312 97.6348 172.481 93.3018 171.443 88.2943C170.432 83.2607 169.653 79.0834 169.731 79.0056C169.991 78.7461 181.925 76.7743 183.145 76.7743C183.793 76.7743 184.468 76.9559 184.675 77.1375C185.065 77.5267 185.609 79.5764 187.711 88.4759C189.605 96.4413 189.683 96.6229 191.395 95.9743C192.355 95.611 192.511 95.3256 192.511 93.6651C192.511 91.6413 191.758 88.398 189.786 81.7299C188.852 78.5386 188.126 75.7364 188.152 75.5288C188.204 75.2953 189.268 74.8283 191.084 74.3094C192.64 73.8424 193.938 73.4791 193.938 73.5051C193.964 73.531 194.431 75.1397 194.95 77.0597C197.959 87.7753 199.049 91.4856 199.36 91.797C199.879 92.3159 201.799 91.4856 202.007 90.6553C202.24 89.7472 202.032 88.8651 199.749 80.8218C197.622 73.3494 197.129 71.118 197.648 71.4553C198.063 71.7148 198.478 70.7807 198.478 69.5613C198.478 67.5634 195.572 57.8337 193.73 53.6564C192.692 51.3213 191.291 50.024 188.671 48.9083C181.017 45.691 168.434 43.7969 148.041 42.811C142.359 42.5515 121.629 42.2921 115.844 42.4478ZM145.94 46.3137C149.805 46.5472 153.178 46.8326 153.49 46.9624C154.242 47.2478 154.527 49.531 153.957 50.6207C153.593 51.3472 153.542 51.3732 151.44 51.3732C150.273 51.3732 148.612 51.1915 147.756 50.984C146.692 50.7245 144.668 50.6207 141.477 50.5948H136.729V48.104V45.6391L137.845 45.7688C138.442 45.8467 142.1 46.1061 145.94 46.3137ZM134.913 48.2597V50.5948H126.118H117.323L117.193 49.7386C117.115 49.2975 116.959 48.2337 116.856 47.4034L116.7 45.9245H125.807H134.913V48.2597ZM165.736 47.3515C168.901 47.5851 170.068 47.7667 170.38 48.078C170.639 48.3375 170.821 49.1418 170.925 50.3094C171.028 52.0737 171.028 52.1515 170.484 52.1515C169.757 52.1515 159.69 51.4251 157.563 51.2175L155.928 51.0618V48.8824V46.6769L158.731 46.8586C160.261 46.9364 163.401 47.1699 165.736 47.3515ZM177.333 48.6488C180.939 48.9861 186.803 50.5169 186.803 51.1397C186.803 51.6067 184.131 52.6445 182.133 52.9559C180.265 53.2413 177.463 53.0597 173.96 52.4629L172.922 52.2813L172.845 50.2575L172.767 48.2078L174.142 48.3634C174.894 48.4413 176.347 48.571 177.333 48.6488ZM152.426 52.411C159.976 52.7224 167.915 53.3191 171.236 53.838C172.585 54.0456 173.882 54.2272 174.09 54.2272C174.972 54.2532 173.623 54.7202 171.495 55.1094C163.712 56.5364 149.676 57.6261 132.578 58.1191C121.837 58.4305 114.65 58.3007 106.763 57.6002C101.756 57.1591 98.5644 56.9515 87.46 56.3288C84.6061 56.1732 83.4386 56.0175 83.2829 55.758C83.1532 55.5764 83.1013 55.3429 83.1532 55.2391C83.3089 55.0056 86.8114 54.5386 89.7691 54.3569C91.1183 54.2791 95.1657 53.864 98.7201 53.4229C102.3 53.0078 107.126 52.5407 109.487 52.437C115.87 52.1256 145.291 52.1256 152.426 52.411ZM176.84 58.5861C176.632 58.9494 173.182 59.8575 169.394 60.584C167.448 60.9472 165.398 61.4142 164.854 61.6218C163.919 61.9851 164.361 62.011 170.198 61.8813C173.701 61.8034 177.151 61.6737 177.852 61.5959C178.708 61.518 179.019 61.544 178.76 61.6997C178.137 62.0888 175.102 62.6856 169.42 63.5678C166.488 64.0088 163.868 64.4759 163.582 64.6315C162.518 65.1505 171.288 64.6575 177.333 63.8532C180.628 63.4121 183.897 62.997 184.598 62.9191L185.895 62.7634L184.987 63.2824C182.781 64.5278 179.798 65.2542 171.833 66.4478C168.901 66.8888 166.255 67.3559 165.969 67.4856C165.191 67.8229 170.38 67.5634 174.738 67.0445C178.682 66.5775 183.56 66.4478 183.923 66.811C184.105 66.9926 181.328 67.6413 175.906 68.731C171.366 69.6391 167.474 70.4953 167.292 70.6251C166.825 70.9624 173.363 70.7029 178.812 70.184C181.199 69.9505 183.534 69.7948 184.001 69.8467C184.52 69.8986 181.614 70.6251 176.632 71.7148C172.092 72.7007 168.434 73.557 168.486 73.6088C168.538 73.6607 171.366 73.531 174.738 73.2975C178.137 73.0899 180.991 72.9602 181.043 73.038C181.251 73.2456 179.409 73.9202 176.866 74.5948C169.783 76.4629 157.174 77.7342 139.194 78.3829C129.672 78.7202 106.192 78.5645 101.185 78.0975C95.944 77.6305 77.4713 74.9061 77.7307 74.6467C77.8345 74.5429 78.8723 74.4651 80.0139 74.4391H82.1154L81.0776 74.0499C79.7025 73.531 75.707 72.5191 70.9591 71.4813C68.8316 70.9883 67.3268 70.5991 67.6641 70.5991C68.183 70.5732 79.7804 71.3775 83.8018 71.7148L85.2288 71.8445L83.9315 71.4813C83.231 71.2737 80.429 70.7548 77.7048 70.3137C72.2823 69.4315 68.4944 68.5234 66.9896 67.7451L66.0296 67.2261L66.9377 67.2002C67.4306 67.2002 70.1808 67.4856 73.0088 67.8488C78.3015 68.5234 82.0895 68.6791 82.7381 68.264C83.1013 68.0305 82.9456 68.0045 79.469 67.5634C77.7048 67.3559 74.8508 66.6034 70.1029 65.1245C67.8457 64.424 65.5366 63.7234 64.9918 63.5678C62.8643 63.0488 67.7679 63.5418 73.6833 64.4759C76.9005 64.9948 80.9219 65.4618 82.6343 65.5137L85.7477 65.6434L84.191 65.1505C83.3348 64.8651 80.3512 64.1645 77.5751 63.5937C74.799 62.997 71.2964 62.1926 69.7916 61.7775C67.1712 61.051 67.1193 61.0251 68.3646 60.9991C69.0911 60.9732 72.5158 61.3364 76.0184 61.7515C79.8063 62.2186 83.5164 62.5299 85.2288 62.504L88.0827 62.478L79.3912 60.7397C69.584 58.7418 69.143 58.4564 76.5113 58.7159C80.8182 58.8715 82.297 59.0272 93.142 60.4542C96.3591 60.8694 100.666 61.3364 102.742 61.4921C108.916 61.9591 130.01 62.1148 139.324 61.7775C149.546 61.4142 151.725 61.2326 162.103 59.9094C169.16 59.0272 173.649 58.5342 176.243 58.4045C176.658 58.4045 176.918 58.4824 176.84 58.5861Z" fill="#111111"/>
<path d="M221.621 51.8142C219.312 53.5007 217.418 55.0315 217.418 55.2391C217.418 55.4466 217.651 55.8877 217.963 56.1991L218.507 56.7958L220.272 55.4985C221.232 54.798 222.14 54.2272 222.243 54.2531C222.373 54.2531 222.97 54.9537 223.593 55.8099C224.864 57.6002 224.994 57.211 222.425 59.0791C221.673 59.6239 221.05 60.1688 221.076 60.3245C221.076 60.4542 221.309 60.8693 221.595 61.2066C222.243 61.985 221.932 62.1407 227.147 58.3007C230.779 55.6023 230.935 55.4726 230.572 54.9277C229.819 53.7861 229.508 53.8121 227.822 55.1093C226.939 55.8099 226.187 56.3288 226.135 56.2769C226.109 56.225 225.59 55.4985 224.994 54.6942C224.397 53.8899 223.904 53.1115 223.904 53.0077C223.904 52.9039 224.604 52.3072 225.461 51.7104C226.317 51.0877 227.017 50.4391 227.017 50.2575C227.017 50.0499 226.758 49.6607 226.421 49.3493L225.824 48.7785L221.621 51.8142Z" fill="#111111"/>
<path d="M32.7943 49.5569C32.2235 49.8423 31.3413 50.5947 30.8743 51.2434C30.3295 51.9439 29.8884 52.3331 29.7328 52.2034C29.5771 52.0736 28.9025 51.5547 28.2539 51.0358C27.6053 50.5169 26.9307 50.0758 26.801 50.0758C26.5156 50.0758 25.6854 51.1915 25.6854 51.5547C25.6854 51.9699 33.7542 58.1709 34.0915 58.0412C34.6882 57.8077 37.1011 54.3828 37.3865 53.3709C37.7497 52.0477 37.3087 50.7763 36.219 49.9461C34.9996 49.038 34.0655 48.9082 32.7943 49.5569ZM35.0255 51.892C35.3109 52.1774 35.5444 52.6704 35.5444 52.9817C35.5444 53.5007 34.3509 55.5244 34.0655 55.5244C33.8839 55.5244 31.4192 53.6044 31.3932 53.4488C31.3932 53.3709 31.7565 52.878 32.1975 52.3331C33.1056 51.2174 34.1953 51.0617 35.0255 51.892Z" fill="#111111"/>
<path d="M21.5344 57.4961L19.3291 60.7653L19.9518 61.2582C20.2891 61.5177 20.6263 61.7512 20.7301 61.7512C20.808 61.7512 21.2231 61.2323 21.6122 60.5837C22.0274 59.935 22.4165 59.4161 22.4944 59.4161C22.5722 59.4161 24.2586 60.5318 26.2823 61.9069L29.9405 64.3977L30.5373 63.6972C30.8746 63.3339 31.134 62.9188 31.134 62.7891C31.134 62.6593 29.5254 61.4658 27.5796 60.1685C25.6078 58.8453 23.9473 57.7555 23.8954 57.7037C23.7916 57.5999 24.103 56.9253 24.8554 55.7058C25.2705 55.0053 25.2705 54.9534 24.8035 54.5901C24.5181 54.3826 24.1548 54.2269 24.0251 54.2269C23.8694 54.2528 22.7538 55.7058 21.5344 57.4961Z" fill="#111111"/>
<path d="M229.56 60.8433C228.107 61.3882 226.343 62.6595 225.746 63.6714C224.137 66.266 226.317 70.7547 229.456 71.2217C231.61 71.559 234.645 70.0541 236.02 68.0044C237.11 66.3957 236.695 64.0347 235.008 62.1147C233.581 60.506 231.687 60.0649 229.56 60.8433ZM233.374 63.1006C235.242 64.5536 235.008 66.5774 232.803 67.9784C231.376 68.8865 230.131 69.2757 229.3 69.0941C227.873 68.7568 226.758 66.8368 227.251 65.5914C227.718 64.3201 230.468 62.5557 231.973 62.5298C232.362 62.5298 232.985 62.7892 233.374 63.1006Z" fill="#111111"/>
<path d="M16.8901 65.2542C16.1636 66.5775 15.5669 67.9007 15.5669 68.1602C15.5669 68.4975 16.7604 69.224 20.0554 70.9104C22.4942 72.1558 24.6476 73.1937 24.7773 73.1677C24.933 73.1677 25.6335 71.9742 26.3859 70.5213C27.3718 68.5494 27.6572 67.771 27.4496 67.5375C26.8529 66.811 26.2302 67.1742 25.4259 68.731C25.0108 69.5872 24.5438 70.3396 24.4141 70.4175C24.1287 70.5991 21.7937 69.5353 21.7937 69.224C21.7937 69.0942 22.105 68.4196 22.4682 67.6931C23.1947 66.2402 23.1687 65.7991 22.3385 65.5656C21.8974 65.4618 21.6639 65.6953 20.9894 66.9407L20.1851 68.4715L19.0435 67.9007C18.4208 67.6153 17.9019 67.2521 17.9019 67.1483C17.9019 67.0185 18.2652 66.2402 18.6803 65.384C19.1213 64.5277 19.4586 63.7494 19.4586 63.6196C19.4586 63.4899 19.1732 63.2564 18.8359 63.1007C18.2133 62.8153 18.1354 62.8931 16.8901 65.2542Z" fill="#111111"/>
<path d="M234.723 73.1159C232.336 74.2316 230.261 75.2694 230.105 75.4251C229.664 75.8662 232.077 80.3548 233.089 81.0034C234.775 82.0413 237.188 81.1072 237.551 79.2391C237.707 78.4607 237.759 78.4089 238.433 78.6424C240.198 79.2651 242.014 77.4489 241.573 75.477C241.235 74.0499 239.782 71.0921 239.419 71.0921C239.238 71.0921 237.136 72.0002 234.723 73.1159ZM239.471 74.3613C240.068 75.8662 239.575 76.8002 238.2 76.8002C237.655 76.8002 236.617 75.477 236.617 74.8283C236.617 74.517 238.252 73.7386 238.9 73.7126C239.082 73.6867 239.341 73.998 239.471 74.3613ZM235.45 76.2813C236.046 77.4489 235.943 78.5386 235.19 79.0316C234.282 79.6283 233.426 79.2132 232.725 77.8121C232.414 77.2413 232.207 76.7224 232.258 76.6705C232.544 76.437 234.464 75.5289 234.723 75.5029C234.905 75.5029 235.216 75.8402 235.45 76.2813Z" fill="#111111"/>
<path d="M13.8025 72.0002C12.8685 72.6747 12.0902 74.4391 12.0902 75.918C12.0642 78.305 13.8285 80.1731 16.9678 81.0812C18.5764 81.5483 19.6401 81.4445 20.9114 80.6661C22.0271 79.9915 23.0908 77.9418 23.0908 76.4369C23.0908 75.3991 23.013 75.2175 22.3125 74.8542C21.4822 74.4131 21.4563 74.4391 21.5341 75.6845C21.586 76.9039 20.6779 78.5126 19.718 78.8499C17.4867 79.6023 14.0101 77.4747 14.0101 75.3212C14.0101 74.5947 14.2177 74.1796 15.0479 73.3493C15.6446 72.7785 16.0079 72.2077 15.9041 72.1039C15.4371 71.6629 14.3733 71.611 13.8025 72.0002Z" fill="#111111"/>
<path d="M234.853 89.3579C232.544 90.1103 231.039 92.0303 230.312 95.1179C229.949 96.6487 229.43 97.8941 228.574 99.1136C227.874 100.151 223.878 109.674 223.359 111.568C223.1 112.528 222.477 114.162 221.958 115.2C221.465 116.264 221.05 117.302 221.05 117.535C221.05 118.34 220.194 119.118 218.248 120.104C216.121 121.194 215.031 122.154 214.564 123.347C214.408 123.788 214.304 125.501 214.356 127.498C214.408 130.82 214.408 130.949 213.578 132.869C212.436 135.62 212.151 137.176 212.281 140.082C212.41 142.832 213.111 145.297 213.785 145.297C214.616 145.271 216.276 144.311 217.132 143.351C218.3 142.002 218.767 140.835 219.986 136.035C221.387 130.716 222.166 129.107 224.241 127.343C225.123 126.59 226.836 124.982 228.055 123.762C229.275 122.543 230.676 121.245 231.169 120.856C232.154 120.104 235.32 118.469 235.475 118.625C235.527 118.677 235.423 120.882 235.294 123.503C234.956 129.392 235.138 137.773 235.683 140.134C236.176 142.443 237.006 144 237.681 144C238.485 144 240.042 143.274 240.846 142.495C243.285 140.186 243.752 136.242 242.947 125.293C242.273 116.082 242.61 115.07 246.995 113.254C249.875 112.087 251.068 110.919 252.443 108.091C254.597 103.602 254.182 100.67 251.405 100.67C250.056 100.67 247.773 101.397 247.773 101.812C247.773 102.409 246.398 103.395 244.504 104.173C243.518 104.588 242.48 105.081 242.195 105.263C241.91 105.444 241.624 105.6 241.521 105.6C241.287 105.6 240.82 102.928 240.509 99.6325C240.353 98.1276 240.042 96.2076 239.834 95.3514C239.601 94.4952 239.16 92.7309 238.822 91.4595L238.226 89.1244L237.11 89.0725C236.487 89.0466 235.475 89.1763 234.853 89.3579ZM233.763 107.65C234.515 109.674 234.541 109.959 234.256 110.971C233.659 113.15 231.843 114.629 229.171 115.07C228.263 115.2 228.055 115.174 228.055 114.863C228.055 113.695 230.286 107.883 231.61 105.626C232.232 104.562 232.31 104.51 232.621 104.951C232.803 105.185 233.322 106.404 233.763 107.65Z" fill="#111111"/>
<path d="M35.0774 95.6887C33.7542 97.0379 32.457 97.4012 29.8365 97.1677C27.9685 97.012 27.8128 97.0379 27.0864 97.6347C26.1005 98.465 24.3362 98.9839 19.6921 99.7623C14.0361 100.696 7.75748 102.746 5.78567 104.303C4.85166 105.029 1.3491 109.648 0.752373 110.919C-0.622703 113.851 1.01182 116.913 4.09926 117.224C6.79752 117.483 9.05472 116.108 11.0525 113.047C11.7011 112.035 12.5054 110.893 12.8167 110.582C13.5172 109.777 15.3074 108.869 15.5669 109.155C15.6966 109.258 15.4372 112.969 14.9961 117.406C14.3475 123.814 14.1918 126.409 14.2696 130.197C14.3215 134.893 14.1659 135.983 13.4135 135.516C13.2318 135.412 13.2059 136.164 13.3616 137.929C13.4653 139.33 13.5432 141.068 13.5172 141.743C13.4394 143.481 12.6351 146.491 11.6233 148.722C10.8709 150.383 10.7671 150.928 10.6892 153.289C10.5595 156.558 10.8709 157.959 12.1162 159.775C13.0502 161.15 13.1021 161.176 14.088 161.021C16.0858 160.683 17.85 159.386 18.784 157.57C19.6143 155.935 19.9775 153.652 20.4964 147.14C21.8455 130.249 23.1947 120.545 25.2703 112.606C25.6335 111.256 26.0486 109.492 26.2043 108.714C26.3599 107.935 26.5675 107.131 26.6972 106.923C26.8788 106.638 27.8907 106.508 30.7965 106.378C34.325 106.249 34.818 106.145 36.1411 105.496C37.8535 104.666 39.1507 103.239 40.2664 101.008C40.9928 99.5028 41.0447 99.2174 40.9409 97.4271C40.8631 96.3374 40.7074 95.3514 40.5518 95.1958C40.422 95.066 39.3583 94.8844 38.2167 94.7806L36.1152 94.625L35.0774 95.6887Z" fill="#111111"/>
<path d="M77.8345 99.3731C77.3415 99.6325 76.5113 100.203 76.0184 100.618L75.1362 101.371L75.5773 102.824C76.4594 105.6 77.3415 106.171 81.2852 106.508L83.2829 106.69V110.634C83.2829 117.561 82.5824 128.121 81.9597 130.638C81.83 131.209 81.363 132.454 80.9219 133.388C80.429 134.53 80.0658 135.905 79.8841 137.41C79.7285 138.681 79.3134 141.12 78.9501 142.833C77.7307 148.852 77.6788 151.68 78.7685 152.484C79.4171 152.951 82.0894 152.9 83.1013 152.407C83.5683 152.173 85.3844 150.538 87.1746 148.774C90.0805 145.92 90.781 145.401 93.8944 143.637C98.2531 141.172 99.7579 140.082 103.779 136.554C113.016 128.433 115.247 124.203 111.796 121.323C110.577 120.285 109.824 119.948 104.454 118.028C101.756 117.042 99.4206 116.134 99.2909 116.004C98.9277 115.641 99.7319 114.603 101.47 113.254C103.52 111.645 104.35 110.4 104.376 108.791C104.48 106.119 103.494 105.211 99.6282 104.433C98.4088 104.199 96.1256 103.473 94.517 102.85C92.9344 102.227 89.6653 101.189 87.2525 100.541C84.8655 99.9179 82.4786 99.2693 81.9857 99.1136C80.6106 98.7244 78.8463 98.8282 77.8345 99.3731ZM91.5593 108.454C92.0523 108.584 92.7787 109.025 93.1679 109.388L93.8944 110.089L93.3755 110.841C92.6749 111.801 91.3777 112.787 90.4956 112.995C89.7951 113.176 89.7691 113.124 89.7691 112.294C89.7691 110.426 90.1064 108.195 90.3918 108.195C90.5475 108.195 91.0923 108.298 91.5593 108.454ZM98.6682 123.996C101.029 124.618 102.871 125.553 104.013 126.72L104.817 127.55L103.727 128.433C103.105 128.925 101.444 130.327 100.017 131.546C97.0337 134.141 96.6186 134.4 95.4251 134.4C94.7505 134.4 94.1797 134.763 92.6231 136.113C90.781 137.721 90.6253 137.799 89.5097 137.721L88.3422 137.643L88.394 131.338C88.4459 124.333 88.5238 123.996 90.1064 123.503C91.3518 123.114 96.3591 123.399 98.6682 123.996Z" fill="#111111"/>
<path d="M54.9512 100.177C53.1091 103.395 49.4508 110.789 48.1795 113.773C47.4012 115.615 46.0002 118.781 45.0662 120.779C44.1322 122.776 43.3019 124.722 43.1981 125.111C43.0684 125.63 42.783 125.89 42.1344 126.071C40.9409 126.409 38.1389 127.991 37.4384 128.744C36.4265 129.808 35.8039 131.546 35.8039 133.31C35.8039 135.127 36.1671 136.216 37.2049 137.462L37.9313 138.292L37.3087 138.811C36.9973 139.096 36.4784 139.33 36.193 139.33C34.5845 139.356 34.5585 139.408 34.3509 142.651C34.1434 146.257 34.5585 152.199 35.2331 154.638C35.6222 156.143 35.752 156.324 36.3746 156.402C36.7638 156.454 37.5941 156.273 38.2167 155.987C39.514 155.416 39.981 154.612 40.6037 151.888C40.8372 150.902 41.5377 148.489 42.1863 146.517C42.8349 144.519 43.6392 141.613 44.0024 140.03C44.9883 135.62 46.6488 133.362 50.8519 130.638C54.1209 128.51 59.2839 126.175 59.5953 126.668C59.6731 126.824 59.8547 130.638 59.9585 135.153C60.2439 146.309 60.685 149.89 62.086 152.407C62.9681 154.015 64.5248 154.171 65.9258 152.77C67.0415 151.654 67.9236 149.76 68.7019 146.88C69.2727 144.701 69.3505 143.896 69.3246 140.497C69.3246 138.344 69.143 134.556 68.9095 132.065C68.3906 126.461 68.3906 125.189 68.8576 124.722C69.0651 124.515 70.3105 124.151 71.6077 123.918C76.0962 123.088 78.3793 121.764 79.5469 119.248C80.2993 117.639 80.3252 116.887 79.6766 115.823C78.6647 114.162 76.1481 114.033 72.1266 115.46C69.9732 116.212 67.8717 116.446 66.4966 116.082C65.6404 115.849 65.2253 114.707 63.5648 108.039C62.7087 104.692 61.8265 101.527 61.593 101.034C61.0222 99.8142 59.9845 99.3472 57.5975 99.1915L55.5738 99.0358L54.9512 100.177ZM56.9749 116.212C58.3759 118.495 58.6353 119.455 57.9348 119.715C56.0408 120.467 50.7481 122.18 50.6443 122.102C50.5146 121.946 53.5501 115.096 54.2766 113.877L54.7955 113.021L55.2884 113.669C55.5738 114.007 56.3262 115.148 56.9749 116.212Z" fill="#111111"/>
<path d="M205.691 100.151C204.419 100.541 203.226 101.423 202.811 102.305C202.11 103.758 201.877 105.289 201.591 110.141C201.021 119.611 200.995 119.663 197.051 119.818C194.612 119.922 194.586 119.922 194.586 119.325C194.612 117.639 195.235 114.837 196.376 111.256C197.077 109.077 197.726 106.638 197.829 105.86L198.011 104.432L196.973 103.836C195.079 102.772 192.9 103.213 190.202 105.185C188.645 106.327 187.737 106.742 186.154 107.131C184.079 107.624 182.522 108.843 181.173 110.997C180.524 112.035 179.953 112.839 179.927 112.813C179.902 112.761 179.953 111.516 180.057 110.011C180.239 107.442 180.213 107.261 179.694 106.845C179.045 106.301 176.918 105.47 174.868 104.925C171.054 103.94 161.559 103.291 157.018 103.732C153.542 104.095 152.867 104.458 152.166 106.508C151.466 108.558 150.921 109.31 149.442 110.4C147.393 111.905 146.588 112.969 146.588 114.188C146.588 116.783 148.638 117.898 150.636 116.368C151.596 115.641 152.945 115.511 153.178 116.134C154.06 118.391 151.933 133.129 150.247 136.631C149.961 137.202 149.546 138.707 149.338 139.952C149.027 141.665 147.496 146.128 146.952 146.802C146.926 146.854 146.095 147.01 145.135 147.114C143.164 147.347 142.852 147.607 142.411 149.293C141.581 152.329 143.708 156.454 146.095 156.454C147.185 156.454 149.027 155.053 150.298 153.289C151.777 151.213 152.737 149.267 154.06 145.687C156.292 139.693 157.252 136.035 158.004 130.508C158.341 128.017 158.705 126.331 158.938 126.071C159.146 125.838 160.054 125.371 160.936 125.06C163.063 124.307 171.418 120.026 173.83 118.469C174.894 117.769 176.684 116.29 177.826 115.174C178.968 114.058 179.953 113.124 179.979 113.124C180.031 113.124 180.057 113.773 180.057 114.551C180.057 116.342 180.602 117.691 181.484 118.106C182.418 118.521 183.845 117.795 186.388 115.563C187.477 114.603 188.411 113.877 188.463 113.929C188.489 113.981 188.36 116.004 188.126 118.443L187.711 122.854H184.131H180.55L179.798 123.684C178.059 125.604 178.137 128.977 179.927 130.145C180.498 130.508 181.043 130.56 183.43 130.456L186.284 130.301V131.131C186.284 131.572 186.102 133.518 185.895 135.438C185.506 138.992 185.376 144.675 185.661 145.401C185.791 145.712 186.206 145.816 187.451 145.816C189.397 145.816 190.305 145.531 191.291 144.571C192.537 143.377 192.796 141.924 192.744 135.697C192.692 128.822 192.77 128.51 194.95 127.68C195.754 127.369 196.61 127.135 196.869 127.135C197.103 127.135 197.803 126.902 198.426 126.616C199.749 126.02 199.697 125.241 198.971 133.155C198.4 139.304 198.193 147.451 198.556 148.722C198.997 150.305 201.384 149.89 203.2 147.944C204.601 146.465 205.717 144.182 206.625 141.094C207.637 137.565 207.74 136.424 207.066 135.464C206.313 134.4 205.769 133.077 205.457 131.468C205.146 129.782 205.561 126.902 206.287 125.994C206.573 125.63 208.155 124.644 209.842 123.788C214.252 121.557 215.576 119.922 215.212 117.172C215.135 116.445 214.979 115.693 214.849 115.511C214.745 115.33 214.019 115.096 213.241 115.018C211.969 114.889 211.658 114.967 210.049 115.823C209.089 116.342 208 116.757 207.663 116.757C207.04 116.757 207.04 116.731 207.17 114.992C207.481 111.594 207.896 109.596 208.752 107.312C209.868 104.407 210.023 103.369 209.634 101.708C209.401 100.696 209.167 100.307 208.674 100.125C207.922 99.84 206.677 99.866 205.691 100.151ZM170.613 110.374C171.392 110.737 172.092 111.204 172.17 111.438C172.533 112.32 168.771 115.46 165.502 117.016C163.945 117.743 160.676 118.755 160.495 118.547C160.313 118.365 161.169 110.66 161.403 110.4C161.818 109.959 165.113 109.518 167.189 109.622C168.616 109.7 169.627 109.933 170.613 110.374Z" fill="#111111"/>
<path d="M138.675 104.848C136.107 105.445 134.628 105.445 128.764 104.926C123.549 104.459 119.45 104.562 117.271 105.237C115.714 105.704 112.99 107.001 112.756 107.39C112.678 107.52 113.016 108.506 113.509 109.596C114.546 111.879 114.131 111.723 118.775 111.282C121.24 111.049 121.785 111.049 121.967 111.334C122.356 111.957 122.2 115.512 121.681 117.925C121.396 119.196 120.514 123.762 119.709 128.043C118.931 132.325 118.231 135.879 118.153 135.931C118.101 135.983 116.596 136.113 114.78 136.19C111.615 136.346 111.485 136.372 110.914 137.073C108.605 139.719 109.954 147.218 112.627 146.673C113.042 146.595 113.716 146.673 114.157 146.854L114.936 147.166V151.161V155.157L115.792 155.001C119.009 154.405 119.839 153.886 120.643 151.862C120.981 151.032 121.577 149.708 121.967 148.904L122.693 147.451L125.365 146.906C126.844 146.595 129.387 146.102 131.021 145.816C136.47 144.83 139.479 144 140.725 143.196C144.772 140.523 146.173 133.674 143.164 131.468C142.23 130.768 140.232 130.612 138.519 131.105C136.522 131.702 136.288 131.961 135.847 134.063C135.38 136.372 134.913 137.099 133.59 137.618C132.396 138.11 129.594 138.162 127.233 137.747C125.391 137.436 125.314 137.332 125.314 134.66C125.314 129.808 127.104 123.451 128.764 122.335C129.153 122.102 130.606 121.868 132.941 121.687C136.833 121.401 138.001 121.038 138.675 120.026C139.22 119.222 139.453 117.406 139.22 116.134L139.038 115.2H134.498H129.958L130.036 113.566L130.113 111.957L133.279 111.775C136.885 111.594 140.154 110.841 141.814 109.881C143.76 108.74 144.642 105.989 143.475 104.822C142.826 104.173 141.503 104.173 138.675 104.848Z" fill="#111111"/>
<path d="M232.751 148.878C232.595 149.163 231.661 152.199 230.65 155.624C227.977 164.809 226.083 169.79 222.762 176.433C214.694 192.467 202.214 206.296 186.025 217.09C172.248 226.249 156.603 231.879 139.064 233.903C134.161 234.474 124.016 234.681 119.087 234.318C104.713 233.228 92.3117 229.985 80.2993 224.199C73.1644 220.748 68.5982 217.79 60.8406 211.589C52.3567 204.791 51.5524 204.013 42.9906 193.998C37.5162 187.589 32.4051 178.742 28.0204 168C26.1005 163.252 24.6217 160.087 24.3881 160.087C24.2844 160.087 23.8174 160.943 23.3504 161.955C22.2607 164.29 22.0012 167.196 22.6758 169.479C23.5839 172.593 29.5252 183.438 34.1175 190.314C49.8919 213.95 74.5136 230.66 103.001 237.016C112.289 239.092 120.462 239.896 130.321 239.663C141.918 239.403 151.181 237.847 161.896 234.318C175.828 229.726 190.279 221.63 200.943 212.471C212.644 202.43 223.956 186.993 230.494 172.151C232.051 168.623 235.398 159.178 235.839 157.155C236.02 156.273 236.072 155.105 235.968 154.327C235.787 153.029 234.541 150.331 233.53 149.06C233.037 148.411 233.011 148.411 232.751 148.878Z" fill="#111111"/>
<path d="M196.973 155.676C196.273 156.454 195.987 157.518 194.846 164.29C193.367 173.085 191.888 179.312 188.074 192.804C187.088 196.307 186.284 199.472 186.284 199.836C186.284 200.562 185.947 200.925 185.065 201.185C184.546 201.341 184.468 201.289 184.468 200.64C184.468 198.668 188.334 176.692 190.046 168.778C191.525 162.084 191.862 159.464 191.473 158.063C191.162 156.817 190.617 156.454 189.138 156.454C188.178 156.454 188.048 156.532 187.711 157.336C187.503 157.829 186.855 161.488 186.284 165.457C184.39 178.508 181.017 196.722 179.953 199.68C178.63 203.287 177.592 204.091 171.573 205.985C169.083 206.763 168.382 206.893 168.382 206.608C168.382 205.985 170.899 191.17 172.533 182.141C174.738 169.946 175.439 165.25 175.465 162.162L175.517 159.438L174.271 159.36C172.793 159.256 171.859 159.749 171.469 160.813C171.314 161.202 170.925 163.952 170.561 166.962C169.42 177.081 167.085 194.18 166.28 198.487C164.724 206.789 164.309 207.542 160.676 208.683C157.771 209.617 155.098 210.058 148.923 210.681C145.992 210.967 143.164 211.278 142.645 211.382C141.918 211.485 141.659 211.434 141.633 211.174C141.425 208.242 143.319 190.495 145.576 173.708C147.185 161.929 147.289 160.995 146.848 160.476C146.407 159.957 142.904 159.931 142.463 160.45C142.281 160.683 141.789 166.91 141.14 178.015C140.154 194.672 139.687 199.602 138.468 207.568L137.871 211.304L125.573 211.226C118.801 211.2 113.223 211.122 113.171 211.096C113.094 211.018 112.367 201.444 112.341 199.784C112.315 199.135 112.445 189.483 112.627 178.301C112.886 162.474 112.886 157.933 112.652 157.7C112.471 157.518 111.537 157.336 110.577 157.284C109.098 157.207 108.761 157.258 108.372 157.7C107.671 158.452 107.204 161.514 106.893 167.481C106.452 175.576 106.945 185.202 108.32 194.776C108.761 197.786 108.968 200.381 108.968 202.794C108.968 204.765 109.098 207.386 109.254 208.657C109.435 209.929 109.461 211.044 109.383 211.148C109.28 211.252 107.801 211.382 106.114 211.434C98.3309 211.641 89.7172 208.605 87.8233 204.947C87.1746 203.728 84.0872 192.441 83.8018 190.314C83.4126 187.2 82.8419 179.442 82.2451 169.297C81.9597 164.29 81.6743 159.671 81.5706 158.997C81.3889 157.57 80.6365 156.714 79.962 157.129C77.2118 158.867 76.9783 168.571 79.2874 184.735C80.1176 190.521 80.6365 192.856 82.5305 199.602C83.3608 202.612 84.0613 205.155 84.0613 205.258C84.0613 205.57 80.6365 204.324 78.6907 203.312C74.2022 200.951 69.9732 195.71 68.2868 190.443C66.9117 186.188 64.6026 170.231 64.1875 162.032C64.0837 160.32 63.9021 158.66 63.7983 158.322C63.4611 157.414 61.9044 156.895 60.1142 157.051C59.2839 157.129 58.5056 157.258 58.4278 157.362C58.0905 157.7 58.298 164.653 58.7391 167.741C59.3618 172.1 60.0623 175.187 61.4114 179.546C62.7865 184.035 66.4966 193.453 68.2609 196.982C69.584 199.602 69.8175 200.562 69.143 200.562C68.4684 200.562 67.2231 198.538 64.4989 193.038C60.5293 184.995 59.1283 180.714 56.4819 168.519C55.0809 162.084 54.1209 160.087 52.4864 160.087C52.0972 160.087 51.4745 160.32 51.1373 160.58L50.5146 161.047L51.6302 164.783C54.4841 174.538 57.9608 184.813 60.7109 191.637C64.3691 200.614 68.3387 206.789 72.9828 210.603C81.2852 217.479 92.9344 221.241 112.211 223.291C117.556 223.862 133.746 224.069 139.765 223.68C151.258 222.902 161.818 220.956 168.564 218.361C174.764 216 181.225 212.134 184.468 208.865C187.893 205.414 189.034 202.897 190.461 195.762C191.473 190.703 194.872 176.251 197.829 164.471C199.646 157.336 199.827 155.857 199.023 155.416C198.245 155.001 197.518 155.105 196.973 155.676Z" fill="#111111"/>
<path d="M71.478 177.834C71.1148 178.379 71.0889 179.027 71.3224 182.945C71.5818 187.797 71.9969 189.873 73.4239 193.505C74.3579 195.84 75.6811 198.175 76.3038 198.564C77.0562 199.031 77.5751 198.59 77.5751 197.475C77.5751 196.333 73.8131 178.456 73.4239 177.704C73.0347 177.003 71.971 177.081 71.478 177.834Z" fill="#111111"/>
<path d="M87.1487 178.275C86.8114 178.923 86.8633 179.468 87.927 187.33C89.4318 198.253 90.1064 201.885 90.8069 202.508C91.4037 203.053 91.9226 202.897 92.4933 202.015C92.8825 201.418 92.8566 200.874 92.0004 193.505C91.4815 189.172 90.9626 184.502 90.8069 183.101C90.5215 180.298 90.1842 179.416 88.9908 178.404C88.0049 177.574 87.5379 177.548 87.1487 178.275Z" fill="#111111"/>
<path d="M130.892 179.987C130.269 180.61 130.061 181.259 129.75 183.853C128.531 194.076 128.816 204.273 130.399 206.738C131.021 207.698 132.059 207.412 132.708 206.141C133.201 205.155 133.227 204.61 133.201 194.725C133.201 183.983 132.967 180.921 132.137 180.013C131.618 179.442 131.437 179.442 130.892 179.987Z" fill="#111111"/>
<path d="M162.285 181.7C161.039 183.62 158.86 197.163 159.068 201.808C159.171 203.572 159.275 204.013 159.768 204.506C161.039 205.803 161.844 204.117 162.622 198.357C163.79 190.028 164.179 182.374 163.478 181.544C163.011 180.947 162.752 180.999 162.285 181.7Z" fill="#111111"/>
<path d="M177.333 182.634C176.892 183.49 174.349 192.986 173.571 196.67C173.026 199.291 172.922 201.496 173.286 202.093C173.675 202.69 174.22 202.041 175.102 199.966C176.425 196.774 177.437 192.104 178.241 185.462C178.63 182.245 178.215 180.947 177.333 182.634Z" fill="#111111"/>
<path d="M150.117 184.346C149.676 184.787 149.624 185.073 148.041 194.724C146.796 202.301 146.588 205.155 147.211 206.66C147.678 207.723 148.456 208.216 149.157 207.827C149.987 207.412 151.077 203.261 151.803 197.838C152.244 194.543 152.27 186.681 151.829 185.436C151.388 184.242 150.688 183.801 150.117 184.346Z" fill="#111111"/>
<path d="M101.081 185.851C100.536 186.396 100.432 186.837 100.277 188.99C99.9914 192.804 100.277 201.73 100.744 203.364C101.211 204.947 102.482 207.282 103.079 207.671C103.39 207.879 103.65 207.879 103.987 207.671C104.402 207.412 104.428 206.686 104.324 197.423C104.22 186.681 104.168 186.162 102.845 185.54C101.937 185.15 101.756 185.176 101.081 185.851Z" fill="#111111"/>
<path d="M118.594 186.863C118.386 188.004 117.945 199.291 117.919 204.376C117.919 206.011 118.412 206.685 119.476 206.426C120.358 206.192 120.747 205.232 121.188 202.249C121.915 197.137 121.136 186.707 119.969 185.851C119.165 185.254 118.879 185.488 118.594 186.863Z" fill="#111111"/>
<path d="M94.543 194.361C94.1538 194.776 94.0241 195.399 93.9462 197.112C93.8425 199.836 94.3354 204.117 94.8543 204.895C95.3473 205.648 96.6445 205.7 97.0337 204.999C97.4747 204.143 97.3969 203.157 96.0997 194.647C95.944 193.661 95.2954 193.531 94.543 194.361Z" fill="#111111"/>
</g>
<defs>
<clipPath id="clip0_166_143">
<rect width="254" height="240" fill="white"/>
</clipPath>
</defs>
</svg>
