<svg width="254" height="212" viewBox="0 0 254 212" fill="none" xmlns="http://www.w3.org/2000/svg">
<path fill-rule="evenodd" clip-rule="evenodd" d="M253.985 0V157.881L127.001 194.066L0.0172119 157.881V0H253.985Z" fill="#E3000F"/>
<path fill-rule="evenodd" clip-rule="evenodd" d="M254 157.881L127 194.066L0 157.881V175.653L127 211.838L254 175.653V157.881Z" fill="#AFCA05"/>
<path fill-rule="evenodd" clip-rule="evenodd" d="M77.386 50.7195C77.5783 41.9217 81.857 33.4764 90.6068 33.4764C93.765 33.4933 96.7886 34.7576 99.0188 36.9938C101.249 39.23 102.505 42.257 102.514 45.4152C102.514 67.0332 56.2167 86.0872 56.2167 101.119V115.702H197.784V94.4524H166.038V16.2012H128.987V34.7744H142.208V94.4524H90.6068C101.071 78.7957 125.013 71.2639 125.013 44.053C125.013 2.54768 56.2167 1.84258 56.2167 50.6875L77.386 50.7195Z" fill="white"/>
<path fill-rule="evenodd" clip-rule="evenodd" d="M193.377 76.6969C193.88 76.0756 194.351 75.4284 194.787 74.7579C196.424 72.2743 197.435 69.4319 197.736 66.4728V63.6684V51.8418L186.182 54.0693L183.762 54.534L183.345 54.6142C179.744 55.7467 176.56 57.9217 174.195 60.864C171.841 63.6767 170.335 67.1001 169.852 70.7356V74.7579V85.7352L181.07 83.5718L183.81 83.0429L184.483 82.9147C187.973 81.745 191.055 79.5981 193.361 76.729L193.377 76.6969Z" fill="white"/>
<path fill-rule="evenodd" clip-rule="evenodd" d="M193.377 42.8029C195.818 39.9063 197.336 36.3455 197.736 32.5788V29.7744V17.9478L186.182 20.1753L183.762 20.64H183.345C179.744 21.7725 176.56 23.9475 174.195 26.8898C171.841 29.7025 170.335 33.1259 169.852 36.7614V40.319V51.745L181.07 49.5816L183.81 49.0527L184.483 48.9245C187.973 47.7548 191.055 45.6079 193.361 42.7388L193.377 42.8029Z" fill="#AFCA05"/>
<path d="M157.208 148.474C156.13 147.658 155.256 146.601 154.658 145.388C154.06 144.175 153.753 142.839 153.763 141.487C153.747 140.138 154.051 138.804 154.65 137.595C155.249 136.386 156.125 135.336 157.208 134.532C159.724 132.614 162.829 131.633 165.99 131.759C169.142 131.624 172.241 132.606 174.74 134.532C175.83 135.33 176.714 136.378 177.316 137.588C177.918 138.798 178.222 140.135 178.201 141.487C178.218 142.842 177.913 144.182 177.311 145.396C176.709 146.611 175.828 147.666 174.74 148.474C172.237 150.392 169.141 151.373 165.99 151.246C162.83 151.365 159.727 150.386 157.208 148.474ZM171.198 145.878C171.843 145.344 172.359 144.672 172.708 143.912C173.058 143.152 173.232 142.323 173.217 141.487C173.234 140.657 173.061 139.834 172.711 139.081C172.361 138.329 171.843 137.666 171.198 137.144C169.676 136.051 167.848 135.463 165.974 135.463C164.1 135.463 162.272 136.051 160.75 137.144C160.108 137.668 159.593 138.331 159.246 139.084C158.899 139.836 158.728 140.658 158.747 141.487C158.729 142.322 158.9 143.151 159.247 143.911C159.594 144.671 160.108 145.343 160.75 145.878C162.28 146.953 164.104 147.53 165.974 147.53C167.844 147.53 169.668 146.953 171.198 145.878ZM142 138.858C142.464 138.895 142.931 138.824 143.362 138.65C143.699 138.51 144.001 138.297 144.244 138.025C144.442 137.783 144.564 137.487 144.596 137.176C144.627 136.875 144.547 136.573 144.372 136.327C144.142 136.041 143.837 135.824 143.491 135.702C142.982 135.501 142.433 135.424 141.888 135.477H136.552V138.858H142ZM128.972 150.685L129.853 149.98C129.994 149.859 130.127 149.731 130.254 149.595C130.362 149.472 130.449 149.331 130.51 149.179C130.645 148.919 130.762 148.652 130.863 148.377C130.996 148.029 131.098 147.67 131.167 147.304C131.237 146.928 131.275 146.548 131.279 146.166V135.974C131.232 134.682 130.687 133.459 129.757 132.561H144.564C145.45 132.602 146.319 132.808 147.128 133.17C147.784 133.471 148.373 133.902 148.859 134.436C149.28 134.892 149.588 135.441 149.757 136.038C149.892 136.564 149.892 137.115 149.757 137.641C149.602 138.19 149.303 138.688 148.891 139.083C148.391 139.547 147.777 139.873 147.112 140.028C148.135 140.25 149.104 140.669 149.965 141.262C150.629 141.744 151.176 142.368 151.567 143.089C151.927 143.748 152.114 144.486 152.112 145.237C152.108 145.977 151.932 146.706 151.599 147.368C151.241 148.082 150.733 148.711 150.109 149.211C149.403 149.78 148.592 150.205 147.721 150.461C147.17 150.616 146.607 150.728 146.039 150.797C145.4 150.874 144.758 150.917 144.116 150.925C143.447 150.933 142.778 150.901 142.112 150.829C141.461 150.776 140.813 150.68 140.173 150.541C139.594 150.438 139.026 150.283 138.475 150.076C138.007 149.914 137.565 149.688 137.161 149.403C137.593 149.241 137.951 148.928 138.17 148.522C138.385 148.14 138.526 147.721 138.587 147.288C138.635 146.899 138.635 146.506 138.587 146.118C138.587 145.749 138.587 145.493 138.491 145.333C139.098 145.992 139.82 146.535 140.622 146.935C141.303 147.25 142.026 147.461 142.77 147.56C143.401 147.658 144.045 147.658 144.677 147.56C145.152 147.478 145.608 147.31 146.023 147.063C146.354 146.871 146.634 146.601 146.84 146.278C147.02 145.976 147.124 145.635 147.144 145.285C147.141 144.929 147.059 144.579 146.904 144.259C146.714 143.881 146.44 143.552 146.103 143.297C145.649 142.982 145.153 142.734 144.628 142.56C143.938 142.335 143.222 142.201 142.497 142.16H136.584V150.813L128.972 150.685ZM120.542 135.862C120.498 134.565 119.952 133.336 119.02 132.432H127.033C126.109 133.34 125.57 134.568 125.526 135.862V146.166C125.546 147.028 125.747 147.876 126.117 148.655C126.487 149.434 127.018 150.126 127.674 150.685H118.251L119.132 149.98C119.273 149.859 119.407 149.731 119.533 149.595C119.636 149.468 119.722 149.328 119.789 149.179C119.886 148.97 120.014 148.714 120.142 148.377C120.268 148.027 120.369 147.668 120.446 147.304C120.516 146.928 120.554 146.548 120.559 146.166V141.102L110.943 146.823V147.047C110.937 147.421 110.985 147.794 111.088 148.153C111.18 148.462 111.321 148.754 111.504 149.018C111.696 149.312 111.922 149.581 112.177 149.82L113.091 150.685H103.668L104.533 149.98C104.742 149.804 104.87 149.676 104.95 149.595C105.053 149.468 105.139 149.328 105.206 149.179C105.335 148.919 105.447 148.651 105.543 148.377C105.683 148.032 105.785 147.672 105.847 147.304C105.925 146.93 105.963 146.548 105.96 146.166V135.814C105.922 134.518 105.382 133.288 104.453 132.384H112.466C111.552 133.297 111.02 134.523 110.975 135.814V141.807L120.591 136.31L120.542 135.862ZM81.7935 127.32V147.047C81.8129 148.138 81.6392 149.223 81.2807 150.252C81.146 150.661 80.9909 151.062 80.816 151.454C80.6934 151.715 80.5429 151.963 80.3673 152.192L79.3737 153.233C79.2386 153.025 79.0886 152.827 78.925 152.64L78.6205 152.256C78.2657 151.968 77.8908 151.705 77.4987 151.47C77.1334 151.263 76.7465 151.097 76.3449 150.974C75.8642 150.813 75.3033 150.669 74.6463 150.509C75.2378 150.058 75.7287 149.489 76.0875 148.838C76.4462 148.187 76.6649 147.468 76.7295 146.727V127.256C76.7276 126.721 76.5839 126.196 76.3129 125.734C76.2188 125.506 76.089 125.295 75.9283 125.109C75.8 124.933 75.6719 124.788 75.5597 124.66L74.4219 123.635H102.242C101.506 124.131 100.866 124.755 100.351 125.477C99.9758 126.015 99.7643 126.649 99.7418 127.304V147.047C99.7302 147.604 99.8568 148.154 100.11 148.65C100.307 149.046 100.573 149.405 100.896 149.708C100.965 149.777 101.04 149.842 101.12 149.9L101.537 150.236C101.659 150.362 101.793 150.474 101.937 150.573C102.008 150.641 102.083 150.706 102.162 150.765H92.1939C92.8606 150.392 93.4317 149.869 93.8626 149.238C94.2935 148.607 94.5725 147.884 94.6778 147.128V127.256L81.7935 127.32Z" fill="white"/>
<path d="M167.207 162.319L169.691 163.184C170.589 163.489 171.422 163.761 172.223 164.002V158.746H167.784C167.416 158.746 167.031 158.746 166.663 158.746C166.323 158.784 165.989 158.865 165.669 158.986C165.411 159.107 165.189 159.295 165.028 159.531C164.86 159.816 164.803 160.152 164.868 160.476C164.905 160.669 164.983 160.852 165.096 161.012C165.209 161.172 165.355 161.307 165.525 161.406C165.988 161.732 166.495 161.991 167.031 162.175L167.207 162.319ZM178.329 155.316C177.964 155.577 177.644 155.896 177.383 156.262C177.165 156.6 176.992 156.967 176.871 157.351C176.759 157.749 176.689 158.157 176.662 158.569C176.662 158.997 176.662 159.445 176.662 159.915V170.396C176.679 171.671 177.151 172.899 177.992 173.857H170.845C171.672 172.891 172.136 171.667 172.159 170.396V167.784L170.429 167.255L168.457 166.678C168.09 167.241 167.799 167.85 167.592 168.489C167.385 169.163 167.214 169.848 167.079 170.54C166.972 171.166 166.897 171.797 166.855 172.431C166.815 172.89 166.815 173.351 166.855 173.809H160.365L160.188 173.056C160.729 172.602 161.19 172.06 161.551 171.454C161.903 170.829 162.24 170.188 162.544 169.498L163.506 167.383C163.854 166.651 164.261 165.949 164.724 165.284C164.173 165.004 163.638 164.693 163.121 164.354C162.611 164.027 162.139 163.645 161.711 163.217C161.313 162.81 160.987 162.339 160.749 161.822C160.506 161.296 160.391 160.719 160.413 160.14C160.424 159.442 160.612 158.759 160.958 158.153C161.126 157.874 161.319 157.612 161.535 157.367C161.759 157.127 161.983 156.887 162.24 156.646C163.546 155.644 165.184 155.174 166.823 155.332L178.329 155.316ZM152.897 158.778C152.874 157.498 152.404 156.268 151.567 155.3H158.586C157.763 156.275 157.299 157.502 157.272 158.778V169.306C157.279 170.144 157.414 170.977 157.672 171.774C157.938 172.57 158.376 173.298 158.954 173.905H151.086C151.448 173.64 151.766 173.321 152.032 172.96C152.267 172.626 152.45 172.259 152.576 171.87C152.705 171.474 152.791 171.066 152.833 170.652C152.858 170.204 152.858 169.755 152.833 169.306V165.909H144.355V170.172C144.35 170.548 144.382 170.924 144.452 171.293C144.514 171.602 144.611 171.903 144.74 172.191C144.866 172.48 145.034 172.75 145.237 172.992C145.445 173.248 145.702 173.553 146.006 173.873H138.186C138.547 173.608 138.866 173.289 139.131 172.928C139.361 172.593 139.54 172.226 139.66 171.838C139.789 171.442 139.874 171.034 139.917 170.62C139.917 170.182 139.917 169.733 139.917 169.274V158.81C139.901 157.529 139.429 156.296 138.586 155.332H145.621C144.792 156.303 144.327 157.533 144.307 158.81V162.207H152.785L152.897 158.778ZM118.603 156.165C118.584 154.886 118.113 153.654 117.273 152.688H124.372C123.542 153.659 123.077 154.889 123.058 156.165V156.582C123.058 156.582 123.058 156.582 123.154 156.502H123.266L123.907 156.053L124.532 155.669C125.092 155.378 125.684 155.152 126.295 154.996C127.038 154.8 127.803 154.703 128.571 154.707C130.716 154.648 132.802 155.41 134.404 156.839C135.211 157.569 135.845 158.47 136.261 159.476C136.677 160.482 136.863 161.568 136.808 162.656C136.808 167.143 134.425 170.561 129.66 172.912C128.716 173.362 127.741 173.748 126.744 174.066C125.695 174.391 124.624 174.637 123.539 174.803C123.835 174.128 124.008 173.407 124.051 172.671C124.04 171.982 123.893 171.301 123.619 170.668H123.827H124.18H124.532H124.821H124.917H125.045L125.814 170.396L127.032 169.915C127.924 169.532 128.777 169.065 129.58 168.521C130.356 167.908 131.013 167.158 131.519 166.309C132.103 165.342 132.414 164.234 132.417 163.104C132.455 162.514 132.366 161.923 132.156 161.37C131.946 160.817 131.619 160.315 131.199 159.899C130.753 159.503 130.233 159.198 129.67 159.003C129.106 158.808 128.509 158.726 127.914 158.762C127 158.76 126.101 158.993 125.304 159.44C124.507 159.886 123.838 160.53 123.362 161.31C123.282 161.31 123.25 161.454 123.218 161.486C123.183 161.559 123.14 161.629 123.09 161.694V177.96C123.104 179.684 123.781 181.336 124.981 182.575H116.664C116.936 182.303 117.177 182.094 117.353 181.902L117.738 181.501C118.004 181.1 118.2 180.655 118.314 180.187C118.574 179.473 118.704 178.719 118.699 177.96L118.603 156.165ZM109.725 173.793V173.377C109.077 173.732 108.38 173.991 107.658 174.146C106.908 174.328 106.138 174.42 105.366 174.418C102.954 174.495 100.603 173.647 98.7958 172.046C97.9002 171.246 97.1961 170.254 96.7356 169.144C96.2752 168.035 96.0701 166.836 96.1356 165.636C96.1249 164.183 96.4484 162.746 97.081 161.438C97.7249 160.139 98.6371 158.992 99.7573 158.072C101.03 157.112 102.462 156.385 103.988 155.925C105.733 155.399 107.55 155.145 109.372 155.172H115.462C114.619 156.136 114.148 157.369 114.132 158.649V169.306C114.143 171.023 114.814 172.67 116.007 173.905L109.725 173.793ZM105.687 170.588C106.435 170.604 107.18 170.479 107.882 170.22C108.167 170.102 108.445 169.968 108.715 169.819C108.896 169.722 109.067 169.609 109.228 169.482C109.328 169.388 109.435 169.302 109.549 169.226C109.628 169.159 109.693 169.078 109.741 168.986V159.05H109.148C106.948 158.976 104.781 159.605 102.962 160.845C102.175 161.394 101.539 162.132 101.114 162.992C100.688 163.852 100.486 164.806 100.526 165.765C100.494 166.432 100.602 167.099 100.842 167.722C101.082 168.346 101.449 168.913 101.921 169.386C102.953 170.305 104.307 170.778 105.687 170.7V170.588ZM85.7672 161.71C86.174 161.746 86.583 161.674 86.9531 161.502C87.2616 161.36 87.527 161.139 87.7223 160.861C87.9117 160.61 88.0231 160.309 88.0428 159.995C88.0711 159.697 87.9977 159.398 87.8345 159.146C87.6558 158.85 87.3859 158.619 87.0653 158.489C86.6349 158.31 86.1674 158.239 85.7031 158.281H81.0077V161.694L85.7672 161.71ZM74.3092 173.729L75.0624 173.008C75.1946 172.889 75.3178 172.761 75.4309 172.623C75.5232 172.495 75.5986 172.355 75.6553 172.207C75.9119 171.592 76.1051 170.953 76.2322 170.3C76.277 169.97 76.2984 169.638 76.2963 169.306V158.89C76.2727 157.616 75.8019 156.39 74.9662 155.428H87.9947C88.779 155.484 89.5431 155.702 90.2383 156.069C90.8311 156.377 91.3504 156.808 91.7607 157.335C92.1305 157.809 92.3979 158.355 92.5459 158.938C92.6818 159.496 92.6818 160.078 92.5459 160.636C92.4101 161.177 92.1463 161.677 91.7767 162.095C91.3472 162.567 90.791 162.907 90.1742 163.072C91.0879 163.295 91.9414 163.717 92.6741 164.306C93.2953 164.813 93.7938 165.454 94.1324 166.181C94.4504 166.858 94.6146 167.597 94.6131 168.345C94.6194 169.095 94.4664 169.837 94.1644 170.524C93.858 171.232 93.4109 171.87 92.8504 172.399C92.247 172.963 91.5318 173.395 90.7511 173.665C90.2746 173.835 89.7798 173.948 89.2768 174.002C88.7198 174.085 88.1573 174.128 87.5941 174.13C87.0055 174.135 86.417 174.109 85.8314 174.05C85.253 173.991 84.6798 173.889 84.1166 173.745C83.6009 173.638 83.0965 173.483 82.6103 173.28C82.1994 173.107 81.8161 172.875 81.4725 172.591C81.8635 172.399 82.1752 172.076 82.3539 171.678C82.5414 171.29 82.6607 170.872 82.7064 170.444C82.7458 170.05 82.7458 169.652 82.7064 169.258C82.7064 168.889 82.7064 168.617 82.6263 168.457C83.1364 169.112 83.7742 169.658 84.5012 170.059C85.0816 170.386 85.7172 170.603 86.3762 170.7C86.9059 170.799 87.4491 170.799 87.9787 170.7C88.4079 170.624 88.8169 170.46 89.1806 170.22C89.4774 170.007 89.7191 169.727 89.8857 169.402C90.0487 169.095 90.1417 168.756 90.1581 168.409C90.1664 168.045 90.0953 167.684 89.9498 167.351C89.7905 166.981 89.5494 166.653 89.2447 166.39C88.8568 166.068 88.4182 165.814 87.9466 165.636C87.3499 165.413 86.7236 165.278 86.0877 165.236H81.1039V174.034L74.3092 173.729Z" fill="white"/>
</svg>
