<svg width="267" height="62" viewBox="0 0 267 62" fill="none" xmlns="http://www.w3.org/2000/svg">
<path d="M53.6745 41.1832C58.6119 33.2977 59.6788 13.7188 43.8962 5.65406C32.4374 -0.201648 18.2322 2.56636 9.88732 12.1978C6.52119 16.0835 3.74744 20.6724 2.74925 26.8686C0.367496 41.6545 9.71725 59.2671 33.2798 55.3886C44.922 53.4724 50.3888 46.4307 53.6745 41.1832ZM15.3988 57.7611C-14.7176 43.2868 1.79178 -9.43246 43.6694 1.50142C67.5472 7.73585 73.4655 37.7503 56.9608 52.9301C47.8602 61.3001 29.6134 64.5931 15.3988 57.7611Z" fill="#EF7F1A"/>
<path fill-rule="evenodd" clip-rule="evenodd" d="M28.7391 25.5482C28.7391 25.5482 29.1797 13.3313 29.2384 7.78593C29.3125 0.778454 49.6278 7.34334 44.4795 13.3338C39.7027 17.7828 35.3431 21.8832 30.6063 26.4526C28.9336 28.0665 28.7294 26.8279 28.7391 25.5482Z" fill="#EF7F1A"/>
<path fill-rule="evenodd" clip-rule="evenodd" d="M31.0314 26.956C31.4961 26.5513 39.0509 19.7017 44.6223 14.8621C51.8782 8.55899 58.4555 30.0231 49.5542 29.71L31.7031 29.0827C30.4448 29.0237 29.102 28.6367 31.0314 26.956Z" fill="#EF7F1A"/>
<path fill-rule="evenodd" clip-rule="evenodd" d="M31.8618 29.6384C36.0116 29.852 43.7347 30.3633 49.3952 30.7063C56.3349 31.1267 53.0678 38.845 50.2571 42.7218C46.4627 47.9545 42.0748 47.3271 39.6355 43.975C36.4769 39.7106 33.4628 35.6413 30.3765 31.4744C28.9863 29.5978 29.6704 29.5124 31.8618 29.6384Z" fill="#EF7F1A"/>
<path fill-rule="evenodd" clip-rule="evenodd" d="M26.7712 32.9669C26.0039 35.4453 23.915 42.0412 21.7828 47.8849C19.5309 54.056 26.5222 55.012 34.0381 53.5009C41.4126 52.0182 40.7785 47.9967 38.5293 44.7857L29.6896 32.1647C27.9488 29.4134 27.3491 31.1007 26.7712 32.9669Z" fill="#EF7F1A"/>
<path fill-rule="evenodd" clip-rule="evenodd" d="M28.2429 25.7294C28.2429 25.7294 28.158 16.3481 28.1342 8.87578C28.1058 -0.0480766 7.01453 11.994 13.6514 17.2205L26.0519 26.9858C27.6247 28.2244 28.2427 27.2158 28.2429 25.7294Z" fill="#EF7F1A"/>
<path fill-rule="evenodd" clip-rule="evenodd" d="M25.2515 27.4162C25.2515 27.4162 16.3475 20.5469 12.5083 17.5505C6.2692 12.6809 0.489564 36.6359 8.09947 34.3822L24.9088 29.4045C26.4432 28.9713 26.3851 28.3071 25.2515 27.4162Z" fill="#EF7F1A"/>
<path fill-rule="evenodd" clip-rule="evenodd" d="M26.0428 32.2463C24.8454 35.7464 22.3261 43.6667 19.9329 49.3329C18.5 52.7249 13.0849 50.7543 9.47942 46.4709C6.29268 42.6845 3.74391 36.7794 9.13209 35.1253L24.5746 30.3851C27.3162 29.5437 26.7464 30.1896 26.0428 32.2463Z" fill="#EF7F1A"/>
<path fill-rule="evenodd" clip-rule="evenodd" d="M125.65 28.851C125.65 29.7376 125.671 30.6059 125.896 31.4265C126.15 32.3599 126.649 33.2329 127.408 33.9636C128.366 34.8875 129.784 35.5526 131.454 35.5526C133.545 35.5526 134.753 34.7885 135.755 34.2062C136.758 33.6265 138.789 32.4661 140.688 31.4636C142.587 30.4617 145.147 29.1685 145.147 29.1685C145.147 29.1685 144.858 30.3294 145.041 31.4102C145.226 32.4927 145.622 33.6805 146.862 34.5763C148.1 35.4731 149.552 35.6568 150.714 35.5526C151.875 35.4467 153.087 34.9448 153.933 34.1016C154.774 33.2559 155.278 31.8583 155.699 30.5128C156.121 29.1685 157.599 24.7297 157.599 24.7297C157.599 24.7297 159.881 31.582 160.426 32.5718C160.973 33.5626 162.087 35.5449 165.035 35.5449C167.986 35.5449 169.538 33.3788 169.538 33.3788C169.538 33.3788 171.036 35.5023 173.869 35.5594C176.699 35.6145 179.312 34.3717 182.763 32.0198C186.212 29.6664 188.256 26.4163 188.256 26.4163C188.256 26.4163 188.83 28.1538 189.303 29.1041C189.78 30.0532 190.53 31.6545 192.882 33.4927C195.236 35.3316 197.844 35.6469 199.683 35.5877C201.521 35.5276 203.892 35.1539 206.166 33.7315C208.439 32.3063 210.14 30.0336 210.14 30.0336C210.14 30.0336 210.219 31.7519 210.97 33.2363C211.721 34.718 213.48 35.5276 215.398 35.5276C217.315 35.5276 218.463 34.7388 218.996 34.1837C219.528 33.6319 220.083 32.563 220.618 31.5951C221.149 30.6251 222.902 27.4407 222.902 27.4407C222.902 27.4407 222.987 29.6782 223.092 30.4217C223.194 31.1689 223.46 32.7548 224.404 33.8395C225.347 34.9249 226.47 35.2862 227.123 35.4092C227.773 35.5309 228.831 35.7379 229.992 35.3238C231.154 34.9073 231.784 34.4638 232.344 33.8508C232.901 33.2377 233.018 32.8936 233.241 32.3499C233.586 33.3048 234.074 33.9062 234.677 34.4458C235.609 35.2862 236.932 35.5492 237.801 35.5492C238.669 35.5492 239.536 35.4736 240.452 34.9857C241.368 34.4921 242.077 34.0483 242.756 32.8691C243.437 31.6888 243.522 30.5548 243.539 29.7728C243.558 28.9893 243.466 27.9782 243.43 27.3356C243.39 26.6944 243.332 25.0423 243.332 25.0423L245.355 23.9291C245.355 23.9291 245.381 26.9027 245.381 27.7694C245.381 28.6382 245.326 30.009 245.618 31.1875C245.909 32.3675 246.439 33.4537 247.6 34.3883C248.761 35.3238 249.961 35.5404 250.761 35.5404C251.565 35.5404 252.698 35.4652 253.746 34.7388C254.793 34.0112 255.208 33.5015 255.701 32.662C256.191 31.8197 256.354 30.9509 256.447 29.8198C256.54 28.6863 256.342 26.7303 256.23 25.2484C256.116 23.7674 255.966 21.7953 255.87 20.273C255.776 18.7546 255.748 16.5935 255.738 15.0058C255.729 13.4211 255.794 11.0497 255.862 9.67211C255.928 8.29304 255.785 7.24444 255.276 6.36734C254.767 5.4888 253.615 4.07277 251.064 4.07277C248.513 4.07277 247.174 5.61492 246.516 6.77332C245.854 7.9337 245.693 9.27402 245.588 10.2096C245.483 11.1438 245.419 12.6829 245.419 12.6829C245.419 12.6829 245.06 12.91 244.4 13.2483C243.74 13.5908 243.182 13.8809 243.182 13.8809C243.182 13.8809 243.345 12.5205 243.563 11.2033C243.781 9.88955 243.81 8.49254 243.234 6.95972C242.659 5.42493 241.412 4.42458 239.648 4.13736C237.882 3.85426 236.308 4.64327 235.66 5.15116C235.017 5.65923 234.361 6.41093 234.004 6.98556C233.648 7.56144 233.456 8.1375 233.456 8.1375C233.456 8.1375 233.388 7.04727 232.686 6.0175C231.986 4.98791 231.079 4.57546 229.906 4.22491C228.731 3.87454 227.247 4.1013 226.341 4.51446C225.434 4.92547 224.63 5.85353 224.054 6.67663C223.478 7.5008 222.346 9.17015 221.789 9.99271C221.232 10.8178 220.428 12.1163 220.428 12.1163C220.428 12.1163 220.428 10.6533 220.449 9.49809C220.47 8.34776 220.077 7.06754 219.46 6.16281C218.841 5.25575 217.75 4.57546 216.658 4.26796C215.566 3.95742 213.979 3.97894 212.701 4.57546C211.424 5.17197 210.805 6.08011 210.268 7.08925C209.733 8.09767 209.672 8.98428 209.733 10.3232C209.797 11.6624 209.94 13.0853 209.961 14.8766C209.981 16.6701 210.023 19.3886 210.023 19.3886C210.023 19.3886 209.056 18.9137 207.674 19.1819C206.294 19.4497 205.8 19.9253 205.326 20.3995C204.852 20.8733 204.295 21.8604 203.843 22.6255C203.389 23.3867 202.854 24.1279 201.926 24.5197C200.999 24.91 200.03 24.7884 199.433 24.1697C198.836 23.5509 198.238 22.2328 198.155 20.5633C198.075 18.8943 198.134 17.9047 198.856 16.2975C199.577 14.6914 200.979 13.9507 201.904 13.8269C202.833 13.7026 203.492 13.9091 204.398 13.9507C205.305 13.9912 206.356 13.8052 207.118 13.2693C207.88 12.7342 208.519 11.7873 208.787 10.8795C209.056 9.97405 209.178 8.11795 208.209 6.57365C207.242 5.02917 205.202 4.32698 203.636 4.12193C202.07 3.91705 199.598 4.05968 197.27 5.09214C194.941 6.12155 193.458 7.23206 191.644 9.51962C189.832 11.8081 188.739 14.671 188.739 14.671C188.739 14.671 187.521 12.7125 184.7 11.7207C181.877 10.732 178.422 11.666 178.422 11.666C178.422 11.666 178.422 9.23598 177.88 7.50026C177.337 5.76275 175.789 4.09968 173.095 4.09968C170.403 4.09968 169.003 5.96709 168.557 7.03346C168.106 8.09696 167.976 9.64753 168.05 11.0309C168.125 12.4143 168.203 14.4805 168.245 17.3057C168.288 20.1259 168.288 22.6973 168.288 22.6973C168.288 22.6973 166.391 17.5161 164.831 13.4281C163.272 9.3395 162.135 6.27207 160.447 5.05123C159.453 4.32824 158.47 4.06578 157.437 4.0699C156.133 4.07277 154.937 4.50442 154.017 5.25199C152.835 6.20659 152.336 7.60773 152.239 8.42975C152.118 9.48356 152.357 10.3085 152.357 10.3085C152.357 10.3085 150.766 13.7921 149.804 16.0449C148.841 18.3001 148.019 20.4609 148.019 20.4609C148.019 20.4609 147.643 20.1544 146.868 19.7797C146.093 19.4038 145.343 19.4275 145.343 19.4275C145.343 19.4275 147.15 18.489 147.174 15.6712C147.198 12.8526 145.155 11.936 145.155 11.936C145.155 11.936 147.005 10.7645 147.022 8.21644C147.041 5.66587 144.942 4.3722 143.382 4.13359C141.822 3.89463 139.49 4.47464 139.49 4.47464L133.213 5.98682C133.213 5.98682 131.898 5.06559 129.869 5.38044C127.845 5.69852 126.795 7.01121 126.795 7.01121C126.795 7.01121 126.525 5.74248 125.092 4.81694C123.661 3.88961 122.316 4.02021 120.547 4.14812C118.779 4.27335 114.414 5.09519 112.603 5.47427C110.792 5.85353 109.805 6.06002 109.805 6.06002C109.805 6.06002 108.701 5.47229 107.339 5.47229C105.979 5.47229 104.924 5.95381 104.091 6.67985C103.256 7.40338 102.927 8.41307 102.927 8.41307C102.927 8.41307 101.675 8.70011 100.424 9.88489C99.1723 11.0702 98.9976 12.0576 98.8869 12.5641C98.778 13.07 98.757 13.9249 98.757 13.9249C98.757 13.9249 98.2253 13.7623 97.4451 13.8386C96.6647 13.9105 96.1171 14.129 96.1171 14.129C96.1171 14.129 95.2538 11.7916 94.3733 9.65507C93.4939 7.51946 92.5895 5.83541 91.3843 5.00836C90.1778 4.17808 89.1174 3.91346 87.772 4.05286C86.4285 4.19046 85.1565 5.11457 84.5485 6.05822C83.8327 7.1646 83.6479 8.34992 83.7457 9.22863C82.9775 10.8215 81.2306 14.7002 79.4479 19.4275C77.6663 24.1517 76.4608 27.3187 76.1795 29.1671C75.9004 31.0187 75.8945 32.2473 77.2951 33.9306C78.1499 34.9577 79.5532 35.5355 80.9136 35.5425C81.8184 35.5449 82.6402 35.4125 83.3187 35.1069C85.0573 34.3199 85.7914 33.0356 86.1868 31.8779C86.5849 30.7196 86.8018 29.8983 86.8018 29.8983L89.6532 28.2161C89.6532 28.2161 90.2137 29.8268 90.8703 31.4156C91.2153 32.251 91.695 32.972 92.1484 33.5024C93.2332 34.7761 94.7108 35.6539 96.6426 35.5492C97.7502 35.4876 98.9293 35.0863 99.7917 34.361C101.461 32.9575 101.513 30.7394 101.433 29.7225C101.329 28.4427 99.2238 22.5048 99.188 22.3763C99.7838 21.9571 100.206 21.7255 101.054 20.6668C101.901 19.6096 101.878 18.8265 102.005 18.4406C102.027 19.6998 102 24.5871 102.139 27.3542C102.274 30.119 102.442 33.0329 104.351 34.3789C106.255 35.7241 106.924 35.5002 108.163 35.5002C109.4 35.5002 111.245 34.6572 112.201 32.92C112.644 32.1111 112.758 31.1027 112.795 30.1167C112.839 28.9771 112.766 27.868 112.704 27.0869C112.594 25.6291 112.314 15.7571 112.314 15.7571L113.491 15.3669C113.491 15.3669 113.715 22.6567 113.938 26.4163C114.163 30.1726 114.302 32.2211 115.584 33.7465C116.102 34.361 116.611 34.7324 117.141 35.0015C117.94 35.4092 118.755 35.5562 119.771 35.5562C121.46 35.5562 123.289 34.5481 124.129 33.0329C124.412 32.5235 124.692 31.8779 124.773 31.1705C124.932 29.7749 124.669 28.1467 124.593 26.9185C124.482 25.0688 124.202 18.9555 124.202 16.3755C124.202 13.7959 124.26 12.6757 124.26 12.6757C124.641 12.5208 125.012 12.3079 125.366 12.0363C125.394 13.0987 125.492 17.3855 125.604 21.9277C125.716 26.4696 125.65 28.851 125.65 28.851ZM248.342 13.7892C248.411 11.2162 248.549 9.64717 248.855 8.73366C249.227 7.61544 250.02 7.02592 251.027 7.02592C251.713 7.02592 252.163 7.16639 252.525 7.55785C252.858 7.91881 252.967 8.51819 252.929 9.26828C252.661 14.3942 252.766 19.4881 253.217 24.6266C253.343 26.0641 253.511 27.8042 253.521 29.2421C253.527 30.427 253.304 31.0828 252.805 31.6816C252.302 32.2824 251.67 32.5984 250.915 32.5984C250.197 32.5984 249.515 32.3022 249.03 31.6603C248.547 31.0149 248.368 30.2848 248.352 29.0081C248.314 26.0067 248.32 23.4788 248.267 20.4811C248.257 19.8909 248.254 19.2989 248.257 18.7029C248.024 18.8514 247.78 19.0048 247.528 19.1657C243.931 21.4284 242.634 22.0697 240.295 23.3164C240.382 25.1487 240.429 26.5911 240.484 27.6445C240.548 28.9403 240.924 30.8097 239.822 31.8811C239.329 32.3585 238.681 32.5984 237.876 32.5984C237.138 32.5984 236.543 32.3292 236.208 31.7648C235.776 31.0336 235.694 29.7819 235.644 28.0469C235.454 21.2861 235.496 19.0967 235.545 14.3246C235.569 12.0083 235.794 10.3277 236.274 9.0625C236.485 8.5042 236.848 7.99147 237.306 7.62082C237.758 7.25107 238.307 7.02377 238.9 7.02377C239.459 7.02377 239.942 7.19815 240.275 7.68002C240.726 8.33072 240.794 8.90265 240.78 9.90067C240.767 10.673 240.317 12.479 240.233 13.7853C240.142 15.1697 240.131 16.8037 240.153 18.4302C242.373 17.4593 243.704 17.068 246.944 15.2157C246.944 15.2157 247.58 14.8479 248.327 14.4227C248.334 14.2117 248.338 14.0002 248.342 13.7892ZM226.765 7.94769C226.813 7.87073 226.869 7.79717 226.926 7.72828C226.94 7.70765 226.955 7.68684 226.969 7.66639C226.97 7.66711 226.971 7.66818 226.972 7.67141C227.315 7.28624 227.807 7.02592 228.499 7.02592C229.561 7.02592 230.562 7.44734 230.507 8.61238C230.462 9.61273 230.325 10.9548 230.301 11.8174C230.147 17.3403 230.188 22.3875 230.378 27.7283C230.392 29.7326 230.634 30.3992 230.467 31.2808C230.322 32.0456 229.267 32.5984 228.532 32.5984C227.8 32.5984 226.956 32.4351 226.576 31.8101C226.244 31.2611 226.053 30.6185 225.981 29.7039C225.875 28.3619 225.841 27.0385 225.813 25.6905C225.794 24.91 225.863 21.6864 226.013 15.963C223.998 19.4413 222.524 21.9372 220.598 25.4865C219.597 27.33 218.578 29.1671 217.492 30.9557C217.289 31.8709 216.772 32.5616 215.447 32.5718C214.588 32.5772 213.855 32.4234 213.451 31.5951C213.15 30.9771 213.045 30.0612 213.06 29.2145C213.024 25.6497 212.993 22.0859 212.958 18.5237C212.947 17.7863 212.938 15.0305 212.884 14.2833C212.832 13.5361 212.799 12.7099 212.778 11.9434C212.733 10.2893 212.494 9.45809 212.877 8.49254C213.264 7.52359 214.024 7.02592 215.08 7.02592C215.947 7.02592 216.371 7.24156 216.88 7.7064C217.741 8.49667 217.436 10.5112 217.489 12.8192C217.469 15.9331 217.449 18.5256 217.511 21.9081C217.52 21.8982 217.526 21.8875 217.534 21.8789C217.536 22.1275 217.54 22.3801 217.542 22.6325C220.57 17.6539 223.326 12.6977 226.765 7.94769ZM209.624 23.4201C209.351 25.6497 208.301 27.8596 206.767 29.4195C204.761 31.4712 202.601 32.6341 199.134 32.6355C197.237 32.6355 195.57 31.9295 194.143 30.6868C191.493 28.3718 190.533 24.5785 190.541 21.1828C190.549 18.1776 191.309 15.4135 192.939 12.8192C194.016 11.1052 195.231 9.76486 196.6 8.80614C198.258 7.64361 200.297 6.98358 202.326 6.99112C203.026 6.9956 203.595 7.07023 204.155 7.25879C205.146 7.5923 205.785 7.98716 205.946 8.66064C206.152 9.52411 206.006 10.9202 204.864 10.997C204.131 11.0462 203.791 10.809 202.641 10.809C201.662 10.809 200.88 11.0042 200.058 11.3382C198.658 11.9105 197.504 12.9272 196.588 14.37C195.625 15.8852 195.158 17.6432 195.158 19.5807C195.159 21.9298 195.752 24.6433 197.498 26.3252C198.413 27.2087 199.564 27.6603 200.831 27.6601C202.043 27.6598 203.192 27.2983 204.2 26.6271C204.93 26.1409 205.765 25.177 206.759 23.4589C207.233 22.6433 207.526 22.064 208.493 22.0631C209.473 22.0618 209.709 22.7319 209.624 23.4201ZM175.883 20.0242C175.927 22.6017 175.789 25.21 175.743 27.9107C178.431 26.5392 180.162 25.1557 181.079 24.2181C182 23.2755 183.031 21.8035 183.031 19.7877C183.031 18.9137 182.496 18.0195 181.248 18.0195C180.398 18.0195 179.608 18.1812 178.532 18.5942C177.456 19.003 176.852 19.4072 175.883 20.0242ZM171.192 28.9764C171.293 23.1137 171.285 17.3057 171.033 11.6202C170.949 10.2729 170.976 9.35314 171.089 8.73653C171.277 7.69312 172.127 7.02592 173.226 7.02592C174.1 7.02592 174.741 7.56862 175.068 8.41827C175.393 9.26541 175.549 11.6701 175.605 15.7049C177.52 14.8554 179.755 14.2015 181.929 14.2015C184.83 14.2015 187.326 16.4325 187.329 19.3697C187.329 21.7617 186.423 24.1519 185.017 25.8889C183.417 27.8598 182.139 28.9208 179.276 30.7742C178.043 31.5732 175.805 32.6007 174.041 32.5984C173.2 32.5976 172.578 32.3154 172.131 31.87C171.437 31.169 171.173 30.0652 171.192 28.9764ZM155.346 9.81438C155.218 9.55478 155.159 9.28478 155.159 9.02286C155.154 8.48519 155.388 7.98447 155.748 7.67303C156.192 7.2909 156.874 7.02592 157.288 7.02592C158.063 7.02503 158.663 7.15671 159.227 8.03775C159.845 9.00545 160.764 10.9513 162.11 14.5603C163.074 17.1435 164.035 19.7248 164.998 22.3105C166.197 25.5735 166.979 27.8551 167.223 28.5926C167.466 29.3269 167.591 29.8775 167.59 30.2433C167.59 30.9278 167.345 31.4911 166.867 31.9231C166.382 32.3599 165.765 32.5984 165.16 32.5984C164.602 32.5984 164.131 32.457 163.741 32.1825C163.35 31.9084 162.927 31.0967 162.459 29.7534C162.171 28.9328 161.882 28.1088 161.594 27.2895C160.474 24.0259 159.417 20.6754 158.291 17.3543C158.069 16.6956 157.851 16.0571 157.633 15.4311C157.543 15.6866 157.443 15.9828 157.325 16.3332C155.952 20.4286 153.487 27.6522 153.017 29.2001C152.679 30.3158 152.246 31.6784 151.722 32.1235C151.348 32.4432 150.874 32.5984 150.199 32.5984C149.667 32.5984 149.088 32.5334 148.641 32.2178C148.16 31.8779 147.958 31.3006 147.958 30.4767C147.957 29.3865 149.073 26.2378 149.698 24.3957C151.025 20.489 152.634 16.9388 154.265 13.2458C154.848 11.9236 155.288 11.0625 155.634 10.4202C155.541 10.2161 155.445 10.0144 155.346 9.81438ZM133.077 27.0317C136.297 25.3395 139.544 24.0685 142.249 23.0071C143.109 22.6724 144.077 22.3527 144.851 22.3527C145.999 22.3527 146.594 22.956 146.594 24.015C146.597 24.8557 145.908 25.3941 145.352 25.6992C141.995 27.5354 137.575 29.6072 134.022 31.8063C133.347 32.2247 132.675 32.6048 131.271 32.5984C129.856 32.591 128.66 31.3919 128.634 29.9758C128.504 23.5929 128.49 18.117 128.313 11.4294C128.277 9.86443 128.87 8.26272 130.636 8.26272C131.343 8.26272 132.034 8.52304 132.348 9.25823C134.718 8.62978 137.354 8.07633 139.824 7.466C140.7 7.24838 141.516 7.02592 142.469 7.02592C143.773 7.02592 144.041 7.67303 144.041 8.36714C144.041 9.45952 142.899 9.84434 142.114 10.1181C139.123 11.1664 135.802 12.1387 132.834 13.1335C132.836 14.7822 132.928 15.8631 132.925 17.6724C134.386 16.9961 135.512 16.6303 136.725 16.1008C138.087 15.5133 141.708 14.3021 142.889 14.3021C143.75 14.3021 144.253 14.8954 144.253 15.4995C144.257 16.6057 143.906 16.9241 142.922 17.4684C141.796 18.0906 139.912 18.7933 138.947 19.2714C136.958 20.2528 134.985 21.0889 132.989 22.1643C133.022 23.7048 133.074 25.2323 133.077 27.0317ZM109.414 13.6755C109.402 16.305 109.475 19.2942 109.51 22.3527C109.543 25.2263 110.026 28.2003 109.783 30.7288C109.66 32.0063 108.813 32.5984 107.704 32.5984C106.957 32.5984 105.943 32.2221 105.594 31.1357C105.4 30.5334 104.942 28.0372 104.966 21.696C104.978 19.6162 104.986 17.5337 104.994 15.4535C104.436 15.6512 103.855 15.7716 103.274 15.7212C102.351 15.6382 101.694 14.5779 101.701 13.6579C101.708 12.2905 102.835 11.5756 103.931 11.1466C104.436 10.9513 104.896 10.7727 105.325 10.6081C105.393 10.2579 105.455 10.0198 105.5 9.88489C105.848 8.79968 106.565 8.42204 107.312 8.42293C108.093 8.42383 108.684 8.72074 109.043 9.33627C110.363 8.96114 111.816 8.63786 114.057 8.18881C116.903 7.61813 120.284 6.98825 122.322 7.02987C123.026 7.04422 124.062 7.20102 124.062 8.48985C124.062 9.88076 123.059 10.0973 121.324 10.4376C121.307 11.5845 121.301 12.6617 121.305 13.7467C121.314 19.4837 121.368 22.8858 121.474 24.2481C121.604 25.914 121.807 28.5882 121.875 30.3955C121.926 31.7099 120.799 32.5976 119.642 32.6007C118.09 32.6079 117.402 31.7239 117.143 29.8212C116.964 28.5212 116.706 24.9029 116.563 19.5197C116.509 17.5725 116.438 15.3405 116.419 12.9381C116.414 12.3888 116.433 11.9172 116.474 11.5338C114.586 12.0018 112.738 12.5235 110.806 13.1629C110.342 13.3328 109.878 13.5063 109.414 13.6755ZM86.7968 9.73347C86.7216 9.3944 86.6771 9.06968 86.6771 8.76685C86.6771 7.56862 87.6301 6.94627 88.3773 6.96798C89.1861 6.99076 89.678 7.27117 90.2385 8.03201C90.7819 8.77223 91.5554 10.2878 92.9252 14.0388C93.413 15.3753 94.0151 16.7356 94.5407 18.1186C95.8934 17.404 96.6839 17.0228 97.2357 16.8628C98.0597 16.6238 99.0514 16.8782 99.0514 17.9336C99.0514 18.6126 98.5245 19.1774 98.0791 19.5285C97.7348 19.798 96.6132 20.5459 95.637 21.1733C95.7772 21.5554 95.918 21.9391 96.0592 22.3231C97.1557 25.6081 97.8706 27.7938 98.236 28.9245C98.4038 29.4389 98.5007 29.9816 98.5007 30.4859C98.5007 31.6506 97.8968 32.5984 96.2034 32.5984C95.0856 32.5984 94.2508 31.5885 93.8082 30.7022C93.2978 29.6866 92.5658 27.6944 91.43 24.3042C91.3723 24.1341 91.3158 23.9639 91.2575 23.7911C90.3007 24.3682 89.3565 24.9459 88.3822 25.5302C87.0392 26.3332 85.6798 27.1233 84.3185 27.9174C84.1762 28.381 84.037 28.8345 83.9043 29.2771C83.5941 30.2927 83.3424 31.3302 82.8851 31.8441C82.4798 32.2962 81.8736 32.5984 81.0814 32.5984C79.8794 32.5976 78.9833 31.8086 78.9833 30.6185C78.982 30.1246 79.074 29.5914 79.2086 29.0257C79.3058 28.6181 80.7032 23.7342 85.1561 13.2403C85.9082 11.4679 86.4443 10.4177 86.7968 9.73347ZM85.8949 22.8541C87.2876 22.0319 88.7325 21.2386 90.1681 20.4643C89.5657 18.5599 88.9783 16.7016 88.4048 14.77C87.9552 16.1563 87.4731 17.4697 87.034 19.0464C86.7525 20.0594 86.3468 21.393 85.8949 22.8541Z" fill="#EF7F1A"/>
<path fill-rule="evenodd" clip-rule="evenodd" d="M83.0679 42.5976L205.25 42.5601C204.872 42.6465 204.512 42.7642 204.172 42.9137C203.366 43.2667 202.678 43.7734 202.108 44.4343C201.537 45.0952 201.098 45.8919 200.79 46.8243C200.482 47.7568 200.329 48.7932 200.329 49.9339C200.329 52.3603 200.867 54.1886 201.945 55.42C202.975 56.5967 204.438 57.211 206.336 57.263L83.0679 57.2494C79.7746 57.2564 77.0796 54.8364 77.0796 51.5428V48.8137C77.0796 45.52 79.7744 42.6045 83.0679 42.5976Z" fill="#EF7F1A"/>
<path d="M212.993 54.2741C213.544 54.2741 214.095 54.2052 214.645 54.0676C215.196 53.93 215.652 53.775 216.014 53.6029C216.203 53.5168 216.337 53.491 216.414 53.5254C216.492 53.5599 216.556 53.6458 216.608 53.7836L217.253 55.2811C217.425 55.5564 217.374 55.7715 217.098 55.9264C216.393 56.3223 215.631 56.5848 214.813 56.714C213.996 56.8431 213.234 56.9077 212.529 56.9077C210.601 56.9077 209.125 56.3223 208.101 55.1521C207.076 53.9815 206.564 52.2432 206.564 49.9367C206.564 48.8523 206.711 47.8669 207.003 46.9804C207.296 46.094 207.713 45.3368 208.255 44.7085C208.798 44.0802 209.452 43.5983 210.218 43.2627C210.984 42.927 211.849 42.7593 212.813 42.7593C213.518 42.7593 214.202 42.8325 214.865 42.9787C215.528 43.1251 216.152 43.3531 216.737 43.6628C216.892 43.7489 216.986 43.835 217.021 43.9209C217.055 44.007 217.029 44.1362 216.943 44.3084L216.298 45.8316C216.229 45.9693 216.156 46.0553 216.079 46.0897C216.001 46.1242 215.859 46.0983 215.652 46.0122C215.239 45.8576 214.809 45.7241 214.362 45.6121C213.914 45.5002 213.441 45.4444 212.942 45.4444C212.356 45.4444 211.853 45.5691 211.431 45.8186C211.01 46.0684 210.665 46.3997 210.398 46.8127C210.132 47.2257 209.938 47.7034 209.818 48.2456C209.697 48.7878 209.637 49.3514 209.637 49.9367C209.637 50.5391 209.688 51.1028 209.792 51.6277C209.895 52.1526 210.071 52.6132 210.321 53.0091C210.571 53.4049 210.911 53.7147 211.341 53.9384C211.771 54.1623 212.322 54.2741 212.993 54.2741ZM218.002 43.4821C218.002 43.2928 218.036 43.1766 218.105 43.1335C218.174 43.0906 218.295 43.0689 218.467 43.0689H220.506C220.696 43.0689 220.825 43.0906 220.894 43.1335C220.962 43.1766 220.997 43.2928 220.997 43.4821V52.3636H221.1L222.701 49.7818C222.804 49.6268 222.916 49.4462 223.037 49.2397C223.157 49.033 223.346 48.7277 223.604 48.3229C223.863 47.9185 224.207 47.3721 224.637 46.6835C225.068 45.9952 225.644 45.0743 226.367 43.9209C226.591 43.594 226.789 43.3703 226.961 43.2498C227.133 43.1294 227.426 43.0689 227.839 43.0689H228.768C229.164 43.0689 229.478 43.1638 229.71 43.3531C229.943 43.5424 230.059 43.8608 230.059 44.3084V56.2105C230.059 56.3998 230.025 56.5161 229.956 56.5591C229.887 56.602 229.766 56.6235 229.594 56.6235H227.529C227.357 56.6235 227.236 56.602 227.167 56.5591C227.099 56.5161 227.064 56.3998 227.064 56.2105V47.4839H226.909L225.36 49.9625L221.617 55.7715C221.393 56.1158 221.182 56.3438 220.984 56.4558C220.786 56.5676 220.506 56.6235 220.145 56.6235H219.267C218.424 56.6235 218.002 56.2105 218.002 55.3842V43.4821ZM238.218 45.5734V56.1072C238.218 56.3309 238.179 56.473 238.101 56.5333C238.024 56.5936 237.878 56.6235 237.671 56.6235H235.795C235.588 56.6235 235.438 56.5891 235.352 56.5202C235.266 56.4513 235.223 56.3137 235.223 56.1072V45.5734H231.428C231.221 45.5734 231.083 45.5303 231.014 45.4444C230.945 45.3583 230.911 45.2291 230.911 45.0571V43.6371C230.911 43.4476 230.941 43.3057 231.001 43.211C231.062 43.1163 231.204 43.0689 231.428 43.0689H242.142C242.366 43.0689 242.508 43.1163 242.568 43.211C242.628 43.3057 242.658 43.4476 242.658 43.6371V45.0571C242.658 45.2291 242.624 45.3583 242.555 45.4444C242.486 45.5303 242.348 45.5734 242.142 45.5734H238.218ZM243.485 43.4821C243.485 43.2928 243.519 43.1766 243.588 43.1335C243.657 43.0906 243.777 43.0689 243.949 43.0689H245.989C246.178 43.0689 246.307 43.0906 246.376 43.1335C246.445 43.1766 246.479 43.2928 246.479 43.4821V52.3636H246.583L248.184 49.7818C248.287 49.6268 248.399 49.4462 248.519 49.2397C248.64 49.033 248.829 48.7277 249.087 48.3229C249.345 47.9185 249.689 47.3721 250.12 46.6835C250.55 45.9952 251.127 45.0743 251.85 43.9209C252.073 43.594 252.271 43.3703 252.443 43.2498C252.616 43.1294 252.908 43.0689 253.321 43.0689H254.251C254.647 43.0689 254.961 43.1638 255.193 43.3531C255.426 43.5424 255.542 43.8608 255.542 44.3084V56.2105C255.542 56.3998 255.507 56.5161 255.438 56.5591C255.37 56.602 255.249 56.6235 255.077 56.6235H253.011C252.839 56.6235 252.719 56.602 252.65 56.5591C252.581 56.5161 252.547 56.3998 252.547 56.2105V47.4839H252.392L250.843 49.9625L247.099 55.7715C246.875 56.1158 246.664 56.3438 246.467 56.4558C246.269 56.5676 245.989 56.6235 245.627 56.6235H244.75C243.906 56.6235 243.485 56.2105 243.485 55.3842V43.4821Z" fill="#EF7F1A"/>
<path d="M261.822 0C263.119 0 264.293 0.526188 265.144 1.3762H265.145C265.995 2.22639 266.521 3.40165 266.521 4.6991C266.521 5.99582 265.995 7.17073 265.145 8.02092L265.144 8.02217C264.293 8.872 263.119 9.39819 261.822 9.39819C260.524 9.39819 259.349 8.87236 258.499 8.02217V8.02092C257.649 7.17073 257.123 5.99582 257.123 4.6991C257.123 3.40165 257.649 2.22639 258.499 1.3762C259.349 0.526008 260.524 0 261.822 0ZM264.698 1.82255C263.962 1.08718 262.945 0.632036 261.822 0.632036C260.699 0.632036 259.682 1.08736 258.946 1.82327C258.21 2.559 257.755 3.57603 257.755 4.6991C257.755 5.82252 258.21 6.83973 258.945 7.57564L258.946 7.5751C259.682 8.31083 260.699 8.76634 261.822 8.76634C262.945 8.76634 263.962 8.31119 264.698 7.57564C265.434 6.83973 265.889 5.82252 265.889 4.6991C265.889 3.57603 265.434 2.559 264.698 1.82327L264.698 1.82255Z" fill="#EF7F1A"/>
<path d="M263.262 4.71608C263.448 4.79807 263.579 4.91378 263.655 5.06394C263.732 5.2141 263.794 5.38472 263.843 5.57578L264.261 7.21337C264.272 7.24602 264.271 7.28567 264.257 7.33196C264.243 7.37842 264.204 7.40156 264.138 7.40156H263.279C263.218 7.40156 263.156 7.39475 263.09 7.38111C263.025 7.36748 262.978 7.31976 262.951 7.23795L262.591 5.78873C262.52 5.52124 262.415 5.33556 262.276 5.23187C262.136 5.12817 261.944 5.07632 261.698 5.07632H260.904V7.2297C260.904 7.30612 260.893 7.35402 260.871 7.37304C260.849 7.39224 260.798 7.40156 260.716 7.40156H259.84C259.774 7.40156 259.726 7.38936 259.696 7.36478C259.666 7.34038 259.651 7.29518 259.651 7.2297V2.16139C259.651 1.99777 259.684 1.87363 259.75 1.78895C259.815 1.70427 259.946 1.66211 260.143 1.66211H262.148C262.744 1.66211 263.203 1.81227 263.528 2.11241C263.853 2.41273 264.016 2.81656 264.016 3.32427C264.016 3.60253 263.95 3.86446 263.819 4.11024C263.688 4.35584 263.5 4.54421 263.254 4.67518L263.262 4.71608ZM262.738 3.40608C262.738 3.33504 262.727 3.26148 262.705 3.18488C262.683 3.10845 262.647 3.03903 262.595 2.97623C262.543 2.91344 262.471 2.8616 262.378 2.82051C262.285 2.77961 262.168 2.75916 262.026 2.75916H260.912V4.06933H262.001C262.241 4.06933 262.424 4.0078 262.55 3.88509C262.675 3.7622 262.738 3.60253 262.738 3.40608Z" fill="#EF7F1A"/>
</svg>
