<svg width="250" height="190" viewBox="0 0 250 190" fill="none" xmlns="http://www.w3.org/2000/svg">
<path fill-rule="evenodd" clip-rule="evenodd" d="M209.427 171.123C209.771 170.951 210.072 170.704 210.308 170.4C210.524 170.07 210.66 169.694 210.706 169.302C210.751 168.91 210.703 168.512 210.567 168.142C210.251 166.945 209.89 165.759 209.506 164.585C208.262 160.573 206.776 156.64 205.057 152.807C203.747 149.976 202.316 147.198 200.766 144.473V164.517C200.766 166.775 201.104 168.582 202.155 169.542C203.713 171.078 207.451 172.151 209.427 171.089M207.078 86.9727H243.767V104.182C238.719 104.803 234.733 105.718 230.792 109.139C230.148 109.704 229.482 110.325 228.771 110.991C226.682 112.922 224.683 114.966 222.707 117.022L221.047 118.749C222.658 121.008 224.163 123.326 225.564 125.705C228.408 130.47 230.939 135.416 233.141 140.51C235.569 146.156 237.59 151.87 239.498 157.663L241.373 163.309C241.61 164.031 241.915 165.093 242.288 166.121C243.552 169.644 246.488 170.897 250 171.563V189.326H163.67V171.631C165.816 171.179 168.187 170.626 169.317 168.91C170.446 167.193 170.107 164.653 170.231 162.789V113.735C170.231 111.85 170.288 108.439 169.317 106.96C168.345 105.481 166.719 104.95 164.958 104.521L163.704 104.239V86.9727H207.078Z" fill="#2C227A"/>
<path fill-rule="evenodd" clip-rule="evenodd" d="M193.528 117.632L196.599 114.538C198.462 112.697 200.247 110.778 202.008 108.824C203.888 106.759 205.638 104.579 207.248 102.297C208.738 99.8578 208.908 97.8478 206.367 96.7525V91.3096H236.438V96.7637C230.792 97.6784 227.856 100.005 223.531 104.013C221.352 106.035 219.263 108.169 217.208 110.315L211.686 116.051C214.426 119.495 216.934 123.116 219.195 126.892C221.89 131.41 224.289 136.099 226.377 140.928C228.726 146.348 230.679 151.927 232.531 157.528L234.406 163.253C235.377 166.087 236.032 168.899 238.155 171.158C239.385 172.4 240.958 173.25 242.672 173.597V180.654H213.73V173.597C216.124 172.84 217.388 170.401 216.643 166.291C216.496 165.624 216.338 164.969 216.169 164.314C215.807 162.948 215.39 161.627 215.04 160.419C213.709 156.157 212.125 151.979 210.297 147.907C207.201 141.283 203.544 134.936 199.366 128.936L193.528 134.762C193.528 144.7 193.528 154.629 193.528 164.552C193.72 168.526 195.876 172.682 200.066 173.585V180.643H169.486V173.585C173.631 172.705 175.821 168.594 176.025 164.552V105.831C175.821 101.845 173.676 97.6897 169.486 96.7976V91.3096H200.066V96.7525C195.91 97.6333 193.731 101.744 193.528 105.786C193.528 107.243 193.528 108.7 193.528 110.156V117.632Z" fill="white"/>
<path fill-rule="evenodd" clip-rule="evenodd" d="M172.535 176.555H193.651C192.551 176.258 191.551 175.671 190.756 174.854C189.962 174.037 189.401 173.022 189.135 171.914C188.279 168.286 187.899 164.562 188.005 160.836V133.136L198.281 122.86L198.767 123.515C204.006 130.618 208.544 138.212 212.318 146.19C214.208 150.389 215.852 154.695 217.241 159.086C218.654 163.001 219.484 167.103 219.703 171.259C219.703 173.766 218.788 175.708 216.643 176.555H236.325C235.54 176.26 234.822 175.811 234.213 175.234C233.311 174.383 232.579 173.367 232.057 172.241C231.408 170.868 230.85 169.453 230.385 168.007C230.001 166.878 229.606 165.624 229.188 164.438L227.291 158.679C225.496 153.214 223.565 147.737 221.273 142.464C219.258 137.799 216.938 133.272 214.328 128.913C211.656 124.497 208.635 120.301 205.294 116.367L204.876 115.87L212.781 107.627C214.892 105.436 217.049 103.257 219.274 101.19C220.989 99.6331 222.884 98.2873 224.92 97.1814C226.486 96.3156 228.178 95.6985 229.934 95.3521H209.212C209.692 95.5037 210.134 95.7537 210.511 96.0861C210.831 96.4583 211.074 96.8907 211.226 97.358C211.377 97.8253 211.433 98.3181 211.392 98.8075C211.392 100.829 209.946 103.166 208.828 104.747C207.135 107.11 205.306 109.372 203.352 111.523C201.545 113.521 199.693 115.498 197.784 117.383L188.028 127.196V110.258C187.91 106.707 188.29 103.157 189.157 99.7109C189.461 98.6391 190.051 97.6707 190.865 96.9104C191.679 96.1501 192.686 95.6269 193.776 95.3972H172.32C173.497 95.6871 174.575 96.2873 175.441 97.1354C176.307 97.9835 176.929 99.0484 177.244 100.219C178.111 103.807 178.491 107.495 178.373 111.184V161.717C178.413 164.131 178.3 166.545 178.034 168.944C177.828 170.736 177.193 172.452 176.182 173.947C175.28 175.217 173.975 176.144 172.478 176.578" fill="#E3000F"/>
<path fill-rule="evenodd" clip-rule="evenodd" d="M128.552 127.162C131.601 127.038 135.621 126.711 137.789 124.283C138.59 123.204 139.218 122.008 139.652 120.737C139.865 120.059 140.038 119.369 140.172 118.671C140.49 116.637 140.429 114.562 139.991 112.55C139.844 112.019 139.686 111.477 139.505 110.958C138.187 107.788 136.099 104.997 133.43 102.839L128.54 105.097L128.552 127.162ZM128.552 78.3344C129.794 77.4874 132.47 75.5452 133.577 74.5401C131.938 74.2674 130.27 74.2256 128.619 74.4159L128.552 78.3344ZM104.668 50.1036H138.466C142.528 50.0302 146.581 50.5049 150.515 51.5151L150.73 51.5829L150.956 51.6506C152.252 52.1246 153.512 52.6906 154.727 53.3445L154.942 53.4574L155.145 53.5816C156.333 54.3265 157.465 55.1568 158.533 56.0659L158.77 56.2579L160.125 57.6468L161.401 59.3294L162.44 61.1362L163.253 63.022L163.874 65.0659L164.439 68.6681V71.8639V72.1575C164.268 74.3236 163.84 76.4616 163.163 78.5263L163.106 78.7183L163.027 78.899C162.579 80.058 162.063 81.1893 161.48 82.2867L161.424 82.3883L161.356 82.4899C160.207 84.4539 158.851 86.2898 157.313 87.9667L157.223 88.057L157.144 88.1361C157.897 88.776 158.65 89.4422 159.402 90.1348L159.459 90.2026L159.515 90.259C161.721 92.4143 163.689 94.7992 165.387 97.3732V97.441C166.121 98.5702 166.81 99.8011 167.454 101.021V101.111V101.213C168.753 103.89 169.734 106.709 170.378 109.614V109.704V109.806C170.807 112.011 171.067 114.246 171.158 116.491V116.672C171.196 118.958 171.075 121.245 170.796 123.515V123.707C170.399 126.305 169.76 128.861 168.888 131.34V131.453V131.566C168.346 132.933 167.759 134.265 167.081 135.564L166.991 135.733L165.862 137.664L164.552 139.55L163.185 141.447L161.593 143.118L159.865 144.643L158.025 146.02L157.788 146.156C156.343 147.087 154.833 147.914 153.271 148.629C151.18 149.551 149.021 150.306 146.811 150.887H146.755H146.687C141.382 152.031 135.966 152.58 130.539 152.525C121.912 152.683 113.285 152.649 104.657 152.615H92.2695V134.875C94.4151 134.423 96.7864 133.87 97.9157 132.154C99.0449 130.437 98.7062 127.896 98.8304 126.033V76.9341C98.8304 75.0483 98.8303 71.638 97.9157 70.1587C97.001 68.6794 95.3072 68.1374 93.5456 67.7083L92.2921 67.426V50.1487L104.668 50.1036Z" fill="#2C227A"/>
<path fill-rule="evenodd" clip-rule="evenodd" d="M0 97.6334L3.65872 101.845C3.42169 103.506 3.59222 105.2 4.15558 106.78C4.8884 108.074 5.853 109.223 7.00125 110.168C6.66654 111.703 6.5902 113.283 6.77539 114.843C3.98619 116.808 2.71016 119.36 1.40025 122.51L0.835638 124.87L0.688832 127.31L1.0276 129.737L1.87453 131.996L3.15057 133.972C4.59116 135.66 6.48323 136.902 8.60476 137.552L11.5521 140.465C11.4555 142.458 11.8961 144.44 12.8278 146.204C13.7595 147.968 15.148 149.449 16.8481 150.493L19.4905 155.619C19.3436 156.864 19.3779 158.123 19.5922 159.357C15.1995 167.025 17.9096 175.539 25.9046 177.775C29.2923 195.323 50.375 192.015 48.9409 174.026C50.1445 173.425 51.2092 172.579 52.0668 171.543C52.9243 170.506 53.5559 169.302 53.9208 168.007C56.5873 166.642 58.643 164.324 59.6799 161.514C63.316 159.91 67.3022 155.168 65.8455 150.831C70.7915 147.184 71.5933 143.683 71.4352 138.082C72.4502 136.034 72.9208 133.759 72.8016 131.476C72.6266 129.949 72.2468 128.453 71.6723 127.027C71.7459 126.49 72.0105 125.997 72.4176 125.638C74.39 126.614 76.6614 126.796 78.7639 126.146L87.3461 134.051L92.6196 121.426H92.7438L95.7814 116.672L96.3574 115.035L96.459 114.041L96.809 113.77L98.006 109.027L98.1077 108.09L98.2883 107.898L99.0449 103.855L99.1014 102.85V102.354C99.0336 101.552 98.9094 100.761 98.8304 99.9596L99.0336 98.9771L99.1127 98.2206V96.075L98.6497 94.257L97.4527 91.9985L96.73 91.0725L95.6008 89.9433L95.3071 89.6949L94.5167 89.0964L94.4038 89.0173H94.3473L93.9408 88.735V88.5543L92.5857 87.0412L95.7589 61.9948L103.189 0C94.8781 2.48431 84.5682 5.03637 75.0487 7.90462L64.163 31.9347L65.439 0.937264C51.5381 3.89585 36.892 6.87702 22.6185 9.97112V27.9259L32.6009 25.8481L0 97.6334Z" fill="#2C227A"/>
<path fill-rule="evenodd" clip-rule="evenodd" d="M24.8537 102.726L25.0795 103.008H25.2715L25.5087 103.596L26.333 103.404L26.9428 103.121L27.2477 103.291L27.53 103.054L28.1736 103.562L28.9189 102.963L29.2803 103.155C29.8223 102.929 30.3531 102.704 30.9177 102.512L31.4823 103.087L32.4873 101.879L32.8148 102.071L33.1874 101.484L33.4923 102.094L34.2037 100.558L34.3618 100.761L35.1297 99.824C35.3397 99.5106 35.4678 99.1495 35.5023 98.7738L35.6717 99.1916L36.5525 99.9934L37.5237 100.626L37.9076 100.49L38.4609 100.795L38.7545 100.739C38.9038 100.815 39.0472 100.901 39.1837 100.998L39.8047 101.631L40.1322 101.292L40.8323 101.834L41.1824 101.586L42.6955 102.433L42.9327 101.157H43.1247L43.4973 100.942L43.8248 100.626L44.0619 100.231L44.2313 99.7789L44.3104 99.2594V98.9884C44.275 98.7526 44.2026 98.524 44.0958 98.3109H44.22L43.9942 97.893L44.1749 97.9947H44.875L45.5751 97.7124L46.1397 97.1252L46.3091 96.7525L46.3655 96.3799V96.0411L46.2752 95.7136L46.2075 95.5894V95.4539L45.6541 94.6747C46.0833 94.3585 46.5575 94.1214 46.9979 93.8052L47.2125 93.602L47.4383 93.3196L47.6416 92.8228L47.5174 92.1227L47.0318 91.7048L46.8398 91.6371L46.6253 91.4225L46.2639 91.287H45.7784C45.5803 91.1616 45.3916 91.022 45.2137 90.8692L45.1573 90.7111L44.9879 90.5756L44.8185 90.2707C44.5306 89.9242 44.1917 89.6234 43.8135 89.3786L43.5086 89.2431L43.1585 89.1641H42.8085L42.4584 89.2431L41.9841 89.3899C41.5356 89.4693 41.0833 89.5258 40.6291 89.5593L40.821 89.0512V88.6108C40.6629 88.0348 40.5839 87.4815 40.4258 86.8379L40.3129 86.5104L40.1322 86.1603L39.8273 85.8216L39.3869 85.5844H38.8675L38.4835 85.6973L38.6303 84.7939L35.9427 86.5443C35.7058 86.3102 35.4357 86.1123 35.141 85.9571L34.6441 85.7538L34.0908 85.6296H33.5036L32.8825 85.7312C32.4978 85.8468 32.1206 85.9863 31.7533 86.149C31.2452 86.3975 30.7483 86.6798 30.2401 86.9282C30.0955 86.9845 29.9432 87.0188 29.7884 87.0298L28.4108 88.3736C27.4409 88.3264 26.4688 88.3756 25.5087 88.5204C24.9892 88.6108 24.481 88.7124 23.9616 88.8366L23.3744 88.9947L22.9114 89.1754L22.2791 89.8755L22.471 90.2481L21.7031 90.7337L21.5563 90.9144C21.2515 91.1628 20.9127 91.3774 20.5965 91.6032L20.3029 91.8291L19.9867 92.1114L19.7496 92.5744V93.0035L19.8286 93.3761C19.896 93.7066 19.9188 94.0446 19.8964 94.3811C19.8964 94.8328 19.7722 95.2732 19.7383 95.7249L19.8851 96.5041L20.3255 96.6396C20.3255 97.159 20.2577 97.6559 20.2464 98.1753L20.4723 99.0787H21.2401C21.1138 99.623 21.0494 100.18 21.0482 100.739V101.157L21.5902 102.015L22.2903 101.676V102.026L22.6291 102.376C22.6291 102.918 22.7082 103.505 22.7872 104.013L23.4873 106.498L24.4811 104.104C24.4811 103.675 24.5488 103.257 24.5827 102.839L24.8537 102.726Z" fill="white"/>
<path d="M24.8537 102.726L25.0795 103.008H25.2715L25.5087 103.596L26.333 103.404L26.9428 103.121L27.2477 103.291L27.53 103.054L28.1736 103.562L28.9189 102.963L29.2803 103.155C29.8223 102.929 30.3531 102.704 30.9177 102.512L31.4823 103.087L32.4873 101.879L32.8148 102.071L33.1874 101.484L33.4923 102.094L34.2037 100.558L34.3618 100.761L35.1297 99.824C35.3397 99.5106 35.4678 99.1495 35.5023 98.7738L35.6717 99.1916L36.5525 99.9934L37.5237 100.626L37.9076 100.49L38.4609 100.795L38.7545 100.739C38.9038 100.815 39.0472 100.901 39.1837 100.998L39.8047 101.631L40.1322 101.292L40.8323 101.823L41.1824 101.586L42.6955 102.433L42.9327 101.157H43.1247L43.4973 100.942L43.8248 100.626L44.0619 100.231L44.2313 99.7789L44.3104 99.2594V98.9884C44.275 98.7526 44.2026 98.524 44.0958 98.3109H44.22L43.9942 97.893L44.1749 97.9947H44.875L45.5751 97.7124L46.1397 97.1252L46.3091 96.7525L46.3655 96.3799V96.0411L46.2752 95.7136L46.2075 95.5894V95.4539L45.6541 94.6747C46.0833 94.3585 46.5575 94.1214 46.9979 93.8052L47.2125 93.602L47.4383 93.3196L47.6416 92.8228L47.5174 92.1227L47.0318 91.7048L46.8398 91.6371L46.6253 91.4225L46.2639 91.287H45.7784C45.5803 91.1616 45.3916 91.022 45.2137 90.8692L45.1573 90.7111L44.9879 90.5756L44.8185 90.2707C44.5306 89.9242 44.1917 89.6234 43.8135 89.3786L43.5086 89.2431L43.1585 89.1641H42.8085L42.4584 89.2431L41.9841 89.3899C41.5356 89.4693 41.0833 89.5258 40.6291 89.5593L40.821 89.0512V88.6108C40.6629 88.0348 40.5839 87.4815 40.4258 86.8379L40.3129 86.5104L40.1322 86.1603L39.8273 85.8216L39.3869 85.5844H38.8675L38.4835 85.6973L38.6303 84.7939L35.9427 86.5443C35.7058 86.3102 35.4357 86.1123 35.141 85.9571L34.6441 85.7538L34.0908 85.6296H33.5036L32.8825 85.7312C32.4978 85.8468 32.1206 85.9863 31.7533 86.149C31.2452 86.3975 30.7483 86.6798 30.2401 86.9282C30.0955 86.9845 29.9432 87.0188 29.7884 87.0298L28.4108 88.3736C27.4409 88.3264 26.4688 88.3756 25.5087 88.5204C24.9892 88.6108 24.481 88.7124 23.9616 88.8366L23.3744 88.9947L22.9114 89.1754L22.2791 89.8755L22.471 90.2481L21.7031 90.7337L21.5563 90.9144C21.2515 91.1628 20.9127 91.3774 20.5965 91.6032L20.3029 91.8291L19.9867 92.1114L19.7496 92.5744V93.0035L19.8286 93.3761C19.896 93.7066 19.9188 94.0446 19.8964 94.3811C19.8964 94.8328 19.7722 95.2732 19.7383 95.7249L19.8851 96.5041L20.3255 96.6396C20.3255 97.159 20.2577 97.6559 20.2464 98.1753L20.4723 99.0787H21.2401C21.1138 99.623 21.0494 100.18 21.0482 100.739V101.157L21.5902 102.015L22.2903 101.676V102.026L22.6291 102.376C22.6291 102.918 22.7082 103.505 22.7872 104.013L23.4873 106.498L24.4811 104.104C24.4811 103.675 24.5488 103.257 24.5827 102.839L24.8537 102.726Z" stroke="#2F2483" stroke-width="0.46" stroke-linecap="round" stroke-linejoin="round"/>
<path fill-rule="evenodd" clip-rule="evenodd" d="M25.7466 97.9384C26.4575 97.1448 27.2115 96.3908 28.0051 95.68C28.7331 94.9192 29.5267 94.2239 30.3765 93.6022C31.3589 92.9585 32.985 92.0551 32.3752 92.2358C27.6324 93.6473 27.0227 91.5695 25.9047 91.3663C28.9294 91.9919 32.0628 91.8483 35.0176 90.9485C34.0352 93.5005 39.5346 96.3801 38.4053 96.0526C36.6663 95.567 34.1933 94.37 34.1933 92.089C34.1933 91.626 26.1419 97.7916 25.9725 98.2885C25.9725 98.1417 25.837 98.0513 25.8031 97.9158M43.7353 91.4679C43.4756 91.2985 43.5772 91.084 43.2497 90.813C42.6964 90.3613 42.6061 90.1806 41.8043 90.4742C40.0246 90.7693 38.2216 90.9016 36.4179 90.8694C37.0389 90.3161 39.8056 89.9999 39.5571 89.1869C39.1506 87.9786 39.4103 85.4717 37.0389 88.2835L37.2309 87.0978L35.5822 88.227C35.4062 87.8532 35.118 87.5436 34.7577 87.3412C34.3975 87.1388 33.9831 87.0537 33.5722 87.0978C32.522 87.0978 30.9072 88.3174 30.5007 88.3287L29.1908 89.7967C27.5921 89.672 25.9841 89.8443 24.448 90.3048C23.6124 90.5533 24.7868 90.7452 24.7868 90.7452L23.172 91.7728C23.0252 92.0664 21.6475 92.7891 21.6362 93.0601C21.7362 93.5581 21.7817 94.0655 21.7717 94.5733C21.7717 95.488 21.32 96.4027 22.167 95.5332C22.3476 95.3412 21.9863 98.0514 22.167 98.0514C24.64 98.0514 23.0704 97.0802 22.8897 100.107C22.7993 101.71 23.6914 98.232 23.6914 100.107C23.6914 100.197 24.0528 99.971 24.0528 99.971C24.0528 99.971 23.9624 101.8 24.1883 101.1C24.4141 100.4 24.4141 101.654 24.4141 101.744C24.7755 106.261 24.4141 99.3161 25.1707 101.563C25.1707 101.654 25.3966 100.874 25.5773 100.603C26.7065 99.0902 26.0289 101.145 26.1644 101.608C26.3 102.071 26.4355 101.699 26.4355 101.383C26.4355 100.558 26.6161 102.433 26.7404 102.15C26.8646 101.868 27.1017 101.191 27.2598 101.913L27.4179 101.665L27.7115 101.834L28.0842 101.473L28.7278 101.981L29.3263 101.484L29.7893 101.733C30.3391 101.487 30.9098 101.29 31.4944 101.145L31.7429 101.394L32.5446 100.423L32.7705 100.558L33.448 99.4968L33.6174 99.8468C33.6174 99.8468 34.2046 98.5143 34.4756 99.1354C34.6425 98.9183 34.7337 98.6526 34.7353 98.3788V95.1944L35.0176 95.2508L36.3388 98.4692L36.9712 99.0451L37.5019 99.3951L37.8294 99.2822L38.4053 99.5984C38.4053 99.5984 38.6876 99.5419 38.7102 99.5984C38.9989 99.7313 39.2685 99.9022 39.512 100.107L39.7491 99.8581L40.4944 100.434L40.7541 100.253L41.6236 100.75L41.7591 100.005C42.2221 100.163 42.8206 99.9146 42.8884 98.9434C42.8904 98.7777 42.8474 98.6144 42.7638 98.4712C42.6803 98.328 42.5594 98.2102 42.4141 98.1304L42.3125 97.769L42.4706 97.7013L42.3915 97.5545C42.4781 97.4784 42.554 97.391 42.6174 97.2948C42.8432 96.956 41.7591 95.8268 41.0364 96.0413L40.7993 95.4315H41.1155L40.9687 95.0815L41.9511 95.3299L42.1657 95.2057L43.4982 95.7477L43.8595 95.5332H44.1079C43.9141 95.5427 43.7267 95.6052 43.5659 95.7138C42.5835 96.3349 43.9498 97.6222 44.6951 96.4704C44.7366 96.3839 44.7585 96.2894 44.7594 96.1935C44.7603 96.0975 44.7401 96.0026 44.7002 95.9153C44.6604 95.8281 44.6018 95.7507 44.5287 95.6885C44.4557 95.6264 44.3698 95.5811 44.2773 95.5557H44.5709C44.0515 94.5959 42.9674 94.7879 45.4066 93.365C45.6437 93.2295 46.3551 92.7101 45.5421 92.5407C45.2259 92.5407 45.734 92.2697 44.7855 92.2697C44.6387 92.3148 43.6563 91.6712 43.6788 91.4905L43.7353 91.4679Z" fill="#A7C81B"/>
<path fill-rule="evenodd" clip-rule="evenodd" d="M43.7917 84.184L43.3852 80.1865C43.3852 78.12 43.3852 74.9582 42.1882 73.4112C41.9454 72.9246 41.7342 72.423 41.5559 71.9093L42.3238 70.6445C47.1795 66.0599 48.8959 60.2895 52.1819 64.3321C52.9047 65.9582 56.4166 76.5843 57.1731 77.7587C53.0289 84.7825 54.7905 81.1464 54.7679 79.317C53.9435 76.8666 57.3312 76.4488 53.4015 76.4488C51.9109 76.4714 43.6562 82.8064 43.7917 84.184ZM23.6463 104.262C23.3746 104.479 23.0791 104.665 22.7655 104.815C23.2321 105.449 23.5136 106.199 23.5785 106.983C23.9195 106.507 24.297 106.057 24.7077 105.639C24.2277 105.293 23.8588 104.814 23.6463 104.262ZM55.2647 141.267L54.9711 141.38C55.1801 141.448 55.3839 141.531 55.5809 141.628C55.4824 141.514 55.3919 141.393 55.3099 141.267H55.2647ZM52.261 141.572C52.0511 141.522 51.8438 141.461 51.6399 141.391C51.6513 141.556 51.6513 141.722 51.6399 141.888C51.8534 141.765 52.0762 141.659 52.3062 141.572H52.261ZM48.7152 146.235C47.9329 146.632 47.0623 146.823 46.1857 146.789C46.0616 147.175 45.9107 147.552 45.734 147.918L45.8018 148.415C46.6861 147.893 47.7358 147.728 48.7378 147.952C48.7378 147.489 48.7378 147.003 48.7378 146.484C48.7491 146.416 48.7604 146.326 48.7604 146.235H48.7152ZM45.271 103.245C45.4583 102.201 45.9092 101.221 46.5809 100.4C46.5809 100.309 46.5809 100.219 46.5809 100.129L46.2986 100.185C45.8131 100.931 45.0339 101.981 44.6838 102.444L45.271 103.245ZM40.4266 105.03C41.1069 104.615 41.8883 104.395 42.6851 104.395C43.4819 104.395 44.2633 104.615 44.9436 105.03C44.7082 104.628 44.3738 104.294 43.9724 104.058C42.5383 103.404 40.7654 102.071 40.5847 103.087C40.4834 103.729 40.4455 104.38 40.4718 105.03H40.4266ZM38.857 103.799C39.1426 104.094 39.3721 104.438 39.5346 104.815C39.6079 103.977 39.6079 103.135 39.5346 102.297C39.3901 102.823 39.1776 103.328 38.9022 103.799H38.857ZM51.2786 111.816C51.4291 112.138 51.5573 112.47 51.6625 112.81C51.7648 112.568 51.8856 112.334 52.0239 112.11L51.3915 111.873L51.2786 111.816ZM47.8909 119.958C47.2429 120.094 46.5739 120.094 45.926 119.958C46.5028 121.432 46.5028 123.069 45.926 124.543C46.2985 124.174 46.7415 123.884 47.2284 123.69C47.7153 123.496 48.2363 123.402 48.7604 123.414C48.3095 122.315 48.0314 121.153 47.936 119.969L47.8909 119.958ZM45.4517 100.242C44.9836 100.228 44.5198 100.148 44.0741 100.005C43.8369 100.648 43.6562 101.055 43.6562 101.055L44.266 101.89C44.7579 101.483 45.1451 100.965 45.3953 100.377C45.4269 100.327 45.4649 100.282 45.5082 100.242H45.4517ZM43.1933 157.144V157.053L43.1029 157.11L43.1933 157.144ZM35.9097 158.07C35.5635 157.831 35.242 157.559 34.9499 157.257C34.6129 157.946 34.1405 158.561 33.5609 159.063C34.2648 160.579 34.4166 162.292 33.99 163.908C34.1968 163.764 34.416 163.64 34.645 163.535C34.3024 162.776 34.1719 161.939 34.2673 161.111C34.3628 160.284 34.6806 159.498 35.187 158.838C35.3884 158.54 35.6407 158.28 35.9323 158.07H35.9097ZM42.9674 89.1865L42.0189 77.0812C41.8721 76.6746 41.6462 76.0649 41.443 75.4099L39.4329 76.0084C39.0493 76.7361 38.8042 77.5287 38.7102 78.3459C38.7102 79.701 39.5571 85.1213 35.1193 88.9607C33.9457 89.4342 32.9695 90.2949 32.3526 91.3998L31.788 90.8917L34.6224 87.8427L33.9674 87.1878C32.0816 88.5429 29.1682 88.701 26.8984 85.8892C26.8473 86.2169 26.8666 86.5518 26.9549 86.8716C26.9549 86.8716 26.3564 88.0008 25.4756 86.1037C25.5155 85.0264 25.6823 83.9576 25.9725 82.9193C26.0677 82.2248 26.3186 81.5609 26.7065 80.977C27.4414 79.3407 28.723 78.0112 30.3313 77.2167C31.7678 76.3549 33.3137 75.6903 34.9273 75.2405C34.3499 75.0937 33.7473 75.0753 33.162 75.1865C32.5767 75.2977 32.0229 75.5359 31.5396 75.8842C30.5007 76.5956 31.1105 75.7487 31.1105 75.7487C32.2397 73.8741 35.8758 74.1113 35.8758 74.1113C36.875 74.1434 37.8722 74.002 38.8231 73.6935C39.5175 71.993 40.4739 70.4117 41.6575 69.0072L41.8043 68.8378C38.1016 69.9976 34.3302 70.9254 30.512 71.6157C28.1259 72.1907 25.909 73.3204 24.0415 74.913C21.4781 75.184 16.0578 78.9105 17.5484 74.3597C18.497 71.4689 22.1557 71.6044 25.453 71.5479C28.2312 70.1981 31.2741 69.4808 34.3627 69.4476C37.1751 69.1331 39.9303 68.43 42.5496 67.3585C45.2259 61.7123 52.803 57.5454 52.803 49.8328C52.803 48.5906 54.7001 55.3434 53.2095 56.8566C52.3965 57.681 52.3965 58.9231 52.3739 60.9105C52.8369 63.09 48.128 98.5027 63.1242 87.1765C63.813 89.0058 48.3426 111.06 53.6161 109.58C57.5571 108.451 61.1029 112.754 58.867 116.096C58.4492 116.728 63.0452 115.588 64.66 119.484C65.1494 120.406 65.2954 121.472 65.0721 122.491C64.8487 123.511 64.2704 124.418 63.4404 125.051C63.9714 125.691 64.4297 126.388 64.8067 127.129C66.5683 130.46 65.5521 133.272 63.6211 134.717C66.6248 140.521 61.0238 144.79 57.0151 142.622C57.8509 143.574 58.4951 144.678 58.9122 145.874C60.9222 151.136 56.8118 154.58 53.266 153.959C53.4808 154.843 53.4703 155.766 53.2354 156.645C53.0005 157.524 52.5488 158.329 51.9216 158.988C51.2945 159.646 50.512 160.137 49.646 160.415C48.7799 160.692 47.8581 160.748 46.9649 160.577C47.1845 161.206 47.3101 161.864 47.3375 162.53C47.5295 166.099 43.8595 167.363 40.3702 166.855C40.9865 168.303 41.4263 169.819 41.6801 171.372C44.1305 184.381 29.6538 184.528 31.3589 168.696C31.3589 168.628 31.3589 168.56 31.3589 168.492C27.0227 171.508 19.8295 167.905 24.9449 160.023C25.2889 159.511 25.7209 159.064 26.2209 158.702C25.0917 157.279 24.719 154.953 25.8257 151.701C26.1414 150.857 26.6612 150.104 27.3388 149.51C25.0126 149.115 23.0704 147.105 23.5108 143.378C19.5246 144.361 15.0641 141.12 18.5308 134.887C15.8207 134.457 13.6639 132.063 15.0076 128.111C10.7166 131.6 2.95874 128.021 8.23225 119.913C9.79059 117.519 14.4769 116.006 16.566 118.422C16.8907 117.393 17.3747 116.422 18.0001 115.543C13.901 116.062 9.83576 112.268 14.4769 105.91C15.2497 104.953 16.2861 104.242 17.4581 103.867C17.2413 103.603 17.0696 103.305 16.9499 102.986C14.4769 104.115 11.4957 104.42 9.6212 102.376C8.90978 101.597 9.37277 99.9368 10.7504 98.514C10.0321 98.2307 9.39838 97.7681 8.90978 97.1702C7.46436 95.386 11.9248 89.6156 18.6889 91.6595C21.6362 92.5516 21.0829 94.6633 19.1293 96.3797C19.44 96.4556 19.7425 96.5615 20.0327 96.6959C22.2912 95.4312 26.108 95.5667 26.3225 98.6608C28.0277 97.5315 31.0879 97.3847 32.059 99.2254C32.1832 98.9995 32.33 98.7624 32.4881 98.5253C32.9884 97.859 33.6361 97.3175 34.3806 96.9433C35.125 96.5691 35.946 96.3724 36.7792 96.3684C38.2359 95.3973 39.6475 91.4111 40.9461 92.6871C41.5785 92.8565 40.0879 93.5792 40.8106 94.0874C40.6003 94.6065 40.5094 95.1663 40.5446 95.7253C40.5798 96.2843 40.7401 96.8283 41.0138 97.317C41.5834 98.28 42.3826 99.0869 43.3401 99.6658C43.1306 100.087 42.8769 100.484 42.5835 100.851C42.5835 100.851 42.99 101.484 43.5094 102.331C43.2848 102.426 43.0373 102.455 42.7968 102.413C42.5564 102.37 42.3333 102.26 42.1544 102.094C41.292 101.208 40.4956 100.261 39.7717 99.2593C39.7532 98.6492 39.5485 98.0593 39.1852 97.5688C38.8219 97.0784 38.3173 96.7107 37.7391 96.5152M22.7767 111.703C22.6257 112.054 22.4444 112.39 22.2347 112.708C22.5889 112.644 22.9475 112.606 23.3075 112.595C23.1049 112.324 22.938 112.028 22.8106 111.715L22.7767 111.703ZM26.9097 114.447C27.5082 115.577 27.655 117.18 27.0791 119.506C27.0001 119.811 26.9097 120.116 26.8081 120.398C27.1803 120.128 27.5773 119.894 27.9938 119.698C27.9514 118.326 28.1698 116.958 28.6375 115.667C28.8463 115.103 29.152 114.579 29.5408 114.12C28.7086 114.415 27.8235 114.53 26.9436 114.459L26.9097 114.447ZM17.3677 123.301C17.3677 123.504 17.3113 123.707 17.2661 123.922C17.2209 124.136 17.2661 124.238 17.1758 124.385C17.4189 124.171 17.6796 123.979 17.9549 123.809C17.744 123.658 17.5474 123.488 17.3677 123.301ZM24.3916 123.685L24.4593 123.752C24.4809 123.69 24.5073 123.63 24.5384 123.572L24.3916 123.685ZM55.0728 126.767C54.6699 126.895 54.2525 126.97 53.8306 126.993C54.2086 127.501 54.5269 128.05 54.7792 128.631C54.7575 127.996 54.8571 127.364 55.0728 126.767ZM31.1331 136.93C31.1477 136.898 31.1667 136.868 31.1895 136.84C31.0859 136.926 30.9764 137.006 30.862 137.077L30.9976 137.134L31.1331 136.93ZM32.2623 135.7C33.2126 134.976 34.3251 134.495 35.5032 134.299C34.4512 133.041 33.7224 131.545 33.3802 129.94C33.3018 129.604 33.264 129.259 33.2673 128.913L33.0866 129.139C33.2495 129.829 33.3553 130.532 33.4028 131.239C33.5786 132.823 33.1821 134.417 32.2849 135.733L32.2623 135.7ZM34.7579 125.017C35.1486 124.55 35.6285 124.167 36.1694 123.888L36.0339 123.357C35.6663 123.616 35.2681 123.828 34.8482 123.989C34.8595 124.362 34.8256 124.701 34.7805 125.051L34.7579 125.017ZM43.2046 127.332C43.56 127.852 43.8519 128.413 44.0741 129.003C44.0559 128.099 44.2452 127.203 44.6274 126.383C44.2158 126.783 43.7431 127.115 43.2271 127.366L43.2046 127.332ZM32.4543 147.907C32.4543 147.782 32.4543 147.647 32.4543 147.511L32.172 147.839L32.4543 147.907ZM37.7955 76.3359C37.423 76.4208 37.046 76.4849 36.6663 76.5278C34.5836 77.028 32.6243 77.9462 30.9072 79.2267C31.8796 79.4327 32.8058 79.8154 33.64 80.3559C36.6889 82.2079 36.2485 85.0874 34.4304 86.7587C34.5072 86.8288 34.6041 86.8731 34.7075 86.8853C34.8108 86.8974 34.9153 86.8769 35.0063 86.8264C35.7855 86.3296 36.7115 85.0309 36.4292 84.1501C36.4653 81.4983 36.9345 78.8702 37.8181 76.3697L37.7955 76.3359ZM40.1782 74.3484H40.4718L41.1042 74.2355C41.0036 73.8389 40.9356 73.4348 40.9009 73.0272C40.6638 73.5128 40.4266 73.9532 40.2008 74.3823L40.1782 74.3484ZM34.9499 75.1615H35.0741H34.7127H34.9499Z" fill="#C01C5C"/>
<path d="M42.9674 89.1865L42.0189 77.0812C41.8721 76.6746 41.6462 76.0649 41.443 75.4099L39.4329 76.0084C39.0493 76.7361 38.8042 77.5287 38.7102 78.3459C38.7102 79.701 39.5571 85.1213 35.1193 88.9607C33.9457 89.4342 32.9695 90.2949 32.3526 91.3998L31.788 90.8917L34.6224 87.8427L33.9674 87.1878C32.0816 88.5429 29.1682 88.701 26.8984 85.8892C26.8473 86.2169 26.8666 86.5518 26.9549 86.8716C26.9549 86.8716 26.3564 88.0008 25.4756 86.1037C25.5155 85.0264 25.6823 83.9576 25.9725 82.9193C26.0677 82.2248 26.3186 81.5609 26.7065 80.977C27.4414 79.3407 28.723 78.0112 30.3313 77.2167C31.7678 76.3549 33.3137 75.6903 34.9273 75.2405C34.3499 75.0937 33.7473 75.0753 33.162 75.1865C32.5767 75.2977 32.0229 75.5359 31.5396 75.8842C30.5007 76.5956 31.1105 75.7487 31.1105 75.7487C32.2397 73.8741 35.8758 74.1113 35.8758 74.1113C36.875 74.1434 37.8722 74.002 38.8231 73.6935C39.5175 71.993 40.4739 70.4117 41.6575 69.0072L41.8043 68.8378C38.1016 69.9976 34.3302 70.9254 30.512 71.6157C28.1259 72.1907 25.909 73.3204 24.0415 74.913C21.4781 75.184 16.0578 78.9105 17.5484 74.3597C18.497 71.4689 22.1557 71.6044 25.453 71.5479C28.2312 70.1981 31.2741 69.4808 34.3627 69.4476C37.1751 69.1331 39.9303 68.43 42.5496 67.3585C45.2259 61.7123 52.803 57.5454 52.803 49.8328C52.803 48.5906 54.7001 55.3434 53.2095 56.8566C52.3965 57.681 52.3965 58.9231 52.3739 60.9105C52.8369 63.09 48.128 98.5027 63.1242 87.1765C63.813 89.0058 48.3426 111.06 53.6161 109.58C57.5571 108.451 61.1029 112.754 58.867 116.096C58.4492 116.728 63.0452 115.588 64.66 119.484C65.1494 120.406 65.2955 121.472 65.0721 122.491C64.8487 123.511 64.2704 124.418 63.4404 125.051C63.9714 125.691 64.4297 126.388 64.8067 127.129C66.5683 130.46 65.5521 133.272 63.6211 134.717C66.6248 140.521 61.0238 144.79 57.0151 142.622C57.8509 143.574 58.4951 144.678 58.9122 145.874C60.9222 151.136 56.8118 154.58 53.266 153.959C53.4808 154.843 53.4703 155.766 53.2354 156.645C53.0005 157.524 52.5488 158.329 51.9216 158.988C51.2945 159.646 50.512 160.137 49.646 160.415C48.7799 160.692 47.8581 160.748 46.9649 160.577C47.1845 161.206 47.3101 161.864 47.3375 162.53C47.5295 166.099 43.8595 167.363 40.3702 166.855C40.9865 168.303 41.4263 169.819 41.6801 171.372C44.1305 184.381 29.6538 184.528 31.3589 168.696C31.3589 168.628 31.3589 168.56 31.3589 168.492C27.0227 171.508 19.8295 167.905 24.9449 160.023C25.2889 159.511 25.7209 159.064 26.2209 158.702C25.0917 157.279 24.719 154.953 25.8257 151.701C26.1414 150.857 26.6612 150.104 27.3388 149.51C25.0126 149.115 23.0704 147.105 23.5108 143.378C19.5246 144.361 15.0641 141.12 18.5308 134.887C15.8207 134.457 13.6639 132.063 15.0076 128.111C10.7166 131.6 2.95874 128.021 8.23225 119.913C9.79059 117.519 14.4769 116.006 16.566 118.422C16.8907 117.393 17.3747 116.422 18.0001 115.543C13.901 116.062 9.83576 112.268 14.4769 105.91C15.2497 104.953 16.2861 104.242 17.4581 103.867C17.2413 103.603 17.0696 103.305 16.9499 102.986C14.4769 104.115 11.4957 104.42 9.6212 102.376C8.90978 101.597 9.37277 99.9368 10.7504 98.514C10.0321 98.2307 9.39838 97.7681 8.90978 97.1702C7.46436 95.386 11.9248 89.6156 18.6889 91.6595C21.6362 92.5516 21.0829 94.6633 19.1293 96.3797C19.44 96.4556 19.7425 96.5615 20.0327 96.6959C22.2912 95.4312 26.108 95.5667 26.3225 98.6608C28.0277 97.5315 31.0879 97.3847 32.059 99.2254C32.1832 98.9995 32.33 98.7624 32.4881 98.5253C32.9884 97.859 33.6361 97.3175 34.3806 96.9433C35.125 96.5691 35.946 96.3724 36.7792 96.3684C38.2359 95.3973 39.6475 91.4111 40.9461 92.6871C41.5785 92.8565 40.0879 93.5792 40.8106 94.0874C40.6003 94.6065 40.5094 95.1663 40.5446 95.7253C40.5798 96.2843 40.7401 96.8283 41.0138 97.317C41.5834 98.28 42.3826 99.0869 43.3401 99.6658C43.1306 100.087 42.8769 100.484 42.5835 100.851C42.5835 100.851 42.99 101.484 43.5094 102.331C43.2848 102.426 43.0373 102.455 42.7968 102.413C42.5564 102.37 42.3333 102.26 42.1544 102.094C41.292 101.208 40.4956 100.261 39.7717 99.2593C39.7532 98.6492 39.5485 98.0593 39.1852 97.5688C38.8219 97.0784 38.3173 96.7107 37.7391 96.5152M43.7917 84.184L43.3852 80.1865C43.3852 78.12 43.3852 74.9582 42.1882 73.4112C41.9454 72.9246 41.7342 72.423 41.5559 71.9093L42.3238 70.6445C47.1795 66.0599 48.8959 60.2895 52.1819 64.3321C52.9047 65.9582 56.4166 76.5843 57.1731 77.7587C53.0289 84.7825 54.7905 81.1464 54.7679 79.317C53.9435 76.8666 57.3312 76.4488 53.4015 76.4488C51.9109 76.4714 43.6562 82.8064 43.7917 84.184ZM23.6463 104.262C23.3746 104.479 23.0791 104.665 22.7655 104.815C23.2321 105.449 23.5136 106.199 23.5785 106.983C23.9195 106.507 24.297 106.057 24.7077 105.639C24.2277 105.293 23.8588 104.814 23.6463 104.262ZM55.2647 141.267L54.9711 141.38C55.1801 141.448 55.3838 141.531 55.5809 141.628C55.4824 141.514 55.3919 141.393 55.3099 141.267H55.2647ZM52.261 141.572C52.0511 141.522 51.8438 141.461 51.6399 141.391C51.6513 141.556 51.6513 141.722 51.6399 141.888C51.8534 141.765 52.0762 141.659 52.3062 141.572H52.261ZM48.7152 146.235C47.9329 146.632 47.0623 146.823 46.1857 146.789C46.0616 147.175 45.9107 147.552 45.734 147.918L45.8018 148.415C46.6861 147.893 47.7358 147.728 48.7378 147.952C48.7378 147.489 48.7378 147.003 48.7378 146.484C48.7491 146.416 48.7604 146.326 48.7604 146.235H48.7152ZM45.2711 103.245C45.4583 102.201 45.9092 101.221 46.5809 100.4C46.5809 100.309 46.5809 100.219 46.5809 100.129L46.2986 100.185C45.8131 100.931 45.0339 101.981 44.6838 102.444L45.2711 103.245ZM40.4266 105.03C41.1069 104.615 41.8883 104.395 42.6851 104.395C43.4819 104.395 44.2633 104.615 44.9436 105.03C44.7082 104.628 44.3738 104.294 43.9724 104.058C42.5383 103.404 40.7654 102.071 40.5847 103.087C40.4834 103.73 40.4455 104.38 40.4718 105.03H40.4266ZM38.857 103.799C39.1426 104.094 39.3721 104.438 39.5346 104.815C39.6079 103.977 39.6079 103.135 39.5346 102.297C39.3901 102.823 39.1776 103.328 38.9022 103.799H38.857ZM51.2786 111.816C51.4291 112.138 51.5573 112.47 51.6625 112.81C51.7648 112.568 51.8856 112.334 52.0239 112.11L51.3915 111.873L51.2786 111.816ZM47.8909 119.958C47.2429 120.094 46.5739 120.094 45.926 119.958C46.5028 121.432 46.5028 123.069 45.926 124.543C46.2985 124.174 46.7415 123.884 47.2284 123.69C47.7153 123.496 48.2363 123.402 48.7604 123.414C48.3095 122.315 48.0314 121.153 47.936 119.969L47.8909 119.958ZM45.4517 100.242C44.9836 100.228 44.5198 100.148 44.0741 100.005C43.8369 100.648 43.6562 101.055 43.6562 101.055L44.266 101.89C44.7579 101.483 45.1451 100.965 45.3953 100.377C45.4269 100.327 45.4649 100.282 45.5082 100.242H45.4517ZM43.1933 157.144V157.053L43.1029 157.11L43.1933 157.144ZM35.9097 158.07C35.5635 157.831 35.242 157.559 34.9499 157.257C34.6129 157.946 34.1405 158.561 33.5609 159.063C34.2648 160.579 34.4166 162.292 33.99 163.908C34.1968 163.764 34.416 163.64 34.645 163.535C34.3024 162.776 34.1719 161.939 34.2673 161.111C34.3628 160.284 34.6806 159.498 35.187 158.838C35.3884 158.54 35.6407 158.28 35.9323 158.07H35.9097ZM22.7767 111.703C22.6257 112.054 22.4444 112.39 22.2347 112.708C22.5889 112.644 22.9475 112.606 23.3075 112.595C23.1049 112.324 22.938 112.028 22.8106 111.715L22.7767 111.703ZM26.9097 114.447C27.5082 115.577 27.655 117.18 27.0791 119.506C27.0001 119.811 26.9097 120.116 26.8081 120.398C27.1803 120.128 27.5773 119.894 27.9938 119.698C27.9514 118.326 28.1698 116.958 28.6375 115.667C28.8463 115.103 29.152 114.579 29.5408 114.12C28.7086 114.415 27.8235 114.53 26.9436 114.459L26.9097 114.447ZM17.3677 123.301C17.3677 123.504 17.3113 123.707 17.2661 123.922C17.2209 124.136 17.2661 124.238 17.1758 124.385C17.4189 124.171 17.6796 123.979 17.9549 123.809C17.744 123.658 17.5474 123.488 17.3677 123.301ZM24.3916 123.685L24.4593 123.752C24.4809 123.69 24.5073 123.63 24.5384 123.572L24.3916 123.685ZM55.0728 126.767C54.6699 126.895 54.2525 126.97 53.8306 126.993C54.2086 127.501 54.5269 128.05 54.7792 128.631C54.7575 127.996 54.8571 127.364 55.0728 126.767ZM31.1331 136.93C31.1477 136.898 31.1667 136.868 31.1895 136.84C31.0859 136.926 30.9764 137.006 30.862 137.077L30.9976 137.134L31.1331 136.93ZM32.2623 135.7C33.2126 134.976 34.3251 134.495 35.5032 134.299C34.4512 133.041 33.7224 131.545 33.3802 129.94C33.3018 129.604 33.2639 129.259 33.2673 128.913L33.0866 129.139C33.2495 129.829 33.3553 130.532 33.4028 131.239C33.5786 132.823 33.1821 134.417 32.2849 135.733L32.2623 135.7ZM34.7579 125.017C35.1486 124.55 35.6285 124.167 36.1694 123.888L36.0339 123.357C35.6663 123.616 35.2681 123.828 34.8482 123.989C34.8595 124.362 34.8256 124.701 34.7805 125.051L34.7579 125.017ZM43.2046 127.332C43.56 127.852 43.8519 128.413 44.0741 129.003C44.0559 128.099 44.2452 127.203 44.6274 126.383C44.2158 126.783 43.7431 127.115 43.2271 127.366L43.2046 127.332ZM32.4543 147.907C32.4543 147.782 32.4543 147.647 32.4543 147.511L32.172 147.839L32.4543 147.907ZM37.7955 76.3359C37.423 76.4208 37.046 76.4849 36.6663 76.5278C34.5836 77.028 32.6243 77.9462 30.9072 79.2267C31.8796 79.4327 32.8058 79.8154 33.64 80.3559C36.6889 82.2079 36.2485 85.0874 34.4304 86.7587C34.5072 86.8288 34.6041 86.8731 34.7075 86.8853C34.8108 86.8974 34.9153 86.8769 35.0063 86.8264C35.7855 86.3296 36.7115 85.0309 36.4292 84.1501C36.4653 81.4983 36.9345 78.8702 37.8181 76.3697L37.7955 76.3359ZM40.1782 74.3484H40.4718L41.1042 74.2355C41.0036 73.8389 40.9356 73.4348 40.9009 73.0272C40.6638 73.5128 40.4266 73.9532 40.2008 74.3823L40.1782 74.3484ZM34.9499 75.1615H35.0741H34.7127H34.9499Z" stroke="#2F2483" stroke-width="0.95" stroke-linecap="round" stroke-linejoin="round"/>
<path fill-rule="evenodd" clip-rule="evenodd" d="M27.8239 83.8562C27.0448 82.6705 28.445 79.7006 31.3246 81.5074C34.2041 83.3141 30.1953 87.4584 27.8239 83.8562Z" fill="white"/>
<path fill-rule="evenodd" clip-rule="evenodd" d="M11.3148 95.8377C10.6034 94.9682 12.9183 92.1451 16.0463 93.1388C19.1743 94.1325 13.4378 98.4688 11.3148 95.8377Z" fill="white"/>
<path fill-rule="evenodd" clip-rule="evenodd" d="M11.7214 121.031C12.8506 119.36 16.961 118.773 16.1254 122.985C15.2446 127.501 8.51439 126.045 11.7214 121.031Z" fill="white"/>
<path fill-rule="evenodd" clip-rule="evenodd" d="M38.6423 119.721C38.7101 117.778 42.03 115.351 43.5093 119.484C45.0563 123.854 38.3713 125.559 38.6423 119.721Z" fill="white"/>
<path fill-rule="evenodd" clip-rule="evenodd" d="M58.0992 119.823C57.9524 118.275 60.3576 116.028 61.9386 119.156C63.6437 122.465 58.5509 124.464 58.0992 119.823Z" fill="white"/>
<path fill-rule="evenodd" clip-rule="evenodd" d="M26.8639 129.658C27.4737 127.806 31.3809 126.27 31.6406 130.607C31.9116 135.203 24.9894 135.225 26.8639 129.658Z" fill="white"/>
<path fill-rule="evenodd" clip-rule="evenodd" d="M29.0329 152.006C29.6427 150.154 33.5498 148.618 33.8095 152.965C34.0806 157.55 27.1584 157.573 29.0329 152.006Z" fill="white"/>
<path fill-rule="evenodd" clip-rule="evenodd" d="M46.3659 128.631C45.9142 126.734 48.4324 123.56 51.007 127.185C53.7285 130.991 47.7661 134.322 46.3659 128.631Z" fill="white"/>
<path fill-rule="evenodd" clip-rule="evenodd" d="M35.6955 128.721C35.2438 126.824 37.762 123.64 40.3366 127.276C43.0581 131.081 37.0957 134.401 35.6955 128.721Z" fill="white"/>
<path fill-rule="evenodd" clip-rule="evenodd" d="M34.4182 138.059C35.5474 136.4 39.6691 135.801 38.8222 140.013C37.9414 144.53 31.2112 143.073 34.4182 138.059Z" fill="white"/>
<path fill-rule="evenodd" clip-rule="evenodd" d="M28.2419 161.107C29.3711 159.447 33.4928 158.849 32.6459 163.061C31.7651 167.578 25.0349 166.121 28.2419 161.107Z" fill="white"/>
<path fill-rule="evenodd" clip-rule="evenodd" d="M57.128 127.897C56.9473 125.954 59.9172 123.154 61.9385 127.095C64.0389 131.216 57.6474 133.723 57.128 127.897Z" fill="white"/>
<path fill-rule="evenodd" clip-rule="evenodd" d="M21.6924 116.355C22.8216 114.752 27.0449 114.311 25.9834 118.524C24.8542 123.04 18.203 121.189 21.6924 116.355Z" fill="white"/>
<path fill-rule="evenodd" clip-rule="evenodd" d="M34.9274 99.6657C35.7743 98.3445 39.1281 97.8251 38.4506 101.235C37.7392 104.86 32.3527 103.663 34.9274 99.6657Z" fill="white"/>
<path fill-rule="evenodd" clip-rule="evenodd" d="M11.8679 100.897C11.1113 100.061 13.2455 97.1365 16.3848 97.9608C19.7725 98.819 14.1263 103.415 11.8679 100.897Z" fill="white"/>
<path fill-rule="evenodd" clip-rule="evenodd" d="M38.6422 146.732C39.2294 144.327 43.3849 142.475 43.8028 148.143C44.2657 154.14 36.8241 153.914 38.6422 146.732Z" fill="white"/>
<path fill-rule="evenodd" clip-rule="evenodd" d="M39.2073 160.091C40.0317 158.736 44.8535 158.352 45.0229 161.92C45.1584 165.681 36.6891 164.179 39.2073 160.091Z" fill="white"/>
<path fill-rule="evenodd" clip-rule="evenodd" d="M40.4491 108.7C40.9911 106.836 44.8418 105.188 45.2596 109.501C45.6774 114.075 38.7665 114.312 40.4491 108.7Z" fill="white"/>
<path fill-rule="evenodd" clip-rule="evenodd" d="M51.3913 145.964C51.3913 144.022 54.779 141.549 56.2583 145.659C57.8618 150.007 51.2106 151.791 51.3913 145.964Z" fill="white"/>
<path fill-rule="evenodd" clip-rule="evenodd" d="M55.8177 135.406C55.6144 133.475 58.5391 130.607 60.6169 134.514C62.7963 138.613 56.45 141.21 55.8177 135.406Z" fill="white"/>
<path fill-rule="evenodd" clip-rule="evenodd" d="M30.9748 103.053C29.2471 106.848 23.6348 104.296 27.5871 100.513C28.8744 99.2479 32.6799 99.3834 30.9748 103.053Z" fill="white"/>
<path fill-rule="evenodd" clip-rule="evenodd" d="M45.4287 152.581C45.4975 151.872 45.8406 151.218 46.3849 150.758C46.9291 150.298 47.6314 150.069 48.3421 150.12C48.5355 151.676 49.3002 153.104 50.4876 154.128C49.9795 157.053 45.2028 157.516 45.4287 152.581Z" fill="white"/>
<path fill-rule="evenodd" clip-rule="evenodd" d="M27.3269 141.142C27.5554 140.603 27.9349 140.141 28.4198 139.812C28.9046 139.484 29.4741 139.302 30.0597 139.29C28.7272 141.921 28.8288 143.999 29.6757 145.41C28.0158 145.636 26.288 144.281 27.3269 141.142Z" fill="white"/>
<path fill-rule="evenodd" clip-rule="evenodd" d="M22.4485 135.101C22.5212 134.984 22.6043 134.875 22.6969 134.773C22.7472 135.708 23.0795 136.605 23.65 137.347C24.2205 138.089 25.0024 138.64 25.8926 138.929C23.86 140.939 19.8174 139.211 22.4485 135.101Z" fill="white"/>
<path fill-rule="evenodd" clip-rule="evenodd" d="M19.7836 126.507C20.5402 125.378 22.8212 124.678 23.8262 125.864C23.4227 127.046 23.4227 128.329 23.8262 129.511C22.2001 132.707 16.8476 131.081 19.7723 126.507" fill="white"/>
<path fill-rule="evenodd" clip-rule="evenodd" d="M33.1761 125.446C31.8888 129.026 26.4007 127.704 28.6027 123.458C29.0959 124.192 29.7886 124.768 30.599 125.121C31.4094 125.473 32.3036 125.586 33.1761 125.446Z" fill="white"/>
<path fill-rule="evenodd" clip-rule="evenodd" d="M31.9235 115.995L31.9913 115.825C32.7114 116.011 33.4613 116.053 34.1977 115.948C34.9341 115.844 35.6425 115.595 36.2824 115.215C36.5442 115.759 36.6866 116.351 36.7002 116.954C36.9712 121.539 30.049 121.573 31.9235 115.995Z" fill="white"/>
<path fill-rule="evenodd" clip-rule="evenodd" d="M50.3755 119.134C50.8662 118.503 51.1991 117.763 51.3466 116.977C52.3516 116.074 53.9552 115.95 55.186 118.366C57.2977 122.499 50.8949 124.995 50.3755 119.179" fill="white"/>
<path fill-rule="evenodd" clip-rule="evenodd" d="M48.8054 112.087C48.9732 112.525 49.0194 113 48.9392 113.462C48.8589 113.923 48.6551 114.355 48.3495 114.71C48.0439 115.066 47.6478 115.332 47.2032 115.48C46.7586 115.629 46.2821 115.654 45.8242 115.554C46.6153 114.235 46.9338 112.685 46.7276 111.161C46.7276 110.98 46.7276 110.8 46.6711 110.63C47.2402 111.297 47.977 111.8 48.8054 112.087Z" fill="white"/>
<path fill-rule="evenodd" clip-rule="evenodd" d="M53.1751 114.221C53.1473 114.027 53.1473 113.829 53.1751 113.634C54.4251 113.921 55.7353 113.773 56.8903 113.216C56.9468 113.318 57.0145 113.42 57.071 113.532C58.7874 116.841 53.6833 118.84 53.2316 114.199" fill="white"/>
<path fill-rule="evenodd" clip-rule="evenodd" d="M43.8709 133.102C44.0362 133.054 44.207 133.028 44.3791 133.023C44.8618 134.224 45.6384 135.284 46.6375 136.106C46.6375 139.912 41.4431 140.273 41.5334 136.513C42.1394 136.143 42.6614 135.651 43.0659 135.067C43.4704 134.484 43.7484 133.822 43.8822 133.125" fill="white"/>
<path fill-rule="evenodd" clip-rule="evenodd" d="M21.7488 98.9885C22.799 97.9722 25.7011 98.0399 25.1365 100.479C24.5271 101.102 24.0271 101.824 23.6572 102.613C21.7036 103.743 19.0273 101.699 21.7939 98.9885" fill="white"/>
<path fill-rule="evenodd" clip-rule="evenodd" d="M17.8986 107.209C18.2637 106.749 18.7598 106.41 19.3214 106.238H19.536H19.7505H19.9538H20.8572H20.9927H21.0943H21.2411H21.3315C22.1332 106.622 22.6075 107.582 22.1558 109.343C21.0266 113.86 14.3754 112.008 17.8647 107.175" fill="white"/>
<path fill-rule="evenodd" clip-rule="evenodd" d="M29.3148 106.442C29.9164 106.006 30.6514 105.794 31.3926 105.843C31.9061 106.457 32.6094 106.882 33.3913 107.051C33.4398 107.198 33.4701 107.349 33.4816 107.503C33.6301 107.154 33.8076 106.818 34.0124 106.498C34.9496 105.041 38.2809 104.364 38.5293 107.097C37.7957 107.735 37.246 108.557 36.9371 109.479C36.7797 109.963 36.6552 110.458 36.5644 110.958C36.2193 111.136 35.8352 111.225 35.4471 111.216C35.059 111.207 34.6793 111.101 34.3425 110.908C34.0058 110.715 33.7227 110.441 33.519 110.111C33.3154 109.78 33.1977 109.404 33.1767 109.016C33.0908 109.22 32.9888 109.416 32.8718 109.603C30.5343 113.646 24.6172 110.281 29.3374 106.464" fill="white"/>
<path fill-rule="evenodd" clip-rule="evenodd" d="M34.3062 168.707C34.5773 166.121 38.2134 163.976 39.2974 170.017C40.4267 176.397 33.4932 176.477 34.3062 168.707Z" fill="white"/>
<path fill-rule="evenodd" clip-rule="evenodd" d="M81.8473 116.48L81.4182 117.022L81.0569 117.101L80.5939 118.231L79.013 117.858L77.8837 117.316L77.2965 117.632L76.6868 117.034L75.4446 118.027L74.0218 116.898L73.3329 117.26C72.294 116.83 71.2551 116.39 70.1937 116.029L69.0644 117.158L67.1335 114.832L66.5011 115.193L65.7897 114.064L65.2025 115.193L63.8361 112.246L63.5312 112.641L62.0745 110.823C61.6627 110.226 61.41 109.534 61.3405 108.813L61.0243 109.603L59.3305 111.15L57.4447 112.37L56.7106 112.11L55.6605 112.697L55.0845 112.596C54.7997 112.74 54.5244 112.902 54.2602 113.081L53.0519 114.346L52.4083 113.68L51.0645 114.719L50.3982 114.256L47.4961 115.882L47.0444 113.431L46.6605 113.33L45.9378 112.923L45.328 112.325L44.8537 111.557L44.5488 110.687L44.3907 109.694V109.163C44.4625 108.713 44.5994 108.275 44.7972 107.864L44.5488 107.751L45.0005 106.95L44.6392 107.142L43.2954 107.255L41.9516 106.713L40.8224 105.583L40.4949 104.872L40.3932 104.16V103.505L40.5739 102.884L40.7094 102.636V102.376L41.7822 100.886C40.9579 100.276 40.0319 99.8242 39.2075 99.2031L38.7897 98.8305L38.3493 98.2771L37.9541 97.3173L38.2025 95.9848L39.1285 95.1718L39.5012 95.0475L39.919 94.6297L40.6191 94.37L41.5338 94.2684C41.9316 94.0326 42.3093 93.7645 42.663 93.4666L42.7872 93.173L43.1034 92.902L43.4309 92.3035C43.9801 91.6364 44.6319 91.0608 45.3619 90.5984L45.9378 90.3273L46.6153 90.1918H47.3041L47.9704 90.3273L48.8738 90.6096C49.7369 90.7669 50.6076 90.88 51.4823 90.9484L51.1209 89.9773L51.2113 89.1304C51.5275 88.0011 51.6968 86.8719 51.9792 85.7427L52.205 85.099L52.5551 84.4215L53.131 83.7778L53.9892 83.3148L54.9716 83.2471L55.7169 83.4729L55.4346 81.7339L60.6065 85.1216C61.0653 84.6729 61.5863 84.2926 62.1535 83.9924L63.0908 83.5971L64.1523 83.36L65.2815 83.3035L66.4672 83.4955C67.2068 83.7192 67.931 83.9908 68.6353 84.3085C69.6178 84.7828 70.5663 85.3136 71.5487 85.7878C71.8269 85.9003 72.1197 85.9725 72.4183 86.0024L74.9929 88.8819C76.8571 88.7894 78.726 88.8839 80.5713 89.1642C81.5876 89.3336 82.5588 89.5256 83.5525 89.7627L84.6817 90.0676L85.5738 90.429L86.7821 91.7728L86.4094 92.4729L87.8887 93.4102L88.1823 93.7602C88.7582 94.2345 89.4019 94.6523 90.023 95.0814L90.5876 95.5105L91.1861 96.0751L91.6604 96.9559V97.7916L91.5136 98.503C91.3824 99.1377 91.3406 99.7877 91.3894 100.434C91.4571 101.303 91.6039 102.15 91.6829 103.009L91.4006 104.522L90.5424 104.782C90.6215 105.764 90.6892 106.735 90.7005 107.729L90.2714 109.468H88.7921C89.0342 110.512 89.1592 111.58 89.1648 112.652L89.0744 113.465L88.0242 115.114L86.6805 114.459L86.5901 115.137L85.9578 115.803C85.8674 116.853 85.7884 117.903 85.6529 118.953L84.2978 123.73L82.3894 119.134C82.299 118.321 82.2652 117.508 82.2087 116.695L81.8473 116.48Z" fill="white"/>
<path d="M81.8473 116.48L81.4182 117.022L81.0569 117.101L80.5939 118.231L79.013 117.858L77.8837 117.316L77.2965 117.632L76.6868 117.034L75.4446 118.027L74.0218 116.898L73.3329 117.26C72.294 116.83 71.2551 116.39 70.1937 116.029L69.0644 117.158L67.1335 114.832L66.5011 115.193L65.7897 114.064L65.2025 115.193L63.8361 112.246L63.5312 112.641L62.0745 110.823C61.6627 110.226 61.41 109.534 61.3405 108.813L61.0243 109.603L59.3305 111.15L57.4447 112.37L56.7106 112.11L55.6605 112.697L55.0845 112.596C54.7997 112.74 54.5244 112.902 54.2602 113.081L53.0519 114.346L52.4083 113.68L51.0645 114.719L50.3982 114.256L47.4961 115.882L47.0444 113.431L46.6605 113.33L45.9378 112.923L45.328 112.325L44.8537 111.557L44.5488 110.687L44.3907 109.694V109.163C44.4625 108.713 44.5994 108.275 44.7972 107.864L44.5488 107.751L45.0005 106.95L44.6392 107.142L43.2954 107.255L41.9516 106.713L40.8224 105.583L40.4949 104.872L40.3932 104.16V103.505L40.5739 102.884L40.7094 102.636V102.376L41.7822 100.886C40.9579 100.276 40.0319 99.8242 39.2075 99.2031L38.7897 98.8305L38.3493 98.2771L37.9541 97.3173L38.2025 95.9848L39.1285 95.1718L39.5012 95.0475L39.919 94.6297L40.6191 94.37L41.5338 94.2684C41.9316 94.0326 42.3093 93.7645 42.663 93.4666L42.7872 93.173L43.1034 92.902L43.4309 92.3035C43.9801 91.6364 44.6319 91.0608 45.3619 90.5984L45.9378 90.3273L46.6153 90.1918H47.3041L47.9704 90.3273L48.8738 90.6096C49.7369 90.7669 50.6076 90.88 51.4823 90.9484L51.1209 89.9773L51.2113 89.1304C51.5275 88.0011 51.6968 86.8719 51.9792 85.7427L52.205 85.099L52.5551 84.4215L53.131 83.7778L53.9892 83.3148L54.9716 83.2471L55.7169 83.4729L55.4346 81.7339L60.6065 85.1216C61.0653 84.6729 61.5863 84.2926 62.1535 83.9924L63.0908 83.5971L64.1523 83.36L65.2815 83.3035L66.4672 83.4955C67.2068 83.7192 67.931 83.9908 68.6353 84.3085C69.6178 84.7828 70.5663 85.3136 71.5487 85.7878C71.8269 85.9003 72.1197 85.9725 72.4183 86.0024L74.9929 88.8819C76.8571 88.7894 78.726 88.8839 80.5713 89.1642C81.5876 89.3336 82.5588 89.5256 83.5525 89.7627L84.6817 90.0676L85.5738 90.429L86.7821 91.7728L86.4094 92.4729L87.8887 93.4102L88.1823 93.7602C88.7582 94.2345 89.4019 94.6523 90.023 95.0814L90.5876 95.5105L91.1861 96.0751L91.6604 96.9559V97.7916L91.5136 98.503C91.3824 99.1377 91.3406 99.7877 91.3894 100.434C91.4571 101.303 91.6039 102.15 91.6829 103.009L91.4006 104.522L90.5424 104.782C90.6215 105.764 90.6892 106.735 90.7005 107.729L90.2714 109.468H88.7921C89.0342 110.512 89.1592 111.58 89.1648 112.652L89.0744 113.465L88.0242 115.114L86.6805 114.459L86.5901 115.137L85.9578 115.803C85.8674 116.853 85.7884 117.903 85.6529 118.953L84.2978 123.73L82.3894 119.134C82.299 118.321 82.2652 117.508 82.2087 116.695L81.8473 116.48Z" stroke="#2F2483" stroke-width="0.88" stroke-linecap="round" stroke-linejoin="round"/>
<path fill-rule="evenodd" clip-rule="evenodd" d="M81.8465 116.48L81.4174 117.022L81.056 117.101L80.593 118.23L79.0121 117.858L77.8829 117.316L77.2957 117.632L76.6859 117.033L75.4437 118.027L74.0209 116.898L73.3321 117.259C72.2932 116.83 71.2543 116.401 70.1928 116.028L69.0636 117.158L67.1326 114.831L66.5002 115.193L65.7888 114.063L65.2016 115.193L63.8352 112.245L63.5304 112.641L62.0736 110.823C61.6603 110.228 61.411 109.534 61.3509 108.813L61.0235 109.603L59.3296 111.15L57.4438 112.37L56.7098 112.11L55.6596 112.697L55.0837 112.595C54.7989 112.74 54.5235 112.902 54.2594 113.081L53.1301 114.312L52.4752 113.646L51.1314 114.685L50.4651 114.222L47.563 115.848L47.1113 113.397L46.7274 113.296L46.0047 112.889L45.3949 112.291L44.9206 111.523L44.6157 110.653L44.4576 109.659V109.129C44.5294 108.678 44.6663 108.241 44.8642 107.83L44.6157 107.717L45.0674 106.915L44.7173 107.107L43.3623 107.22L42.0185 106.678L40.8893 105.549L40.5618 104.838L40.4601 104.126V103.471L40.6408 102.85L40.7763 102.613V102.342L41.8491 100.851C41.0248 100.253 40.0988 99.79 39.2744 99.1689L38.8566 98.7963L38.4162 98.243L38.021 97.2831L38.2694 95.9506L39.1954 95.1376L39.5681 95.0134L39.9859 94.5955L40.686 94.3358L41.6007 94.2342C41.9985 93.9985 42.3762 93.7303 42.7299 93.4324L42.8541 93.1388L43.1703 92.8678L43.4978 92.2693C44.047 91.6022 44.6988 91.0266 45.4288 90.5642L46.0047 90.2932L46.6822 90.1577H47.371L48.0373 90.2932L48.9407 90.5755C49.8039 90.7327 50.6745 90.8458 51.5492 90.9142L51.1878 89.9431L51.2782 89.0962C51.6057 87.9669 51.7638 86.8377 52.0461 85.7085L52.2719 85.0648L52.622 84.3986L53.1979 83.7436L54.0561 83.2806L55.0385 83.2129L55.7838 83.4387L55.5015 81.6997L60.6734 85.0874C61.1322 84.6387 61.6532 84.2584 62.2204 83.9582L63.1577 83.5629L64.2192 83.3258L65.3484 83.2693L66.5341 83.4613C67.2737 83.685 67.9979 83.9566 68.7022 84.2744C69.6847 84.7486 70.6332 85.2794 71.6156 85.7536C71.8938 85.8661 72.1866 85.9383 72.4852 85.9682L75.0598 88.8477C76.924 88.7552 78.7928 88.8498 80.6382 89.1301C81.6545 89.2994 82.6257 89.4914 83.6194 89.7285L84.7486 90.0334L85.6407 90.3948L86.849 91.7386L86.4763 92.4387L87.9556 93.3873L88.2492 93.726C88.8251 94.2003 89.4688 94.6181 90.0899 95.0472L90.6545 95.4763L91.253 96.0409L91.7273 96.9218V97.7574L91.5805 98.4688C91.449 99.1073 91.4072 99.761 91.4562 100.411C91.524 101.269 91.6708 102.116 91.7498 102.974L91.4675 104.488L90.6093 104.747C90.6884 105.73 90.7561 106.701 90.7674 107.695L90.3383 109.434H88.859C89.1011 110.478 89.2261 111.546 89.2317 112.618L89.1413 113.431L88.0911 115.08L86.7022 114.346L86.6005 115.012L85.9682 115.678C85.8891 116.728 85.7988 117.779 85.6633 118.829L84.3082 123.605L82.3998 119.01C82.3095 118.196 82.2756 117.383 82.2191 116.57L81.8465 116.48Z" fill="white"/>
<path fill-rule="evenodd" clip-rule="evenodd" d="M80.1296 107.265C78.7846 105.749 77.3557 104.309 75.8498 102.952C74.4552 101.506 72.9445 100.176 71.3329 98.9769C69.4245 97.7234 66.3078 95.9957 67.4822 96.3457C76.5838 99.0559 77.7695 95.0697 79.9038 94.6745C82.038 94.2793 71.4345 97.0346 62.3894 93.8727C64.2865 98.7736 53.6379 104.318 55.9415 103.674C59.3292 102.76 64.0494 100.445 64.0494 96.0747C64.0494 95.1714 79.5198 107.017 79.8586 107.977C79.8586 107.706 80.1183 107.525 80.1748 107.265M45.7107 94.8439C46.2075 94.5164 46.0155 94.0986 46.6366 93.6017C47.7658 92.7209 47.8901 92.3821 49.4258 92.9355C50.9616 93.4888 58.5387 93.805 59.7922 93.7033C58.5839 92.5741 53.22 92.0208 53.7395 90.4625C54.5187 88.1362 54.0105 83.3144 58.5839 88.7121L58.2112 86.4537L61.3957 88.5315C61.4521 87.8313 62.9879 86.1714 65.2577 86.273C67.2564 86.3746 70.3844 88.6218 71.1635 88.6557L73.6817 91.4675C76.7502 91.2296 79.8362 91.5627 82.7833 92.4499C84.3868 92.9242 82.1397 93.2968 82.1397 93.2968L85.245 95.2617C85.5274 95.8263 88.1698 97.2152 88.2036 97.7347C88.0065 98.6928 87.9194 99.6703 87.9439 100.648C88.0342 102.398 88.8134 104.16 87.1647 102.489C86.826 102.139 87.5148 107.333 87.2551 107.333C82.5123 107.333 85.5274 105.481 85.8774 111.297C86.0468 114.368 84.3191 107.683 84.3191 111.206C84.3191 111.376 83.6302 110.935 83.6302 110.935C83.6302 110.935 83.8109 114.459 83.3705 113.194C82.8624 111.782 82.9414 114.244 82.9414 114.425C82.2526 123.221 82.8624 109.761 81.4734 114.075C81.4734 114.244 81.0443 112.753 80.7055 112.223C78.6277 109.321 79.836 113.284 79.5763 114.165C79.3166 115.046 79.0681 114.334 79.0681 113.725C79.0681 112.132 78.7181 115.746 78.4584 115.215C78.3793 114.955 77.7695 113.375 77.4759 114.764L77.1823 114.278L76.5951 114.605L75.8837 113.905L74.6529 114.888L73.5236 113.939L72.6428 114.413C71.586 113.943 70.4903 113.565 69.3681 113.284L68.8938 113.758L67.3467 111.895L66.9063 112.144L65.6077 110.122L65.2802 110.789C65.2802 110.789 64.151 108.237 63.6316 109.434C63.3077 109.013 63.133 108.496 63.1347 107.966L63.2137 101.856C63.0279 101.902 62.8393 101.936 62.6491 101.958L60.1196 108.146L58.9001 109.275L57.8725 109.942L57.2401 109.716L56.1109 110.337C56.1109 110.337 55.5575 110.235 55.5237 110.337C54.9675 110.591 54.4473 110.918 53.9766 111.308L53.5249 110.845L52.0908 111.974L51.6052 111.647L49.9227 112.573L49.663 111.15C48.7709 111.466 47.6078 110.969 47.4045 109.106C47.4032 108.788 47.4875 108.476 47.6484 108.202C47.8093 107.927 48.041 107.702 48.3192 107.548L48.5111 106.859L48.195 106.712L48.3531 106.441C48.1849 106.299 48.04 106.131 47.9239 105.944C47.4948 105.301 49.5839 103.132 50.9503 103.528L51.4133 102.398L50.8035 102.489L51.0971 101.823L49.2 102.308L48.8047 102.048L46.2188 103.087L45.5413 102.703H45.0557C45.428 102.72 45.788 102.842 46.0946 103.053C48.003 104.183 45.3606 106.723 43.9039 104.51C43.8266 104.343 43.7863 104.16 43.7856 103.976C43.7849 103.791 43.8239 103.609 43.8999 103.441C43.976 103.272 44.0873 103.123 44.2263 103.001C44.3653 102.88 44.5288 102.79 44.7056 102.737L44.1523 102.805C45.146 100.964 47.2351 101.337 42.5375 98.6042C42.0971 98.3332 40.7194 97.3282 42.2778 97.012C42.8763 96.8878 41.9164 96.4925 43.7232 96.4925C43.8135 96.4587 45.7106 95.2165 45.6655 94.8665L45.7107 94.8439Z" fill="#008D3D"/>
<path fill-rule="evenodd" clip-rule="evenodd" d="M84.8507 89.796L94.8105 7.22655L78.8771 11.6644L78.7077 12.0371L55.4455 63.3607L57.8282 6.60547L28.2536 13.155L28.3213 17.7397L29.3377 17.5364L33.1658 16.746C33.4522 16.6838 33.7428 16.6423 34.0353 16.6218C34.3853 16.6218 34.7693 16.6218 35.1645 16.6218C35.7282 16.5735 36.2959 16.6374 36.8348 16.8099C37.3736 16.9824 37.8729 17.2601 38.3038 17.6268C39.02 18.5001 39.3683 19.6179 39.2749 20.7435C39.2495 21.7427 39.09 22.734 38.8006 23.6908C38.4042 25.0534 37.9098 26.3856 37.3213 27.6769L7.00146 94.4936L8.1307 95.7244L19.3552 90.5526L19.8182 90.067L20.1457 89.2201L22.0089 88.3619L22.6639 86.6454L23.1043 86.4421L42.5835 37.0496L40.0315 94.5275V95.4986H40.9462L47.236 95.4308H47.7667L48.0039 94.9227L48.704 93.3756H48.8734L48.9637 93.1837H50.2171L51.1318 91.1849H51.2448L76.2911 37.4222L68.6801 93.5676L68.5107 94.8323L69.6399 94.5952L81 92.3367L81.6211 92.2125L81.7001 91.5463L81.8243 90.4848L84.8507 89.796Z" fill="white"/>
<path fill-rule="evenodd" clip-rule="evenodd" d="M71.5705 90.869L81.1464 89.2993L90.7674 10.6145L79.9155 13.8441L50.2958 76.2002L53.1979 9.50781L29.3824 14.2393V15.7751L33.1766 14.9733C33.8989 14.8391 34.6329 14.7786 35.3673 14.7926C42.5267 14.4877 41.4878 22.8102 38.9583 27.361L11.5405 90.7109L18.0901 87.5038L45.2707 22.11L42.4137 92.4837L46.2983 92.416L80.6043 20.8114L71.5705 90.869Z" fill="#E3000F"/>
<path fill-rule="evenodd" clip-rule="evenodd" d="M132.402 80.288C134.541 78.8114 136.403 76.9688 137.902 74.8451C138.319 74.0965 138.646 73.3003 138.873 72.4737C139.087 71.1525 139.302 69.278 138.218 68.273C137.327 67.7968 136.361 67.4796 135.361 67.3357C131.795 66.6738 128.145 66.5975 124.554 67.1099C123.682 67.2102 122.836 67.4705 122.059 67.8778C121.771 68.9844 121.619 70.122 121.607 71.2654C121.426 76.1663 121.539 81.0898 121.539 85.9455C125.365 84.4501 129.01 82.5256 132.402 80.209M106.577 143.909H97.6221V136.84C101.766 135.959 103.957 131.849 104.16 127.806V68.9957C103.968 65.0095 101.812 60.8426 97.6221 59.9618V54.4963H137.913C141.381 54.4141 144.844 54.7938 148.212 55.6256C149.213 55.9861 150.187 56.4202 151.125 56.9242C152.049 57.5053 152.929 58.1545 153.756 58.8665L154.614 59.736L155.382 60.7636L156.037 61.8928L156.557 63.0898L156.941 64.3545L157.358 67.0195V69.4474C157.229 71.1062 156.903 72.7438 156.387 74.3257C156.032 75.2347 155.621 76.121 155.156 76.9794C154.244 78.5468 153.161 80.0086 151.927 81.3382C150.003 83.2457 147.896 84.9591 145.637 86.4536C148.804 88.1892 151.746 90.3052 154.4 92.7547C156.275 94.5925 157.948 96.6254 159.391 98.8187C160.035 99.835 160.633 100.863 161.198 101.935C162.276 104.168 163.095 106.517 163.637 108.937C164.002 110.822 164.221 112.732 164.292 114.651C164.328 116.643 164.222 118.635 163.976 120.613C163.652 122.809 163.115 124.969 162.372 127.061C161.914 128.215 161.397 129.346 160.825 130.448L159.91 132.007L158.894 133.497L157.765 134.875L156.545 136.151L155.235 137.28L153.824 138.331C152.629 139.092 151.384 139.771 150.097 140.363C148.322 141.147 146.487 141.789 144.609 142.283C139.784 143.303 134.861 143.788 129.929 143.728C127.264 143.728 124.599 143.819 121.957 143.819L106.577 143.909ZM121.573 126.767C121.586 127.988 121.707 129.204 121.934 130.403C122.138 131.126 122.352 131.103 123.064 131.273C123.775 131.442 124.193 131.431 124.769 131.476H126.327C131.059 131.42 135.948 130.99 140.07 128.348C140.924 127.71 141.701 126.975 142.385 126.157C143.695 124.457 144.71 122.548 145.389 120.511C145.708 119.52 145.964 118.509 146.156 117.485C146.624 114.585 146.535 111.623 145.897 108.756C145.693 107.965 145.456 107.186 145.185 106.396C143.131 101.363 139.644 97.044 135.158 93.9743C134.65 93.6355 134.141 93.2967 133.611 92.9919L121.517 98.638V125.74L121.573 126.767Z" fill="white"/>
<path fill-rule="evenodd" clip-rule="evenodd" d="M144.824 59.3748L145.592 59.5893L146.326 59.8603L147.049 60.1765L147.737 60.5491L148.404 60.967L149.047 61.4412L149.668 61.9607L150.21 62.5253L150.685 63.1464L151.08 63.8352L151.407 64.6031L151.667 65.45L151.859 66.3873L151.972 67.3923V68.5215V69.3007L151.904 70.0686L151.803 70.8252L151.656 71.5592L151.464 72.2819L151.238 72.982L150.967 73.6708L150.651 74.3484L149.928 75.6357L149.092 76.8665L148.166 77.9958L147.161 79.0685C146.586 79.5993 146.032 80.1074 145.422 80.6043C144.813 81.1012 144.124 81.6206 143.469 82.1062C142.103 83.066 140.714 83.9694 139.347 84.8841C138.218 85.6407 137.089 86.4199 135.959 87.1426L138.794 88.2718C139.72 88.6783 140.634 89.1187 141.538 89.593C142.43 90.0673 143.311 90.5754 144.192 91.1062C145.072 91.6369 145.908 92.2354 146.744 92.8113C147.365 93.263 147.986 93.7373 148.584 94.2115C149.183 94.6858 149.714 95.2166 150.312 95.736C150.911 96.2555 151.385 96.8652 151.904 97.3847C152.424 97.9041 152.887 98.5139 153.361 99.1689C153.835 99.8238 154.276 100.422 154.705 101.077C155.134 101.732 155.529 102.421 155.924 103.121L156.624 104.521L157.245 105.967L157.765 107.469L158.194 109.004L158.522 110.585L158.759 112.211L158.905 113.894V115.622V117.417L158.77 119.156L158.533 120.85L158.205 122.476L157.788 124.046L157.279 125.57L156.681 127.027L155.992 128.427L155.213 129.76L154.366 130.991L153.44 132.12L152.446 133.159L151.385 134.096L150.256 134.954L149.036 135.711L147.726 136.377C146.936 136.75 146.134 137.077 145.332 137.393C144.53 137.71 143.695 137.947 142.87 138.195C142.046 138.444 141.199 138.613 140.352 138.782L138.432 139.087C136.513 139.313 134.582 139.449 132.662 139.55C129.986 139.674 127.31 139.72 124.645 139.731H101.01L101.461 139.55L102.116 139.223L102.715 138.839L103.268 138.387L103.765 137.89L104.194 137.337L104.567 136.772L104.883 136.185L105.177 135.587L105.436 134.954L105.662 134.311L105.843 133.644L105.99 132.955L106.103 132.244C106.227 131.171 106.306 130.099 106.374 129.026C106.441 127.659 106.475 126.293 106.498 124.938C106.498 108.963 106.535 92.9807 106.611 76.9908C106.611 73.8967 106.611 70.7913 106.453 67.6972C106.453 67.1552 106.362 66.568 106.295 66.0711L106.182 65.3597L106.035 64.6708L105.854 63.9933L105.628 63.3496L105.38 62.7286L105.086 62.1188L104.759 61.5429L104.386 60.9783L103.957 60.4249L103.46 59.9168L102.907 59.4764L102.308 59.0811L101.653 58.7537L101.213 58.5843L136.434 58.5278C137.45 58.5278 138.466 58.5278 139.483 58.6069L141.38 58.765C142.261 58.8666 143.141 58.9795 144.022 59.1263L144.824 59.3748ZM116.13 91.9305C117.519 91.411 118.908 90.9029 120.286 90.3496C122.488 89.4575 124.645 88.4863 126.779 87.4474C127.671 87.0183 128.563 86.5554 129.433 86.0585C130.302 85.5616 131.126 85.0535 131.962 84.5002C132.798 83.9468 133.554 83.3709 134.333 82.7611C135.113 82.1514 135.835 81.5077 136.592 80.8414L137.134 80.322L138.139 79.2605L139.02 78.1313L139.776 77.002L140.397 75.8728L140.883 74.6645L141.233 73.4337L141.436 72.1802L141.515 70.8929L141.448 69.6508L141.256 68.5215L140.928 67.4826L140.454 66.5454L139.844 65.721L139.099 65.0322L138.229 64.4789L137.258 64.0723C136.75 63.903 136.242 63.7562 135.722 63.6207C135.203 63.4852 134.593 63.3722 134.096 63.2706C133.125 63.1012 132.143 62.977 131.16 62.8866C130.178 62.7963 129.455 62.785 128.597 62.7737C127.739 62.7624 126.801 62.7737 125.909 62.7737L124.103 62.898L122.488 63.0899L121.754 63.2254L120.433 63.5642L119.834 63.7675L119.292 63.9933L118.795 64.253L118.343 64.5353L117.948 64.8628L117.587 65.2129L117.282 65.6307L116.988 66.2405L116.751 66.9632L116.559 67.8101L116.412 68.77L116.3 69.8992L116.221 71.13V72.5077L116.13 91.9305ZM116.13 124.893C116.13 125.894 116.153 126.899 116.198 127.908L116.322 129.556L116.525 130.923L116.65 131.51L116.796 132.052L117.011 132.572L117.259 133.046L117.553 133.486L117.892 133.893L118.264 134.243L118.694 134.559L119.157 134.819L119.665 135.033L120.229 135.203L120.85 135.349L121.528 135.474L123.064 135.62H124.859H126.203L127.502 135.564L128.766 135.485L129.986 135.372L131.115 135.214L132.244 135.033L133.374 134.819L134.435 134.57L135.451 134.277L136.434 133.96L137.371 133.61L138.274 133.215L139.121 132.786L139.946 132.334L140.725 131.826L141.47 131.296L142.317 130.539L143.119 129.748L143.864 128.89L144.576 127.964L145.23 126.993L145.84 125.966L146.405 124.836L146.924 123.707C147.161 123.12 147.387 122.578 147.591 121.923C147.85 121.132 148.076 120.331 148.268 119.506C148.404 118.897 148.517 118.287 148.618 117.666C148.72 117.045 148.765 116.412 148.821 115.791C148.878 115.17 148.878 114.526 148.889 113.883V112.855L148.833 111.828L148.742 110.823L148.607 109.829L148.437 108.835L148.234 107.864L147.986 106.904L147.704 105.956L147.376 105.018L147.015 104.092L146.619 103.178L146.19 102.286L145.716 101.405L145.208 100.535L144.666 99.677L143.48 98.017L142.227 96.4587L140.917 94.9907L139.539 93.6243L138.105 92.3596L136.603 91.2304L135.045 90.1689L133.43 89.1978L132.301 88.588L116.141 96.1199L116.13 124.893Z" fill="#E3000F"/>
</svg>
