<svg width="250" height="102" viewBox="0 0 250 102" fill="none" xmlns="http://www.w3.org/2000/svg">
<path fill-rule="evenodd" clip-rule="evenodd" d="M245.97 4.02779C244.404 2.46227 242.24 1.49534 239.848 1.49456C237.459 1.49456 235.294 2.46227 233.729 4.02779C232.163 5.59524 231.195 7.75878 231.195 10.1482C231.195 12.5383 232.163 14.7018 233.729 16.2675C235.294 17.8331 237.459 18.8017 239.848 18.8017C242.24 18.8017 244.403 17.8331 245.97 16.2675C247.536 14.7018 248.504 12.5383 248.504 10.1482C248.504 7.75878 247.536 5.59524 245.97 4.02779ZM239.848 0C242.652 0 245.189 1.13517 247.026 2.97343C248.864 4.80801 250 7.34568 250 10.1482C250 12.9504 248.864 15.4873 247.026 17.3236C245.189 19.1602 242.652 20.2961 239.847 20.2961C237.047 20.2961 234.509 19.1602 232.671 17.3236C230.836 15.4863 229.699 12.9504 229.699 10.1482C229.699 7.34568 230.836 4.80801 232.671 2.97343C234.509 1.13517 237.047 0 239.848 0ZM236.899 9.11184H240.327C241.059 9.11184 241.627 9.03468 242.037 8.8827C242.449 8.73441 242.761 8.49307 242.971 8.15888C243.185 7.82565 243.293 7.468 243.293 7.07584C243.294 6.50477 243.086 6.03255 242.673 5.6656C242.26 5.2967 241.607 5.11449 240.715 5.11449H236.899V9.11184ZM235.294 15.8595V3.78139H240.649C241.725 3.78139 242.543 3.89149 243.104 4.10764C243.662 4.32281 244.109 4.70567 244.445 5.25407C244.779 5.80266 244.945 6.41017 244.945 7.07236C244.945 7.93072 244.667 8.65358 244.114 9.24036C243.559 9.82791 242.705 10.2001 241.546 10.3598C241.971 10.562 242.291 10.7652 242.51 10.9613C242.977 11.3892 243.418 11.9255 243.832 12.5703L245.922 15.8595H243.925L242.327 13.3463C241.863 12.6172 241.478 12.0636 241.178 11.679C240.873 11.2928 240.603 11.0263 240.365 10.872C240.129 10.72 239.884 10.6132 239.637 10.5508C239.457 10.5151 239.161 10.4944 238.748 10.4944H236.899V15.8595H235.294Z" fill="#594B97"/>
<path d="M189.916 99.8982C182.036 96.5722 173.829 93.5148 165.459 91.0512C157.102 88.593 148.581 86.7243 140.057 85.7729C133.412 85.0324 126.734 84.8569 120.137 85.4396C113.548 86.021 107.041 87.3618 100.731 89.646C93.5933 92.2288 86.4958 94.0618 79.2981 95.0599C72.0977 96.0594 64.7834 96.2267 57.2099 95.4808C46.8953 94.4664 37.239 91.8531 27.4058 89.1935C25.6971 88.7314 23.9818 88.2667 22.3555 87.8362C19.5074 87.0807 16.6552 86.3554 13.8029 85.7166C10.9534 85.0777 8.07659 84.5142 5.16679 84.0782H5.16408L0.682852 83.405L0 83.3036L0.285202 82.6744L2.15559 78.5475L35.6416 4.62987L36.6645 2.37191L36.8194 2.02783L37.1952 2.06759L39.6606 2.3349C42.5074 2.64196 45.3801 3.17658 48.2242 3.82093C51.0516 4.45985 53.8722 5.218 56.6203 5.97479C58.7773 6.56854 60.7382 7.12645 62.6963 7.68182C66.8155 8.85131 70.9388 10.0235 75.0788 11.053C79.021 12.0333 83.1486 12.9436 87.3117 13.551C91.4583 14.1542 95.6365 14.4586 99.6941 14.2323C103.499 14.0199 107.24 13.5758 110.949 12.9847C114.659 12.3952 118.366 11.6522 122.098 10.8433C123.941 10.4444 125.526 10.0892 127.134 9.73274C131.647 8.72783 136.163 7.72155 140.725 6.89343C144.246 6.2545 147.767 5.72667 151.298 5.34285C154.831 4.95631 158.384 4.70934 161.969 4.6285C164.951 4.56143 167.873 4.75063 170.763 5.1455C173.654 5.54017 176.518 6.14208 179.383 6.89886C183.659 8.02861 187.834 9.46405 192.003 10.8954C194.491 11.7495 196.983 12.6063 199.443 13.381C203.03 14.5107 206.583 15.4732 210.185 16.1916C213.779 16.9072 217.422 17.3816 221.182 17.5324L226.135 17.734L226.889 17.7654L226.594 18.4592L224.653 23.0191C219.421 35.3267 214.65 47.8536 209.884 60.3748C205.113 72.9087 200.339 85.445 195.081 97.8075L193.746 100.951L193.543 101.43L193.064 101.227L189.916 99.8982Z" fill="#B2B3B3"/>
<path d="M165.752 90.0501C174.153 92.5235 182.396 95.5944 190.318 98.9383L192.988 100.065L194.121 97.3988C199.36 85.0776 204.135 72.5396 208.907 60.0046C213.673 47.4845 218.443 34.9604 223.693 22.6105L225.337 18.7456L221.14 18.5742C217.309 18.4193 213.616 17.9409 209.982 17.2169C206.356 16.4944 202.765 15.5211 199.133 14.3762C196.597 13.5783 194.128 12.7283 191.662 11.8823C187.507 10.4566 183.348 9.02522 179.117 7.90788C176.289 7.16059 173.466 6.56702 170.623 6.17894C167.782 5.79105 164.91 5.60456 161.988 5.67027C158.438 5.74995 154.914 5.99672 151.408 6.37918C147.9 6.76165 144.405 7.28407 140.908 7.91873C136.369 8.74277 131.863 9.74632 127.359 10.7499C125.613 11.138 123.832 11.5356 122.316 11.8632C118.591 12.6707 114.871 13.4165 111.113 14.0129C107.358 14.6106 103.58 15.0603 99.7511 15.2743C95.6141 15.5046 91.3672 15.1975 87.1617 14.5846H87.1604C82.9765 13.9746 78.8121 13.0545 74.8286 12.0648C70.656 11.0269 66.5339 9.85605 62.4133 8.6852C60.329 8.093 58.2392 7.49924 56.3441 6.97837H56.3428C53.6236 6.22973 50.8249 5.47837 47.9959 4.83809C45.185 4.20071 42.3506 3.67422 39.5505 3.37124L37.4593 3.14502L36.5927 5.05753L3.10667 78.9752L1.52148 82.474L5.31985 83.0443C8.23663 83.4816 11.1408 84.0505 14.0301 84.6992C16.9193 85.3476 19.7783 86.0728 22.621 86.8269C24.3763 87.2917 26.0313 87.7401 27.674 88.1842C37.4758 90.8343 47.1006 93.4392 57.3108 94.4443C64.7938 95.1804 72.0285 95.016 79.1549 94.026C86.2869 93.0376 93.3146 91.2224 100.376 88.6669C106.787 86.3457 113.381 84.9857 120.046 84.3975C126.704 83.8094 133.451 83.9875 140.172 84.7362C148.761 85.6944 157.341 87.5755 165.752 90.0501Z" fill="#FEFEFE"/>
<path fill-rule="evenodd" clip-rule="evenodd" d="M5.75049 80.1753C16.9127 55.5358 28.075 30.8963 39.2373 6.25684C55.6724 8.03753 79.6309 19.3069 99.914 18.1721C121.506 16.964 137.947 9.11881 162.056 8.57351C182.545 8.11022 197.26 20.514 221.022 21.4753C210.73 45.68 201.742 72.0587 191.45 96.2633C153.93 80.4281 123.773 77.1104 99.3882 85.9365C58.7615 100.641 34.933 84.5599 5.75049 80.1753Z" fill="#594B97"/>
<path fill-rule="evenodd" clip-rule="evenodd" d="M11.1973 68.2007C19.4693 62.8565 27.4216 62.8776 36.1621 63.8287L32.716 70.8471L41.1965 73.1299L44.9952 64.9006C48.0702 65.2571 51.2689 65.5572 54.6302 65.6466L50.6552 74.652C53.446 75.6301 56.019 76.4633 58.8098 76.2823L63.6008 65.3178C68.6343 64.7888 74.0364 63.6106 79.9103 61.3761C74.8994 62.0216 70.2439 61.4333 65.8408 60.1917L68.5947 53.8895L74.4659 55.1939L76.8576 48.2367L70.9866 47.1498L79.2495 32.1488L71.8564 30.1919L63.702 45.628L54.7869 43.019L62.9411 27.5833L46.8503 23.0176L42.5013 29.5398L51.8515 32.3661L47.5025 40.9534L43.5884 39.9752L40.7616 45.8453L44.4582 46.9324L42.9189 50.0674C35.117 46.7 27.5657 45.1739 19.3881 50.4568L11.1973 68.2007ZM58.263 57.4162C55.5107 56.2106 52.8432 54.8692 50.2306 53.5594L52.2864 49.1063L60.8754 51.4978L58.263 57.4162ZM209.62 49.7803C206.814 49.3046 203.756 48.5305 200.475 47.5867C201.842 44.5522 203.299 41.4741 204.912 38.3332L197.955 36.2681C196.293 39.3956 194.752 42.4152 193.3 45.4078C191.484 44.8391 189.614 44.2482 187.693 43.6516C189.083 40.4876 190.415 37.4876 191.758 34.5291L185.018 32.6813C183.48 35.6332 182.086 38.5941 180.767 41.5664C179.145 41.0976 177.492 40.6376 175.811 40.1933C177.176 37.1922 178.466 34.1883 179.583 31.1598L172.843 29.4206C172.348 30.2851 170.551 33.7861 168.241 38.3711C166.655 38.03 165.047 37.7113 163.418 37.4217C164.94 34.2346 166.38 31.0191 167.733 27.7903L160.558 27.138C159.045 29.957 157.712 33.1973 156.041 36.3412C153.732 36.0789 151.387 35.8879 149.01 35.7809C150.277 33.348 151.487 30.9948 152.623 28.3337C152.807 27.9006 152.106 26.9042 151.644 26.812C147.311 25.9482 139.259 26.174 137.091 30.8667L137.62 35.0724C140.715 32.6416 142.85 33.2681 143.165 34.3118C143.295 34.7427 143.287 35.2042 143.179 35.6947C140.008 35.747 136.783 35.9661 133.512 36.3832C133.314 34.9241 132.721 33.429 131.654 31.9311C128.424 28.8863 122.58 28.9451 117.901 31.5508L117.248 37.7466C119.149 37.0725 122.176 37.4484 123.767 38.2161C118.895 39.4332 113.936 41.1343 108.907 43.4298L114.367 31.714L106.104 33.127L99.4722 47.3673C97.4158 51.782 90.6313 51.875 92.6225 47.3673L98.3849 34.3228C93.601 34.6849 89.1074 34.3226 84.9032 33.2357L81.2066 40.4102C83.4535 41.3521 85.7004 41.5696 87.9475 41.0623C84.903 49.1796 76.5806 62.5115 94.2534 59.9767C90.3897 65.7714 85.3453 75.8544 78.8147 65.6293L72.2913 69.76C81.8912 85.3204 96.3008 72.3053 100.233 62.0422L107.618 46.1972C112.21 45.3239 116.648 44.8114 120.935 44.5931C120.135 45.2351 119.215 45.9392 118.173 46.7148C105.414 53.962 103.602 61.2813 107.083 67.3685C112.048 73.8002 120.745 70.6118 124.805 61.8247L121.869 59.5419C118.68 63.0926 116.216 63.5997 114.476 61.0638C112.366 58.2102 117.383 53.824 127.197 47.2583C128.403 46.4515 129.486 45.5532 130.403 44.5832C133.002 44.7106 135.541 44.9405 138.016 45.2601C137.38 47.0102 137.137 48.8746 137.729 50.8327C138.847 54.5282 143.507 54.5542 148.383 52.0281C139.215 69.0401 135.261 59.7429 134.468 56.702L127.402 60.5063C129.828 72.3216 142.99 72.0242 149.035 62.8972C151.88 58.6021 154.579 54.1582 157.116 49.612C158.724 50.1321 160.298 50.6766 161.836 51.2419C157.37 60.3272 153.343 68.7904 153.709 68.8753C165.045 71.4994 176.811 71.6487 187.736 76.4839C189.589 72.7738 191.247 69.092 192.841 65.4014C196.53 67.0275 199.722 68.1319 202.418 68.338L209.62 49.7803ZM169.278 54.2155C171.057 54.9806 172.784 55.7576 174.455 56.5345C173.55 58.6831 172.623 60.8399 171.647 63.0062L165.994 62.1366C166.991 59.4636 168.107 56.828 169.278 54.2155ZM180.748 59.556C182.565 60.4507 184.306 61.3201 185.97 62.1422C185.358 63.7021 184.752 65.2911 184.148 66.919L178.278 65.1798C179.14 63.2244 179.961 61.354 180.748 59.556Z" fill="#393185"/>
<path fill-rule="evenodd" clip-rule="evenodd" d="M12.2847 65.864C20.5753 60.5079 28.5439 60.5409 37.3075 61.4981L44.0389 47.7884C36.1564 44.3811 28.5369 42.8069 20.3126 48.1202L12.2847 65.864ZM46.0754 62.5631C49.1361 62.9181 52.3191 63.2172 55.6632 63.3085L59.2979 55.074C56.5585 53.8777 53.9014 52.5477 51.2987 51.2482L46.0754 62.5631ZM64.62 62.9876C69.6728 62.4623 75.0973 61.2841 80.9979 59.0395C75.9707 59.687 71.2942 59.0928 66.8681 57.8429L64.62 62.9876ZM210.654 47.2803C207.875 46.8095 204.85 46.0461 201.606 45.1146C198.784 51.1912 196.389 57.0753 193.906 62.9151C197.582 64.5338 200.764 65.6327 203.452 65.838L210.654 47.2803ZM194.504 42.9614C192.655 42.3821 190.748 41.7799 188.788 41.1706C186.655 45.9951 184.424 51.142 181.831 57.0805C183.619 57.9612 185.334 58.8174 186.974 59.6277C189.293 53.9045 191.734 48.5165 194.504 42.9614ZM181.886 39.0912C180.261 38.6211 178.605 38.1595 176.92 37.7137C174.873 42.3868 172.576 47.0394 170.4 51.7536C172.153 52.5078 173.853 53.2739 175.5 54.0398C177.588 49.0183 179.607 44.0399 181.886 39.0912ZM169.483 35.9148C167.872 35.566 166.237 35.2417 164.582 34.9457C162.669 39.0842 160.617 43.1816 158.439 47.2068C160.005 47.7176 161.539 48.2517 163.038 48.8049C165.339 44.1471 167.662 39.5093 169.483 35.9148ZM157.292 33.8666C154.993 33.6012 152.659 33.4064 150.292 33.2939C148.962 35.9219 147.558 38.4879 146.101 41.4856C145.473 42.7774 145.711 43.5635 146.349 43.9849C146.966 44.1115 147.578 44.2431 148.186 44.3794C149.378 44.339 150.669 43.9052 151.21 43.3332C153.86 40.5334 155.687 37.1785 157.292 33.8666ZM137.432 33.5684C135.927 33.7088 134.411 33.8887 132.886 34.1141C134.068 36.9298 133.689 39.6776 132.262 42.1294C134.618 42.2654 136.926 42.482 139.179 42.7759C141.104 39.3356 143.811 36.4488 143.166 34.312C142.85 33.2684 140.716 32.6419 137.621 35.0727L137.432 33.5684ZM118.901 37.4235C115.996 38.3792 113.064 39.5138 110.108 40.8564L108.796 43.6701C113.993 42.6898 118.99 42.1714 123.795 42.0195C125.157 40.5307 125.361 39.5124 124.479 38.6711C123.572 37.85 121.038 37.2607 118.901 37.4235Z" fill="#00A8E7"/>
<path fill-rule="evenodd" clip-rule="evenodd" d="M41.4702 26.1711L45.819 19.6489L61.9101 24.2146L53.7558 39.6504L62.6711 42.2594L70.8255 26.8234L78.2186 28.78L69.9555 43.7811L75.8267 44.8682L73.4347 51.8252L67.5638 50.5208L57.7787 72.9136C54.9879 73.0947 52.4149 72.2613 49.6243 71.2831L59.8443 48.1293L51.2553 45.7378L40.1653 69.7612L31.6851 67.4785L43.427 43.5638L39.7304 42.4767L42.5573 36.6068L46.4714 37.5849L50.8204 28.9975L41.4702 26.1711ZM80.1755 37.0416L83.8721 29.8671C88.0762 30.954 92.5701 31.3163 97.3537 30.9541L91.5915 43.9986C89.6001 48.5062 96.3849 48.4133 98.441 43.9986L105.073 29.7583L113.336 28.3454L99.202 58.6735C95.2699 68.9368 80.8601 81.952 71.2603 66.3914L77.7837 62.2607C84.3141 72.486 89.3586 62.4026 93.2223 56.608C75.5492 59.1428 83.8719 45.8109 86.9164 37.6937C84.6693 38.201 82.4224 37.9835 80.1755 37.0416ZM120.838 56.1733L123.773 58.456C119.714 67.2432 111.017 70.4316 106.052 63.9999C102.571 57.9127 104.382 50.5933 117.141 43.3463C123.085 38.9258 125.042 36.8241 123.447 35.3022C122.287 34.2517 118.464 33.5808 116.217 34.3779L116.87 28.1819C121.549 25.5764 127.393 25.5177 130.623 28.5627C134.753 34.3599 131.801 40.1193 126.165 43.8897C116.352 50.4551 111.334 54.8415 113.445 57.6952C115.184 60.2313 117.649 59.724 120.838 56.1733ZM136.589 31.704L136.059 27.498C138.228 22.8054 146.28 22.5795 150.613 23.4433C151.075 23.5354 151.776 24.532 151.591 24.965C149.614 29.6003 147.41 33.3015 145.069 38.1167C143.22 41.9203 148.873 41.3431 150.178 39.9644C154.695 35.1917 156.822 28.8073 159.527 23.7695L166.702 24.4217C161.607 36.5767 155.282 48.5399 148.004 59.5288C141.959 68.6557 128.797 68.9529 126.371 57.1375L133.437 53.3334C134.23 56.3743 138.184 65.6714 147.352 48.6597C142.476 51.1857 137.816 51.1597 136.698 47.464C134.568 40.4231 143.235 34.5906 142.134 30.9431C141.818 29.8994 139.684 29.2729 136.589 31.704ZM171.812 26.0519C170.059 29.1174 151.918 65.3306 152.679 65.5067C164.014 68.1308 175.78 68.28 186.705 73.115C192.976 60.5581 197.017 48.328 203.881 34.9647L196.924 32.8994C191.384 43.3221 187.194 52.5496 183.117 63.5503L177.247 61.8113C182.854 49.0867 186.741 39.9416 190.727 31.1604L183.987 29.3126C178.79 39.2859 175.247 49.3572 170.616 59.6375L164.963 58.7679C168.927 48.1458 174.748 38.1128 178.552 27.7909L171.812 26.0519Z" fill="#FEFEFE"/>
</svg>
