<svg width="250" height="155" viewBox="0 0 250 155" fill="none" xmlns="http://www.w3.org/2000/svg">
<path fill-rule="evenodd" clip-rule="evenodd" d="M0 46.7729H250V154.668H0V46.7729Z" fill="#E31E24"/>
<path d="M238.892 143.646H11.3003V57.3984H83.9443C84.7257 57.3984 85.36 58.0335 85.36 58.8157C85.36 59.601 84.7257 60.2328 83.9443 60.2328H14.132V140.811H236.06V60.2328H166.914C166.129 60.2328 165.498 59.601 165.498 58.8157C165.498 58.0335 166.129 57.3984 166.914 57.3984H238.892V143.646Z" fill="#FEFEFE"/>
<path fill-rule="evenodd" clip-rule="evenodd" d="M169.454 44.2259C169.454 68.7535 149.44 88.4523 125 88.4523C100.561 88.4523 80.5474 68.7519 80.5474 44.2259C80.5474 19.6999 100.562 0 125 0C149.44 0 169.454 19.6983 169.454 44.2259Z" fill="#E31E24"/>
<path d="M161.238 44.2262C161.238 24.3424 145.014 8.22217 124.999 8.22217C104.987 8.22217 88.7607 24.3424 88.7607 44.2262C88.7607 64.1101 104.987 80.2303 124.999 80.2303C145.014 80.2303 161.238 64.1101 161.238 44.2262Z" fill="#FEFEFE"/>
<path d="M219.339 74.5893C219.339 73.5035 218.452 72.6216 217.359 72.6216C216.264 72.6216 215.377 73.5035 215.377 74.5893C215.377 75.675 216.264 76.5563 217.359 76.5563C218.452 76.5563 219.339 75.675 219.339 74.5893Z" fill="#FEFEFE"/>
<path d="M34.8181 74.5893C34.8181 73.5035 33.9323 72.6216 32.8361 72.6216C31.7427 72.6216 30.8569 73.5035 30.8569 74.5893C30.8569 75.675 31.7427 76.5563 32.8361 76.5563C33.9323 76.5563 34.8181 75.675 34.8181 74.5893Z" fill="#FEFEFE"/>
<path d="M125 67.2565C124.026 67.2171 122.536 66.5512 120.758 65.1959C122.528 62.6791 124.012 59.8106 125.068 56.757C126.149 59.7223 127.648 62.5373 129.409 65.0287C127.665 66.4086 126.101 67.2109 125 67.2565ZM109.672 30.0994C112.024 27.1341 115.992 25.3847 121.48 24.8667C118.685 32.6502 112.837 39.2289 107.154 40.0259C106.922 36.61 107.417 32.9423 109.672 30.0994ZM130.306 35.3228C128.203 37.1628 126.289 38.2486 125 38.3021C123.865 38.2539 122.026 37.3556 119.852 35.5018C122.026 32.7122 123.836 29.3931 125.068 25.8301C126.331 29.2886 128.152 32.5512 130.306 35.3228ZM140.329 30.0994C142.583 32.9392 143.078 36.6013 142.848 40.0142C137.715 39.1491 131.564 32.7325 128.602 24.8752C134.048 25.3995 137.989 27.1481 140.329 30.0994ZM132.207 53.0073L132.213 53.002C133.629 54.5044 135.143 55.7883 136.709 56.7974C135.254 58.9913 133.68 60.935 132.136 62.5312C130.675 60.4084 129.407 58.01 128.481 55.4622C129.675 54.8783 130.932 54.0474 132.207 53.0073ZM132.737 38.0921C135.687 41.0659 139.037 43.0978 142.353 43.6199C142.277 43.9908 142.2 44.354 142.116 44.7056C141.359 47.8715 140.105 50.904 138.599 53.6648C134.77 51.1449 130.995 46.3777 128.792 40.8251C130.06 40.1668 131.394 39.246 132.737 38.0921ZM120.311 50.3658L120.302 50.3574C122.143 47.8683 123.703 44.9998 124.83 41.9302C124.873 41.9302 124.918 41.9417 124.957 41.9417H125.045C125.13 41.9386 125.223 41.9216 125.312 41.9162C126.467 44.8977 128.033 47.7158 129.862 50.1816L129.854 50.19C127.931 51.7939 126.195 52.7355 125 52.7835C123.947 52.7409 122.284 51.9588 120.311 50.3658ZM117.983 62.707C117.346 62.0526 116.689 61.3293 116.024 60.5268C115.077 59.3846 114.188 58.1774 113.361 56.9275C114.975 55.9354 116.527 54.6568 117.963 53.1468L117.975 53.1521C119.209 54.1442 120.427 54.9348 121.585 55.4933C120.687 58.0813 119.444 60.5354 117.983 62.707ZM121.282 40.8614C119.167 46.431 115.499 51.3122 111.492 53.8065C109.858 50.8165 108.601 47.7011 107.887 44.7056C107.802 44.3594 107.726 43.9994 107.652 43.6307C111.087 43.1436 114.483 41.1681 117.439 38.2338H117.436C118.748 39.342 120.047 40.2294 121.282 40.8614ZM148.475 39.1887C147.802 38.9401 146.765 36.5045 146.074 33.9397C146.063 33.9003 146.04 33.8375 146.009 33.767C145.471 31.5275 144.545 29.5326 143.206 27.8451C140.003 23.8089 134.713 21.5614 127.472 21.1394H127.469C127.291 21.1308 127.106 21.1247 126.925 21.1138C127.172 19.6565 127.39 17.7405 127.365 15.555C127.35 14.2998 126.292 13.2821 125.051 13.3071C123.785 13.3186 122.772 14.3509 122.785 15.6063C122.811 17.9217 122.516 19.8895 122.259 21.1534C115.157 21.6157 109.96 23.8575 106.794 27.8451C105.433 29.5635 104.486 31.5925 103.954 33.88L103.929 33.9481C103.238 36.5131 102.201 38.9487 101.527 39.198C100.842 39.4901 100.298 39.991 100.202 40.7143C100.106 41.4399 100.457 42.1509 101.088 42.5195C102.134 43.1321 103.108 43.441 103.883 43.5967C104.257 45.5049 105.09 49.0307 106.605 52.3211C107.502 54.2742 105.341 55.6915 105.101 55.8417C104.36 56.287 104.033 57.1915 104.325 58.0046C104.614 58.8178 105.438 59.3142 106.301 59.2004C106.562 59.1639 108.366 58.9091 109.972 58.4809C110.414 59.1725 110.869 59.8416 111.337 60.4905C112.299 61.8628 112.817 62.4629 112.985 62.645C113.599 63.3728 114.174 66.3241 113.684 68.1207C113.467 68.9199 113.815 69.7618 114.537 70.1762C114.823 70.3403 115.137 70.417 115.451 70.417C115.927 70.417 116.399 70.2326 116.754 69.8781C117.561 69.068 118.139 68.4639 118.518 68.0581C120.846 69.8184 123.092 70.8529 124.957 70.8987H125.045C126.911 70.8529 129.157 69.8098 131.482 68.0473C131.862 68.4524 132.442 69.0563 133.249 69.8695C133.603 70.2242 134.076 70.4084 134.552 70.4084C134.866 70.4084 135.181 70.3286 135.467 70.1645C136.189 69.7534 136.537 68.9084 136.319 68.1123C135.829 66.3157 136.401 63.362 137.016 62.6333C137.199 62.4351 137.809 61.7289 138.972 60.0429C139.332 59.5294 139.689 59.0083 140.034 58.4724C141.637 58.9007 143.441 59.1554 143.701 59.1895C144.565 59.3025 145.386 58.8093 145.678 57.9962C145.97 57.183 145.644 56.2784 144.902 55.8308C144.661 55.6829 142.497 54.2626 143.399 52.3127C144.913 49.0222 145.743 45.4932 146.12 43.5881C146.896 43.4324 147.87 43.1204 148.915 42.5109C149.546 42.14 149.894 41.4282 149.801 40.7057C149.705 39.9801 149.161 39.4784 148.475 39.1887Z" fill="#E31E24"/>
<path d="M49.8158 78.3843C49.4986 78.5369 48.793 78.7096 47.8933 78.7096C45.542 78.7096 44.1123 77.2505 44.1123 74.9994C44.1123 72.5763 45.8166 71.1133 48.0798 71.1133C48.9686 71.1133 49.5976 71.2977 49.8724 71.4425L49.5861 72.5111C49.2348 72.3578 48.7397 72.2278 48.1331 72.2278C46.6298 72.2278 45.542 73.1656 45.542 74.9343C45.542 76.5614 46.4851 77.5874 48.1255 77.5874C48.6631 77.5874 49.2348 77.4799 49.5976 77.3272L49.8158 78.3843Z" fill="#FEFEFE"/>
<path d="M53.956 74.5861H54.7598C55.672 74.5861 56.2321 74.1044 56.2321 73.3725C56.2321 72.5765 55.672 72.1939 54.7938 72.1939C54.3636 72.1939 54.089 72.228 53.956 72.259V74.5861ZM52.6167 71.3436C53.135 71.2437 53.8793 71.1787 54.6608 71.1787C55.7253 71.1787 56.4395 71.3521 56.9463 71.7687C57.3539 72.1055 57.5837 72.619 57.5837 73.2541C57.5837 74.2035 56.9346 74.8472 56.2321 75.0847V75.119C56.7707 75.3171 57.09 75.8306 57.2656 76.5391C57.5071 77.4545 57.7052 78.3078 57.8468 78.5913H56.4618C56.3512 78.373 56.1649 77.7751 55.9691 76.8567C55.7486 75.8956 55.4088 75.5898 54.6383 75.5664H53.956V78.5913H52.6167V71.3436Z" fill="#FEFEFE"/>
<path d="M64.1985 75.4907L63.6153 73.6792C63.4737 73.2308 63.3515 72.729 63.2408 72.3047H63.2215C63.1085 72.729 62.9894 73.2425 62.867 73.6792L62.2954 75.4907H64.1985ZM62.0772 76.5082L61.4404 78.5914H60.0439L62.4176 71.2329H64.1414L66.549 78.5914H65.0876L64.4168 76.5082H62.0772Z" fill="#FEFEFE"/>
<path d="M69.2305 71.2329H73.515V72.3357H70.5813V74.3654H73.3054V75.4589H70.5813V78.5914H69.2305V71.2329Z" fill="#FEFEFE"/>
<path d="M77.8872 72.3581H75.7773V71.2329H81.3733V72.3581H79.238V78.5914H77.8872V72.3581Z" fill="#FEFEFE"/>
<path d="M38.4206 100.024V89.9779H41.5834C45.174 89.9779 48.8445 90.5703 48.8445 94.9752C48.8445 99.4111 45.356 100.024 41.5834 100.024H38.4206ZM51.7016 121.047H61.2395V116.101H57.2381L50.7817 103.487L51.4216 103.337C55.3209 102.416 57.2976 99.638 57.2976 95.0766C57.2976 88.1239 53.3612 85.2896 43.7103 85.2896H26.6514V89.9779H30.6444V116.101H26.6514V121.047H42.4167V116.101H38.4206V104.816H43.3025L51.7016 121.047Z" fill="#FEFEFE"/>
<path d="M85.1794 110.976H90.7923V121.046H64.646V116.032H67.996V94.9805H64.646V90.1846H90.7923V99.7369H85.1794V94.9805H75.3901V102.546H83.5253V107.603H75.3901V116.032H85.1794V110.976Z" fill="#FEFEFE"/>
<path d="M105.582 116.032H108.063C114.284 116.032 117.156 112.701 117.156 105.485C117.156 98.3539 113.936 94.9805 107.408 94.9805H105.582V116.032ZM125.422 105.616C125.422 115.383 119.897 121.046 110.108 121.046H94.8384V116.032H98.1884V94.9805H94.8384V90.1846H110.108C119.897 90.1846 125.422 95.8447 125.422 105.616Z" fill="#FEFEFE"/>
<path d="M138 107.084V116.032H141.348V121.046H127.254V116.032H130.604V94.9805H127.254V90.1846H141.348V94.9805H138V102.07H147.267V94.9805H143.916V90.1846H158.01V94.9805H154.663V116.032H158.01V121.046H143.916V116.032H147.267V107.084H138Z" fill="#FEFEFE"/>
<path d="M183.839 105.527C183.839 99.0027 180.534 94.9377 175.922 94.9377C171.311 94.9377 168.004 99.0027 168.004 105.527C168.004 112.055 171.354 116.117 175.922 116.117C180.489 116.117 183.839 112.055 183.839 105.527ZM192.106 105.658C192.106 115.122 185.32 121.693 175.922 121.693C166.525 121.693 159.738 114.95 159.738 105.658C159.738 96.3209 166.438 89.6206 176.182 89.6206C185.493 89.6206 192.106 96.1482 192.106 105.658Z" fill="#FEFEFE"/>
<path d="M204.418 102.452V89.9693H206.865C212.426 89.9693 214.907 91.8937 214.907 96.2112C214.907 100.528 212.426 102.452 206.865 102.452H204.418ZM223.351 96.2112C223.351 88.5576 219.274 85.2896 209.716 85.2896H192.655V89.9693H196.65V116.109H192.655V121.047H208.413V116.109H204.418V107.441H209.716C219.146 107.441 223.351 103.977 223.351 96.2112Z" fill="#FEFEFE"/>
<path d="M31.8424 134.539C31.8424 134.604 31.8325 134.649 31.8132 134.674C31.7944 134.699 31.7383 134.711 31.6455 134.711H30.4805C30.3551 134.711 30.292 134.654 30.292 134.539V132.371H28.4715V134.539C28.4715 134.604 28.4614 134.649 28.4428 134.674C28.4235 134.699 28.3674 134.711 28.2744 134.711H27.1097C26.9842 134.711 26.9209 134.654 26.9209 134.539V129.137C26.9209 129.022 26.9842 128.965 27.1097 128.965H28.2744C28.3674 128.965 28.4235 128.977 28.4428 129.002C28.4614 129.026 28.4715 129.071 28.4715 129.137V131.074H30.292V129.137C30.292 129.022 30.3551 128.965 30.4805 128.965H31.6455C31.7383 128.965 31.7944 128.977 31.8132 129.002C31.8325 129.026 31.8424 129.071 31.8424 129.137V134.539ZM37.3533 134.522C37.3533 134.648 37.3016 134.711 37.1977 134.711H34.6632C34.3354 134.711 34.0687 134.664 33.8636 134.571C33.659 134.478 33.4973 134.357 33.3801 134.206C33.2625 134.056 33.1816 133.887 33.1381 133.701C33.0941 133.515 33.0721 133.332 33.0721 133.151V130.524C33.0721 130.327 33.0997 130.135 33.1546 129.946C33.209 129.757 33.2976 129.59 33.4208 129.445C33.5441 129.3 33.7068 129.183 33.9086 129.096C34.111 129.008 34.3574 128.965 34.6473 128.965H37.0668C37.1323 128.965 37.1745 128.974 37.1938 128.993C37.2125 129.013 37.2223 129.068 37.2223 129.161V130.089C37.2223 130.16 37.2113 130.208 37.1895 130.233C37.1674 130.257 37.1267 130.27 37.0668 130.27H35.1143C35.0054 130.27 34.9179 130.285 34.8519 130.315C34.7865 130.345 34.7376 130.382 34.7045 130.426C34.6714 130.469 34.6496 130.519 34.639 130.573C34.628 130.628 34.6225 130.683 34.6225 130.738V131.083H36.8204C36.8858 131.083 36.9288 131.094 36.9474 131.116C36.9667 131.137 36.9766 131.195 36.9766 131.288V132.142C36.9766 132.267 36.9242 132.331 36.8204 132.331H34.6225V132.946C34.6225 133.05 34.6347 133.132 34.6595 133.192C34.6841 133.253 34.7183 133.298 34.7617 133.328C34.8058 133.358 34.8574 133.377 34.9179 133.385C34.9778 133.394 35.0433 133.397 35.1143 133.397H37.1977C37.263 133.397 37.3055 133.407 37.3247 133.426C37.3439 133.445 37.3533 133.502 37.3533 133.595V134.522ZM42.0448 134.539C42.0448 134.604 42.0349 134.649 42.0161 134.674C41.9968 134.699 41.9408 134.711 41.8478 134.711H40.683C40.5576 134.711 40.4942 134.654 40.4942 134.539V134.284C39.6963 134.197 39.0935 133.942 38.6859 133.521C38.2789 133.099 38.0749 132.538 38.0749 131.838C38.0749 131.515 38.131 131.211 38.2433 130.927C38.3554 130.642 38.5154 130.389 38.7228 130.167C38.9307 129.946 39.1848 129.761 39.4856 129.613C39.7865 129.465 40.1226 129.364 40.4942 129.309V129.137C40.4942 129.022 40.5576 128.965 40.683 128.965H41.8478C41.9408 128.965 41.9968 128.977 42.0161 129.002C42.0349 129.026 42.0448 129.071 42.0448 129.137V129.301C42.8262 129.411 43.4335 129.676 43.8653 130.097C44.2976 130.519 44.5131 131.08 44.5131 131.78C44.5131 132.131 44.4559 132.45 44.341 132.737C44.2261 133.024 44.0622 133.276 43.8488 133.492C43.6359 133.708 43.3774 133.885 43.0738 134.021C42.7702 134.158 42.4275 134.249 42.0448 134.292V134.539ZM43.004 131.772C43.004 131.652 42.9891 131.525 42.9588 131.39C42.9291 131.257 42.877 131.131 42.8032 131.013C42.7295 130.895 42.6294 130.79 42.504 130.697C42.3781 130.604 42.2196 130.535 42.0283 130.491V133.102C42.2141 133.053 42.3698 132.98 42.4957 132.884C42.6218 132.789 42.7224 132.681 42.7993 132.56C42.8758 132.44 42.9291 132.311 42.9588 132.174C42.9891 132.038 43.004 131.904 43.004 131.772ZM40.4942 130.5C40.3359 130.538 40.2007 130.604 40.0884 130.697C39.9763 130.79 39.8833 130.898 39.8095 131.021C39.7358 131.144 39.6825 131.272 39.6495 131.407C39.617 131.541 39.6005 131.666 39.6005 131.78C39.6005 131.945 39.6154 132.099 39.6457 132.244C39.6759 132.389 39.7248 132.521 39.793 132.638C39.8619 132.756 39.9531 132.856 40.0681 132.938C40.183 133.02 40.3249 133.078 40.4942 133.11V130.5ZM49.2866 130.081C49.2866 130.207 49.2294 130.27 49.1144 130.27H47.7119V134.539C47.7119 134.604 47.7025 134.649 47.6834 134.674C47.6641 134.699 47.608 134.711 47.515 134.711H46.3507C46.2247 134.711 46.162 134.654 46.162 134.539V130.27H44.7919C44.6775 130.27 44.6198 130.207 44.6198 130.081V129.161C44.6198 129.068 44.632 129.013 44.6566 128.993C44.6814 128.974 44.7266 128.965 44.7919 128.965H49.1144C49.1798 128.965 49.225 128.974 49.2497 128.993C49.2744 129.013 49.2866 129.068 49.2866 129.161V130.081ZM54.2646 134.522C54.2646 134.648 54.2129 134.711 54.1089 134.711H51.5745C51.2468 134.711 50.9801 134.664 50.7748 134.571C50.5703 134.478 50.4086 134.357 50.2915 134.206C50.1737 134.056 50.0928 133.887 50.0494 133.701C50.0053 133.515 49.9835 133.332 49.9835 133.151V130.524C49.9835 130.327 50.0108 130.135 50.0659 129.946C50.1204 129.757 50.2088 129.59 50.3321 129.445C50.4553 129.3 50.6181 129.183 50.82 129.096C51.0224 129.008 51.2688 128.965 51.5586 128.965H53.978C54.0434 128.965 54.0859 128.974 54.105 128.993C54.1238 129.013 54.1337 129.068 54.1337 129.161V130.089C54.1337 130.16 54.1227 130.208 54.1006 130.233C54.0788 130.257 54.0379 130.27 53.978 130.27H52.0256C51.9167 130.27 51.8292 130.285 51.7631 130.315C51.6977 130.345 51.6487 130.382 51.6158 130.426C51.5828 130.469 51.5608 130.519 51.5504 130.573C51.5394 130.628 51.5339 130.683 51.5339 130.738V131.083H53.7317C53.797 131.083 53.8399 131.094 53.8587 131.116C53.8779 131.137 53.8879 131.195 53.8879 131.288V132.142C53.8879 132.267 53.8356 132.331 53.7317 132.331H51.5339V132.946C51.5339 133.05 51.546 133.132 51.5706 133.192C51.5954 133.253 51.6296 133.298 51.673 133.328C51.7169 133.358 51.7686 133.377 51.8292 133.385C51.8892 133.394 51.9546 133.397 52.0256 133.397H54.1089C54.1744 133.397 54.2168 133.407 54.2359 133.426C54.2552 133.445 54.2646 133.502 54.2646 133.595V134.522ZM58.7839 131.657C58.9258 131.706 59.0435 131.763 59.1365 131.825C59.2293 131.889 59.3058 131.96 59.3657 132.039C59.4263 132.118 59.4741 132.208 59.5093 132.31C59.5451 132.411 59.5791 132.522 59.6122 132.642L60.1204 134.547C60.1315 134.574 60.1331 134.609 60.1248 134.649C60.1166 134.691 60.0769 134.711 60.0054 134.711H58.7757C58.7481 134.711 58.718 134.706 58.6854 134.695C58.6525 134.684 58.6277 134.651 58.6112 134.596L58.0948 132.872C58.0563 132.741 58.0085 132.633 57.9513 132.548C57.8941 132.463 57.8252 132.397 57.746 132.351C57.6669 132.304 57.5728 132.273 57.4634 132.256C57.3539 132.24 57.228 132.232 57.0861 132.232H56.717L56.7252 134.579C56.7252 134.64 56.7142 134.677 56.6922 134.691C56.6703 134.704 56.6322 134.711 56.5762 134.711H55.3156C55.2651 134.711 55.2281 134.704 55.204 134.691C55.1792 134.677 55.1666 134.64 55.1666 134.579V129.096C55.1666 129.036 55.1792 128.999 55.204 128.985C55.2281 128.971 55.2651 128.965 55.3156 128.965H56.5856C56.6405 128.965 56.6786 128.971 56.7005 128.985C56.7225 128.999 56.728 129.036 56.717 129.096V131.132H57.1109C57.1927 131.132 57.2786 131.126 57.3688 131.116C57.4589 131.105 57.5452 131.075 57.6272 131.029C57.7092 130.982 57.7846 130.914 57.8528 130.824C57.921 130.734 57.977 130.609 58.0211 130.451L58.3983 129.063C58.4093 129.008 58.4325 128.975 58.4676 128.965C58.5035 128.954 58.5347 128.948 58.5623 128.948H59.7761C59.8471 128.948 59.8866 128.969 59.8949 129.01C59.9032 129.051 59.902 129.085 59.891 129.112L59.4973 130.582C59.4429 130.812 59.3538 131.015 59.2305 131.193C59.1078 131.371 58.9587 131.512 58.7839 131.616V131.657ZM63.9346 133.586H62.3188L62.0482 134.53C62.0262 134.59 62.0002 134.636 61.9701 134.666C61.9403 134.696 61.8787 134.711 61.7857 134.711H60.5801C60.5252 134.711 60.4912 134.696 60.4774 134.666C60.4641 134.636 60.4625 134.599 60.4735 134.555L62.0894 129.473C62.1603 129.254 62.2478 129.114 62.3517 129.051C62.4557 128.988 62.6004 128.956 62.7862 128.956H63.4507C63.549 128.956 63.6354 128.96 63.7091 128.969C63.7828 128.977 63.8483 128.997 63.906 129.03C63.9632 129.063 64.0148 129.114 64.0617 129.182C64.1078 129.25 64.1503 129.345 64.1887 129.465L65.8046 134.555C65.8156 134.582 65.8167 134.615 65.8084 134.654C65.8002 134.692 65.7634 134.711 65.6979 134.711H64.4593C64.3938 134.711 64.3389 134.703 64.2955 134.686C64.2514 134.67 64.2217 134.632 64.2052 134.571L63.9346 133.586ZM62.6631 132.371H63.598L63.4424 131.731L63.1801 130.549H63.1146L62.8358 131.756L62.6631 132.371ZM71.283 131.83H71.2341L70.8156 132.765L70.3893 133.677C70.3294 133.814 70.2678 133.908 70.2046 133.96C70.1419 134.012 70.0505 134.038 69.9301 134.038H69.3807C69.2437 134.038 69.1497 134.012 69.0975 133.96C69.0457 133.908 68.9869 133.814 68.9214 133.677L68.5525 132.938L68.0766 131.928H68.0272V134.555C68.0272 134.632 68.0134 134.677 67.9865 134.691C67.959 134.704 67.9122 134.711 67.8467 134.711H66.7065C66.6466 134.711 66.6004 134.704 66.5675 134.691C66.5345 134.677 66.5179 134.632 66.5179 134.555V129.613C66.5179 129.356 66.5648 129.183 66.6576 129.096C66.7506 129.008 66.9008 128.965 67.1087 128.965H67.7401C67.9149 128.965 68.041 128.996 68.1173 129.059C68.1937 129.122 68.2681 129.225 68.3389 129.367L68.9951 130.73L69.6348 132.076H69.6678L70.3075 130.746L70.9635 129.391C71.0345 129.249 71.1137 129.143 71.2012 129.071C71.2886 129 71.4366 128.965 71.6439 128.965H72.1526C72.2401 128.965 72.3194 128.971 72.3903 128.985C72.4618 128.999 72.5229 129.026 72.575 129.067C72.6267 129.108 72.6664 129.168 72.6938 129.248C72.7213 129.327 72.7351 129.43 72.7351 129.555V134.555C72.7351 134.632 72.7213 134.677 72.6938 134.691C72.6664 134.704 72.6175 134.711 72.5465 134.711H71.4635C71.4036 134.711 71.3585 134.704 71.3282 134.691C71.2986 134.677 71.283 134.632 71.283 134.555V131.83ZM76.606 133.414C76.8848 133.414 77.123 133.381 77.3194 133.316C77.5162 133.25 77.7021 133.184 77.8771 133.118C77.9595 133.085 78.0179 133.075 78.0535 133.085C78.0893 133.096 78.1261 133.149 78.1642 133.242L78.5172 133.98C78.5551 134.063 78.5717 134.125 78.5662 134.169C78.5606 134.213 78.5278 134.251 78.4676 134.284C78.1399 134.481 77.8116 134.617 77.4838 134.691C77.1554 134.764 76.8139 134.801 76.4586 134.801C75.9718 134.801 75.5605 134.726 75.2238 134.576C74.8877 134.425 74.6144 134.218 74.4038 133.956C74.1931 133.693 74.0402 133.381 73.9446 133.02C73.8488 132.659 73.801 132.264 73.801 131.838C73.801 131.395 73.8665 130.992 73.9979 130.631C74.1293 130.27 74.3135 129.959 74.5517 129.699C74.7894 129.439 75.0749 129.238 75.4086 129.096C75.7419 128.954 76.111 128.882 76.5157 128.882C76.8332 128.882 77.1297 128.909 77.4057 128.96C77.6818 129.013 77.9403 129.107 78.1807 129.244C78.2246 129.271 78.2588 129.293 78.2834 129.309C78.3077 129.326 78.3215 129.346 78.3243 129.371C78.3268 129.395 78.3243 129.426 78.316 129.461C78.3077 129.497 78.2928 129.542 78.2708 129.597L77.9837 130.27C77.9458 130.374 77.909 130.435 77.8732 130.454C77.8374 130.474 77.7709 130.467 77.6724 130.434C77.5629 130.401 77.4646 130.372 77.3771 130.348C77.2896 130.323 77.2032 130.302 77.1186 130.286C77.0339 130.27 76.9492 130.259 76.8644 130.254C76.7798 130.248 76.688 130.245 76.5895 130.245C76.2507 130.245 75.9746 130.381 75.7612 130.651C75.5478 130.922 75.4417 131.318 75.4417 131.838C75.4417 132.352 75.5302 132.744 75.7079 133.012C75.8855 133.28 76.1852 133.414 76.606 133.414ZM83.0855 131.657C83.2274 131.706 83.345 131.763 83.438 131.825C83.531 131.889 83.6075 131.96 83.6675 132.039C83.7279 132.118 83.7757 132.208 83.811 132.31C83.8467 132.411 83.8808 132.522 83.9137 132.642L84.422 134.547C84.433 134.574 84.4346 134.609 84.4264 134.649C84.4181 134.691 84.3786 134.711 84.307 134.711H83.0772C83.0498 134.711 83.0195 134.706 82.9871 134.695C82.9541 134.684 82.9293 134.651 82.9128 134.596L82.3964 132.872C82.3578 132.741 82.31 132.633 82.2528 132.548C82.1956 132.463 82.1268 132.397 82.0477 132.351C81.9685 132.304 81.8743 132.273 81.765 132.256C81.6555 132.24 81.5296 132.232 81.3876 132.232H81.0185L81.0268 134.579C81.0268 134.64 81.0158 134.677 80.9939 134.691C80.9719 134.704 80.934 134.711 80.8777 134.711H79.6172C79.5666 134.711 79.5297 134.704 79.5056 134.691C79.4808 134.677 79.4681 134.64 79.4681 134.579V129.096C79.4681 129.036 79.4808 128.999 79.5056 128.985C79.5297 128.971 79.5666 128.965 79.6172 128.965H80.8871C80.9422 128.965 80.9801 128.971 81.0022 128.985C81.024 128.999 81.0296 129.036 81.0185 129.096V131.132H81.4124C81.4944 131.132 81.5801 131.126 81.6704 131.116C81.7606 131.105 81.847 131.075 81.9288 131.029C82.0108 130.982 82.0861 130.914 82.1543 130.824C82.2225 130.734 82.2786 130.609 82.3227 130.451L82.7 129.063C82.7109 129.008 82.734 128.975 82.7692 128.965C82.805 128.954 82.8363 128.948 82.8638 128.948H84.0777C84.1487 128.948 84.1882 128.969 84.1965 129.01C84.2047 129.051 84.2036 129.085 84.1926 129.112L83.7989 130.582C83.7444 130.812 83.6553 131.015 83.5322 131.193C83.4095 131.371 83.2605 131.512 83.0855 131.616V131.657ZM88.2362 133.586H86.6203L86.3498 134.53C86.3277 134.59 86.3018 134.636 86.2717 134.666C86.2419 134.696 86.1803 134.711 86.0874 134.711H84.8818C84.8267 134.711 84.7927 134.696 84.7789 134.666C84.7658 134.636 84.764 134.599 84.7751 134.555L86.3909 129.473C86.4619 129.254 86.5494 129.114 86.6534 129.051C86.7572 128.988 86.9019 128.956 87.0878 128.956H87.7522C87.8507 128.956 87.9369 128.96 88.0107 128.969C88.0844 128.977 88.1498 128.997 88.2077 129.03C88.2649 129.063 88.3166 129.114 88.3632 129.182C88.4094 129.25 88.4518 129.345 88.4902 129.465L90.1063 134.555C90.1171 134.582 90.1183 134.615 90.11 134.654C90.1017 134.692 90.065 134.711 89.9995 134.711H88.761C88.6955 134.711 88.6404 134.703 88.597 134.686C88.5529 134.67 88.5233 134.632 88.5068 134.571L88.2362 133.586ZM86.9646 132.371H87.8997L87.744 131.731L87.4816 130.549H87.4162L87.1373 131.756L86.9646 132.371ZM90.9021 132.938C90.9511 132.724 91.0248 132.546 91.1231 132.404C91.2216 132.262 91.3965 132.158 91.6484 132.092V132.076C91.4784 132.027 91.3365 131.954 91.2216 131.858C91.1066 131.763 91.0154 131.653 90.9472 131.53C90.8785 131.407 90.8294 131.274 90.7992 131.132C90.7689 130.99 90.754 130.844 90.754 130.697C90.754 130.434 90.7954 130.197 90.8773 129.987C90.9593 129.776 91.0825 129.594 91.2464 129.44C91.4102 129.287 91.6137 129.17 91.8574 129.087C92.1005 129.006 92.3837 128.965 92.7061 128.965H94.7977C95.0216 128.965 95.1667 129.013 95.2322 129.108C95.2977 129.204 95.3305 129.337 95.3305 129.507V134.547C95.3305 134.657 95.2678 134.711 95.142 134.711H93.9776C93.8846 134.711 93.8286 134.7 93.8093 134.678C93.79 134.657 93.7808 134.612 93.7808 134.547V132.462H93.2472C93.0178 132.462 92.8524 132.515 92.7511 132.622C92.6499 132.729 92.5697 132.899 92.5091 133.135L92.1813 134.506C92.1648 134.561 92.1418 134.601 92.1115 134.629C92.0812 134.657 92.046 134.677 92.0049 134.691C91.964 134.704 91.9201 134.711 91.8739 134.711C91.8271 134.711 91.7821 134.711 91.7387 134.711H90.5985C90.5324 134.711 90.4984 134.695 90.4956 134.662C90.4929 134.629 90.5 134.574 90.5165 134.498L90.9021 132.938ZM92.3535 130.771C92.3535 130.93 92.4025 131.049 92.5008 131.128C92.5993 131.207 92.7144 131.247 92.8458 131.247H93.7808V130.302H92.8458C92.6653 130.302 92.5377 130.352 92.464 130.451C92.3903 130.549 92.3535 130.655 92.3535 130.771ZM105.123 134.539C105.123 134.604 105.113 134.649 105.094 134.674C105.075 134.699 105.019 134.711 104.926 134.711H103.762C103.636 134.711 103.573 134.654 103.573 134.539V130.294H101.752V134.539C101.752 134.604 101.742 134.649 101.724 134.674C101.705 134.699 101.648 134.711 101.555 134.711H100.391C100.265 134.711 100.202 134.654 100.202 134.539V129.507C100.202 129.326 100.235 129.19 100.3 129.1C100.366 129.01 100.511 128.965 100.735 128.965H104.59C104.814 128.965 104.959 129.01 105.025 129.1C105.09 129.19 105.123 129.326 105.123 129.507V134.539ZM109.888 131.435L109.15 132.65L108.034 134.342C107.98 134.424 107.93 134.489 107.887 134.539C107.843 134.588 107.797 134.625 107.747 134.649C107.698 134.674 107.641 134.691 107.575 134.699C107.51 134.707 107.431 134.711 107.338 134.711H106.952C106.706 134.711 106.545 134.649 106.468 134.526C106.392 134.403 106.353 134.249 106.353 134.063V129.137C106.353 129.022 106.416 128.965 106.542 128.965H107.665C107.758 128.965 107.814 128.977 107.834 129.002C107.853 129.026 107.862 129.071 107.862 129.137V132.256H107.92L108.642 131.123L109.773 129.334C109.828 129.247 109.877 129.178 109.921 129.129C109.965 129.079 110.011 129.042 110.061 129.018C110.11 128.993 110.167 128.978 110.233 128.973C110.298 128.967 110.377 128.965 110.47 128.965H110.856C111.086 128.965 111.243 129.008 111.328 129.096C111.413 129.183 111.455 129.356 111.455 129.613V134.539C111.455 134.654 111.392 134.711 111.266 134.711H110.143C110.05 134.711 109.993 134.699 109.974 134.674C109.955 134.649 109.946 134.604 109.946 134.539V131.435H109.888ZM116.507 131.575C116.66 131.641 116.79 131.724 116.896 131.825C117.003 131.927 117.091 132.039 117.159 132.162C117.227 132.285 117.277 132.414 117.306 132.548C117.337 132.682 117.351 132.814 117.351 132.946C117.351 133.209 117.301 133.448 117.2 133.665C117.099 133.88 116.958 134.066 116.777 134.223C116.597 134.378 116.385 134.499 116.142 134.584C115.898 134.669 115.635 134.711 115.35 134.711H113.218C112.994 134.711 112.849 134.669 112.783 134.584C112.718 134.499 112.685 134.361 112.685 134.169V129.507C112.685 129.326 112.718 129.19 112.783 129.1C112.849 129.01 112.994 128.965 113.218 128.965H115.35C115.596 128.965 115.826 128.992 116.039 129.047C116.252 129.101 116.438 129.189 116.597 129.309C116.756 129.43 116.881 129.583 116.974 129.769C117.067 129.955 117.114 130.18 117.114 130.442C117.114 130.655 117.056 130.862 116.942 131.062C116.827 131.261 116.682 131.416 116.507 131.526V131.575ZM115.752 132.839C115.752 132.681 115.705 132.551 115.61 132.45C115.514 132.348 115.376 132.298 115.197 132.298H114.235V133.373H115.197C115.307 133.373 115.396 133.357 115.466 133.324C115.537 133.291 115.595 133.247 115.638 133.192C115.681 133.138 115.711 133.08 115.728 133.02C115.744 132.96 115.752 132.899 115.752 132.839ZM114.235 131.083H115.091C115.2 131.083 115.3 131.055 115.393 131C115.484 130.946 115.531 130.839 115.531 130.68C115.531 130.555 115.494 130.459 115.421 130.393C115.348 130.327 115.248 130.294 115.123 130.294H114.235V131.083ZM123.445 131.83C123.445 132.289 123.396 132.703 123.297 133.069C123.199 133.436 123.044 133.748 122.834 134.005C122.624 134.262 122.351 134.459 122.018 134.596C121.684 134.733 121.286 134.801 120.821 134.801C120.377 134.801 119.994 134.734 119.668 134.6C119.343 134.466 119.076 134.272 118.869 134.017C118.661 133.763 118.506 133.452 118.405 133.085C118.304 132.719 118.253 132.306 118.253 131.846C118.253 131.398 118.309 130.99 118.422 130.623C118.534 130.256 118.698 129.943 118.914 129.683C119.13 129.423 119.399 129.223 119.721 129.084C120.044 128.944 120.419 128.875 120.845 128.875C121.288 128.875 121.672 128.944 121.997 129.084C122.323 129.223 122.593 129.422 122.81 129.679C123.025 129.936 123.185 130.246 123.289 130.61C123.393 130.975 123.445 131.381 123.445 131.83ZM121.813 131.838C121.807 131.624 121.79 131.421 121.76 131.226C121.729 131.032 121.679 130.863 121.608 130.721C121.537 130.579 121.438 130.465 121.312 130.381C121.187 130.296 121.028 130.254 120.837 130.254C120.678 130.254 120.539 130.294 120.419 130.376C120.298 130.459 120.2 130.57 120.123 130.709C120.047 130.849 119.99 131.012 119.951 131.198C119.913 131.384 119.894 131.578 119.894 131.78C119.894 132.032 119.91 132.259 119.943 132.462C119.976 132.664 120.03 132.835 120.107 132.975C120.183 133.115 120.285 133.222 120.41 133.299C120.536 133.376 120.692 133.414 120.878 133.414C121.058 133.414 121.209 133.372 121.329 133.287C121.449 133.202 121.545 133.087 121.616 132.942C121.687 132.797 121.738 132.628 121.768 132.437C121.798 132.245 121.813 132.046 121.813 131.838ZM128.333 131.575C128.487 131.641 128.616 131.724 128.723 131.825C128.83 131.927 128.917 132.039 128.985 132.162C129.054 132.285 129.103 132.414 129.133 132.548C129.163 132.682 129.178 132.814 129.178 132.946C129.178 133.209 129.127 133.448 129.026 133.665C128.925 133.88 128.785 134.066 128.604 134.223C128.423 134.378 128.212 134.499 127.969 134.584C127.725 134.669 127.461 134.711 127.177 134.711H125.045C124.82 134.711 124.676 134.669 124.61 134.584C124.544 134.499 124.511 134.361 124.511 134.169V129.507C124.511 129.326 124.544 129.19 124.61 129.1C124.676 129.01 124.82 128.965 125.045 128.965H127.177C127.423 128.965 127.653 128.992 127.866 129.047C128.079 129.101 128.265 129.189 128.423 129.309C128.582 129.43 128.708 129.583 128.801 129.769C128.894 129.955 128.94 130.18 128.94 130.442C128.94 130.655 128.883 130.862 128.768 131.062C128.653 131.261 128.509 131.416 128.333 131.526V131.575ZM127.579 132.839C127.579 132.681 127.531 132.551 127.437 132.45C127.341 132.348 127.203 132.298 127.024 132.298H126.062V133.373H127.024C127.133 133.373 127.222 133.357 127.293 133.324C127.364 133.291 127.422 133.247 127.464 133.192C127.508 133.138 127.538 133.08 127.554 133.02C127.571 132.96 127.579 132.899 127.579 132.839ZM126.062 131.083H126.917C127.026 131.083 127.126 131.055 127.219 131C127.311 130.946 127.358 130.839 127.358 130.68C127.358 130.555 127.321 130.459 127.248 130.393C127.174 130.327 127.074 130.294 126.95 130.294H126.062V131.083ZM133.189 133.586H131.573L131.302 134.53C131.28 134.59 131.254 134.636 131.224 134.666C131.194 134.696 131.133 134.711 131.04 134.711H129.834C129.779 134.711 129.745 134.696 129.731 134.666C129.718 134.636 129.716 134.599 129.727 134.555L131.343 129.473C131.414 129.254 131.502 129.114 131.606 129.051C131.71 128.988 131.854 128.956 132.04 128.956H132.704C132.803 128.956 132.889 128.96 132.963 128.969C133.037 128.977 133.102 128.997 133.16 129.03C133.217 129.063 133.269 129.114 133.316 129.182C133.362 129.25 133.404 129.345 133.443 129.465L135.059 134.555C135.07 134.582 135.071 134.615 135.062 134.654C135.054 134.692 135.017 134.711 134.952 134.711H133.713C133.648 134.711 133.593 134.703 133.549 134.686C133.505 134.67 133.476 134.632 133.459 134.571L133.189 133.586ZM131.917 132.371H132.852L132.696 131.731L132.434 130.549H132.368L132.09 131.756L131.917 132.371ZM137.322 134.547C137.322 134.612 137.312 134.657 137.294 134.678C137.274 134.7 137.218 134.711 137.125 134.711H135.96C135.835 134.711 135.772 134.657 135.772 134.547V129.507C135.772 129.358 135.805 129.231 135.87 129.124C135.936 129.018 136.081 128.965 136.305 128.965H138.388C138.711 128.965 138.996 129.011 139.246 129.104C139.494 129.197 139.703 129.327 139.873 129.494C140.043 129.661 140.171 129.857 140.258 130.081C140.346 130.305 140.39 130.549 140.39 130.812C140.39 130.899 140.381 131.009 140.365 131.14C140.348 131.271 140.314 131.408 140.263 131.551C140.21 131.692 140.136 131.836 140.037 131.982C139.939 132.126 139.806 132.256 139.639 132.371C139.472 132.486 139.264 132.579 139.016 132.65C138.767 132.722 138.47 132.757 138.126 132.757H137.322V134.547ZM138.79 130.919C138.79 130.863 138.782 130.799 138.765 130.725C138.749 130.652 138.72 130.584 138.68 130.524C138.638 130.464 138.58 130.412 138.503 130.369C138.427 130.325 138.328 130.302 138.208 130.302H137.322V131.542H138.208C138.399 131.542 138.544 131.478 138.643 131.35C138.741 131.221 138.79 131.077 138.79 130.919ZM145.532 134.522C145.532 134.648 145.48 134.711 145.376 134.711H142.841C142.514 134.711 142.247 134.664 142.042 134.571C141.837 134.478 141.676 134.357 141.558 134.206C141.441 134.056 141.36 133.887 141.316 133.701C141.272 133.515 141.25 133.332 141.25 133.151V130.524C141.25 130.327 141.278 130.135 141.333 129.946C141.387 129.757 141.476 129.59 141.599 129.445C141.722 129.3 141.885 129.183 142.087 129.096C142.289 129.008 142.536 128.965 142.826 128.965H145.245C145.311 128.965 145.353 128.974 145.372 128.993C145.391 129.013 145.401 129.068 145.401 129.161V130.089C145.401 130.16 145.39 130.208 145.368 130.233C145.346 130.257 145.305 130.27 145.245 130.27H143.293C143.184 130.27 143.096 130.285 143.03 130.315C142.965 130.345 142.916 130.382 142.883 130.426C142.85 130.469 142.828 130.519 142.817 130.573C142.806 130.628 142.801 130.683 142.801 130.738V131.083H144.999C145.064 131.083 145.107 131.094 145.126 131.116C145.145 131.137 145.155 131.195 145.155 131.288V132.142C145.155 132.267 145.102 132.331 144.999 132.331H142.801V132.946C142.801 133.05 142.813 133.132 142.838 133.192C142.862 133.253 142.897 133.298 142.94 133.328C142.984 133.358 143.036 133.377 143.096 133.385C143.156 133.394 143.222 133.397 143.293 133.397H145.376C145.441 133.397 145.484 133.407 145.503 133.426C145.522 133.445 145.532 133.502 145.532 133.595V134.522ZM151.355 134.539C151.355 134.604 151.345 134.649 151.326 134.674C151.307 134.699 151.251 134.711 151.158 134.711H149.993C149.868 134.711 149.804 134.654 149.804 134.539V132.371H147.984V134.539C147.984 134.604 147.974 134.649 147.955 134.674C147.936 134.699 147.88 134.711 147.787 134.711H146.622C146.497 134.711 146.434 134.654 146.434 134.539V129.137C146.434 129.022 146.497 128.965 146.622 128.965H147.787C147.88 128.965 147.936 128.977 147.955 129.002C147.974 129.026 147.984 129.071 147.984 129.137V131.074H149.804V129.137C149.804 129.022 149.868 128.965 149.993 128.965H151.158C151.251 128.965 151.307 128.977 151.326 129.002C151.345 129.026 151.355 129.071 151.355 129.137V134.539ZM157.506 134.539C157.506 134.604 157.496 134.649 157.477 134.674C157.458 134.699 157.402 134.711 157.309 134.711H156.144C156.019 134.711 155.956 134.654 155.956 134.539V132.371H154.135V134.539C154.135 134.604 154.125 134.649 154.107 134.674C154.087 134.699 154.031 134.711 153.938 134.711H152.773C152.648 134.711 152.585 134.654 152.585 134.539V129.137C152.585 129.022 152.648 128.965 152.773 128.965H153.938C154.031 128.965 154.087 128.977 154.107 129.002C154.125 129.026 154.135 129.071 154.135 129.137V131.074H155.956V129.137C155.956 129.022 156.019 128.965 156.144 128.965H157.309C157.402 128.965 157.458 128.977 157.477 129.002C157.496 129.026 157.506 129.071 157.506 129.137V134.539ZM161.681 133.586H160.065L159.794 134.53C159.772 134.59 159.746 134.636 159.716 134.666C159.686 134.696 159.625 134.711 159.532 134.711H158.326C158.271 134.711 158.237 134.696 158.223 134.666C158.21 134.636 158.208 134.599 158.219 134.555L159.835 129.473C159.906 129.254 159.994 129.114 160.098 129.051C160.202 128.988 160.346 128.956 160.532 128.956H161.197C161.295 128.956 161.381 128.96 161.455 128.969C161.529 128.977 161.594 128.997 161.652 129.03C161.709 129.063 161.761 129.114 161.808 129.182C161.854 129.25 161.896 129.345 161.935 129.465L163.55 134.555C163.561 134.582 163.563 134.615 163.554 134.654C163.546 134.692 163.509 134.711 163.444 134.711H162.205C162.14 134.711 162.085 134.703 162.041 134.686C161.997 134.67 161.968 134.632 161.951 134.571L161.681 133.586ZM160.409 132.371H161.344L161.188 131.731L160.926 130.549H160.861L160.582 131.756L160.409 132.371Z" fill="#FEFEFE"/>
<path d="M164.346 132.938C164.395 132.724 164.469 132.546 164.568 132.404C164.666 132.262 164.841 132.158 165.093 132.092V132.076C164.923 132.027 164.781 131.954 164.666 131.858C164.551 131.763 164.46 131.653 164.392 131.53C164.323 131.407 164.274 131.274 164.244 131.132C164.213 130.99 164.198 130.844 164.198 130.697C164.198 130.434 164.24 130.197 164.322 129.987C164.404 129.776 164.527 129.594 164.691 129.44C164.855 129.287 165.058 129.17 165.302 129.087C165.545 129.006 165.828 128.965 166.15 128.965H168.242C168.466 128.965 168.611 129.013 168.677 129.108C168.742 129.204 168.775 129.337 168.775 129.507V134.547C168.775 134.657 168.712 134.711 168.586 134.711H167.422C167.329 134.711 167.273 134.7 167.254 134.678C167.234 134.657 167.225 134.612 167.225 134.547V132.462H166.692C166.462 132.462 166.297 132.515 166.196 132.622C166.094 132.729 166.014 132.899 165.954 133.135L165.626 134.506C165.609 134.561 165.586 134.601 165.556 134.629C165.526 134.657 165.49 134.677 165.449 134.691C165.408 134.704 165.365 134.711 165.318 134.711C165.272 134.711 165.226 134.711 165.183 134.711H164.043C163.977 134.711 163.943 134.695 163.94 134.662C163.937 134.629 163.944 134.574 163.961 134.498L164.346 132.938ZM165.798 130.771C165.798 130.93 165.847 131.049 165.945 131.128C166.044 131.207 166.159 131.247 166.29 131.247H167.225V130.302H166.29C166.11 130.302 165.982 130.352 165.908 130.451C165.835 130.549 165.798 130.655 165.798 130.771ZM177.264 131.657C177.406 131.706 177.523 131.763 177.616 131.825C177.709 131.889 177.786 131.96 177.846 132.039C177.906 132.118 177.954 132.208 177.989 132.31C178.025 132.411 178.059 132.522 178.092 132.642L178.6 134.547C178.611 134.574 178.613 134.609 178.605 134.649C178.596 134.691 178.557 134.711 178.485 134.711H177.255C177.228 134.711 177.198 134.706 177.165 134.695C177.132 134.684 177.108 134.651 177.091 134.596L176.574 132.872C176.536 132.741 176.488 132.633 176.431 132.548C176.374 132.463 176.305 132.397 176.226 132.351C176.147 132.304 176.053 132.273 175.943 132.256C175.834 132.24 175.708 132.232 175.566 132.232H175.197L175.205 134.579C175.205 134.64 175.194 134.677 175.172 134.691C175.15 134.704 175.112 134.711 175.056 134.711H173.795C173.745 134.711 173.708 134.704 173.684 134.691C173.659 134.677 173.646 134.64 173.646 134.579V129.096C173.646 129.036 173.659 128.999 173.684 128.985C173.708 128.971 173.745 128.965 173.795 128.965H175.065C175.12 128.965 175.158 128.971 175.18 128.985C175.202 128.999 175.208 129.036 175.197 129.096V131.132H175.591C175.672 131.132 175.758 131.126 175.849 131.116C175.939 131.105 176.025 131.075 176.107 131.029C176.189 130.982 176.264 130.914 176.333 130.824C176.401 130.734 176.457 130.609 176.501 130.451L176.878 129.063C176.889 129.008 176.912 128.975 176.947 128.965C176.983 128.954 177.015 128.948 177.042 128.948H178.256C178.327 128.948 178.366 128.969 178.375 129.01C178.383 129.051 178.382 129.085 178.371 129.112L177.977 130.582C177.922 130.812 177.834 131.015 177.71 131.193C177.588 131.371 177.439 131.512 177.264 131.616V131.657ZM184.497 131.83C184.497 132.289 184.448 132.703 184.349 133.069C184.251 133.436 184.096 133.748 183.886 134.005C183.675 134.262 183.403 134.459 183.07 134.596C182.736 134.733 182.337 134.801 181.873 134.801C181.43 134.801 181.046 134.734 180.72 134.6C180.395 134.466 180.129 134.272 179.921 134.017C179.713 133.763 179.559 133.452 179.458 133.085C179.356 132.719 179.306 132.306 179.306 131.846C179.306 131.398 179.362 130.99 179.474 130.623C179.586 130.256 179.75 129.943 179.966 129.683C180.182 129.423 180.452 129.223 180.774 129.084C181.097 128.944 181.471 128.875 181.897 128.875C182.34 128.875 182.724 128.944 183.049 129.084C183.375 129.223 183.645 129.422 183.861 129.679C184.077 129.936 184.237 130.246 184.341 130.61C184.445 130.975 184.497 131.381 184.497 131.83ZM182.865 131.838C182.859 131.624 182.842 131.421 182.812 131.226C182.781 131.032 182.731 130.863 182.66 130.721C182.589 130.579 182.49 130.465 182.364 130.381C182.239 130.296 182.08 130.254 181.889 130.254C181.731 130.254 181.592 130.294 181.471 130.376C181.351 130.459 181.252 130.57 181.176 130.709C181.099 130.849 181.042 131.012 181.004 131.198C180.965 131.384 180.946 131.578 180.946 131.78C180.946 132.032 180.962 132.259 180.995 132.462C181.028 132.664 181.083 132.835 181.159 132.975C181.236 133.115 181.337 133.222 181.463 133.299C181.589 133.376 181.744 133.414 181.93 133.414C182.11 133.414 182.26 133.372 182.381 133.287C182.501 133.202 182.597 133.087 182.668 132.942C182.739 132.797 182.789 132.628 182.82 132.437C182.85 132.245 182.865 132.046 182.865 131.838ZM190.328 131.83H190.279L189.861 132.765L189.435 133.677C189.375 133.814 189.313 133.908 189.25 133.96C189.187 134.012 189.096 134.038 188.975 134.038H188.426C188.289 134.038 188.195 134.012 188.143 133.96C188.091 133.908 188.032 133.814 187.967 133.677L187.598 132.938L187.122 131.928H187.072V134.555C187.072 134.632 187.058 134.677 187.032 134.691C187.004 134.704 186.957 134.711 186.892 134.711H185.752C185.692 134.711 185.646 134.704 185.613 134.691C185.58 134.677 185.563 134.632 185.563 134.555V129.613C185.563 129.356 185.61 129.183 185.703 129.096C185.796 129.008 185.946 128.965 186.154 128.965H186.785C186.96 128.965 187.086 128.996 187.163 129.059C187.239 129.122 187.313 129.225 187.384 129.367L188.04 130.73L188.68 132.076H188.713L189.353 130.746L190.009 129.391C190.08 129.249 190.159 129.143 190.246 129.071C190.334 129 190.482 128.965 190.689 128.965H191.198C191.285 128.965 191.364 128.971 191.435 128.985C191.507 128.999 191.568 129.026 191.62 129.067C191.672 129.108 191.711 129.168 191.739 129.248C191.767 129.327 191.78 129.43 191.78 129.555V134.555C191.78 134.632 191.767 134.677 191.739 134.691C191.711 134.704 191.663 134.711 191.592 134.711H190.509C190.449 134.711 190.404 134.704 190.373 134.691C190.344 134.677 190.328 134.632 190.328 134.555V131.83ZM197.931 134.539C197.931 134.604 197.922 134.649 197.902 134.674C197.884 134.699 197.828 134.711 197.735 134.711H196.57C196.444 134.711 196.381 134.654 196.381 134.539V130.294H194.56V134.539C194.56 134.604 194.551 134.649 194.532 134.674C194.513 134.699 194.456 134.711 194.364 134.711H193.199C193.073 134.711 193.01 134.654 193.01 134.539V129.507C193.01 129.326 193.043 129.19 193.108 129.1C193.175 129.01 193.319 128.965 193.544 128.965H197.398C197.622 128.965 197.767 129.01 197.833 129.1C197.899 129.19 197.931 129.326 197.931 129.507V134.539ZM202.106 133.586H200.49L200.219 134.53C200.197 134.59 200.172 134.636 200.141 134.666C200.112 134.696 200.05 134.711 199.957 134.711H198.752C198.696 134.711 198.662 134.696 198.649 134.666C198.635 134.636 198.634 134.599 198.645 134.555L200.261 129.473C200.332 129.254 200.419 129.114 200.523 129.051C200.627 128.988 200.772 128.956 200.958 128.956H201.622C201.72 128.956 201.807 128.96 201.88 128.969C201.954 128.977 202.02 128.997 202.077 129.03C202.134 129.063 202.186 129.114 202.233 129.182C202.279 129.25 202.322 129.345 202.36 129.465L203.976 134.555C203.987 134.582 203.988 134.615 203.98 134.654C203.971 134.692 203.935 134.711 203.869 134.711H202.631C202.565 134.711 202.51 134.703 202.467 134.686C202.423 134.67 202.393 134.632 202.377 134.571L202.106 133.586ZM200.834 132.371H201.769L201.614 131.731L201.351 130.549H201.286L201.007 131.756L200.834 132.371ZM209.611 134.539C209.611 134.604 209.601 134.649 209.582 134.674C209.563 134.699 209.507 134.711 209.414 134.711H208.249C208.123 134.711 208.06 134.654 208.06 134.539V132.371H206.24V134.539C206.24 134.604 206.23 134.649 206.211 134.674C206.192 134.699 206.136 134.711 206.043 134.711H204.878C204.753 134.711 204.689 134.654 204.689 134.539V129.137C204.689 129.022 204.753 128.965 204.878 128.965H206.043C206.136 128.965 206.192 128.977 206.211 129.002C206.23 129.026 206.24 129.071 206.24 129.137V131.074H208.06V129.137C208.06 129.022 208.123 128.965 208.249 128.965H209.414C209.507 128.965 209.563 128.977 209.582 129.002C209.601 129.026 209.611 129.071 209.611 129.137V134.539ZM214.375 131.435L213.637 132.65L212.522 134.342C212.467 134.424 212.418 134.489 212.374 134.539C212.33 134.588 212.284 134.625 212.235 134.649C212.186 134.674 212.129 134.691 212.062 134.699C211.997 134.707 211.918 134.711 211.825 134.711H211.439C211.193 134.711 211.032 134.649 210.955 134.526C210.879 134.403 210.84 134.249 210.84 134.063V129.137C210.84 129.022 210.904 128.965 211.029 128.965H212.153C212.246 128.965 212.302 128.977 212.321 129.002C212.34 129.026 212.35 129.071 212.35 129.137V132.256H212.407L213.129 131.123L214.261 129.334C214.315 129.247 214.365 129.178 214.408 129.129C214.452 129.079 214.498 129.042 214.548 129.018C214.597 128.993 214.654 128.978 214.72 128.973C214.786 128.967 214.865 128.965 214.958 128.965H215.343C215.573 128.965 215.73 129.008 215.815 129.096C215.9 129.183 215.942 129.356 215.942 129.613V134.539C215.942 134.654 215.879 134.711 215.753 134.711H214.63C214.537 134.711 214.481 134.699 214.462 134.674C214.442 134.649 214.433 134.604 214.433 134.539V131.435H214.375ZM217.254 132.938C217.303 132.724 217.377 132.546 217.476 132.404C217.574 132.262 217.749 132.158 218.001 132.092V132.076C217.831 132.027 217.689 131.954 217.574 131.858C217.459 131.763 217.368 131.653 217.299 131.53C217.231 131.407 217.182 131.274 217.152 131.132C217.121 130.99 217.107 130.844 217.107 130.697C217.107 130.434 217.148 130.197 217.23 129.987C217.312 129.776 217.435 129.594 217.599 129.44C217.763 129.287 217.966 129.17 218.21 129.087C218.453 129.006 218.736 128.965 219.058 128.965H221.15C221.374 128.965 221.519 129.013 221.585 129.108C221.65 129.204 221.683 129.337 221.683 129.507V134.547C221.683 134.657 221.62 134.711 221.494 134.711H220.33C220.237 134.711 220.181 134.7 220.162 134.678C220.143 134.657 220.133 134.612 220.133 134.547V132.462H219.6C219.37 132.462 219.205 132.515 219.104 132.622C219.002 132.729 218.922 132.899 218.862 133.135L218.534 134.506C218.517 134.561 218.494 134.601 218.464 134.629C218.434 134.657 218.399 134.677 218.357 134.691C218.317 134.704 218.272 134.711 218.226 134.711C218.18 134.711 218.134 134.711 218.091 134.711H216.951C216.885 134.711 216.851 134.695 216.848 134.662C216.845 134.629 216.852 134.574 216.869 134.498L217.254 132.938ZM218.706 130.771C218.706 130.93 218.755 131.049 218.853 131.128C218.952 131.207 219.067 131.247 219.198 131.247H220.133V130.302H219.198C219.018 130.302 218.89 130.352 218.817 130.451C218.743 130.549 218.706 130.655 218.706 130.771Z" fill="#FEFEFE"/>
<path d="M163.204 78.9511H167.732V77.784H164.596V71.3127H163.204V78.9511ZM175.258 76.7865L175.949 78.9511H177.443L174.964 71.3127H173.186L170.74 78.9511H172.178L172.835 76.7865H175.258ZM173.061 75.7328L173.65 73.8511C173.786 73.398 173.899 72.865 174.013 72.4231H174.035C174.149 72.865 174.273 73.3865 174.42 73.8511L175.02 75.7328H173.061ZM186.859 74.7353H184.165V75.8347H185.512V77.7383C185.331 77.8291 184.958 77.8974 184.459 77.8974C182.874 77.8974 181.81 76.8658 181.81 75.1321C181.81 73.3529 182.953 72.3896 184.584 72.3896C185.388 72.3896 185.897 72.5365 186.316 72.7181L186.622 71.5847C186.271 71.4261 185.535 71.2334 184.595 71.2334C182.07 71.2334 180.349 72.7859 180.349 75.1999C180.338 76.3559 180.734 77.3645 181.413 78.0103C182.138 78.7016 183.112 79.0304 184.403 79.0304C185.422 79.0304 186.373 78.7809 186.859 78.5998V74.7353ZM195.031 74.4291H192.155V72.4572H195.2V71.3127H190.762V78.9511H195.37V77.8066H192.155V75.5627H195.031V74.4291ZM199.069 78.9511H200.45V75.812H201.152C201.945 75.8347 202.307 76.1517 202.522 77.1493C202.737 78.1011 202.919 78.7243 203.032 78.9511H204.47C204.312 78.6566 204.107 77.7724 203.87 76.8205C203.677 76.0839 203.349 75.551 202.806 75.3473V75.3133C203.519 75.0523 204.187 74.384 204.187 73.398C204.187 72.7517 203.949 72.2194 203.53 71.8682C203.021 71.4371 202.273 71.2559 201.175 71.2559C200.371 71.2559 199.59 71.3242 199.069 71.4145V78.9511ZM200.45 72.3779C200.586 72.3438 200.87 72.3102 201.311 72.3102C202.217 72.3102 202.806 72.6956 202.806 73.534C202.806 74.2932 202.217 74.7919 201.277 74.7919H200.45V72.3779Z" fill="#FEFEFE"/>
</svg>
