<svg width="250" height="250" viewBox="0 0 250 250" fill="none" xmlns="http://www.w3.org/2000/svg">
<path d="M156.119 87.3369H174.729V184.366H192.511V87.3369H211.122V71.1562H156.119V87.3369ZM110.034 87.3369H130.246V184.366H148.36V71.1562H92.2243V184.366H110.034V87.3369ZM51.1651 184.366V87.3369H80.2682V71.1562H33.3276V184.366H51.1651Z" fill="#1A1A18"/>
<path fill-rule="evenodd" clip-rule="evenodd" d="M122.239 15.1867C60.0656 15.1867 9.66424 65.588 9.66424 127.761C9.66424 189.934 60.0656 240.336 122.239 240.336C184.412 240.336 234.813 189.934 234.813 127.761C234.813 65.588 184.412 15.1867 122.239 15.1867ZM0 127.761C0 60.2506 54.7282 5.52246 122.239 5.52246C189.749 5.52246 244.478 60.2506 244.478 127.761C244.478 195.272 189.749 250 122.239 250C54.7282 250 0 195.272 0 127.761Z" fill="#1A1A18"/>
</svg>
