<svg width="296" height="91" viewBox="0 0 296 91" fill="none" xmlns="http://www.w3.org/2000/svg">
<path fill-rule="evenodd" clip-rule="evenodd" d="M0 0H295.088V90.6981H0V0Z" fill="#E31E24"/>
<path d="M192.827 54.5957H194.609C195.99 54.5957 196.962 54.3388 197.529 53.8313C198.096 53.3238 198.38 52.647 198.38 51.7886C198.38 50.9928 198.102 50.3536 197.541 49.8712C196.98 49.3887 195.996 49.1444 194.59 49.1444H192.827V54.5957ZM192.827 43.8037H194.751C196 43.8037 196.876 43.5797 197.363 43.1332C197.854 42.6838 198.1 42.0367 198.1 41.1908C198.1 40.4075 197.851 39.7951 197.363 39.3548C196.873 38.9117 196.018 38.6907 194.805 38.6907H192.827V43.8037ZM184.232 33.2393H199.238C201.736 33.2393 203.655 33.8846 204.994 35.1692C206.334 36.4537 207.003 38.0452 207.003 39.9438C207.003 41.5354 206.527 42.9014 205.567 44.0355C204.934 44.8 203.999 45.3952 202.774 45.8401C204.638 46.3038 206.002 47.0996 206.883 48.2337C207.758 49.3679 208.198 50.7902 208.198 52.5008C208.198 53.8982 207.884 55.1513 207.263 56.2667C206.635 57.382 205.779 58.2593 204.699 58.9109C204.023 59.312 203.009 59.6065 201.651 59.7882C199.847 60.0326 198.653 60.1578 198.061 60.1578H184.232V33.2393Z" fill="#2B2A29"/>
<path d="M181.027 33.1919V60.1577H172.096V44.7779L166.116 60.1577H155.618V33.1919H164.613V48.6676L170.587 33.1919H181.027Z" fill="#2B2A29"/>
<path d="M152.345 60.1577H143.469V40.4907H137.666V60.1577H128.63V33.1919H152.345V60.1577Z" fill="#2B2A29"/>
<path fill-rule="evenodd" clip-rule="evenodd" d="M0 25.043H120.055V67.8054H0V25.043Z" fill="#FEFEFE"/>
<path d="M98.8098 49.262V56.8595H99.9091C102.15 56.8595 103.588 56.7641 104.228 56.5611C104.863 56.3597 105.394 55.9645 105.827 55.3745C106.26 54.791 106.476 54.0419 106.476 53.1403C106.476 52.2055 106.244 51.4431 105.781 50.8398C105.317 50.2432 104.707 49.8255 103.942 49.6001C103.177 49.3747 101.616 49.262 99.2524 49.262H98.8098ZM98.8098 37.9254V44.5285C100.278 44.5285 102.103 44.4809 102.497 44.429C103.44 44.3049 104.174 43.9583 104.707 43.4081C105.24 42.8578 105.503 42.1087 105.503 41.1606C105.503 40.312 105.286 39.6292 104.854 39.1055C104.421 38.5751 103.896 38.2479 103.278 38.1177C102.668 37.9893 95.0726 37.9254 97.9853 37.9254H98.8098ZM93.3398 33.1919H100.241C103.216 33.1919 105.308 33.4268 106.522 33.8946C109.271 34.9536 110.834 36.8161 110.834 40.3651C110.834 43.8508 109.412 45.5711 107.017 46.5438C108.616 47.0345 109.868 47.8764 110.772 49.0697C111.676 50.263 112.132 51.7083 112.132 53.4187C112.132 55.4938 111.552 57.244 110.385 58.6693C109.227 60.1013 107.852 60.9852 106.267 61.3212C105.163 61.5553 102.605 61.6725 98.5879 61.6725H93.3398V33.1919Z" fill="#2B2A29"/>
<path d="M80.2109 50.4155L76.4143 39.8414L72.6955 50.4155H80.2109ZM90.3481 61.6725H84.3576L82.0158 55.2286H70.9995L68.7356 61.6725H62.854L73.5046 33.1919H79.4018L90.3481 61.6725Z" fill="#2B2A29"/>
<path d="M54.2556 61.6725V38.2325H47.3074V50.1835C47.3074 53.4322 46.5233 59.1222 43.5746 60.9664C41.8312 62.0567 40.5722 62.0136 38.6101 61.8646C38.1745 61.8315 37.6614 61.7847 37.0649 61.7193L37.1921 57.1777H38.2827C41.2549 57.1777 41.5978 55.0134 42.0274 52.3288C42.207 51.2065 42.3258 49.822 42.3258 48.1243V33.1919H59.719V61.6725H54.2556Z" fill="#2B2A29"/>
<path d="M19.9541 61.6718V33.189H36.3454V38.2429L25.315 38.2556V61.6845L19.9541 61.6718Z" fill="#2B2A29"/>
<path d="M256.394 49.4076L253.037 39.4605L249.776 49.4076H256.394ZM265.336 60.0679H260.066L257.98 53.9495H248.291L246.283 60.0679H241.11L250.49 33.1919H255.658L265.336 60.0679Z" fill="#2B2A29"/>
<path d="M211.002 60.0679V33.1919H219.623L224.717 51.5221L229.752 33.1919H238.393V60.0679H233.263L233.243 38.9099L227.45 60.0679H221.919L216.152 38.9099L216.132 60.0679H211.002Z" fill="#2B2A29"/>
<path d="M268.036 33.1919H282.321V37.9364H273.407V60.0679H268.036V33.1919Z" fill="#2B2A29"/>
<path d="M191.184 53.1753H192.966C194.347 53.1753 195.319 52.9184 195.886 52.4109C196.453 51.9034 196.737 51.2266 196.737 50.3682C196.737 49.5724 196.459 48.9332 195.898 48.4508C195.337 47.9683 194.353 47.7239 192.947 47.7239H191.184V53.1753ZM191.184 42.3833H193.108C194.357 42.3833 195.233 42.1593 195.72 41.7128C196.211 41.2634 196.456 40.6162 196.456 39.7703C196.456 38.9871 196.207 38.3747 195.72 37.9344C195.23 37.4913 194.375 37.2702 193.162 37.2702H191.184V42.3833ZM182.589 31.8188H197.595C200.093 31.8188 202.012 32.4642 203.351 33.7487C204.691 35.0333 205.36 36.6248 205.36 38.5234C205.36 40.115 204.884 41.481 203.924 42.6151C203.291 43.3796 202.356 43.9748 201.131 44.4197C202.995 44.8834 204.359 45.6792 205.24 46.8133C206.115 47.9475 206.555 49.3698 206.555 51.0804C206.555 52.4777 206.241 53.7309 205.62 54.8463C204.992 55.9616 204.136 56.8389 203.056 57.4905C202.38 57.8915 201.366 58.186 200.008 58.3678C198.204 58.6121 197.01 58.7375 196.418 58.7375H182.589V31.8188Z" fill="#FFED00"/>
<path d="M179.385 31.7715V58.7373H170.453V43.3575L164.474 58.7373H153.975V31.7715H162.971V47.2472L168.944 31.7715H179.385Z" fill="#FFED00"/>
<path d="M150.703 58.7373H141.827V39.0703H136.024V58.7373H126.987V31.7715H150.703V58.7373Z" fill="#FFED00"/>
<path d="M97.1667 47.8415V55.439H98.266C100.507 55.439 101.945 55.3437 102.585 55.1407C103.22 54.9393 103.751 54.544 104.184 53.954C104.617 53.3706 104.833 52.6215 104.833 51.7198C104.833 50.7851 104.601 50.0227 104.138 49.4194C103.674 48.8227 103.064 48.4051 102.299 48.1796C101.534 47.9543 99.9734 47.8415 97.6093 47.8415H97.1667ZM97.1667 36.505V43.108C98.6345 43.108 100.46 43.0605 100.854 43.0086C101.797 42.8845 102.531 42.5379 103.064 41.9876C103.597 41.4374 103.86 40.6882 103.86 39.7402C103.86 38.8916 103.643 38.2088 103.211 37.685C102.778 37.1547 102.253 36.8275 101.635 36.6973C101.025 36.5689 93.4296 36.505 96.3423 36.505H97.1667ZM91.6968 31.7715H98.5982C101.573 31.7715 103.665 32.0064 104.879 32.4742C107.628 33.5332 109.19 35.3956 109.19 38.9447C109.19 42.4304 107.769 44.1507 105.374 45.1234C106.973 45.614 108.225 46.4559 109.129 47.6493C110.033 48.8426 110.488 50.2878 110.488 51.9983C110.488 54.0733 109.909 55.8236 108.742 57.2489C107.583 58.6809 106.209 59.5648 104.624 59.9007C103.52 60.1349 100.962 60.2521 96.9449 60.2521H91.6968V31.7715Z" fill="#E31E24"/>
<path d="M78.5683 48.9951L74.7717 38.4209L71.053 48.9951H78.5683ZM88.7055 60.2521H82.715L80.3732 53.8081H69.3569L67.093 60.2521H61.2114L71.8621 31.7715H77.7592L88.7055 60.2521Z" fill="#E31E24"/>
<path d="M52.614 60.2521V36.8121H45.6658V48.763C45.6658 52.0117 44.8817 57.7018 41.933 59.5459C40.1896 60.6362 38.9306 60.5932 36.9685 60.4442C36.5329 60.4111 36.0199 60.3643 35.4233 60.2989L35.5505 55.7573H36.6411C39.6133 55.7573 39.9562 53.5929 40.3858 50.9083C40.5654 49.7861 40.6843 48.4016 40.6843 46.7038V31.7715H58.0774V60.2521H52.614Z" fill="#E31E24"/>
<path d="M18.3115 60.2524V31.7695H34.7029V36.8235L23.6724 36.8362V60.2651L18.3115 60.2524Z" fill="#E31E24"/>
<path d="M266.395 31.7715H280.679V36.516H271.765V58.6475H266.395V31.7715Z" fill="#FEFEFE"/>
<path d="M254.752 47.9872L251.395 38.04L248.133 47.9872H254.752ZM263.693 58.6475H258.424L256.338 52.5291H246.648L244.641 58.6475H239.467L248.847 31.7715H254.015L263.693 58.6475Z" fill="#FEFEFE"/>
<path d="M209.359 58.6475V31.7715H217.98L223.074 50.1017L228.109 31.7715H236.75V58.6475H231.62L231.6 37.4895L225.807 58.6475H220.276L214.508 37.4895L214.489 58.6475H209.359Z" fill="#FEFEFE"/>
<path fill-rule="evenodd" clip-rule="evenodd" d="M0 17.8779H295.088V21.4606H0V17.8779Z" fill="#FEFEFE"/>
<path fill-rule="evenodd" clip-rule="evenodd" d="M126.987 64.2227H295.089V67.8053H126.987V64.2227Z" fill="#FFED00"/>
</svg>
