<svg width="542" height="227" viewBox="0 0 542 227" fill="none" xmlns="http://www.w3.org/2000/svg">
<rect width="542" height="227" rx="25" fill="white"/>
<path d="M124.52 45.784V36.6H128.2V59H124.52V49.304H114.92V59H111.24V36.6H114.92V45.784H124.52ZM147.91 52.472H135.174C135.43 53.6667 136.006 54.5947 136.902 55.256C137.819 55.9173 138.95 56.248 140.294 56.248C142.107 56.248 143.483 55.5867 144.422 54.264L147.27 55.928C145.712 58.2533 143.376 59.416 140.262 59.416C137.68 59.416 135.579 58.6267 133.958 57.048C132.358 55.448 131.558 53.432 131.558 51C131.558 48.632 132.347 46.6373 133.926 45.016C135.483 43.3947 137.51 42.584 140.006 42.584C142.331 42.584 144.251 43.4053 145.766 45.048C147.28 46.6907 148.038 48.6853 148.038 51.032C148.038 51.4587 147.995 51.9387 147.91 52.472ZM135.141 49.656H144.55C144.315 48.3973 143.782 47.4267 142.95 46.744C142.139 46.0613 141.147 45.72 139.974 45.72C138.694 45.72 137.627 46.072 136.774 46.776C135.92 47.48 135.376 48.44 135.141 49.656ZM161.545 59.288V65.4H158.153V59.288C155.678 58.968 153.715 58.0507 152.265 56.536C150.814 55.0213 150.089 53.176 150.089 51C150.089 48.824 150.814 46.9787 152.265 45.464C153.715 43.9493 155.678 43.032 158.153 42.712V36.6H161.545V42.712C164.019 43.032 165.982 43.9493 167.433 45.464C168.883 46.9787 169.609 48.824 169.609 51C169.609 53.176 168.883 55.0213 167.433 56.536C165.982 58.0507 164.019 58.968 161.545 59.288ZM161.545 46.008V55.992C163.017 55.7147 164.158 55.1387 164.969 54.264C165.779 53.368 166.185 52.28 166.185 51C166.185 49.72 165.779 48.6427 164.969 47.768C164.158 46.872 163.017 46.2853 161.545 46.008ZM158.153 55.992V46.008C156.702 46.2853 155.561 46.872 154.729 47.768C153.918 48.6427 153.513 49.72 153.513 51C153.513 52.28 153.918 53.368 154.729 54.264C155.561 55.1387 156.702 55.7147 158.153 55.992ZM170.414 43H184.334V46.328H179.118V59H175.662V46.328H170.414V43ZM201.503 52.472H188.767C189.023 53.6667 189.599 54.5947 190.495 55.256C191.413 55.9173 192.543 56.248 193.887 56.248C195.701 56.248 197.077 55.5867 198.015 54.264L200.863 55.928C199.306 58.2533 196.97 59.416 193.855 59.416C191.274 59.416 189.173 58.6267 187.551 57.048C185.951 55.448 185.151 53.432 185.151 51C185.151 48.632 185.941 46.6373 187.519 45.016C189.077 43.3947 191.103 42.584 193.599 42.584C195.925 42.584 197.845 43.4053 199.359 45.048C200.874 46.6907 201.631 48.6853 201.631 51.032C201.631 51.4587 201.589 51.9387 201.503 52.472ZM188.735 49.656H198.143C197.909 48.3973 197.375 47.4267 196.543 46.744C195.733 46.0613 194.741 45.72 193.567 45.72C192.287 45.72 191.221 46.072 190.367 46.776C189.514 47.48 188.97 48.44 188.735 49.656ZM211.52 50.84L218.816 59H214.688L208.128 51.608V59H204.672V43H208.128V50.072L214.336 43H218.56L211.52 50.84ZM232.532 45.272V43H235.988V59H232.532V56.696C231.23 58.5093 229.364 59.416 226.932 59.416C224.734 59.416 222.857 58.6053 221.3 56.984C219.742 55.3627 218.964 53.368 218.964 51C218.964 48.632 219.742 46.6373 221.3 45.016C222.857 43.3947 224.734 42.584 226.932 42.584C229.364 42.584 231.23 43.48 232.532 45.272ZM223.86 54.68C224.82 55.64 226.025 56.12 227.476 56.12C228.926 56.12 230.132 55.64 231.092 54.68C232.052 53.6987 232.532 52.472 232.532 51C232.532 49.528 232.052 48.312 231.092 47.352C230.132 46.3707 228.926 45.88 227.476 45.88C226.025 45.88 224.82 46.3707 223.86 47.352C222.9 48.312 222.42 49.528 222.42 51C222.42 52.4507 222.9 53.6773 223.86 54.68ZM252.816 43H256.336V59H252.976V48.472L248.368 55.8H247.952L243.376 48.504V59H240.016V43H243.536L248.176 50.392L252.816 43ZM267.881 59.416C265.47 59.416 263.454 58.6053 261.833 56.984C260.233 55.3413 259.433 53.3467 259.433 51C259.433 48.6107 260.233 46.616 261.833 45.016C263.454 43.3947 265.47 42.584 267.881 42.584C269.438 42.584 270.857 42.9573 272.137 43.704C273.417 44.4507 274.377 45.4533 275.017 46.712L272.041 48.44C271.678 47.672 271.123 47.0747 270.377 46.648C269.651 46.2 268.809 45.976 267.849 45.976C266.441 45.976 265.257 46.456 264.297 47.416C263.358 48.3973 262.889 49.592 262.889 51C262.889 52.408 263.358 53.6027 264.297 54.584C265.257 55.544 266.441 56.024 267.849 56.024C268.787 56.024 269.63 55.8107 270.377 55.384C271.145 54.936 271.721 54.328 272.105 53.56L275.081 55.256C274.398 56.536 273.406 57.5493 272.105 58.296C270.825 59.0427 269.417 59.416 267.881 59.416ZM284.52 50.84L291.816 59H287.688L281.128 51.608V59H277.672V43H281.128V50.072L287.336 43H291.56L284.52 50.84ZM297.533 53.144L305.725 43H308.381V59H304.989V48.824L296.797 59H294.141V43H297.533V53.144ZM323.975 40.76H315.015V37.752H323.975V40.76ZM315.783 53.144L323.975 43H326.631V59H323.239V48.824L315.047 59H312.391V43H315.783V53.144ZM347.697 42.584C349.873 42.584 351.75 43.4053 353.329 45.048C354.886 46.6693 355.665 48.6533 355.665 51C355.665 53.368 354.886 55.3627 353.329 56.984C351.772 58.6053 349.894 59.416 347.697 59.416C345.286 59.416 343.42 58.52 342.097 56.728V65.4H338.641V43H342.097V45.304C343.398 43.4907 345.265 42.584 347.697 42.584ZM343.537 54.68C344.497 55.64 345.702 56.12 347.153 56.12C348.604 56.12 349.809 55.64 350.769 54.68C351.729 53.6987 352.209 52.472 352.209 51C352.209 49.528 351.729 48.312 350.769 47.352C349.809 46.3707 348.604 45.88 347.153 45.88C345.702 45.88 344.497 46.3707 343.537 47.352C342.577 48.312 342.097 49.528 342.097 51C342.097 52.4507 342.577 53.6773 343.537 54.68ZM371.469 45.272V43H374.925V59H371.469V56.696C370.168 58.5093 368.301 59.416 365.869 59.416C363.672 59.416 361.795 58.6053 360.237 56.984C358.68 55.3627 357.901 53.368 357.901 51C357.901 48.632 358.68 46.6373 360.237 45.016C361.795 43.3947 363.672 42.584 365.869 42.584C368.301 42.584 370.168 43.48 371.469 45.272ZM362.797 54.68C363.757 55.64 364.963 56.12 366.413 56.12C367.864 56.12 369.069 55.64 370.029 54.68C370.989 53.6987 371.469 52.472 371.469 51C371.469 49.528 370.989 48.312 370.029 47.352C369.069 46.3707 367.864 45.88 366.413 45.88C364.963 45.88 363.757 46.3707 362.797 47.352C361.837 48.312 361.357 49.528 361.357 51C361.357 52.4507 361.837 53.6773 362.797 54.68ZM390.538 40.76H381.578V37.752H390.538V40.76ZM382.346 53.144L390.538 43H393.194V59H389.802V48.824L381.61 59H378.954V43H382.346V53.144ZM410.74 56.984C409.118 58.6053 407.124 59.416 404.756 59.416C402.388 59.416 400.393 58.6053 398.772 56.984C397.129 55.3413 396.308 53.3467 396.308 51C396.308 48.6533 397.129 46.6587 398.772 45.016C400.393 43.3947 402.388 42.584 404.756 42.584C407.124 42.584 409.118 43.3947 410.74 45.016C412.382 46.6587 413.204 48.6533 413.204 51C413.204 53.3467 412.382 55.3413 410.74 56.984ZM399.764 51C399.764 52.4507 400.244 53.656 401.204 54.616C402.164 55.576 403.348 56.056 404.756 56.056C406.164 56.056 407.348 55.576 408.308 54.616C409.268 53.656 409.748 52.4507 409.748 51C409.748 49.5493 409.268 48.344 408.308 47.384C407.348 46.424 406.164 45.944 404.756 45.944C403.348 45.944 402.164 46.424 401.204 47.384C400.244 48.344 399.764 49.5493 399.764 51ZM427.113 49.368V43H430.569V59H427.113V52.632H419.785V59H416.329V43H419.785V49.368H427.113Z" fill="#111111"/>
<path fill-rule="evenodd" clip-rule="evenodd" d="M23 110.064H173V174.801H23V110.064Z" fill="#E31E24"/>
<path d="M166.335 168.188H29.7803V116.439H73.3666C73.8355 116.439 74.2161 116.82 74.2161 117.289C74.2161 117.76 73.8355 118.14 73.3666 118.14H31.4793V166.487H164.636V118.14H123.148C122.678 118.14 122.299 117.76 122.299 117.289C122.299 116.82 122.678 116.439 123.148 116.439H166.335V168.188Z" fill="#FEFEFE"/>
<path fill-rule="evenodd" clip-rule="evenodd" d="M124.672 108.536C124.672 123.252 112.664 135.071 98.0002 135.071C83.337 135.071 71.3286 123.251 71.3286 108.536C71.3286 93.82 83.3373 82 98.0002 82C112.664 82 124.672 93.819 124.672 108.536Z" fill="#E31E24"/>
<path d="M119.743 108.536C119.743 96.6055 110.008 86.9333 97.9993 86.9333C85.9921 86.9333 76.2563 96.6055 76.2563 108.536C76.2563 120.466 85.9921 130.138 97.9993 130.138C110.008 130.138 119.743 120.466 119.743 108.536Z" fill="#FEFEFE"/>
<path d="M154.603 126.754C154.603 126.102 154.071 125.573 153.415 125.573C152.758 125.573 152.226 126.102 152.226 126.754C152.226 127.405 152.758 127.934 153.415 127.934C154.071 127.934 154.603 127.405 154.603 126.754Z" fill="#FEFEFE"/>
<path d="M43.8908 126.754C43.8908 126.102 43.3594 125.573 42.7016 125.573C42.0456 125.573 41.5142 126.102 41.5142 126.754C41.5142 127.405 42.0456 127.934 42.7016 127.934C43.3594 127.934 43.8908 127.405 43.8908 126.754Z" fill="#FEFEFE"/>
<path d="M98 122.354C97.4157 122.33 96.522 121.931 95.4552 121.117C96.5169 119.607 97.4072 117.886 98.0408 116.054C98.6898 117.833 99.5891 119.522 100.646 121.017C99.5993 121.845 98.6611 122.327 98 122.354ZM88.8032 100.06C90.2148 98.2804 92.5953 97.2308 95.8884 96.92C94.2112 101.59 90.7026 105.537 87.2927 106.015C87.1533 103.966 87.4504 101.765 88.8032 100.06ZM101.184 103.194C99.9219 104.298 98.7733 104.949 98 104.981C97.319 104.952 96.216 104.413 94.9112 103.301C96.216 101.627 97.3018 99.6358 98.0408 97.498C98.799 99.5732 99.8912 101.531 101.184 103.194ZM107.197 100.06C108.55 101.764 108.847 103.961 108.709 106.008C105.629 105.489 101.939 101.639 100.161 96.9251C103.429 97.2397 105.794 98.2888 107.197 100.06ZM102.325 113.804L102.328 113.801C103.177 114.703 104.086 115.473 105.026 116.078C104.153 117.395 103.208 118.561 102.282 119.519C101.405 118.245 100.644 116.806 100.089 115.277C100.805 114.927 101.56 114.428 102.325 113.804ZM102.642 104.855C104.413 106.64 106.423 107.859 108.412 108.172C108.366 108.394 108.32 108.612 108.27 108.823C107.816 110.723 107.063 112.542 106.159 114.199C103.862 112.687 101.597 109.827 100.275 106.495C101.036 106.1 101.837 105.548 102.642 104.855ZM95.1865 112.219L95.1814 112.214C96.2857 110.721 97.222 109 97.8983 107.158C97.9239 107.158 97.9508 107.165 97.9745 107.165H98.0274C98.0784 107.163 98.1343 107.153 98.1871 107.15C98.8807 108.939 99.8197 110.629 100.918 112.109L100.913 112.114C99.7589 113.076 98.7172 113.641 98 113.67C97.3682 113.644 96.3707 113.175 95.1865 112.219ZM93.7901 119.624C93.4076 119.232 93.0135 118.798 92.6143 118.316C92.0465 117.631 91.5132 116.906 91.017 116.156C91.9853 115.561 92.9165 114.794 93.7781 113.888L93.7851 113.891C94.5255 114.486 95.2561 114.961 95.951 115.296C95.4126 116.849 94.6665 118.321 93.7901 119.624ZM95.7695 106.517C94.5004 109.859 92.2996 112.787 89.8954 114.284C88.915 112.49 88.1607 110.621 87.7326 108.823C87.6816 108.616 87.6356 108.4 87.5916 108.178C89.6526 107.886 91.69 106.701 93.4638 104.94H93.462C94.2488 105.605 95.0287 106.138 95.7695 106.517ZM112.085 105.513C111.681 105.364 111.059 103.903 110.645 102.364C110.638 102.34 110.624 102.302 110.606 102.26C110.283 100.916 109.727 99.7195 108.924 98.707C107.002 96.2853 103.828 94.9368 99.4837 94.6836H99.4818C99.3745 94.6785 99.2641 94.6748 99.1555 94.6682C99.3035 93.7938 99.434 92.6443 99.4191 91.333C99.4103 90.5798 98.7753 89.9692 98.0306 89.9842C97.2712 89.9911 96.6631 90.6105 96.6715 91.3637C96.6867 92.753 96.5099 93.9337 96.3553 94.692C92.0943 94.9694 88.9763 96.3145 87.0767 98.707C86.2598 99.7381 85.692 100.955 85.3727 102.328L85.3573 102.369C84.9428 103.908 84.3207 105.369 83.9164 105.519C83.5051 105.694 83.1792 105.995 83.1212 106.429C83.0637 106.864 83.2744 107.29 83.6533 107.512C84.2804 107.879 84.8647 108.065 85.3299 108.158C85.5542 109.303 86.0542 111.418 86.963 113.393C87.5015 114.565 86.2049 115.415 86.0611 115.505C85.6159 115.772 85.42 116.315 85.595 116.803C85.7686 117.291 86.263 117.588 86.781 117.52C86.9374 117.498 88.0195 117.345 88.9832 117.089C89.2483 117.503 89.5218 117.905 89.8021 118.294C90.3796 119.118 90.6906 119.478 90.7909 119.587C91.1594 120.024 91.5044 121.794 91.2106 122.872C91.0801 123.352 91.289 123.857 91.7221 124.106C91.8938 124.204 92.0823 124.25 92.2708 124.25C92.5563 124.25 92.8399 124.14 93.0525 123.927C93.5367 123.441 93.8835 123.078 94.111 122.835C95.5077 123.891 96.8553 124.512 97.9745 124.539H98.0274C99.147 124.512 100.494 123.886 101.89 122.828C102.117 123.071 102.465 123.434 102.95 123.922C103.162 124.134 103.446 124.245 103.731 124.245C103.92 124.245 104.109 124.197 104.28 124.099C104.713 123.852 104.922 123.345 104.791 122.867C104.498 121.789 104.841 120.017 105.21 119.58C105.32 119.461 105.685 119.037 106.384 118.026C106.599 117.718 106.813 117.405 107.02 117.083C107.982 117.34 109.065 117.493 109.221 117.514C109.739 117.581 110.232 117.286 110.407 116.798C110.582 116.31 110.387 115.767 109.941 115.498C109.797 115.41 108.499 114.558 109.039 113.388C109.948 111.413 110.446 109.296 110.672 108.153C111.138 108.059 111.722 107.872 112.349 107.507C112.728 107.284 112.937 106.857 112.881 106.423C112.823 105.988 112.497 105.687 112.085 105.513Z" fill="#E31E24"/>
<path d="M52.8894 129.031C52.6991 129.122 52.2757 129.226 51.7359 129.226C50.3251 129.226 49.4673 128.35 49.4673 127C49.4673 125.546 50.4899 124.668 51.8478 124.668C52.3811 124.668 52.7585 124.779 52.9233 124.866L52.7516 125.507C52.5408 125.415 52.2437 125.337 51.8797 125.337C50.9778 125.337 50.3251 125.899 50.3251 126.961C50.3251 127.937 50.891 128.553 51.8752 128.553C52.1977 128.553 52.5408 128.488 52.7585 128.396L52.8894 129.031Z" fill="#FEFEFE"/>
<path d="M55.3734 126.752H55.8557C56.403 126.752 56.7391 126.463 56.7391 126.024C56.7391 125.546 56.403 125.316 55.8761 125.316C55.618 125.316 55.4532 125.337 55.3734 125.355V126.752ZM54.5698 124.806C54.8808 124.746 55.3274 124.707 55.7963 124.707C56.435 124.707 56.8635 124.811 57.1676 125.061C57.4122 125.263 57.55 125.572 57.55 125.953C57.55 126.522 57.1606 126.908 56.7391 127.051V127.071C57.0622 127.19 57.2538 127.498 57.3592 127.924C57.504 128.473 57.6229 128.985 57.7079 129.155H56.8769C56.8105 129.024 56.6987 128.665 56.5813 128.114C56.449 127.537 56.2451 127.354 55.7828 127.34H55.3734V129.155H54.5698V124.806Z" fill="#FEFEFE"/>
<path d="M61.5191 127.294L61.1692 126.208C61.0842 125.938 61.0109 125.637 60.9445 125.383H60.9329C60.8651 125.637 60.7936 125.945 60.7202 126.208L60.3773 127.294H61.5191ZM60.2463 127.905L59.8643 129.155H59.0264L60.4506 124.74H61.4848L62.9294 129.155H62.0525L61.6501 127.905H60.2463Z" fill="#FEFEFE"/>
<path d="M64.5381 124.74H67.1088V125.401H65.3486V126.619H66.983V127.275H65.3486V129.155H64.5381V124.74Z" fill="#FEFEFE"/>
<path d="M69.7322 125.415H68.4663V124.74H71.8239V125.415H70.5427V129.155H69.7322V125.415Z" fill="#FEFEFE"/>
<path d="M46.0522 142.014V135.987H47.95C50.1043 135.987 52.3066 136.342 52.3066 138.985C52.3066 141.647 50.2135 142.014 47.95 142.014H46.0522ZM54.0209 154.628H59.7436V151.66H57.3428L53.4689 144.092L53.8529 144.002C56.1924 143.45 57.3785 141.783 57.3785 139.046C57.3785 134.874 55.0166 133.174 49.2261 133.174H38.9907V135.987H41.3866V151.66H38.9907V154.628H48.4499V151.66H46.0522V144.89H48.9814L54.0209 154.628Z" fill="#FEFEFE"/>
<path d="M74.1076 148.585H77.4754V154.628H61.7876V151.619H63.7976V138.988H61.7876V136.111H77.4754V141.842H74.1076V138.988H68.234V143.527H73.1152V146.562H68.234V151.619H74.1076V148.585Z" fill="#FEFEFE"/>
<path d="M86.3489 151.619H87.8375C91.5703 151.619 93.2934 149.621 93.2934 145.291C93.2934 141.012 91.3613 138.988 87.4449 138.988H86.3489V151.619ZM98.253 145.369C98.253 151.23 94.9381 154.628 89.0645 154.628H79.9028V151.619H81.9128V138.988H79.9028V136.111H89.0645C94.9381 136.111 98.253 139.507 98.253 145.369Z" fill="#FEFEFE"/>
<path d="M105.8 146.25V151.619H107.809V154.628H99.3525V151.619H101.363V138.988H99.3525V136.111H107.809V138.988H105.8V143.242H111.36V138.988H109.35V136.111H117.806V138.988H115.798V151.619H117.806V154.628H109.35V151.619H111.36V146.25H105.8Z" fill="#FEFEFE"/>
<path d="M133.304 145.316C133.304 141.402 131.321 138.963 128.553 138.963C125.787 138.963 123.802 141.402 123.802 145.316C123.802 149.233 125.812 151.67 128.553 151.67C131.294 151.67 133.304 149.233 133.304 145.316ZM138.263 145.395C138.263 151.073 134.192 155.016 128.553 155.016C122.915 155.016 118.843 150.97 118.843 145.395C118.843 139.793 122.863 135.772 128.709 135.772C134.296 135.772 138.263 139.689 138.263 145.395Z" fill="#FEFEFE"/>
<path d="M145.651 143.471V135.982H147.119C150.456 135.982 151.944 137.136 151.944 139.727C151.944 142.317 150.456 143.471 147.119 143.471H145.651ZM157.011 139.727C157.011 135.135 154.564 133.174 148.83 133.174H138.593V135.982H140.99V151.665H138.593V154.628H148.048V151.665H145.651V146.465H148.83C154.488 146.465 157.011 144.386 157.011 139.727Z" fill="#FEFEFE"/>
<path d="M42.1052 162.723C42.1052 162.762 42.0993 162.79 42.0877 162.804C42.0764 162.819 42.0428 162.827 41.9871 162.827H41.2881C41.2129 162.827 41.175 162.792 41.175 162.723V161.423H40.0827V162.723C40.0827 162.762 40.0767 162.79 40.0655 162.804C40.0539 162.819 40.0203 162.827 39.9645 162.827H39.2656C39.1904 162.827 39.1523 162.792 39.1523 162.723V159.482C39.1523 159.413 39.1904 159.379 39.2656 159.379H39.9645C40.0203 159.379 40.0539 159.386 40.0655 159.401C40.0767 159.415 40.0827 159.443 40.0827 159.482V160.644H41.175V159.482C41.175 159.413 41.2129 159.379 41.2881 159.379H41.9871C42.0428 159.379 42.0764 159.386 42.0877 159.401C42.0993 159.415 42.1052 159.443 42.1052 159.482V162.723ZM45.4118 162.713C45.4118 162.789 45.3807 162.827 45.3184 162.827H43.7977C43.6011 162.827 43.441 162.798 43.318 162.743C43.1952 162.687 43.0982 162.614 43.0279 162.524C42.9573 162.433 42.9088 162.332 42.8826 162.221C42.8563 162.109 42.8431 161.999 42.8431 161.891V160.314C42.8431 160.196 42.8596 160.081 42.8926 159.967C42.9252 159.854 42.9784 159.754 43.0523 159.667C43.1263 159.58 43.2239 159.51 43.345 159.457C43.4664 159.405 43.6143 159.379 43.7882 159.379H45.2399C45.2792 159.379 45.3045 159.384 45.3161 159.396C45.3273 159.407 45.3332 159.441 45.3332 159.497V160.054C45.3332 160.096 45.3266 160.125 45.3135 160.14C45.3003 160.154 45.2759 160.162 45.2399 160.162H44.0684C44.003 160.162 43.9505 160.171 43.911 160.189C43.8717 160.207 43.8423 160.229 43.8225 160.255C43.8027 160.281 43.7895 160.311 43.7832 160.344C43.7766 160.377 43.7733 160.41 43.7733 160.443V160.649H45.092C45.1313 160.649 45.1571 160.656 45.1682 160.669C45.1798 160.682 45.1857 160.717 45.1857 160.773V161.285C45.1857 161.36 45.1543 161.398 45.092 161.398H43.7733V161.768C43.7733 161.83 43.7806 161.879 43.7955 161.915C43.8103 161.952 43.8308 161.979 43.8568 161.996C43.8833 162.015 43.9143 162.026 43.9505 162.031C43.9865 162.036 44.0258 162.038 44.0684 162.038H45.3184C45.3576 162.038 45.3831 162.044 45.3946 162.056C45.4061 162.067 45.4118 162.101 45.4118 162.157V162.713ZM48.2267 162.723C48.2267 162.762 48.2208 162.79 48.2095 162.804C48.1979 162.819 48.1643 162.827 48.1085 162.827H47.4096C47.3344 162.827 47.2963 162.792 47.2963 162.723V162.571C46.8176 162.518 46.4559 162.365 46.2113 162.112C45.9671 161.859 45.8447 161.523 45.8447 161.103C45.8447 160.909 45.8784 160.727 45.9458 160.556C46.013 160.385 46.1091 160.233 46.2335 160.1C46.3582 159.967 46.5107 159.856 46.6912 159.768C46.8717 159.679 47.0733 159.618 47.2963 159.585V159.482C47.2963 159.413 47.3344 159.379 47.4096 159.379H48.1085C48.1643 159.379 48.1979 159.386 48.2095 159.401C48.2208 159.415 48.2267 159.443 48.2267 159.482V159.581C48.6955 159.646 49.0599 159.805 49.319 160.058C49.5783 160.311 49.7076 160.648 49.7076 161.068C49.7076 161.278 49.6733 161.47 49.6044 161.642C49.5355 161.814 49.4371 161.965 49.3091 162.095C49.1813 162.225 49.0263 162.331 48.8441 162.413C48.6619 162.495 48.4563 162.549 48.2267 162.575V162.723ZM48.8022 161.063C48.8022 160.991 48.7933 160.915 48.7751 160.834C48.7573 160.754 48.726 160.678 48.6817 160.607C48.6375 160.537 48.5774 160.474 48.5022 160.418C48.4267 160.362 48.3316 160.321 48.2168 160.295V161.861C48.3283 161.832 48.4217 161.788 48.4972 161.731C48.5729 161.673 48.6332 161.608 48.6794 161.536C48.7253 161.464 48.7573 161.387 48.7751 161.304C48.7933 161.223 48.8022 161.142 48.8022 161.063ZM47.2963 160.3C47.2014 160.323 47.1202 160.362 47.0528 160.418C46.9856 160.474 46.9298 160.538 46.8855 160.612C46.8413 160.686 46.8093 160.763 46.7895 160.844C46.77 160.924 46.7601 160.999 46.7601 161.068C46.7601 161.167 46.7691 161.259 46.7872 161.346C46.8053 161.433 46.8347 161.512 46.8756 161.583C46.9169 161.653 46.9717 161.713 47.0407 161.763C47.1096 161.812 47.1948 161.846 47.2963 161.866V160.3ZM52.5718 160.049C52.5718 160.124 52.5374 160.162 52.4684 160.162H51.6269V162.723C51.6269 162.762 51.6213 162.79 51.6098 162.804C51.5983 162.819 51.5646 162.827 51.5088 162.827H50.8102C50.7346 162.827 50.697 162.792 50.697 162.723V160.162H49.8749C49.8063 160.162 49.7717 160.124 49.7717 160.049V159.497C49.7717 159.441 49.779 159.407 49.7938 159.396C49.8086 159.384 49.8358 159.379 49.8749 159.379H52.4684C52.5077 159.379 52.5348 159.384 52.5496 159.396C52.5645 159.407 52.5718 159.441 52.5718 159.497V160.049ZM55.5586 162.713C55.5586 162.789 55.5276 162.827 55.4651 162.827H53.9445C53.7479 162.827 53.5878 162.798 53.4647 162.743C53.342 162.687 53.245 162.614 53.1747 162.524C53.104 162.433 53.0555 162.332 53.0294 162.221C53.003 162.109 52.9899 161.999 52.9899 161.891V160.314C52.9899 160.196 53.0063 160.081 53.0394 159.967C53.072 159.854 53.1251 159.754 53.1991 159.667C53.273 159.58 53.3707 159.51 53.4918 159.457C53.6132 159.405 53.7611 159.379 53.935 159.379H55.3866C55.4259 159.379 55.4513 159.384 55.4628 159.396C55.4741 159.407 55.48 159.441 55.48 159.497V160.054C55.48 160.096 55.4734 160.125 55.4602 160.14C55.4471 160.154 55.4226 160.162 55.3866 160.162H54.2152C54.1498 160.162 54.0973 160.171 54.0577 160.189C54.0184 160.207 53.989 160.229 53.9693 160.255C53.9495 160.281 53.9363 160.311 53.93 160.344C53.9234 160.377 53.9201 160.41 53.9201 160.443V160.649H55.2388C55.278 160.649 55.3038 160.656 55.315 160.669C55.3265 160.682 55.3325 160.717 55.3325 160.773V161.285C55.3325 161.36 55.3011 161.398 55.2388 161.398H53.9201V161.768C53.9201 161.83 53.9274 161.879 53.9422 161.915C53.9571 161.952 53.9776 161.979 54.0036 161.996C54.03 162.015 54.061 162.026 54.0973 162.031C54.1333 162.036 54.1726 162.038 54.2152 162.038H55.4651C55.5044 162.038 55.5299 162.044 55.5414 162.056C55.5529 162.067 55.5586 162.101 55.5586 162.157V162.713ZM58.2702 160.994C58.3553 161.024 58.4259 161.057 58.4817 161.095C58.5374 161.133 58.5833 161.176 58.6193 161.223C58.6556 161.271 58.6843 161.325 58.7054 161.386C58.7269 161.446 58.7473 161.513 58.7671 161.585L59.0721 162.728C59.0787 162.744 59.0797 162.765 59.0747 162.79C59.0697 162.814 59.0459 162.827 59.0031 162.827H58.2652C58.2487 162.827 58.2306 162.823 58.211 162.817C58.1913 162.81 58.1764 162.791 58.1665 162.757L57.8567 161.723C57.8336 161.644 57.8049 161.58 57.7706 161.529C57.7363 161.478 57.6949 161.438 57.6474 161.41C57.6 161.382 57.5435 161.364 57.4779 161.354C57.4121 161.344 57.3366 161.339 57.2514 161.339H57.03L57.035 162.748C57.035 162.784 57.0283 162.806 57.0151 162.814C57.002 162.823 56.9792 162.827 56.9455 162.827H56.1892C56.1589 162.827 56.1367 162.823 56.1222 162.814C56.1073 162.806 56.0998 162.784 56.0998 162.748V159.457C56.0998 159.421 56.1073 159.399 56.1222 159.391C56.1367 159.383 56.1589 159.379 56.1892 159.379H56.9512C56.9841 159.379 57.007 159.383 57.0201 159.391C57.0333 159.399 57.0366 159.421 57.03 159.457V160.679H57.2663C57.3154 160.679 57.3669 160.675 57.4211 160.669C57.4751 160.663 57.527 160.645 57.5761 160.617C57.6253 160.589 57.6705 160.548 57.7115 160.494C57.7524 160.44 57.786 160.365 57.8125 160.27L58.0388 159.438C58.0454 159.405 58.0593 159.385 58.0804 159.379C58.1019 159.372 58.1206 159.369 58.1372 159.369H58.8655C58.9081 159.369 58.9318 159.381 58.9367 159.406C58.9417 159.43 58.941 159.451 58.9344 159.467L58.6982 160.349C58.6655 160.487 58.6121 160.609 58.5381 160.716C58.4645 160.823 58.375 160.907 58.2702 160.97V160.994ZM61.3606 162.152H60.3911L60.2287 162.718C60.2155 162.754 60.1999 162.781 60.1819 162.799C60.164 162.818 60.127 162.827 60.0712 162.827H59.3479C59.3149 162.827 59.2945 162.818 59.2862 162.799C59.2783 162.781 59.2773 162.759 59.2839 162.733L60.2534 159.684C60.296 159.552 60.3485 159.468 60.4108 159.43C60.4732 159.393 60.56 159.374 60.6715 159.374H61.0702C61.1292 159.374 61.181 159.376 61.2253 159.381C61.2695 159.386 61.3088 159.398 61.3434 159.418C61.3777 159.438 61.4087 159.468 61.4368 159.509C61.4645 159.55 61.49 159.607 61.513 159.679L62.4825 162.733C62.4891 162.749 62.4898 162.769 62.4849 162.792C62.4799 162.815 62.4578 162.827 62.4186 162.827H61.6754C61.6361 162.827 61.6031 162.822 61.5771 162.812C61.5506 162.802 61.5329 162.779 61.5229 162.743L61.3606 162.152ZM60.5977 161.423H61.1586L61.0653 161.039L60.9079 160.329H60.8686L60.7013 161.053L60.5977 161.423ZM65.7696 161.098H65.7403L65.4892 161.659L65.2334 162.206C65.1974 162.288 65.1605 162.345 65.1226 162.376C65.085 162.407 65.0301 162.423 64.9579 162.423H64.6282C64.546 162.423 64.4896 162.407 64.4583 162.376C64.4272 162.345 64.3919 162.288 64.3526 162.206L64.1313 161.763L63.8458 161.157H63.8161V162.733C63.8161 162.779 63.8079 162.806 63.7917 162.814C63.7752 162.823 63.7471 162.827 63.7078 162.827H63.0237C62.9878 162.827 62.96 162.823 62.9403 162.814C62.9205 162.806 62.9106 162.779 62.9106 162.733V159.768C62.9106 159.613 62.9387 159.51 62.9944 159.457C63.0502 159.405 63.1403 159.379 63.265 159.379H63.6439C63.7487 159.379 63.8244 159.398 63.8702 159.435C63.916 159.473 63.9607 159.535 64.0032 159.62L64.3969 160.438L64.7807 161.245H64.8005L65.1843 160.448L65.5779 159.635C65.6205 159.549 65.668 159.485 65.7205 159.443C65.7729 159.4 65.8618 159.379 65.9861 159.379H66.2914C66.3439 159.379 66.3914 159.383 66.434 159.391C66.4769 159.399 66.5135 159.415 66.5448 159.44C66.5758 159.465 66.5996 159.501 66.6161 159.548C66.6326 159.596 66.6409 159.658 66.6409 159.733V162.733C66.6409 162.779 66.6326 162.806 66.6161 162.814C66.5996 162.823 66.5703 162.827 66.5277 162.827H65.8779C65.842 162.827 65.8149 162.823 65.7968 162.814C65.779 162.806 65.7696 162.779 65.7696 162.733V161.098ZM68.9634 162.048C69.1307 162.048 69.2736 162.028 69.3914 161.989C69.5096 161.95 69.6211 161.91 69.726 161.871C69.7755 161.851 69.8105 161.845 69.8319 161.851C69.8534 161.858 69.8755 161.889 69.8983 161.945L70.1101 162.388C70.1329 162.437 70.1428 162.475 70.1395 162.501C70.1362 162.528 70.1165 162.551 70.0804 162.571C69.8837 162.688 69.6868 162.77 69.4901 162.814C69.2931 162.859 69.0881 162.881 68.8749 162.881C68.5829 162.881 68.3361 162.835 68.1341 162.745C67.9324 162.655 67.7684 162.531 67.6421 162.373C67.5157 162.216 67.4239 162.028 67.3666 161.812C67.3091 161.595 67.2804 161.359 67.2804 161.103C67.2804 160.837 67.3197 160.595 67.3985 160.379C67.4774 160.162 67.5879 159.975 67.7308 159.819C67.8734 159.663 68.0447 159.543 68.245 159.457C68.445 159.372 68.6664 159.329 68.9093 159.329C69.0997 159.329 69.2776 159.345 69.4433 159.376C69.6089 159.407 69.764 159.464 69.9082 159.546C69.9346 159.562 69.9551 159.576 69.9699 159.585C69.9844 159.595 69.9927 159.608 69.9944 159.623C69.9959 159.637 69.9944 159.655 69.9894 159.677C69.9844 159.698 69.9755 159.725 69.9623 159.758L69.79 160.162C69.7673 160.224 69.7452 160.261 69.7237 160.273C69.7022 160.284 69.6624 160.28 69.6033 160.26C69.5375 160.241 69.4785 160.223 69.426 160.209C69.3735 160.194 69.3217 160.181 69.271 160.171C69.2201 160.162 69.1693 160.155 69.1185 160.152C69.0677 160.149 69.0126 160.147 68.9535 160.147C68.7502 160.147 68.5846 160.228 68.4565 160.391C68.3285 160.553 68.2648 160.791 68.2648 161.103C68.2648 161.411 68.3179 161.646 68.4245 161.807C68.5311 161.968 68.7109 162.048 68.9634 162.048ZM72.8511 160.994C72.9362 161.024 73.0068 161.057 73.0626 161.095C73.1184 161.133 73.1643 161.176 73.2003 161.223C73.2365 161.271 73.2652 161.325 73.2864 161.386C73.3078 161.446 73.3283 161.513 73.348 161.585L73.653 162.728C73.6596 162.744 73.6606 162.765 73.6556 162.79C73.6507 162.814 73.627 162.827 73.584 162.827H72.8461C72.8297 162.827 72.8115 162.823 72.7921 162.817C72.7722 162.81 72.7574 162.791 72.7475 162.757L72.4376 161.723C72.4145 161.644 72.3858 161.58 72.3515 161.529C72.3172 161.478 72.2759 161.438 72.2284 161.41C72.1809 161.382 72.1244 161.364 72.0588 161.354C71.9931 161.344 71.9175 161.339 71.8324 161.339H71.6109L71.6159 162.748C71.6159 162.784 71.6093 162.806 71.5962 162.814C71.5829 162.823 71.5602 162.827 71.5265 162.827H70.7701C70.7398 162.827 70.7176 162.823 70.7031 162.814C70.6883 162.806 70.6807 162.784 70.6807 162.748V159.457C70.6807 159.421 70.6883 159.399 70.7031 159.391C70.7176 159.383 70.7398 159.379 70.7701 159.379H71.5321C71.5651 159.379 71.5879 159.383 71.6011 159.391C71.6142 159.399 71.6175 159.421 71.6109 159.457V160.679H71.8473C71.8964 160.679 71.9479 160.675 72.002 160.669C72.0562 160.663 72.108 160.645 72.1571 160.617C72.2063 160.589 72.2515 160.548 72.2924 160.494C72.3333 160.44 72.367 160.365 72.3934 160.27L72.6198 159.438C72.6263 159.405 72.6402 159.385 72.6613 159.379C72.6828 159.372 72.7016 159.369 72.7181 159.369H73.4464C73.489 159.369 73.5127 159.381 73.5177 159.406C73.5226 159.43 73.522 159.451 73.5154 159.467L73.2791 160.349C73.2465 160.487 73.193 160.609 73.1191 160.716C73.0455 160.823 72.9561 160.907 72.8511 160.97V160.994ZM75.9415 162.152H74.972L74.8097 162.718C74.7964 162.754 74.7809 162.781 74.7628 162.799C74.7449 162.818 74.708 162.827 74.6523 162.827H73.9289C73.8958 162.827 73.8754 162.818 73.8672 162.799C73.8593 162.781 73.8582 162.759 73.8648 162.733L74.8344 159.684C74.8769 159.552 74.9294 159.468 74.9918 159.43C75.0541 159.393 75.141 159.374 75.2525 159.374H75.6511C75.7102 159.374 75.762 159.376 75.8062 159.381C75.8504 159.386 75.8897 159.398 75.9244 159.418C75.9587 159.438 75.9897 159.468 76.0177 159.509C76.0454 159.55 76.0709 159.607 76.094 159.679L77.0636 162.733C77.0701 162.749 77.0708 162.769 77.0658 162.792C77.0608 162.815 77.0388 162.827 76.9995 162.827H76.2564C76.2171 162.827 76.1841 162.822 76.158 162.812C76.1316 162.802 76.1138 162.779 76.1039 162.743L75.9415 162.152ZM75.1786 161.423H75.7396L75.6462 161.039L75.4888 160.329H75.4495L75.2822 161.053L75.1786 161.423ZM77.5411 161.763C77.5704 161.634 77.6147 161.528 77.6737 161.443C77.7328 161.357 77.8377 161.295 77.9888 161.255V161.245C77.8869 161.216 77.8017 161.172 77.7328 161.115C77.6638 161.057 77.609 160.992 77.5681 160.918C77.5269 160.844 77.4974 160.764 77.4793 160.679C77.4612 160.594 77.4522 160.506 77.4522 160.418C77.4522 160.26 77.477 160.118 77.5262 159.992C77.5754 159.865 77.6493 159.756 77.7477 159.664C77.8459 159.572 77.968 159.502 78.1143 159.452C78.2601 159.403 78.43 159.379 78.6235 159.379H79.8784C80.0127 159.379 80.0998 159.407 80.1391 159.465C80.1784 159.522 80.1981 159.602 80.1981 159.704V162.728C80.1981 162.794 80.1605 162.827 80.085 162.827H79.3864C79.3306 162.827 79.297 162.82 79.2854 162.807C79.2738 162.794 79.2683 162.767 79.2683 162.728V161.477H78.9482C78.8105 161.477 78.7112 161.509 78.6505 161.573C78.5897 161.637 78.5416 161.739 78.5052 161.881L78.3086 162.703C78.2987 162.736 78.2849 162.761 78.2667 162.777C78.2485 162.794 78.2274 162.806 78.2027 162.814C78.1782 162.823 78.1519 162.827 78.1242 162.827C78.0961 162.827 78.069 162.827 78.043 162.827H77.3589C77.3192 162.827 77.2988 162.817 77.2972 162.797C77.2955 162.777 77.2998 162.744 77.3097 162.698L77.5411 161.763ZM78.4119 160.462C78.4119 160.558 78.4413 160.629 78.5003 160.677C78.5594 160.724 78.6284 160.748 78.7073 160.748H79.2683V160.181H78.7073C78.599 160.181 78.5224 160.211 78.4782 160.27C78.434 160.329 78.4119 160.393 78.4119 160.462ZM86.0737 162.723C86.0737 162.762 86.0678 162.79 86.0563 162.804C86.0451 162.819 86.0114 162.827 85.9556 162.827H85.2568C85.1815 162.827 85.1435 162.792 85.1435 162.723V160.176H84.0512V162.723C84.0512 162.762 84.0453 162.79 84.0341 162.804C84.0225 162.819 83.9889 162.827 83.9331 162.827H83.2341C83.1589 162.827 83.121 162.792 83.121 162.723V159.704C83.121 159.595 83.1408 159.514 83.1801 159.46C83.2196 159.406 83.3065 159.379 83.4411 159.379H85.7537C85.8884 159.379 85.9751 159.406 86.0147 159.46C86.054 159.514 86.0737 159.595 86.0737 159.704V162.723ZM88.9325 160.861L88.4897 161.59L87.8205 162.605C87.7878 162.654 87.7581 162.693 87.732 162.723C87.7057 162.752 87.6779 162.775 87.6482 162.79C87.6189 162.804 87.5845 162.814 87.5449 162.819C87.5056 162.824 87.4582 162.827 87.4024 162.827H87.171C87.0235 162.827 86.9265 162.79 86.8806 162.716C86.8347 162.642 86.8117 162.549 86.8117 162.437V159.482C86.8117 159.413 86.8496 159.379 86.9249 159.379H87.599C87.6548 159.379 87.6885 159.386 87.7 159.401C87.7116 159.415 87.7171 159.443 87.7171 159.482V161.354H87.7519L88.1847 160.674L88.8639 159.6C88.8965 159.548 88.9263 159.507 88.9524 159.477C88.9788 159.447 89.0065 159.425 89.0362 159.411C89.0655 159.396 89.0998 159.387 89.1395 159.384C89.1788 159.38 89.2263 159.379 89.282 159.379H89.5134C89.6513 159.379 89.7453 159.405 89.7965 159.457C89.8473 159.51 89.8728 159.613 89.8728 159.768V162.723C89.8728 162.792 89.8348 162.827 89.7595 162.827H89.0853C89.0295 162.827 88.9959 162.819 88.9843 162.804C88.9729 162.79 88.9672 162.762 88.9672 162.723V160.861H88.9325ZM92.9037 160.945C92.9959 160.984 93.0737 161.035 93.1377 161.095C93.2018 161.156 93.2542 161.223 93.2951 161.297C93.336 161.371 93.3658 161.448 93.3836 161.529C93.4017 161.609 93.4107 161.689 93.4107 161.768C93.4107 161.925 93.3802 162.069 93.3196 162.199C93.2591 162.328 93.1746 162.44 93.0662 162.534C92.9579 162.627 92.8308 162.699 92.685 162.75C92.5388 162.801 92.3807 162.827 92.2101 162.827H90.9307C90.796 162.827 90.7093 162.801 90.6696 162.75C90.6304 162.699 90.6106 162.616 90.6106 162.501V159.704C90.6106 159.595 90.6304 159.514 90.6696 159.46C90.7093 159.406 90.796 159.379 90.9307 159.379H92.2101C92.3576 159.379 92.4955 159.395 92.6232 159.428C92.7513 159.461 92.8629 159.513 92.9579 159.585C93.0532 159.658 93.1285 159.75 93.1843 159.861C93.2401 159.973 93.2681 160.108 93.2681 160.265C93.2681 160.393 93.2335 160.517 93.1648 160.637C93.0958 160.757 93.009 160.85 92.9037 160.915V160.945ZM92.451 161.703C92.451 161.608 92.4226 161.53 92.3658 161.47C92.3085 161.409 92.2256 161.378 92.118 161.378H91.5409V162.024H92.118C92.1837 162.024 92.2371 162.014 92.2797 161.994C92.3223 161.974 92.357 161.948 92.3824 161.915C92.4084 161.882 92.4266 161.848 92.4365 161.812C92.4464 161.776 92.451 161.739 92.451 161.703ZM91.5409 160.649H92.0544C92.1197 160.649 92.1798 160.633 92.2356 160.6C92.2903 160.567 92.3184 160.503 92.3184 160.408C92.3184 160.333 92.2962 160.275 92.2527 160.236C92.2084 160.196 92.1484 160.176 92.0738 160.176H91.5409V160.649ZM97.0667 161.098C97.0667 161.373 97.0373 161.621 96.9782 161.842C96.9191 162.062 96.8265 162.248 96.7004 162.403C96.574 162.557 96.4106 162.676 96.2106 162.757C96.0104 162.84 95.7711 162.881 95.4922 162.881C95.2262 162.881 94.996 162.84 94.8006 162.76C94.6055 162.68 94.4455 162.563 94.3211 162.41C94.1964 162.258 94.1036 162.071 94.0429 161.851C93.9822 161.631 93.9519 161.383 93.9519 161.108C93.9519 160.838 93.9855 160.594 94.0528 160.374C94.1201 160.154 94.2184 159.966 94.3481 159.809C94.4775 159.654 94.6392 159.534 94.8326 159.45C95.0263 159.366 95.251 159.325 95.5068 159.325C95.7728 159.325 96.0031 159.366 96.1981 159.45C96.3935 159.534 96.5558 159.653 96.6855 159.807C96.8149 159.961 96.911 160.148 96.9733 160.366C97.0357 160.585 97.0667 160.828 97.0667 161.098ZM96.0876 161.103C96.0843 160.974 96.0738 160.852 96.0556 160.736C96.0374 160.619 96.0071 160.518 95.9645 160.433C95.9219 160.347 95.8628 160.279 95.7873 160.228C95.712 160.177 95.6167 160.152 95.5019 160.152C95.4068 160.152 95.3233 160.176 95.251 160.226C95.1788 160.275 95.1197 160.342 95.0738 160.425C95.0279 160.509 94.9936 160.607 94.9706 160.718C94.9474 160.83 94.9363 160.947 94.9363 161.068C94.9363 161.219 94.9458 161.355 94.9656 161.477C94.9854 161.598 95.018 161.701 95.0639 161.785C95.1098 161.869 95.1705 161.933 95.2461 161.979C95.3216 162.025 95.415 162.048 95.5265 162.048C95.6348 162.048 95.725 162.023 95.7972 161.972C95.8694 161.921 95.9269 161.852 95.9694 161.765C96.012 161.678 96.0424 161.577 96.0605 161.462C96.0786 161.347 96.0876 161.228 96.0876 161.103ZM99.9997 160.945C100.092 160.984 100.17 161.035 100.234 161.095C100.298 161.156 100.35 161.223 100.391 161.297C100.432 161.371 100.462 161.448 100.479 161.529C100.498 161.609 100.507 161.689 100.507 161.768C100.507 161.925 100.476 162.069 100.416 162.199C100.355 162.328 100.271 162.44 100.162 162.534C100.054 162.627 99.9267 162.699 99.7809 162.75C99.6347 162.801 99.4766 162.827 99.306 162.827H98.0266C97.8921 162.827 97.8052 162.801 97.7656 162.75C97.7263 162.699 97.7066 162.616 97.7066 162.501V159.704C97.7066 159.595 97.7263 159.514 97.7656 159.46C97.8052 159.406 97.8921 159.379 98.0266 159.379H99.306C99.4536 159.379 99.5915 159.395 99.7192 159.428C99.8472 159.461 99.9588 159.513 100.054 159.585C100.149 159.658 100.224 159.75 100.28 159.861C100.336 159.973 100.364 160.108 100.364 160.265C100.364 160.393 100.329 160.517 100.261 160.637C100.192 160.757 100.105 160.85 99.9997 160.915V160.945ZM99.5469 161.703C99.5469 161.608 99.5185 161.53 99.4618 161.47C99.4044 161.409 99.3216 161.378 99.214 161.378H98.6368V162.024H99.214C99.2797 162.024 99.3331 162.014 99.3756 161.994C99.4182 161.974 99.4529 161.948 99.4783 161.915C99.5043 161.882 99.5225 161.848 99.5324 161.812C99.5424 161.776 99.5469 161.739 99.5469 161.703ZM98.6368 160.649H99.1503C99.2156 160.649 99.2757 160.633 99.3315 160.6C99.3862 160.567 99.4143 160.503 99.4143 160.408C99.4143 160.333 99.3922 160.275 99.3486 160.236C99.3044 160.196 99.2443 160.176 99.1697 160.176H98.6368V160.649ZM102.913 162.152H101.943L101.781 162.718C101.768 162.754 101.752 162.781 101.734 162.799C101.716 162.818 101.679 162.827 101.624 162.827H100.9C100.867 162.827 100.847 162.818 100.839 162.799C100.831 162.781 100.83 162.759 100.836 162.733L101.806 159.684C101.848 159.552 101.901 159.468 101.963 159.43C102.026 159.393 102.112 159.374 102.224 159.374H102.622C102.682 159.374 102.733 159.376 102.778 159.381C102.822 159.386 102.861 159.398 102.896 159.418C102.93 159.438 102.961 159.468 102.989 159.509C103.017 159.55 103.042 159.607 103.065 159.679L104.035 162.733C104.042 162.749 104.042 162.769 104.037 162.792C104.032 162.815 104.01 162.827 103.971 162.827H103.228C103.188 162.827 103.156 162.822 103.129 162.812C103.103 162.802 103.085 162.779 103.075 162.743L102.913 162.152ZM102.15 161.423H102.711L102.618 161.039L102.46 160.329H102.421L102.254 161.053L102.15 161.423ZM105.393 162.728C105.393 162.767 105.387 162.794 105.376 162.807C105.365 162.82 105.331 162.827 105.275 162.827H104.576C104.501 162.827 104.463 162.794 104.463 162.728V159.704C104.463 159.615 104.483 159.539 104.522 159.475C104.562 159.411 104.648 159.379 104.783 159.379H106.033C106.226 159.379 106.398 159.407 106.547 159.462C106.696 159.518 106.822 159.596 106.923 159.696C107.025 159.797 107.102 159.914 107.155 160.049C107.207 160.183 107.234 160.329 107.234 160.487C107.234 160.539 107.229 160.605 107.219 160.684C107.209 160.763 107.188 160.845 107.157 160.93C107.126 161.015 107.081 161.102 107.022 161.189C106.963 161.276 106.883 161.354 106.783 161.423C106.683 161.492 106.558 161.548 106.409 161.59C106.26 161.633 106.082 161.654 105.875 161.654H105.393V162.728ZM106.274 160.551C106.274 160.518 106.269 160.479 106.259 160.435C106.249 160.391 106.232 160.35 106.208 160.314C106.183 160.278 106.148 160.247 106.102 160.221C106.056 160.195 105.997 160.181 105.924 160.181H105.393V160.925H105.924C106.039 160.925 106.126 160.887 106.185 160.81C106.245 160.732 106.274 160.646 106.274 160.551ZM110.319 162.713C110.319 162.789 110.288 162.827 110.225 162.827H108.705C108.508 162.827 108.348 162.798 108.225 162.743C108.102 162.687 108.005 162.614 107.935 162.524C107.864 162.433 107.816 162.332 107.79 162.221C107.763 162.109 107.75 161.999 107.75 161.891V160.314C107.75 160.196 107.767 160.081 107.8 159.967C107.832 159.854 107.885 159.754 107.959 159.667C108.033 159.58 108.131 159.51 108.252 159.457C108.373 159.405 108.521 159.379 108.695 159.379H110.147C110.186 159.379 110.211 159.384 110.223 159.396C110.234 159.407 110.24 159.441 110.24 159.497V160.054C110.24 160.096 110.234 160.125 110.22 160.14C110.207 160.154 110.183 160.162 110.147 160.162H108.975C108.91 160.162 108.857 160.171 108.818 160.189C108.779 160.207 108.749 160.229 108.729 160.255C108.71 160.281 108.697 160.311 108.69 160.344C108.684 160.377 108.68 160.41 108.68 160.443V160.649H109.999C110.038 160.649 110.064 160.656 110.075 160.669C110.087 160.682 110.093 160.717 110.093 160.773V161.285C110.093 161.36 110.061 161.398 109.999 161.398H108.68V161.768C108.68 161.83 108.688 161.879 108.702 161.915C108.717 161.952 108.738 161.979 108.764 161.996C108.79 162.015 108.821 162.026 108.857 162.031C108.893 162.036 108.933 162.038 108.975 162.038H110.225C110.265 162.038 110.29 162.044 110.302 162.056C110.313 162.067 110.319 162.101 110.319 162.157V162.713ZM113.813 162.723C113.813 162.762 113.807 162.79 113.795 162.804C113.784 162.819 113.75 162.827 113.695 162.827H112.996C112.92 162.827 112.882 162.792 112.882 162.723V161.423H111.79V162.723C111.79 162.762 111.784 162.79 111.773 162.804C111.761 162.819 111.728 162.827 111.672 162.827H110.973C110.898 162.827 110.86 162.792 110.86 162.723V159.482C110.86 159.413 110.898 159.379 110.973 159.379H111.672C111.728 159.379 111.761 159.386 111.773 159.401C111.784 159.415 111.79 159.443 111.79 159.482V160.644H112.882V159.482C112.882 159.413 112.92 159.379 112.996 159.379H113.695C113.75 159.379 113.784 159.386 113.795 159.401C113.807 159.415 113.813 159.443 113.813 159.482V162.723ZM117.503 162.723C117.503 162.762 117.497 162.79 117.486 162.804C117.475 162.819 117.441 162.827 117.385 162.827H116.686C116.611 162.827 116.573 162.792 116.573 162.723V161.423H115.481V162.723C115.481 162.762 115.475 162.79 115.464 162.804C115.452 162.819 115.419 162.827 115.363 162.827H114.664C114.589 162.827 114.551 162.792 114.551 162.723V159.482C114.551 159.413 114.589 159.379 114.664 159.379H115.363C115.419 159.379 115.452 159.386 115.464 159.401C115.475 159.415 115.481 159.443 115.481 159.482V160.644H116.573V159.482C116.573 159.413 116.611 159.379 116.686 159.379H117.385C117.441 159.379 117.475 159.386 117.486 159.401C117.497 159.415 117.503 159.443 117.503 159.482V162.723ZM120.008 162.152H119.039L118.876 162.718C118.863 162.754 118.848 162.781 118.829 162.799C118.812 162.818 118.775 162.827 118.719 162.827H117.996C117.962 162.827 117.942 162.818 117.934 162.799C117.926 162.781 117.925 162.759 117.931 162.733L118.901 159.684C118.944 159.552 118.996 159.468 119.058 159.43C119.121 159.393 119.208 159.374 119.319 159.374H119.718C119.777 159.374 119.829 159.376 119.873 159.381C119.917 159.386 119.956 159.398 119.991 159.418C120.025 159.438 120.056 159.468 120.084 159.509C120.112 159.55 120.138 159.607 120.161 159.679L121.13 162.733C121.137 162.749 121.137 162.769 121.132 162.792C121.127 162.815 121.105 162.827 121.066 162.827H120.323C120.284 162.827 120.251 162.822 120.225 162.812C120.198 162.802 120.18 162.779 120.17 162.743L120.008 162.152ZM119.245 161.423H119.806L119.713 161.039L119.555 160.329H119.516L119.349 161.053L119.245 161.423Z" fill="#FEFEFE"/>
<path d="M121.608 161.763C121.637 161.634 121.682 161.528 121.741 161.443C121.8 161.357 121.905 161.295 122.056 161.255V161.245C121.954 161.216 121.869 161.172 121.8 161.115C121.731 161.057 121.676 160.992 121.635 160.918C121.594 160.844 121.564 160.764 121.546 160.679C121.528 160.594 121.519 160.506 121.519 160.418C121.519 160.26 121.544 160.118 121.593 159.992C121.642 159.865 121.716 159.756 121.815 159.664C121.913 159.572 122.035 159.502 122.181 159.452C122.327 159.403 122.497 159.379 122.69 159.379H123.945C124.08 159.379 124.167 159.407 124.206 159.465C124.245 159.522 124.265 159.602 124.265 159.704V162.728C124.265 162.794 124.227 162.827 124.152 162.827H123.453C123.398 162.827 123.364 162.82 123.352 162.807C123.341 162.794 123.335 162.767 123.335 162.728V161.477H123.015C122.877 161.477 122.778 161.509 122.717 161.573C122.657 161.637 122.609 161.739 122.572 161.881L122.376 162.703C122.366 162.736 122.352 162.761 122.334 162.777C122.315 162.794 122.294 162.806 122.27 162.814C122.245 162.823 122.219 162.827 122.191 162.827C122.163 162.827 122.136 162.827 122.11 162.827H121.426C121.386 162.827 121.366 162.817 121.364 162.797C121.362 162.777 121.367 162.744 121.377 162.698L121.608 161.763ZM122.479 160.462C122.479 160.558 122.508 160.629 122.567 160.677C122.626 160.724 122.695 160.748 122.774 160.748H123.335V160.181H122.774C122.666 160.181 122.589 160.211 122.545 160.27C122.501 160.329 122.479 160.393 122.479 160.462ZM129.358 160.994C129.443 161.024 129.514 161.057 129.57 161.095C129.626 161.133 129.671 161.176 129.707 161.223C129.744 161.271 129.772 161.325 129.794 161.386C129.815 161.446 129.835 161.513 129.855 161.585L130.16 162.728C130.167 162.744 130.168 162.765 130.163 162.79C130.158 162.814 130.134 162.827 130.091 162.827H129.353C129.337 162.827 129.319 162.823 129.299 162.817C129.279 162.81 129.265 162.791 129.255 162.757L128.945 161.723C128.922 161.644 128.893 161.58 128.859 161.529C128.824 161.478 128.783 161.438 128.736 161.41C128.688 161.382 128.632 161.364 128.566 161.354C128.5 161.344 128.425 161.339 128.34 161.339H128.118L128.123 162.748C128.123 162.784 128.117 162.806 128.103 162.814C128.09 162.823 128.067 162.827 128.034 162.827H127.277C127.247 162.827 127.225 162.823 127.21 162.814C127.195 162.806 127.188 162.784 127.188 162.748V159.457C127.188 159.421 127.195 159.399 127.21 159.391C127.225 159.383 127.247 159.379 127.277 159.379H128.039C128.072 159.379 128.095 159.383 128.108 159.391C128.121 159.399 128.125 159.421 128.118 159.457V160.679H128.354C128.404 160.679 128.455 160.675 128.509 160.669C128.563 160.663 128.615 160.645 128.664 160.617C128.713 160.589 128.759 160.548 128.8 160.494C128.841 160.44 128.874 160.365 128.901 160.27L129.127 159.438C129.134 159.405 129.147 159.385 129.169 159.379C129.19 159.372 129.209 159.369 129.225 159.369H129.954C129.996 159.369 130.02 159.381 130.025 159.406C130.03 159.43 130.029 159.451 130.023 159.467L129.786 160.349C129.754 160.487 129.7 160.609 129.626 160.716C129.553 160.823 129.463 160.907 129.358 160.97V160.994ZM133.698 161.098C133.698 161.373 133.669 161.621 133.61 161.842C133.551 162.062 133.458 162.248 133.332 162.403C133.205 162.557 133.042 162.676 132.842 162.757C132.642 162.84 132.403 162.881 132.124 162.881C131.858 162.881 131.628 162.84 131.432 162.76C131.237 162.68 131.077 162.563 130.953 162.41C130.828 162.258 130.735 162.071 130.675 161.851C130.614 161.631 130.584 161.383 130.584 161.108C130.584 160.838 130.617 160.594 130.685 160.374C130.752 160.154 130.85 159.966 130.98 159.809C131.109 159.654 131.271 159.534 131.464 159.45C131.658 159.366 131.883 159.325 132.139 159.325C132.404 159.325 132.635 159.366 132.83 159.45C133.025 159.534 133.187 159.653 133.317 159.807C133.446 159.961 133.542 160.148 133.605 160.366C133.667 160.585 133.698 160.828 133.698 161.098ZM132.719 161.103C132.716 160.974 132.705 160.852 132.687 160.736C132.669 160.619 132.639 160.518 132.596 160.433C132.553 160.347 132.494 160.279 132.419 160.228C132.343 160.177 132.248 160.152 132.134 160.152C132.039 160.152 131.955 160.176 131.883 160.226C131.811 160.275 131.751 160.342 131.706 160.425C131.66 160.509 131.625 160.607 131.602 160.718C131.579 160.83 131.568 160.947 131.568 161.068C131.568 161.219 131.578 161.355 131.597 161.477C131.617 161.598 131.65 161.701 131.696 161.785C131.742 161.869 131.802 161.933 131.878 161.979C131.953 162.025 132.047 162.048 132.158 162.048C132.266 162.048 132.356 162.023 132.429 161.972C132.501 161.921 132.558 161.852 132.601 161.765C132.643 161.678 132.674 161.577 132.692 161.462C132.71 161.347 132.719 161.228 132.719 161.103ZM137.197 161.098H137.168L136.917 161.659L136.661 162.206C136.625 162.288 136.588 162.345 136.55 162.376C136.512 162.407 136.458 162.423 136.385 162.423H136.056C135.973 162.423 135.917 162.407 135.886 162.376C135.855 162.345 135.819 162.288 135.78 162.206L135.559 161.763L135.273 161.157H135.243V162.733C135.243 162.779 135.235 162.806 135.219 162.814C135.203 162.823 135.175 162.827 135.135 162.827H134.451C134.415 162.827 134.387 162.823 134.368 162.814C134.348 162.806 134.338 162.779 134.338 162.733V159.768C134.338 159.613 134.366 159.51 134.422 159.457C134.478 159.405 134.568 159.379 134.692 159.379H135.071C135.176 159.379 135.252 159.398 135.298 159.435C135.343 159.473 135.388 159.535 135.431 159.62L135.824 160.438L136.208 161.245H136.228L136.612 160.448L137.005 159.635C137.048 159.549 137.095 159.485 137.148 159.443C137.2 159.4 137.289 159.379 137.414 159.379H137.719C137.771 159.379 137.819 159.383 137.861 159.391C137.904 159.399 137.941 159.415 137.972 159.44C138.003 159.465 138.027 159.501 138.044 159.548C138.06 159.596 138.068 159.658 138.068 159.733V162.733C138.068 162.779 138.06 162.806 138.044 162.814C138.027 162.823 137.998 162.827 137.955 162.827H137.305C137.269 162.827 137.242 162.823 137.224 162.814C137.206 162.806 137.197 162.779 137.197 162.733V161.098ZM141.759 162.723C141.759 162.762 141.753 162.79 141.741 162.804C141.73 162.819 141.697 162.827 141.641 162.827H140.942C140.867 162.827 140.829 162.792 140.829 162.723V160.176H139.736V162.723C139.736 162.762 139.73 162.79 139.719 162.804C139.708 162.819 139.674 162.827 139.618 162.827H138.919C138.844 162.827 138.806 162.792 138.806 162.723V159.704C138.806 159.595 138.826 159.514 138.865 159.46C138.905 159.406 138.992 159.379 139.126 159.379H141.439C141.574 159.379 141.66 159.406 141.7 159.46C141.739 159.514 141.759 159.595 141.759 159.704V162.723ZM144.264 162.152H143.294L143.132 162.718C143.119 162.754 143.103 162.781 143.085 162.799C143.067 162.818 143.03 162.827 142.974 162.827H142.251C142.218 162.827 142.198 162.818 142.189 162.799C142.181 162.781 142.18 162.759 142.187 162.733L143.156 159.684C143.199 159.552 143.252 159.468 143.314 159.43C143.376 159.393 143.463 159.374 143.575 159.374H143.973C144.032 159.374 144.084 159.376 144.128 159.381C144.173 159.386 144.212 159.398 144.246 159.418C144.281 159.438 144.312 159.468 144.34 159.509C144.368 159.55 144.393 159.607 144.416 159.679L145.386 162.733C145.392 162.749 145.393 162.769 145.388 162.792C145.383 162.815 145.361 162.827 145.322 162.827H144.578C144.539 162.827 144.506 162.822 144.48 162.812C144.454 162.802 144.436 162.779 144.426 162.743L144.264 162.152ZM143.501 161.423H144.062L143.968 161.039L143.811 160.329H143.772L143.604 161.053L143.501 161.423ZM148.767 162.723C148.767 162.762 148.76 162.79 148.749 162.804C148.738 162.819 148.704 162.827 148.648 162.827H147.949C147.874 162.827 147.836 162.792 147.836 162.723V161.423H146.744V162.723C146.744 162.762 146.738 162.79 146.727 162.804C146.715 162.819 146.682 162.827 146.626 162.827H145.927C145.852 162.827 145.814 162.792 145.814 162.723V159.482C145.814 159.413 145.852 159.379 145.927 159.379H146.626C146.682 159.379 146.715 159.386 146.727 159.401C146.738 159.415 146.744 159.443 146.744 159.482V160.644H147.836V159.482C147.836 159.413 147.874 159.379 147.949 159.379H148.648C148.704 159.379 148.738 159.386 148.749 159.401C148.76 159.415 148.767 159.443 148.767 159.482V162.723ZM151.625 160.861L151.182 161.59L150.513 162.605C150.48 162.654 150.451 162.693 150.425 162.723C150.398 162.752 150.371 162.775 150.341 162.79C150.312 162.804 150.277 162.814 150.238 162.819C150.198 162.824 150.151 162.827 150.095 162.827H149.864C149.716 162.827 149.619 162.79 149.573 162.716C149.527 162.642 149.504 162.549 149.504 162.437V159.482C149.504 159.413 149.542 159.379 149.618 159.379H150.292C150.347 159.379 150.381 159.386 150.393 159.401C150.404 159.415 150.41 159.443 150.41 159.482V161.354H150.445L150.878 160.674L151.557 159.6C151.589 159.548 151.619 159.507 151.645 159.477C151.671 159.447 151.699 159.425 151.729 159.411C151.758 159.396 151.793 159.387 151.832 159.384C151.871 159.38 151.919 159.379 151.975 159.379H152.206C152.344 159.379 152.438 159.405 152.489 159.457C152.54 159.51 152.565 159.613 152.565 159.768V162.723C152.565 162.792 152.527 162.827 152.452 162.827H151.778C151.722 162.827 151.689 162.819 151.677 162.804C151.666 162.79 151.66 162.762 151.66 162.723V160.861H151.625ZM153.353 161.763C153.382 161.634 153.426 161.528 153.485 161.443C153.544 161.357 153.649 161.295 153.801 161.255V161.245C153.699 161.216 153.614 161.172 153.544 161.115C153.476 161.057 153.421 160.992 153.38 160.918C153.339 160.844 153.309 160.764 153.291 160.679C153.273 160.594 153.264 160.506 153.264 160.418C153.264 160.26 153.289 160.118 153.338 159.992C153.387 159.865 153.461 159.756 153.559 159.664C153.658 159.572 153.78 159.502 153.926 159.452C154.072 159.403 154.242 159.379 154.435 159.379H155.69C155.824 159.379 155.912 159.407 155.951 159.465C155.99 159.522 156.01 159.602 156.01 159.704V162.728C156.01 162.794 155.972 162.827 155.897 162.827H155.198C155.142 162.827 155.109 162.82 155.097 162.807C155.086 162.794 155.08 162.767 155.08 162.728V161.477H154.76C154.622 161.477 154.523 161.509 154.462 161.573C154.402 161.637 154.353 161.739 154.317 161.881L154.12 162.703C154.11 162.736 154.097 162.761 154.078 162.777C154.06 162.794 154.039 162.806 154.014 162.814C153.99 162.823 153.964 162.827 153.936 162.827C153.908 162.827 153.881 162.827 153.855 162.827H153.171C153.131 162.827 153.111 162.817 153.109 162.797C153.107 162.777 153.112 162.744 153.121 162.698L153.353 161.763ZM154.224 160.462C154.224 160.558 154.253 160.629 154.312 160.677C154.371 160.724 154.44 160.748 154.519 160.748H155.08V160.181H154.519C154.411 160.181 154.334 160.211 154.29 160.27C154.246 160.329 154.224 160.393 154.224 160.462Z" fill="#FEFEFE"/>
<path d="M120.922 129.371H123.64V128.67H121.758V124.788H120.922V129.371ZM128.155 128.072L128.569 129.371H129.466L127.978 124.788H126.912L125.444 129.371H126.307L126.701 128.072H128.155ZM126.837 127.44L127.19 126.311C127.272 126.039 127.34 125.719 127.408 125.454H127.421C127.489 125.719 127.564 126.032 127.652 126.311L128.012 127.44H126.837ZM135.116 126.841H133.499V127.501H134.307V128.643C134.199 128.697 133.975 128.738 133.676 128.738C132.725 128.738 132.086 128.119 132.086 127.079C132.086 126.012 132.772 125.434 133.75 125.434C134.233 125.434 134.538 125.522 134.79 125.631L134.973 124.951C134.763 124.856 134.321 124.74 133.757 124.74C132.242 124.74 131.21 125.672 131.21 127.12C131.203 127.814 131.441 128.419 131.848 128.806C132.283 129.221 132.867 129.418 133.642 129.418C134.253 129.418 134.824 129.269 135.116 129.16V126.841ZM140.019 126.657H138.293V125.474H140.12V124.788H137.458V129.371H140.222V128.684H138.293V127.338H140.019V126.657ZM142.442 129.371H143.27V127.487H143.692C144.167 127.501 144.385 127.691 144.514 128.29C144.643 128.861 144.752 129.235 144.819 129.371H145.682C145.587 129.194 145.465 128.663 145.322 128.092C145.207 127.65 145.01 127.331 144.684 127.208V127.188C145.112 127.031 145.512 126.63 145.512 126.039C145.512 125.651 145.37 125.332 145.118 125.121C144.813 124.862 144.364 124.754 143.705 124.754C143.223 124.754 142.754 124.795 142.442 124.849V129.371ZM143.27 125.427C143.352 125.406 143.522 125.386 143.787 125.386C144.33 125.386 144.684 125.617 144.684 126.12C144.684 126.576 144.33 126.875 143.766 126.875H143.27V125.427Z" fill="#FEFEFE"/>
<path d="M205.1 129.16C203.7 130.56 201.987 131.26 199.96 131.26C197.933 131.26 196.213 130.56 194.8 129.16C193.4 127.747 192.7 126.027 192.7 124C192.7 121.973 193.4 120.26 194.8 118.86C196.213 117.447 197.933 116.74 199.96 116.74C201.987 116.74 203.7 117.447 205.1 118.86C206.513 120.26 207.22 121.973 207.22 124C207.22 126.027 206.513 127.747 205.1 129.16ZM196.42 127.6C197.393 128.547 198.573 129.02 199.96 129.02C201.36 129.02 202.533 128.547 203.48 127.6C204.44 126.64 204.92 125.44 204.92 124C204.92 122.56 204.44 121.367 203.48 120.42C202.533 119.46 201.36 118.98 199.96 118.98C198.56 118.98 197.38 119.46 196.42 120.42C195.473 121.367 195 122.56 195 124C195 125.427 195.473 126.627 196.42 127.6ZM221.018 129.16C219.618 130.56 217.905 131.26 215.878 131.26C213.851 131.26 212.131 130.56 210.718 129.16C209.318 127.747 208.618 126.027 208.618 124C208.618 121.973 209.318 120.26 210.718 118.86C212.131 117.447 213.851 116.74 215.878 116.74C217.905 116.74 219.618 117.447 221.018 118.86C222.431 120.26 223.138 121.973 223.138 124C223.138 126.027 222.431 127.747 221.018 129.16ZM212.338 127.6C213.311 128.547 214.491 129.02 215.878 129.02C217.278 129.02 218.451 128.547 219.398 127.6C220.358 126.64 220.838 125.44 220.838 124C220.838 122.56 220.358 121.367 219.398 120.42C218.451 119.46 217.278 118.98 215.878 118.98C214.478 118.98 213.298 119.46 212.338 120.42C211.391 121.367 210.918 122.56 210.918 124C210.918 125.427 211.391 126.627 212.338 127.6ZM236.936 129.16C235.536 130.56 233.823 131.26 231.796 131.26C229.769 131.26 228.049 130.56 226.636 129.16C225.236 127.747 224.536 126.027 224.536 124C224.536 121.973 225.236 120.26 226.636 118.86C228.049 117.447 229.769 116.74 231.796 116.74C233.823 116.74 235.536 117.447 236.936 118.86C238.349 120.26 239.056 121.973 239.056 124C239.056 126.027 238.349 127.747 236.936 129.16ZM228.256 127.6C229.229 128.547 230.409 129.02 231.796 129.02C233.196 129.02 234.369 128.547 235.316 127.6C236.276 126.64 236.756 125.44 236.756 124C236.756 122.56 236.276 121.367 235.316 120.42C234.369 119.46 233.196 118.98 231.796 118.98C230.396 118.98 229.216 119.46 228.256 120.42C227.309 121.367 226.836 122.56 226.836 124C226.836 125.427 227.309 126.627 228.256 127.6ZM248.254 121.12H250.394L248.194 124.82L250.394 128.52H248.254L246.054 124.82L248.254 121.12ZM251.854 121.12H253.994L251.794 124.82L253.994 128.52H251.854L249.654 124.82L251.854 121.12ZM265.001 122.74V117H267.301V131H265.001V124.94H259.001V131H256.701V117H259.001V122.74H265.001ZM279.619 126.92H271.659C271.819 127.667 272.179 128.247 272.739 128.66C273.313 129.073 274.019 129.28 274.859 129.28C275.993 129.28 276.853 128.867 277.439 128.04L279.219 129.08C278.246 130.533 276.786 131.26 274.839 131.26C273.226 131.26 271.913 130.767 270.899 129.78C269.899 128.78 269.399 127.52 269.399 126C269.399 124.52 269.893 123.273 270.879 122.26C271.853 121.247 273.119 120.74 274.679 120.74C276.133 120.74 277.333 121.253 278.279 122.28C279.226 123.307 279.699 124.553 279.699 126.02C279.699 126.287 279.673 126.587 279.619 126.92ZM271.639 125.16H277.519C277.373 124.373 277.039 123.767 276.519 123.34C276.013 122.913 275.393 122.7 274.659 122.7C273.859 122.7 273.193 122.92 272.659 123.36C272.126 123.8 271.786 124.4 271.639 125.16ZM288.141 131.18V135H286.021V131.18C284.475 130.98 283.248 130.407 282.341 129.46C281.435 128.513 280.981 127.36 280.981 126C280.981 124.64 281.435 123.487 282.341 122.54C283.248 121.593 284.475 121.02 286.021 120.82V117H288.141V120.82C289.688 121.02 290.915 121.593 291.821 122.54C292.728 123.487 293.181 124.64 293.181 126C293.181 127.36 292.728 128.513 291.821 129.46C290.915 130.407 289.688 130.98 288.141 131.18ZM288.141 122.88V129.12C289.061 128.947 289.775 128.587 290.281 128.04C290.788 127.48 291.041 126.8 291.041 126C291.041 125.2 290.788 124.527 290.281 123.98C289.775 123.42 289.061 123.053 288.141 122.88ZM286.021 129.12V122.88C285.115 123.053 284.401 123.42 283.881 123.98C283.375 124.527 283.121 125.2 283.121 126C283.121 126.8 283.375 127.48 283.881 128.04C284.401 128.587 285.115 128.947 286.021 129.12ZM293.684 121H302.384V123.08H299.124V131H296.964V123.08H293.684V121ZM313.115 126.92H305.155C305.315 127.667 305.675 128.247 306.235 128.66C306.809 129.073 307.515 129.28 308.355 129.28C309.489 129.28 310.349 128.867 310.935 128.04L312.715 129.08C311.742 130.533 310.282 131.26 308.335 131.26C306.722 131.26 305.409 130.767 304.395 129.78C303.395 128.78 302.895 127.52 302.895 126C302.895 124.52 303.389 123.273 304.375 122.26C305.349 121.247 306.615 120.74 308.175 120.74C309.629 120.74 310.829 121.253 311.775 122.28C312.722 123.307 313.195 124.553 313.195 126.02C313.195 126.287 313.169 126.587 313.115 126.92ZM305.135 125.16H311.015C310.869 124.373 310.535 123.767 310.015 123.34C309.509 122.913 308.889 122.7 308.155 122.7C307.355 122.7 306.689 122.92 306.155 123.36C305.622 123.8 305.282 124.4 305.135 125.16ZM319.376 125.9L323.936 131H321.356L317.256 126.38V131H315.096V121H317.256V125.42L321.136 121H323.776L319.376 125.9ZM332.508 122.42V121H334.668V131H332.508V129.56C331.695 130.693 330.528 131.26 329.008 131.26C327.635 131.26 326.461 130.753 325.488 129.74C324.515 128.727 324.028 127.48 324.028 126C324.028 124.52 324.515 123.273 325.488 122.26C326.461 121.247 327.635 120.74 329.008 120.74C330.528 120.74 331.695 121.3 332.508 122.42ZM327.088 128.3C327.688 128.9 328.441 129.2 329.348 129.2C330.255 129.2 331.008 128.9 331.608 128.3C332.208 127.687 332.508 126.92 332.508 126C332.508 125.08 332.208 124.32 331.608 123.72C331.008 123.107 330.255 122.8 329.348 122.8C328.441 122.8 327.688 123.107 327.088 123.72C326.488 124.32 326.188 125.08 326.188 126C326.188 126.907 326.488 127.673 327.088 128.3ZM345.186 121H347.386V131H345.286V124.42L342.406 129H342.146L339.286 124.44V131H337.186V121H339.386L342.286 125.62L345.186 121ZM354.601 131.26C353.094 131.26 351.834 130.753 350.821 129.74C349.821 128.713 349.321 127.467 349.321 126C349.321 124.507 349.821 123.26 350.821 122.26C351.834 121.247 353.094 120.74 354.601 120.74C355.574 120.74 356.461 120.973 357.261 121.44C358.061 121.907 358.661 122.533 359.061 123.32L357.201 124.4C356.974 123.92 356.628 123.547 356.161 123.28C355.708 123 355.181 122.86 354.581 122.86C353.701 122.86 352.961 123.16 352.361 123.76C351.774 124.373 351.481 125.12 351.481 126C351.481 126.88 351.774 127.627 352.361 128.24C352.961 128.84 353.701 129.14 354.581 129.14C355.168 129.14 355.694 129.007 356.161 128.74C356.641 128.46 357.001 128.08 357.241 127.6L359.101 128.66C358.674 129.46 358.054 130.093 357.241 130.56C356.441 131.027 355.561 131.26 354.601 131.26ZM365.001 125.9L369.561 131H366.981L362.881 126.38V131H360.721V121H362.881V125.42L366.761 121H369.401L365.001 125.9ZM378.133 122.42V121H380.293V131H378.133V129.56C377.32 130.693 376.153 131.26 374.633 131.26C373.26 131.26 372.086 130.753 371.113 129.74C370.14 128.727 369.653 127.48 369.653 126C369.653 124.52 370.14 123.273 371.113 122.26C372.086 121.247 373.26 120.74 374.633 120.74C376.153 120.74 377.32 121.3 378.133 122.42ZM372.713 128.3C373.313 128.9 374.066 129.2 374.973 129.2C375.88 129.2 376.633 128.9 377.233 128.3C377.833 127.687 378.133 126.92 378.133 126C378.133 125.08 377.833 124.32 377.233 123.72C376.633 123.107 375.88 122.8 374.973 122.8C374.066 122.8 373.313 123.107 372.713 123.72C372.113 124.32 371.813 125.08 371.813 126C371.813 126.907 372.113 127.673 372.713 128.3ZM386.091 121H390.551V131H388.431V127.64H387.231L384.691 131H382.151L384.851 127.44C384.157 127.213 383.597 126.813 383.171 126.24C382.757 125.667 382.551 125.027 382.551 124.32C382.551 123.4 382.877 122.62 383.531 121.98C384.184 121.327 385.037 121 386.091 121ZM386.211 125.78H388.431V122.96H386.211C385.757 122.96 385.384 123.093 385.091 123.36C384.811 123.613 384.671 123.953 384.671 124.38C384.671 124.807 384.811 125.147 385.091 125.4C385.384 125.653 385.757 125.78 386.211 125.78ZM398.205 117H408.505V131H406.205V119.2H400.505V131H398.205V117ZM413.29 127.34L418.41 121H420.07V131H417.95V124.64L412.83 131H411.17V121H413.29V127.34ZM429.496 125.86C430.483 126.327 430.976 127.093 430.976 128.16C430.976 129.013 430.683 129.7 430.096 130.22C429.523 130.74 428.723 131 427.696 131H422.576V121H427.296C428.31 121 429.103 121.253 429.676 121.76C430.25 122.267 430.536 122.933 430.536 123.76C430.536 124.707 430.19 125.407 429.496 125.86ZM427.136 122.84H424.636V125.06H427.136C428.016 125.06 428.456 124.687 428.456 123.94C428.456 123.207 428.016 122.84 427.136 122.84ZM424.636 129.12H427.496C428.403 129.12 428.856 128.727 428.856 127.94C428.856 127.593 428.736 127.327 428.496 127.14C428.256 126.94 427.923 126.84 427.496 126.84H424.636V129.12ZM441.193 129.74C440.179 130.753 438.933 131.26 437.453 131.26C435.973 131.26 434.726 130.753 433.713 129.74C432.686 128.713 432.173 127.467 432.173 126C432.173 124.533 432.686 123.287 433.713 122.26C434.726 121.247 435.973 120.74 437.453 120.74C438.933 120.74 440.179 121.247 441.193 122.26C442.219 123.287 442.733 124.533 442.733 126C442.733 127.467 442.219 128.713 441.193 129.74ZM434.333 126C434.333 126.907 434.633 127.66 435.233 128.26C435.833 128.86 436.573 129.16 437.453 129.16C438.333 129.16 439.073 128.86 439.673 128.26C440.273 127.66 440.573 126.907 440.573 126C440.573 125.093 440.273 124.34 439.673 123.74C439.073 123.14 438.333 122.84 437.453 122.84C436.573 122.84 435.833 123.14 435.233 123.74C434.633 124.34 434.333 125.093 434.333 126ZM451.606 125.86C452.592 126.327 453.086 127.093 453.086 128.16C453.086 129.013 452.792 129.7 452.206 130.22C451.632 130.74 450.832 131 449.806 131H444.686V121H449.406C450.419 121 451.212 121.253 451.786 121.76C452.359 122.267 452.646 122.933 452.646 123.76C452.646 124.707 452.299 125.407 451.606 125.86ZM449.246 122.84H446.746V125.06H449.246C450.126 125.06 450.566 124.687 450.566 123.94C450.566 123.207 450.126 122.84 449.246 122.84ZM446.746 129.12H449.606C450.512 129.12 450.966 128.727 450.966 127.94C450.966 127.593 450.846 127.327 450.606 127.14C450.366 126.94 450.032 126.84 449.606 126.84H446.746V129.12ZM462.762 122.42V121H464.922V131H462.762V129.56C461.949 130.693 460.782 131.26 459.262 131.26C457.889 131.26 456.715 130.753 455.742 129.74C454.769 128.727 454.282 127.48 454.282 126C454.282 124.52 454.769 123.273 455.742 122.26C456.715 121.247 457.889 120.74 459.262 120.74C460.782 120.74 461.949 121.3 462.762 122.42ZM457.342 128.3C457.942 128.9 458.695 129.2 459.602 129.2C460.509 129.2 461.262 128.9 461.862 128.3C462.462 127.687 462.762 126.92 462.762 126C462.762 125.08 462.462 124.32 461.862 123.72C461.262 123.107 460.509 122.8 459.602 122.8C458.695 122.8 457.942 123.107 457.342 123.72C456.742 124.32 456.442 125.08 456.442 126C456.442 126.907 456.742 127.673 457.342 128.3ZM473.1 120.74C474.46 120.74 475.633 121.253 476.62 122.28C477.593 123.293 478.08 124.533 478.08 126C478.08 127.48 477.593 128.727 476.62 129.74C475.646 130.753 474.473 131.26 473.1 131.26C471.593 131.26 470.426 130.7 469.6 129.58V135H467.44V121H469.6V122.44C470.413 121.307 471.58 120.74 473.1 120.74ZM470.5 128.3C471.1 128.9 471.853 129.2 472.76 129.2C473.666 129.2 474.42 128.9 475.02 128.3C475.62 127.687 475.92 126.92 475.92 126C475.92 125.08 475.62 124.32 475.02 123.72C474.42 123.107 473.666 122.8 472.76 122.8C471.853 122.8 471.1 123.107 470.5 123.72C469.9 124.32 469.6 125.08 469.6 126C469.6 126.907 469.9 127.673 470.5 128.3ZM489.697 126.92H481.737C481.897 127.667 482.257 128.247 482.817 128.66C483.391 129.073 484.097 129.28 484.937 129.28C486.071 129.28 486.931 128.867 487.517 128.04L489.297 129.08C488.324 130.533 486.864 131.26 484.917 131.26C483.304 131.26 481.991 130.767 480.977 129.78C479.977 128.78 479.477 127.52 479.477 126C479.477 124.52 479.971 123.273 480.957 122.26C481.931 121.247 483.197 120.74 484.757 120.74C486.211 120.74 487.411 121.253 488.357 122.28C489.304 123.307 489.777 124.553 489.777 126.02C489.777 126.287 489.751 126.587 489.697 126.92ZM481.717 125.16H487.597C487.451 124.373 487.117 123.767 486.597 123.34C486.091 122.913 485.471 122.7 484.737 122.7C483.937 122.7 483.271 122.92 482.737 123.36C482.204 123.8 481.864 124.4 481.717 125.16ZM498.418 124.98V121H500.578V131H498.418V127.02H493.838V131H491.678V121H493.838V124.98H498.418ZM509.824 124.98V121H511.984V131H509.824V127.02H505.244V131H503.084V121H505.244V124.98H509.824ZM522.41 122.42V121H524.57V131H522.41V129.56C521.597 130.693 520.43 131.26 518.91 131.26C517.537 131.26 516.364 130.753 515.39 129.74C514.417 128.727 513.93 127.48 513.93 126C513.93 124.52 514.417 123.273 515.39 122.26C516.364 121.247 517.537 120.74 518.91 120.74C520.43 120.74 521.597 121.3 522.41 122.42ZM516.99 128.3C517.59 128.9 518.344 129.2 519.25 129.2C520.157 129.2 520.91 128.9 521.51 128.3C522.11 127.687 522.41 126.92 522.41 126C522.41 125.08 522.11 124.32 521.51 123.72C520.91 123.107 520.157 122.8 519.25 122.8C518.344 122.8 517.59 123.107 516.99 123.72C516.39 124.32 516.09 125.08 516.09 126C516.09 126.907 516.39 127.673 516.99 128.3ZM530.368 121H534.828V131H532.708V127.64H531.508L528.968 131H526.428L529.128 127.44C528.435 127.213 527.875 126.813 527.448 126.24C527.035 125.667 526.828 125.027 526.828 124.32C526.828 123.4 527.155 122.62 527.808 121.98C528.461 121.327 529.315 121 530.368 121ZM530.488 125.78H532.708V122.96H530.488C530.035 122.96 529.661 123.093 529.368 123.36C529.088 123.613 528.948 123.953 528.948 124.38C528.948 124.807 529.088 125.147 529.368 125.4C529.661 125.653 530.035 125.78 530.488 125.78ZM198.1 148.82L203.96 156H201.22L195.7 149.34V156H193.4V142H195.7V148.28L201.02 142H203.76L198.1 148.82ZM212.853 154.74C211.839 155.753 210.593 156.26 209.113 156.26C207.633 156.26 206.386 155.753 205.373 154.74C204.346 153.713 203.833 152.467 203.833 151C203.833 149.533 204.346 148.287 205.373 147.26C206.386 146.247 207.633 145.74 209.113 145.74C210.593 145.74 211.839 146.247 212.853 147.26C213.879 148.287 214.393 149.533 214.393 151C214.393 152.467 213.879 153.713 212.853 154.74ZM205.993 151C205.993 151.907 206.293 152.66 206.893 153.26C207.493 153.86 208.233 154.16 209.113 154.16C209.993 154.16 210.733 153.86 211.333 153.26C211.933 152.66 212.233 151.907 212.233 151C212.233 150.093 211.933 149.34 211.333 148.74C210.733 148.14 209.993 147.84 209.113 147.84C208.233 147.84 207.493 148.14 206.893 148.74C206.293 149.34 205.993 150.093 205.993 151ZM224.346 146H226.546V156H224.446V149.42L221.566 154H221.306L218.446 149.44V156H216.346V146H218.546L221.446 150.62L224.346 146ZM229.041 146H237.941V156H235.781V148.04H231.201V156H229.041V146ZM248.368 147.42V146H250.528V156H248.368V154.56C247.554 155.693 246.388 156.26 244.868 156.26C243.494 156.26 242.321 155.753 241.348 154.74C240.374 153.727 239.888 152.48 239.888 151C239.888 149.52 240.374 148.273 241.348 147.26C242.321 146.247 243.494 145.74 244.868 145.74C246.388 145.74 247.554 146.3 248.368 147.42ZM242.948 153.3C243.548 153.9 244.301 154.2 245.208 154.2C246.114 154.2 246.868 153.9 247.468 153.3C248.068 152.687 248.368 151.92 248.368 151C248.368 150.08 248.068 149.32 247.468 148.72C246.868 148.107 246.114 147.8 245.208 147.8C244.301 147.8 243.548 148.107 242.948 148.72C242.348 149.32 242.048 150.08 242.048 151C242.048 151.907 242.348 152.673 242.948 153.3ZM259.785 149.98V146H261.945V156H259.785V152.02H255.205V156H253.045V146H255.205V149.98H259.785ZM266.571 152.34L271.691 146H273.351V156H271.231V149.64L266.111 156H264.451V146H266.571V152.34ZM279.138 146H283.598V156H281.478V152.64H280.278L277.738 156H275.198L277.898 152.44C277.204 152.213 276.644 151.813 276.218 151.24C275.804 150.667 275.598 150.027 275.598 149.32C275.598 148.4 275.924 147.62 276.578 146.98C277.231 146.327 278.084 146 279.138 146ZM279.258 150.78H281.478V147.96H279.258C278.804 147.96 278.431 148.093 278.138 148.36C277.858 148.613 277.718 148.953 277.718 149.38C277.718 149.807 277.858 150.147 278.138 150.4C278.431 150.653 278.804 150.78 279.258 150.78ZM286.152 146.12H288.292L290.492 149.82L288.292 153.52H286.152L288.352 149.82L286.152 146.12ZM289.752 146.12H291.892L294.092 149.82L291.892 153.52H289.752L291.952 149.82L289.752 146.12ZM301.658 146H308.358V148.08H303.818V156H301.658V146ZM309.326 153.24C309.739 153.24 310.092 153.387 310.386 153.68C310.679 153.973 310.826 154.327 310.826 154.74C310.826 155.153 310.679 155.507 310.386 155.8C310.092 156.093 309.739 156.24 309.326 156.24C308.912 156.24 308.559 156.093 308.266 155.8C307.972 155.507 307.826 155.153 307.826 154.74C307.826 154.327 307.966 153.973 308.246 153.68C308.539 153.387 308.899 153.24 309.326 153.24ZM321.563 147.74V142H323.863V156H321.563V149.94H315.563V156H313.263V142H315.563V147.74H321.563ZM336.182 151.92H328.222C328.382 152.667 328.742 153.247 329.302 153.66C329.875 154.073 330.582 154.28 331.422 154.28C332.555 154.28 333.415 153.867 334.002 153.04L335.782 154.08C334.808 155.533 333.348 156.26 331.402 156.26C329.788 156.26 328.475 155.767 327.462 154.78C326.462 153.78 325.962 152.52 325.962 151C325.962 149.52 326.455 148.273 327.442 147.26C328.415 146.247 329.682 145.74 331.242 145.74C332.695 145.74 333.895 146.253 334.842 147.28C335.788 148.307 336.262 149.553 336.262 151.02C336.262 151.287 336.235 151.587 336.182 151.92ZM328.202 150.16H334.082C333.935 149.373 333.602 148.767 333.082 148.34C332.575 147.913 331.955 147.7 331.222 147.7C330.422 147.7 329.755 147.92 329.222 148.36C328.688 148.8 328.348 149.4 328.202 150.16ZM344.704 156.18V160H342.584V156.18C341.037 155.98 339.81 155.407 338.904 154.46C337.997 153.513 337.544 152.36 337.544 151C337.544 149.64 337.997 148.487 338.904 147.54C339.81 146.593 341.037 146.02 342.584 145.82V142H344.704V145.82C346.25 146.02 347.477 146.593 348.384 147.54C349.29 148.487 349.744 149.64 349.744 151C349.744 152.36 349.29 153.513 348.384 154.46C347.477 155.407 346.25 155.98 344.704 156.18ZM344.704 147.88V154.12C345.624 153.947 346.337 153.587 346.844 153.04C347.35 152.48 347.604 151.8 347.604 151C347.604 150.2 347.35 149.527 346.844 148.98C346.337 148.42 345.624 148.053 344.704 147.88ZM342.584 154.12V147.88C341.677 148.053 340.964 148.42 340.444 148.98C339.937 149.527 339.684 150.2 339.684 151C339.684 151.8 339.937 152.48 340.444 153.04C340.964 153.587 341.677 153.947 342.584 154.12ZM350.247 146H358.947V148.08H355.687V156H353.527V148.08H350.247V146ZM369.678 151.92H361.718C361.878 152.667 362.238 153.247 362.798 153.66C363.371 154.073 364.078 154.28 364.918 154.28C366.051 154.28 366.911 153.867 367.498 153.04L369.278 154.08C368.304 155.533 366.844 156.26 364.898 156.26C363.284 156.26 361.971 155.767 360.958 154.78C359.958 153.78 359.458 152.52 359.458 151C359.458 149.52 359.951 148.273 360.938 147.26C361.911 146.247 363.178 145.74 364.738 145.74C366.191 145.74 367.391 146.253 368.338 147.28C369.284 148.307 369.758 149.553 369.758 151.02C369.758 151.287 369.731 151.587 369.678 151.92ZM361.698 150.16H367.578C367.431 149.373 367.098 148.767 366.578 148.34C366.071 147.913 365.451 147.7 364.718 147.7C363.918 147.7 363.251 147.92 362.718 148.36C362.184 148.8 361.844 149.4 361.698 150.16ZM375.938 150.9L380.498 156H377.918L373.818 151.38V156H371.658V146H373.818V150.42L377.698 146H380.338L375.938 150.9ZM389.071 147.42V146H391.231V156H389.071V154.56C388.257 155.693 387.091 156.26 385.571 156.26C384.197 156.26 383.024 155.753 382.051 154.74C381.077 153.727 380.591 152.48 380.591 151C380.591 149.52 381.077 148.273 382.051 147.26C383.024 146.247 384.197 145.74 385.571 145.74C387.091 145.74 388.257 146.3 389.071 147.42ZM383.651 153.3C384.251 153.9 385.004 154.2 385.911 154.2C386.817 154.2 387.571 153.9 388.171 153.3C388.771 152.687 389.071 151.92 389.071 151C389.071 150.08 388.771 149.32 388.171 148.72C387.571 148.107 386.817 147.8 385.911 147.8C385.004 147.8 384.251 148.107 383.651 148.72C383.051 149.32 382.751 150.08 382.751 151C382.751 151.907 383.051 152.673 383.651 153.3ZM401.748 146H403.948V156H401.848V149.42L398.968 154H398.708L395.848 149.44V156H393.748V146H395.948L398.848 150.62L401.748 146ZM411.164 156.26C409.657 156.26 408.397 155.753 407.384 154.74C406.384 153.713 405.884 152.467 405.884 151C405.884 149.507 406.384 148.26 407.384 147.26C408.397 146.247 409.657 145.74 411.164 145.74C412.137 145.74 413.024 145.973 413.824 146.44C414.624 146.907 415.224 147.533 415.624 148.32L413.764 149.4C413.537 148.92 413.19 148.547 412.724 148.28C412.27 148 411.744 147.86 411.144 147.86C410.264 147.86 409.524 148.16 408.924 148.76C408.337 149.373 408.044 150.12 408.044 151C408.044 151.88 408.337 152.627 408.924 153.24C409.524 153.84 410.264 154.14 411.144 154.14C411.73 154.14 412.257 154.007 412.724 153.74C413.204 153.46 413.564 153.08 413.804 152.6L415.664 153.66C415.237 154.46 414.617 155.093 413.804 155.56C413.004 156.027 412.124 156.26 411.164 156.26ZM421.563 150.9L426.123 156H423.543L419.443 151.38V156H417.283V146H419.443V150.42L423.323 146H425.963L421.563 150.9Z" fill="#111111"/>
</svg>
