<svg width="542" height="227" viewBox="0 0 542 227" fill="none" xmlns="http://www.w3.org/2000/svg">
<rect width="542" height="227" rx="25" fill="white"/>
<path d="M111.48 36.6H127.8V40.12H121.496V59H117.816V40.12H111.48V36.6ZM134.423 54.648L138.519 43H142.199L136.055 59.512C135.308 61.5387 134.263 63.0533 132.919 64.056C131.575 65.0587 130.017 65.5067 128.247 65.4V62.168C130.295 62.296 131.713 61.272 132.503 59.096L132.599 58.872L125.879 43H129.559L134.423 54.648ZM155.944 40.76H146.984V37.752H155.944V40.76ZM147.752 53.144L155.944 43H158.6V59H155.208V48.824L147.016 59H144.36V43H147.752V53.144ZM175.41 43H178.93V59H175.57V48.472L170.962 55.8H170.546L165.97 48.504V59H162.61V43H166.13L170.77 50.392L175.41 43ZM195.594 45.272V43H199.05V59H195.594V56.696C194.293 58.5093 192.426 59.416 189.994 59.416C187.797 59.416 185.92 58.6053 184.362 56.984C182.805 55.3627 182.026 53.368 182.026 51C182.026 48.632 182.805 46.6373 184.362 45.016C185.92 43.3947 187.797 42.584 189.994 42.584C192.426 42.584 194.293 43.48 195.594 45.272ZM186.922 54.68C187.882 55.64 189.088 56.12 190.538 56.12C191.989 56.12 193.194 55.64 194.154 54.68C195.114 53.6987 195.594 52.472 195.594 51C195.594 49.528 195.114 48.312 194.154 47.352C193.194 46.3707 191.989 45.88 190.538 45.88C189.088 45.88 187.882 46.3707 186.922 47.352C185.962 48.312 185.482 49.528 185.482 51C185.482 52.4507 185.962 53.6773 186.922 54.68ZM212.071 50.808C213.777 51.576 214.631 52.8453 214.631 54.616C214.631 56.0027 214.065 57.1547 212.935 58.072C211.804 58.968 210.268 59.416 208.327 59.416C205.105 59.416 202.929 58.136 201.799 55.576L204.615 53.912C205.191 55.512 206.439 56.312 208.359 56.312C209.255 56.312 209.959 56.1307 210.47 55.768C210.983 55.384 211.239 54.8827 211.239 54.264C211.239 53.7093 211.036 53.272 210.631 52.952C210.225 52.6107 209.66 52.44 208.935 52.44H206.663V49.4H208.359C209.063 49.4 209.607 49.24 209.991 48.92C210.396 48.5787 210.599 48.12 210.599 47.544C210.599 46.9893 210.375 46.5413 209.927 46.2C209.479 45.8373 208.881 45.656 208.135 45.656C206.535 45.656 205.425 46.36 204.807 47.768L201.991 46.168C203.164 43.7787 205.191 42.584 208.071 42.584C209.863 42.584 211.281 43.0427 212.327 43.96C213.393 44.856 213.927 45.9547 213.927 47.256C213.927 48.856 213.308 50.04 212.071 50.808ZM220.846 53.144L229.038 43H231.694V59H228.302V48.824L220.11 59H217.454V43H220.846V53.144ZM246.488 49.368V43H249.944V59H246.488V52.632H239.16V59H235.704V43H239.16V49.368H246.488ZM261.506 59.416C259.095 59.416 257.079 58.6053 255.458 56.984C253.858 55.3413 253.058 53.3467 253.058 51C253.058 48.6107 253.858 46.616 255.458 45.016C257.079 43.3947 259.095 42.584 261.506 42.584C263.063 42.584 264.482 42.9573 265.762 43.704C267.042 44.4507 268.002 45.4533 268.642 46.712L265.666 48.44C265.303 47.672 264.748 47.0747 264.002 46.648C263.276 46.2 262.434 45.976 261.474 45.976C260.066 45.976 258.882 46.456 257.922 47.416C256.983 48.3973 256.514 49.592 256.514 51C256.514 52.408 256.983 53.6027 257.922 54.584C258.882 55.544 260.066 56.024 261.474 56.024C262.412 56.024 263.255 55.8107 264.002 55.384C264.77 54.936 265.346 54.328 265.73 53.56L268.706 55.256C268.023 56.536 267.031 57.5493 265.73 58.296C264.45 59.0427 263.042 59.416 261.506 59.416ZM278.145 50.84L285.441 59H281.313L274.753 51.608V59H271.297V43H274.753V50.072L280.961 43H285.185L278.145 50.84ZM291.158 53.144L299.35 43H302.006V59H298.614V48.824L290.422 59H287.766V43H291.158V53.144ZM317.6 40.76H308.64V37.752H317.6V40.76ZM309.408 53.144L317.6 43H320.256V59H316.864V48.824L308.672 59H306.016V43H309.408V53.144ZM341.322 42.584C343.498 42.584 345.375 43.4053 346.954 45.048C348.511 46.6693 349.29 48.6533 349.29 51C349.29 53.368 348.511 55.3627 346.954 56.984C345.397 58.6053 343.519 59.416 341.322 59.416C338.911 59.416 337.045 58.52 335.722 56.728V65.4H332.266V43H335.722V45.304C337.023 43.4907 338.89 42.584 341.322 42.584ZM337.162 54.68C338.122 55.64 339.327 56.12 340.778 56.12C342.229 56.12 343.434 55.64 344.394 54.68C345.354 53.6987 345.834 52.472 345.834 51C345.834 49.528 345.354 48.312 344.394 47.352C343.434 46.3707 342.229 45.88 340.778 45.88C339.327 45.88 338.122 46.3707 337.162 47.352C336.202 48.312 335.722 49.528 335.722 51C335.722 52.4507 336.202 53.6773 337.162 54.68ZM365.094 45.272V43H368.55V59H365.094V56.696C363.793 58.5093 361.926 59.416 359.494 59.416C357.297 59.416 355.42 58.6053 353.862 56.984C352.305 55.3627 351.526 53.368 351.526 51C351.526 48.632 352.305 46.6373 353.862 45.016C355.42 43.3947 357.297 42.584 359.494 42.584C361.926 42.584 363.793 43.48 365.094 45.272ZM356.422 54.68C357.382 55.64 358.588 56.12 360.038 56.12C361.489 56.12 362.694 55.64 363.654 54.68C364.614 53.6987 365.094 52.472 365.094 51C365.094 49.528 364.614 48.312 363.654 47.352C362.694 46.3707 361.489 45.88 360.038 45.88C358.588 45.88 357.382 46.3707 356.422 47.352C355.462 48.312 354.982 49.528 354.982 51C354.982 52.4507 355.462 53.6773 356.422 54.68ZM384.163 40.76H375.203V37.752H384.163V40.76ZM375.971 53.144L384.163 43H386.819V59H383.427V48.824L375.235 59H372.579V43H375.971V53.144ZM404.365 56.984C402.743 58.6053 400.749 59.416 398.381 59.416C396.013 59.416 394.018 58.6053 392.397 56.984C390.754 55.3413 389.933 53.3467 389.933 51C389.933 48.6533 390.754 46.6587 392.397 45.016C394.018 43.3947 396.013 42.584 398.381 42.584C400.749 42.584 402.743 43.3947 404.365 45.016C406.007 46.6587 406.829 48.6533 406.829 51C406.829 53.3467 406.007 55.3413 404.365 56.984ZM393.389 51C393.389 52.4507 393.869 53.656 394.829 54.616C395.789 55.576 396.973 56.056 398.381 56.056C399.789 56.056 400.973 55.576 401.933 54.616C402.893 53.656 403.373 52.4507 403.373 51C403.373 49.5493 402.893 48.344 401.933 47.384C400.973 46.424 399.789 45.944 398.381 45.944C396.973 45.944 395.789 46.424 394.829 47.384C393.869 48.344 393.389 49.5493 393.389 51ZM420.738 49.368V43H424.194V59H420.738V52.632H413.41V59H409.954V43H413.41V49.368H420.738Z" fill="#111111"/>
<path d="M52.2084 151.178C54.9872 146.74 55.5877 135.721 46.7051 131.182C40.256 127.887 32.2612 129.445 27.5647 134.865C25.6702 137.052 24.1091 139.635 23.5473 143.122C22.2068 151.444 27.4689 161.356 40.7301 159.173C47.2824 158.095 50.3592 154.132 52.2084 151.178ZM30.6665 160.509C13.7168 152.362 23.0084 122.691 46.5775 128.845C60.0161 132.354 63.3469 149.246 54.058 157.79C48.9361 162.5 38.6666 164.354 30.6665 160.509Z" fill="#EF7F1A"/>
<path fill-rule="evenodd" clip-rule="evenodd" d="M38.1745 142.379C38.1745 142.379 38.4225 135.503 38.4555 132.382C38.4972 128.438 49.9308 132.133 47.0333 135.505C44.3449 138.008 41.8913 140.316 39.2254 142.888C38.2839 143.796 38.169 143.099 38.1745 142.379Z" fill="#EF7F1A"/>
<path fill-rule="evenodd" clip-rule="evenodd" d="M39.4648 143.171C39.7263 142.943 43.9783 139.088 47.1139 136.365C51.1976 132.817 54.8993 144.897 49.8896 144.721L39.8429 144.368C39.1347 144.335 38.3789 144.117 39.4648 143.171Z" fill="#EF7F1A"/>
<path fill-rule="evenodd" clip-rule="evenodd" d="M39.9321 144.681C42.2676 144.801 46.6142 145.089 49.8 145.282C53.7057 145.518 51.8669 149.862 50.2851 152.044C48.1496 154.989 45.68 154.636 44.3072 152.75C42.5295 150.35 40.8331 148.059 39.0961 145.714C38.3137 144.658 38.6987 144.61 39.9321 144.681Z" fill="#EF7F1A"/>
<path fill-rule="evenodd" clip-rule="evenodd" d="M37.0669 146.554C36.6351 147.949 35.4594 151.661 34.2594 154.95C32.992 158.423 36.9268 158.961 41.1568 158.111C45.3072 157.276 44.9503 155.013 43.6844 153.206L38.7094 146.103C37.7297 144.554 37.3921 145.504 37.0669 146.554Z" fill="#EF7F1A"/>
<path fill-rule="evenodd" clip-rule="evenodd" d="M37.8954 142.481C37.8954 142.481 37.8477 137.201 37.8342 132.996C37.8183 127.973 25.9479 134.75 29.6832 137.692L36.6623 143.188C37.5475 143.885 37.8953 143.317 37.8954 142.481Z" fill="#EF7F1A"/>
<path fill-rule="evenodd" clip-rule="evenodd" d="M36.2116 143.43C36.2116 143.43 31.2004 139.564 29.0396 137.878C25.5282 135.137 22.2754 148.619 26.5583 147.351L36.0187 144.549C36.8823 144.305 36.8496 143.932 36.2116 143.43Z" fill="#EF7F1A"/>
<path fill-rule="evenodd" clip-rule="evenodd" d="M36.6573 146.149C35.9834 148.118 34.5655 152.576 33.2186 155.765C32.4121 157.674 29.3645 156.565 27.3353 154.154C25.5418 152.023 24.1073 148.7 27.1398 147.769L35.8309 145.101C37.374 144.628 37.0533 144.991 36.6573 146.149Z" fill="#EF7F1A"/>
<path fill-rule="evenodd" clip-rule="evenodd" d="M92.7166 144.238C92.7166 144.737 92.7285 145.225 92.8549 145.687C92.9979 146.212 93.2788 146.704 93.706 147.115C94.2451 147.635 95.0435 148.009 95.9833 148.009C97.16 148.009 97.8397 147.579 98.404 147.251C98.9685 146.925 100.112 146.272 101.18 145.708C102.249 145.144 103.69 144.416 103.69 144.416C103.69 144.416 103.527 145.07 103.63 145.678C103.734 146.287 103.957 146.956 104.655 147.46C105.352 147.965 106.169 148.068 106.823 148.009C107.476 147.95 108.158 147.667 108.635 147.193C109.108 146.717 109.391 145.93 109.628 145.173C109.866 144.416 110.698 141.918 110.698 141.918C110.698 141.918 111.982 145.775 112.289 146.332C112.596 146.889 113.224 148.005 114.883 148.005C116.544 148.005 117.417 146.786 117.417 146.786C117.417 146.786 118.26 147.981 119.855 148.013C121.448 148.044 122.918 147.345 124.86 146.021C126.801 144.696 127.952 142.867 127.952 142.867C127.952 142.867 128.275 143.845 128.541 144.38C128.809 144.914 129.231 145.815 130.555 146.85C131.88 147.885 133.348 148.062 134.383 148.029C135.418 147.995 136.752 147.785 138.032 146.984C139.311 146.182 140.268 144.903 140.268 144.903C140.268 144.903 140.313 145.87 140.736 146.706C141.158 147.54 142.148 147.995 143.227 147.995C144.306 147.995 144.952 147.551 145.252 147.239C145.552 146.928 145.864 146.327 146.166 145.782C146.464 145.236 147.451 143.444 147.451 143.444C147.451 143.444 147.499 144.703 147.558 145.122C147.615 145.542 147.765 146.435 148.296 147.045C148.827 147.656 149.459 147.859 149.826 147.929C150.192 147.997 150.787 148.114 151.441 147.88C152.095 147.646 152.45 147.396 152.765 147.051C153.078 146.706 153.144 146.513 153.27 146.207C153.464 146.744 153.739 147.083 154.078 147.386C154.602 147.859 155.347 148.007 155.836 148.007C156.324 148.007 156.813 147.965 157.328 147.69C157.843 147.412 158.242 147.163 158.625 146.499C159.008 145.835 159.056 145.196 159.065 144.756C159.076 144.315 159.024 143.746 159.004 143.385C158.981 143.024 158.949 142.094 158.949 142.094L160.087 141.467C160.087 141.467 160.102 143.141 160.102 143.629C160.102 144.118 160.071 144.889 160.235 145.553C160.399 146.217 160.697 146.828 161.351 147.354C162.004 147.88 162.68 148.002 163.13 148.002C163.583 148.002 164.22 147.96 164.81 147.551C165.399 147.142 165.633 146.855 165.91 146.382C166.186 145.908 166.278 145.419 166.33 144.783C166.382 144.145 166.271 143.044 166.208 142.21C166.144 141.376 166.06 140.267 166.005 139.41C165.952 138.555 165.937 137.339 165.931 136.445C165.926 135.553 165.963 134.219 166.001 133.444C166.038 132.667 165.958 132.077 165.671 131.584C165.385 131.089 164.736 130.292 163.301 130.292C161.865 130.292 161.111 131.16 160.741 131.812C160.368 132.465 160.278 133.219 160.219 133.746C160.16 134.272 160.123 135.138 160.123 135.138C160.123 135.138 159.922 135.266 159.55 135.456C159.178 135.649 158.865 135.812 158.865 135.812C158.865 135.812 158.956 135.047 159.079 134.305C159.202 133.566 159.218 132.78 158.894 131.917C158.57 131.053 157.868 130.49 156.875 130.329C155.882 130.169 154.996 130.613 154.631 130.899C154.269 131.185 153.9 131.608 153.699 131.931C153.499 132.256 153.391 132.58 153.391 132.58C153.391 132.58 153.353 131.966 152.957 131.387C152.563 130.807 152.053 130.575 151.393 130.378C150.731 130.181 149.896 130.308 149.386 130.541C148.876 130.772 148.423 131.294 148.099 131.758C147.775 132.221 147.138 133.161 146.824 133.624C146.511 134.088 146.059 134.819 146.059 134.819C146.059 134.819 146.059 133.996 146.07 133.346C146.082 132.698 145.861 131.978 145.514 131.468C145.165 130.958 144.551 130.575 143.937 130.402C143.322 130.227 142.429 130.239 141.709 130.575C140.991 130.911 140.643 131.422 140.341 131.99C140.039 132.557 140.005 133.056 140.039 133.81C140.075 134.564 140.156 135.364 140.168 136.373C140.179 137.382 140.202 138.912 140.202 138.912C140.202 138.912 139.658 138.645 138.881 138.796C138.104 138.946 137.826 139.214 137.559 139.481C137.292 139.748 136.979 140.303 136.724 140.734C136.469 141.162 136.167 141.579 135.645 141.8C135.124 142.02 134.578 141.951 134.242 141.603C133.906 141.255 133.57 140.513 133.523 139.573C133.478 138.634 133.511 138.077 133.917 137.172C134.323 136.268 135.112 135.852 135.633 135.782C136.156 135.712 136.527 135.828 137.036 135.852C137.547 135.874 138.139 135.77 138.567 135.468C138.996 135.167 139.356 134.634 139.507 134.123C139.658 133.613 139.727 132.569 139.182 131.7C138.637 130.83 137.489 130.435 136.608 130.32C135.727 130.205 134.335 130.285 133.025 130.866C131.714 131.445 130.88 132.07 129.858 133.358C128.839 134.646 128.224 136.257 128.224 136.257C128.224 136.257 127.538 135.155 125.95 134.596C124.362 134.04 122.417 134.566 122.417 134.566C122.417 134.566 122.417 133.198 122.112 132.221C121.806 131.243 120.935 130.307 119.419 130.307C117.904 130.307 117.116 131.358 116.865 131.958C116.611 132.557 116.538 133.43 116.579 134.208C116.622 134.987 116.666 136.15 116.689 137.74C116.714 139.327 116.714 140.774 116.714 140.774C116.714 140.774 115.646 137.858 114.768 135.557C113.89 133.256 113.251 131.53 112.301 130.843C111.741 130.436 111.188 130.288 110.606 130.291C109.873 130.292 109.199 130.535 108.682 130.956C108.017 131.493 107.736 132.282 107.681 132.744C107.613 133.337 107.748 133.802 107.748 133.802C107.748 133.802 106.852 135.762 106.31 137.03C105.769 138.299 105.306 139.515 105.306 139.515C105.306 139.515 105.095 139.343 104.658 139.132C104.222 138.921 103.8 138.934 103.8 138.934C103.8 138.934 104.817 138.406 104.831 136.82C104.844 135.233 103.694 134.718 103.694 134.718C103.694 134.718 104.735 134.058 104.745 132.624C104.756 131.189 103.574 130.461 102.696 130.326C101.818 130.192 100.506 130.518 100.506 130.518L96.9732 131.369C96.9732 131.369 96.233 130.851 95.0912 131.028C93.9522 131.207 93.3608 131.946 93.3608 131.946C93.3608 131.946 93.209 131.232 92.4028 130.711C91.5972 130.189 90.8403 130.263 89.8447 130.335C88.8493 130.405 86.3927 130.868 85.3735 131.081C84.3544 131.294 83.7989 131.411 83.7989 131.411C83.7989 131.411 83.1775 131.08 82.4113 131.08C81.6458 131.08 81.052 131.351 80.5832 131.759C80.1131 132.167 79.9282 132.735 79.9282 132.735C79.9282 132.735 79.2234 132.896 78.5194 133.563C77.8148 134.23 77.7165 134.786 77.6542 135.071C77.5929 135.356 77.5811 135.837 77.5811 135.837C77.5811 135.837 77.2818 135.746 76.8427 135.788C76.4035 135.829 76.0953 135.952 76.0953 135.952C76.0953 135.952 75.6094 134.636 75.1139 133.434C74.6189 132.232 74.1099 131.284 73.4316 130.819C72.7526 130.351 72.1558 130.202 71.3986 130.281C70.6424 130.358 69.9266 130.878 69.5844 131.41C69.1815 132.032 69.0775 132.699 69.1326 133.194C68.7002 134.09 67.7171 136.273 66.7137 138.934C65.711 141.593 65.0326 143.375 64.8743 144.415C64.7172 145.458 64.7138 146.149 65.5021 147.096C65.9832 147.674 66.773 148 67.5387 148.004C68.0478 148.005 68.5104 147.93 68.8923 147.758C69.8707 147.315 70.2839 146.593 70.5064 145.941C70.7305 145.289 70.8526 144.827 70.8526 144.827L72.4574 143.88C72.4574 143.88 72.7728 144.787 73.1423 145.681C73.3365 146.151 73.6065 146.557 73.8617 146.855C74.4722 147.572 75.3038 148.066 76.391 148.007C77.0144 147.973 77.678 147.747 78.1634 147.339C79.1029 146.549 79.1323 145.3 79.0869 144.728C79.0288 144.008 77.8438 140.666 77.8236 140.594C78.1589 140.358 78.3967 140.227 78.874 139.631C79.3507 139.036 79.3376 138.596 79.4091 138.378C79.4216 139.087 79.4062 141.838 79.4846 143.395C79.5606 144.951 79.6549 146.591 80.7292 147.349C81.8011 148.106 82.1774 147.98 82.8748 147.98C83.5713 147.98 84.6096 147.505 85.1477 146.528C85.3966 146.072 85.4611 145.505 85.4817 144.95C85.5064 144.309 85.4652 143.684 85.4304 143.245C85.3686 142.424 85.2109 136.868 85.2109 136.868L85.8735 136.649C85.8735 136.649 85.9997 140.751 86.1249 142.867C86.2514 144.981 86.3298 146.134 87.0516 146.993C87.3429 147.339 87.6292 147.548 87.9276 147.699C88.3775 147.929 88.8362 148.011 89.4079 148.011C90.3586 148.011 91.3876 147.444 91.8603 146.591C92.0201 146.304 92.1777 145.941 92.2228 145.543C92.3127 144.758 92.1644 143.841 92.1217 143.15C92.0595 142.109 91.9018 138.668 91.9018 137.216C91.9018 135.764 91.9341 135.134 91.9341 135.134C92.149 135.047 92.3577 134.927 92.557 134.774C92.5723 135.372 92.6275 137.785 92.691 140.341C92.754 142.897 92.7166 144.238 92.7166 144.238ZM161.768 135.761C161.807 134.313 161.885 133.429 162.057 132.915C162.267 132.286 162.713 131.954 163.28 131.954C163.666 131.954 163.919 132.033 164.123 132.254C164.31 132.457 164.372 132.794 164.35 133.216C164.199 136.101 164.258 138.968 164.513 141.86C164.583 142.669 164.678 143.648 164.683 144.458C164.687 145.125 164.562 145.494 164.28 145.831C163.998 146.169 163.641 146.347 163.217 146.347C162.813 146.347 162.429 146.18 162.156 145.819C161.884 145.455 161.783 145.044 161.774 144.326C161.753 142.637 161.756 141.214 161.727 139.527C161.721 139.195 161.719 138.862 161.721 138.526C161.59 138.61 161.452 138.696 161.311 138.787C159.286 140.06 158.556 140.421 157.24 141.123C157.289 142.154 157.315 142.966 157.346 143.559C157.382 144.288 157.594 145.34 156.974 145.943C156.696 146.212 156.331 146.347 155.878 146.347C155.463 146.347 155.128 146.195 154.94 145.877C154.697 145.466 154.65 144.761 154.622 143.785C154.515 139.98 154.539 138.748 154.567 136.062C154.58 134.758 154.706 133.812 154.976 133.1C155.096 132.786 155.3 132.498 155.558 132.289C155.812 132.081 156.121 131.953 156.454 131.953C156.769 131.953 157.041 132.051 157.228 132.322C157.482 132.689 157.52 133.01 157.513 133.572C157.505 134.007 157.252 135.023 157.205 135.758C157.153 136.538 157.147 137.457 157.16 138.373C158.409 137.826 159.158 137.606 160.982 136.563C160.982 136.563 161.34 136.356 161.76 136.117C161.764 135.998 161.766 135.879 161.768 135.761ZM149.625 132.473C149.652 132.43 149.684 132.388 149.715 132.35C149.723 132.338 149.732 132.326 149.74 132.315C149.741 132.315 149.741 132.316 149.741 132.317C149.935 132.101 150.212 131.954 150.601 131.954C151.199 131.954 151.762 132.191 151.731 132.847C151.706 133.41 151.629 134.165 151.615 134.651C151.528 137.759 151.551 140.6 151.658 143.606C151.666 144.734 151.802 145.109 151.708 145.605C151.627 146.035 151.033 146.347 150.619 146.347C150.207 146.347 149.733 146.255 149.519 145.903C149.332 145.594 149.224 145.232 149.184 144.718C149.124 143.962 149.105 143.217 149.089 142.459C149.078 142.02 149.117 140.205 149.202 136.984C148.068 138.942 147.238 140.346 146.154 142.344C145.591 143.382 145.017 144.415 144.406 145.422C144.292 145.937 144.001 146.326 143.255 146.332C142.772 146.335 142.359 146.248 142.132 145.782C141.962 145.434 141.903 144.919 141.912 144.442C141.892 142.436 141.874 140.43 141.854 138.425C141.848 138.01 141.843 136.459 141.813 136.039C141.783 135.618 141.765 135.153 141.753 134.722C141.728 133.791 141.593 133.323 141.808 132.78C142.026 132.234 142.454 131.954 143.049 131.954C143.537 131.954 143.775 132.076 144.061 132.337C144.546 132.782 144.374 133.916 144.404 135.215C144.393 136.967 144.382 138.426 144.417 140.33C144.422 140.324 144.425 140.318 144.429 140.314C144.431 140.453 144.433 140.596 144.434 140.738C146.139 137.936 147.689 135.146 149.625 132.473ZM139.978 141.181C139.824 142.436 139.233 143.68 138.37 144.557C137.241 145.712 136.025 146.367 134.074 146.367C133.006 146.367 132.068 145.97 131.265 145.271C129.774 143.968 129.233 141.833 129.238 139.922C129.242 138.23 129.67 136.675 130.587 135.215C131.193 134.25 131.877 133.496 132.648 132.956C133.581 132.302 134.728 131.93 135.87 131.935C136.265 131.937 136.585 131.979 136.9 132.085C137.458 132.273 137.817 132.495 137.908 132.874C138.024 133.36 137.942 134.146 137.299 134.189C136.886 134.217 136.695 134.083 136.048 134.083C135.497 134.083 135.056 134.193 134.594 134.381C133.806 134.703 133.157 135.275 132.641 136.087C132.099 136.94 131.836 137.93 131.836 139.02C131.837 140.342 132.17 141.869 133.153 142.816C133.668 143.313 134.316 143.567 135.029 143.567C135.711 143.567 136.358 143.364 136.925 142.986C137.336 142.712 137.806 142.17 138.365 141.203C138.632 140.744 138.797 140.418 139.341 140.417C139.893 140.417 140.026 140.794 139.978 141.181ZM120.988 139.27C121.013 140.72 120.935 142.188 120.909 143.708C122.422 142.936 123.397 142.158 123.912 141.63C124.431 141.1 125.011 140.271 125.011 139.137C125.011 138.645 124.71 138.142 124.007 138.142C123.529 138.142 123.085 138.232 122.479 138.465C121.873 138.695 121.534 138.923 120.988 139.27ZM118.348 144.308C118.405 141.009 118.401 137.74 118.259 134.54C118.211 133.782 118.226 133.264 118.29 132.917C118.396 132.33 118.874 131.954 119.493 131.954C119.985 131.954 120.345 132.26 120.53 132.738C120.713 133.215 120.8 134.568 120.832 136.839C121.909 136.361 123.167 135.993 124.391 135.993C126.024 135.993 127.428 137.248 127.43 138.901C127.43 140.248 126.92 141.593 126.129 142.57C125.228 143.68 124.509 144.277 122.898 145.32C122.204 145.77 120.944 146.348 119.951 146.347C119.478 146.346 119.128 146.187 118.877 145.937C118.486 145.542 118.337 144.921 118.348 144.308ZM109.429 133.524C109.357 133.377 109.325 133.226 109.325 133.078C109.322 132.775 109.454 132.494 109.656 132.318C109.906 132.103 110.29 131.954 110.523 131.954C110.959 131.954 111.297 132.028 111.614 132.524C111.962 133.068 112.479 134.163 113.237 136.195C113.779 137.648 114.32 139.101 114.862 140.556C115.537 142.393 115.977 143.677 116.114 144.092C116.251 144.505 116.321 144.815 116.321 145.021C116.321 145.406 116.183 145.723 115.914 145.967C115.641 146.212 115.293 146.347 114.953 146.347C114.639 146.347 114.374 146.267 114.155 146.113C113.934 145.958 113.697 145.501 113.433 144.745C113.271 144.284 113.108 143.82 112.946 143.359C112.316 141.522 111.721 139.636 111.087 137.767C110.962 137.396 110.84 137.037 110.717 136.685C110.666 136.829 110.61 136.995 110.544 137.192C109.771 139.497 108.383 143.563 108.119 144.434C107.929 145.062 107.685 145.829 107.39 146.079C107.179 146.259 106.913 146.347 106.533 146.347C106.233 146.347 105.908 146.31 105.656 146.132C105.385 145.941 105.271 145.616 105.271 145.153C105.271 144.539 105.899 142.767 106.251 141.73C106.998 139.531 107.903 137.533 108.821 135.455C109.149 134.711 109.397 134.226 109.592 133.865C109.539 133.75 109.485 133.636 109.429 133.524ZM96.8968 143.214C98.7088 142.261 100.536 141.546 102.059 140.949C102.543 140.76 103.088 140.58 103.523 140.58C104.169 140.58 104.504 140.92 104.504 141.516C104.506 141.989 104.118 142.292 103.805 142.464C101.916 143.497 99.4282 144.663 97.4284 145.901C97.0483 146.136 96.6701 146.35 95.8801 146.347C95.0839 146.342 94.4107 145.668 94.3961 144.871C94.323 141.278 94.3149 138.196 94.2155 134.433C94.1949 133.552 94.5289 132.65 95.5227 132.65C95.9207 132.65 96.3094 132.797 96.4864 133.211C97.8202 132.857 99.3038 132.545 100.694 132.202C101.187 132.079 101.646 131.954 102.183 131.954C102.916 131.954 103.067 132.318 103.067 132.709C103.067 133.324 102.425 133.54 101.983 133.695C100.299 134.284 98.4302 134.832 96.76 135.392C96.7609 136.32 96.8128 136.928 96.8111 137.946C97.6332 137.565 98.267 137.36 98.95 137.062C99.7162 136.731 101.754 136.049 102.419 136.049C102.904 136.049 103.187 136.383 103.187 136.723C103.189 137.346 102.991 137.525 102.437 137.831C101.804 138.181 100.743 138.577 100.2 138.846C99.0807 139.398 97.9705 139.869 96.8471 140.474C96.8657 141.341 96.8952 142.201 96.8968 143.214ZM83.5788 135.697C83.5719 137.177 83.6135 138.859 83.633 140.58C83.6517 142.198 83.9232 143.871 83.7866 145.294C83.7171 146.013 83.2407 146.347 82.6167 146.347C82.1962 146.347 81.6256 146.135 81.4288 145.523C81.32 145.184 81.0623 143.78 81.0756 140.211C81.0824 139.04 81.0867 137.868 81.0914 136.697C80.7774 136.809 80.45 136.876 80.1232 136.848C79.6036 136.801 79.2342 136.205 79.238 135.687C79.2421 134.917 79.876 134.515 80.4929 134.273C80.7774 134.163 81.0359 134.063 81.2776 133.97C81.316 133.773 81.3505 133.639 81.3758 133.563C81.5721 132.952 81.9755 132.74 82.3956 132.74C82.8352 132.741 83.1681 132.908 83.3703 133.254C84.1129 133.043 84.9309 132.861 86.1918 132.609C87.7938 132.288 89.6968 131.933 90.8437 131.956C91.24 131.965 91.8229 132.053 91.8229 132.778C91.8229 133.561 91.2585 133.683 90.2819 133.874C90.2721 134.52 90.2692 135.126 90.2711 135.737C90.2763 138.966 90.3067 140.88 90.3662 141.647C90.4396 142.585 90.5537 144.09 90.5923 145.107C90.6205 145.847 89.9866 146.346 89.3354 146.348C88.462 146.352 88.0748 145.854 87.9287 144.784C87.8283 144.052 87.6831 142.015 87.6025 138.986C87.5723 137.89 87.5323 136.634 87.5211 135.282C87.5185 134.972 87.5292 134.707 87.5521 134.491C86.4896 134.755 85.4495 135.048 84.3623 135.408C84.1013 135.504 83.8399 135.601 83.5788 135.697ZM70.8497 133.478C70.8074 133.287 70.7824 133.104 70.7824 132.934C70.7824 132.26 71.3187 131.909 71.7393 131.922C72.1944 131.934 72.4713 132.092 72.7867 132.52C73.0926 132.937 73.528 133.79 74.2989 135.901C74.5734 136.653 74.9122 137.419 75.2081 138.197C75.9694 137.795 76.4143 137.581 76.7248 137.49C77.1886 137.356 77.7468 137.499 77.7468 138.093C77.7468 138.475 77.4502 138.793 77.1995 138.991C77.0057 139.142 76.3745 139.563 75.8251 139.916C75.904 140.132 75.9832 140.347 76.0627 140.564C76.6798 142.412 77.0822 143.643 77.2878 144.279C77.3823 144.568 77.4368 144.874 77.4368 145.158C77.4368 145.813 77.0969 146.347 76.1439 146.347C75.5147 146.347 75.0449 145.778 74.7958 145.279C74.5086 144.708 74.0966 143.587 73.4574 141.679C73.4249 141.583 73.3931 141.487 73.3602 141.39C72.8218 141.715 72.2904 142.04 71.742 142.369C70.9862 142.821 70.2211 143.265 69.4549 143.712C69.3749 143.973 69.2965 144.228 69.2218 144.477C69.0472 145.049 68.9056 145.633 68.6482 145.922C68.4201 146.177 68.0789 146.347 67.6331 146.347C66.9566 146.346 66.4522 145.902 66.4522 145.232C66.4515 144.954 66.5033 144.654 66.579 144.336C66.6338 144.106 67.4202 141.358 69.9264 135.452C70.3496 134.454 70.6513 133.863 70.8497 133.478ZM70.3422 140.862C71.126 140.4 71.9392 139.953 72.7472 139.517C72.4081 138.446 72.0775 137.4 71.7547 136.313C71.5017 137.093 71.2304 137.832 70.9832 138.719C70.8248 139.29 70.5965 140.04 70.3422 140.862Z" fill="#EF7F1A"/>
<path fill-rule="evenodd" clip-rule="evenodd" d="M68.7511 151.974L137.516 151.953C137.303 152.002 137.101 152.068 136.909 152.152C136.456 152.351 136.068 152.636 135.748 153.008C135.426 153.38 135.179 153.828 135.006 154.353C134.833 154.878 134.746 155.461 134.746 156.103C134.746 157.469 135.05 158.498 135.656 159.191C136.236 159.853 137.059 160.199 138.127 160.228L68.7511 160.22C66.8976 160.224 65.3809 158.862 65.3809 157.009V155.473C65.3809 153.619 66.8975 151.978 68.7511 151.974Z" fill="#EF7F1A"/>
<path d="M141.874 158.546C142.184 158.546 142.494 158.507 142.804 158.43C143.114 158.352 143.371 158.265 143.574 158.168C143.681 158.12 143.756 158.105 143.799 158.125C143.843 158.144 143.879 158.192 143.908 158.27L144.272 159.113C144.368 159.268 144.339 159.389 144.184 159.476C143.787 159.699 143.359 159.846 142.898 159.919C142.438 159.992 142.01 160.028 141.612 160.028C140.528 160.028 139.697 159.699 139.12 159.04C138.544 158.381 138.256 157.403 138.256 156.105C138.256 155.495 138.338 154.94 138.503 154.441C138.668 153.942 138.902 153.516 139.208 153.162C139.513 152.809 139.881 152.538 140.312 152.349C140.743 152.16 141.23 152.065 141.772 152.065C142.17 152.065 142.555 152.107 142.928 152.189C143.3 152.271 143.652 152.4 143.981 152.574C144.068 152.622 144.121 152.671 144.141 152.719C144.16 152.768 144.146 152.84 144.097 152.937L143.734 153.794C143.695 153.872 143.654 153.92 143.61 153.94C143.567 153.959 143.487 153.945 143.371 153.896C143.138 153.809 142.896 153.734 142.644 153.671C142.392 153.608 142.126 153.577 141.845 153.577C141.516 153.577 141.232 153.647 140.995 153.787C140.758 153.928 140.564 154.114 140.414 154.347C140.264 154.579 140.155 154.848 140.087 155.153C140.019 155.458 139.985 155.775 139.985 156.105C139.985 156.444 140.014 156.761 140.072 157.057C140.13 157.352 140.23 157.611 140.37 157.834C140.511 158.057 140.702 158.231 140.944 158.357C141.186 158.483 141.496 158.546 141.874 158.546ZM144.693 152.472C144.693 152.366 144.712 152.3 144.751 152.276C144.79 152.252 144.858 152.24 144.955 152.24H146.102C146.209 152.24 146.282 152.252 146.32 152.276C146.359 152.3 146.378 152.366 146.378 152.472V157.471H146.437L147.338 156.018C147.396 155.93 147.459 155.829 147.526 155.713C147.594 155.596 147.701 155.424 147.846 155.197C147.991 154.969 148.185 154.661 148.427 154.274C148.67 153.887 148.994 153.368 149.401 152.719C149.527 152.535 149.638 152.409 149.735 152.341C149.832 152.274 149.997 152.24 150.229 152.24H150.752C150.975 152.24 151.152 152.293 151.283 152.4C151.413 152.506 151.479 152.685 151.479 152.937V159.636C151.479 159.742 151.459 159.808 151.421 159.832C151.382 159.856 151.314 159.868 151.217 159.868H150.055C149.958 159.868 149.89 159.856 149.851 159.832C149.813 159.808 149.793 159.742 149.793 159.636V154.724H149.706L148.834 156.119L146.727 159.389C146.601 159.583 146.483 159.711 146.371 159.774C146.26 159.837 146.102 159.868 145.899 159.868H145.405C144.93 159.868 144.693 159.636 144.693 159.171V152.472ZM156.07 153.649V159.578C156.07 159.704 156.049 159.784 156.005 159.817C155.962 159.851 155.879 159.868 155.763 159.868H154.707C154.591 159.868 154.506 159.849 154.458 159.81C154.409 159.771 154.385 159.694 154.385 159.578V153.649H152.249C152.133 153.649 152.055 153.625 152.016 153.577C151.978 153.528 151.958 153.455 151.958 153.359V152.559C151.958 152.453 151.975 152.373 152.009 152.32C152.043 152.266 152.123 152.24 152.249 152.24H158.279C158.405 152.24 158.485 152.266 158.519 152.32C158.553 152.373 158.57 152.453 158.57 152.559V153.359C158.57 153.455 158.55 153.528 158.512 153.577C158.473 153.625 158.395 153.649 158.279 153.649H156.07ZM159.035 152.472C159.035 152.366 159.054 152.3 159.093 152.276C159.132 152.252 159.199 152.24 159.296 152.24H160.444C160.551 152.24 160.623 152.252 160.662 152.276C160.701 152.3 160.72 152.366 160.72 152.472V157.471H160.778L161.679 156.018C161.737 155.93 161.8 155.829 161.868 155.713C161.936 155.596 162.043 155.424 162.188 155.197C162.333 154.969 162.527 154.661 162.769 154.274C163.011 153.887 163.336 153.368 163.743 152.719C163.869 152.535 163.98 152.409 164.077 152.341C164.174 152.274 164.338 152.24 164.571 152.24H165.094C165.317 152.24 165.494 152.293 165.624 152.4C165.755 152.506 165.821 152.685 165.821 152.937V159.636C165.821 159.742 165.801 159.808 165.763 159.832C165.724 159.856 165.656 159.868 165.559 159.868H164.397C164.3 159.868 164.232 159.856 164.193 159.832C164.154 159.808 164.135 159.742 164.135 159.636V154.724H164.048L163.176 156.119L161.069 159.389C160.943 159.583 160.824 159.711 160.713 159.774C160.602 159.837 160.444 159.868 160.241 159.868H159.747C159.272 159.868 159.035 159.636 159.035 159.171V152.472Z" fill="#EF7F1A"/>
<path d="M169.355 128C170.085 128 170.746 128.296 171.225 128.775H171.225C171.704 129.253 172 129.914 172 130.645C172 131.374 171.704 132.036 171.225 132.514L171.225 132.515C170.746 132.993 170.085 133.289 169.355 133.289C168.625 133.289 167.963 132.993 167.485 132.515V132.514C167.007 132.036 166.71 131.374 166.71 130.645C166.71 129.914 167.006 129.253 167.485 128.775C167.963 128.296 168.625 128 169.355 128ZM170.974 129.026C170.56 128.612 169.987 128.356 169.355 128.356C168.723 128.356 168.151 128.612 167.736 129.026C167.322 129.44 167.066 130.013 167.066 130.645C167.066 131.277 167.322 131.849 167.736 132.264L167.736 132.263C168.151 132.677 168.723 132.934 169.355 132.934C169.987 132.934 170.56 132.678 170.974 132.264C171.388 131.849 171.644 131.277 171.644 130.645C171.644 130.013 171.388 129.44 170.974 129.026L170.974 129.026Z" fill="#EF7F1A"/>
<path d="M170.166 130.654C170.27 130.7 170.344 130.766 170.387 130.85C170.43 130.935 170.465 131.031 170.493 131.138L170.728 132.06C170.734 132.078 170.734 132.101 170.726 132.127C170.718 132.153 170.696 132.166 170.659 132.166H170.175C170.141 132.166 170.106 132.162 170.069 132.154C170.032 132.147 170.006 132.12 169.991 132.074L169.788 131.258C169.748 131.108 169.689 131.003 169.611 130.945C169.532 130.886 169.424 130.857 169.286 130.857H168.839V132.069C168.839 132.112 168.833 132.139 168.82 132.15C168.808 132.161 168.779 132.166 168.733 132.166H168.24C168.203 132.166 168.176 132.159 168.159 132.145C168.142 132.131 168.134 132.106 168.134 132.069V129.217C168.134 129.124 168.152 129.055 168.189 129.007C168.226 128.959 168.3 128.936 168.41 128.936H169.539C169.874 128.936 170.133 129.02 170.316 129.189C170.499 129.358 170.59 129.585 170.59 129.871C170.59 130.028 170.553 130.175 170.479 130.313C170.406 130.452 170.3 130.558 170.161 130.631L170.166 130.654ZM169.871 129.917C169.871 129.877 169.865 129.836 169.853 129.793C169.84 129.75 169.82 129.71 169.79 129.675C169.761 129.64 169.721 129.611 169.668 129.588C169.616 129.564 169.55 129.553 169.47 129.553H168.844V130.29H169.456C169.591 130.29 169.694 130.256 169.765 130.187C169.836 130.117 169.871 130.028 169.871 129.917Z" fill="#EF7F1A"/>
<path d="M206.1 113H203.8V103.5L197.2 113H195.4V99H197.7V108.5L204.3 99H206.1V113ZM208.896 99H219.196V113H216.896V101.2H211.196V113H208.896V99ZM227.002 99H232.162C233.482 99 234.582 99.44 235.462 100.32C236.355 101.2 236.802 102.293 236.802 103.6C236.802 104.893 236.355 105.987 235.462 106.88C234.582 107.76 233.482 108.2 232.162 108.2H229.302V113H227.002V99ZM229.302 106.04H232.162C232.842 106.04 233.402 105.813 233.842 105.36C234.282 104.893 234.502 104.307 234.502 103.6C234.502 102.893 234.282 102.313 233.842 101.86C233.402 101.393 232.842 101.16 232.162 101.16H229.302V106.04ZM247.615 108.92H239.655C239.815 109.667 240.175 110.247 240.735 110.66C241.309 111.073 242.015 111.28 242.855 111.28C243.989 111.28 244.849 110.867 245.435 110.04L247.215 111.08C246.242 112.533 244.782 113.26 242.835 113.26C241.222 113.26 239.909 112.767 238.895 111.78C237.895 110.78 237.395 109.52 237.395 108C237.395 106.52 237.889 105.273 238.875 104.26C239.849 103.247 241.115 102.74 242.675 102.74C244.129 102.74 245.329 103.253 246.275 104.28C247.222 105.307 247.695 106.553 247.695 108.02C247.695 108.287 247.669 108.587 247.615 108.92ZM239.635 107.16H245.515C245.369 106.373 245.035 105.767 244.515 105.34C244.009 104.913 243.389 104.7 242.655 104.7C241.855 104.7 241.189 104.92 240.655 105.36C240.122 105.8 239.782 106.4 239.635 107.16ZM256.836 101.6H251.236V99.72H256.836V101.6ZM251.716 109.34L256.836 103H258.496V113H256.376V106.64L251.256 113H249.596V103H251.716V109.34ZM267.742 106.98V103H269.902V113H267.742V109.02H263.162V113H261.002V103H263.162V106.98H267.742ZM272.408 103H279.108V105.08H274.568V113H272.408V103ZM288.102 104.42V103H290.262V113H288.102V111.56C287.289 112.693 286.122 113.26 284.602 113.26C283.229 113.26 282.055 112.753 281.082 111.74C280.109 110.727 279.622 109.48 279.622 108C279.622 106.52 280.109 105.273 281.082 104.26C282.055 103.247 283.229 102.74 284.602 102.74C286.122 102.74 287.289 103.3 288.102 104.42ZM282.682 110.3C283.282 110.9 284.035 111.2 284.942 111.2C285.849 111.2 286.602 110.9 287.202 110.3C287.802 109.687 288.102 108.92 288.102 108C288.102 107.08 287.802 106.32 287.202 105.72C286.602 105.107 285.849 104.8 284.942 104.8C284.035 104.8 283.282 105.107 282.682 105.72C282.082 106.32 281.782 107.08 281.782 108C281.782 108.907 282.082 109.673 282.682 110.3ZM298.44 102.74C299.8 102.74 300.973 103.253 301.96 104.28C302.933 105.293 303.42 106.533 303.42 108C303.42 109.48 302.933 110.727 301.96 111.74C300.986 112.753 299.813 113.26 298.44 113.26C296.933 113.26 295.766 112.7 294.94 111.58V117H292.78V103H294.94V104.44C295.753 103.307 296.92 102.74 298.44 102.74ZM295.84 110.3C296.44 110.9 297.193 111.2 298.1 111.2C299.006 111.2 299.76 110.9 300.36 110.3C300.96 109.687 301.26 108.92 301.26 108C301.26 107.08 300.96 106.32 300.36 105.72C299.76 105.107 299.006 104.8 298.1 104.8C297.193 104.8 296.44 105.107 295.84 105.72C295.24 106.32 294.94 107.08 294.94 108C294.94 108.907 295.24 109.673 295.84 110.3ZM313.787 103V110.96H315.127V115.68H313.007V113H306.147V115.68H304.027V110.96H305.247C305.86 110.107 306.167 108.9 306.167 107.34V103H313.787ZM307.627 110.96H311.667V104.98H308.287V107.34C308.287 108.78 308.067 109.987 307.627 110.96ZM326.081 115H323.921C322.454 112.067 321.721 109.067 321.721 106C321.721 102.933 322.454 99.9333 323.921 97H326.081C324.614 99.9333 323.881 102.933 323.881 106C323.881 109.067 324.614 112.067 326.081 115ZM332.46 113.26C330.954 113.26 329.694 112.753 328.68 111.74C327.68 110.713 327.18 109.467 327.18 108C327.18 106.507 327.68 105.26 328.68 104.26C329.694 103.247 330.954 102.74 332.46 102.74C333.434 102.74 334.32 102.973 335.12 103.44C335.92 103.907 336.52 104.533 336.92 105.32L335.06 106.4C334.834 105.92 334.487 105.547 334.02 105.28C333.567 105 333.04 104.86 332.44 104.86C331.56 104.86 330.82 105.16 330.22 105.76C329.634 106.373 329.34 107.12 329.34 108C329.34 108.88 329.634 109.627 330.22 110.24C330.82 110.84 331.56 111.14 332.44 111.14C333.027 111.14 333.554 111.007 334.02 110.74C334.5 110.46 334.86 110.08 335.1 109.6L336.96 110.66C336.534 111.46 335.914 112.093 335.1 112.56C334.3 113.027 333.42 113.26 332.46 113.26ZM348.025 108.92H340.065C340.225 109.667 340.585 110.247 341.145 110.66C341.719 111.073 342.425 111.28 343.265 111.28C344.399 111.28 345.259 110.867 345.845 110.04L347.625 111.08C346.652 112.533 345.192 113.26 343.245 113.26C341.632 113.26 340.319 112.767 339.305 111.78C338.305 110.78 337.805 109.52 337.805 108C337.805 106.52 338.299 105.273 339.285 104.26C340.259 103.247 341.525 102.74 343.085 102.74C344.539 102.74 345.739 103.253 346.685 104.28C347.632 105.307 348.105 106.553 348.105 108.02C348.105 108.287 348.079 108.587 348.025 108.92ZM340.045 107.16H345.925C345.779 106.373 345.445 105.767 344.925 105.34C344.419 104.913 343.799 104.7 343.065 104.7C342.265 104.7 341.599 104.92 341.065 105.36C340.532 105.8 340.192 106.4 340.045 107.16ZM348.555 103H357.255V105.08H353.995V113H351.835V105.08H348.555V103ZM360.877 106.4H363.077C364.157 106.4 365.03 106.707 365.697 107.32C366.377 107.92 366.717 108.713 366.717 109.7C366.717 110.673 366.377 111.467 365.697 112.08C365.03 112.693 364.157 113 363.077 113H358.717V103H360.877V106.4ZM360.877 111.06H363.097C363.524 111.06 363.877 110.933 364.157 110.68C364.45 110.427 364.597 110.1 364.597 109.7C364.597 109.3 364.457 108.973 364.177 108.72C363.897 108.467 363.537 108.34 363.097 108.34H360.877V111.06ZM379.143 102.74C380.503 102.74 381.676 103.253 382.663 104.28C383.636 105.293 384.123 106.533 384.123 108C384.123 109.48 383.636 110.727 382.663 111.74C381.689 112.753 380.516 113.26 379.143 113.26C377.636 113.26 376.469 112.7 375.643 111.58V117H373.483V103H375.643V104.44C376.456 103.307 377.623 102.74 379.143 102.74ZM376.543 110.3C377.143 110.9 377.896 111.2 378.803 111.2C379.709 111.2 380.463 110.9 381.063 110.3C381.663 109.687 381.963 108.92 381.963 108C381.963 107.08 381.663 106.32 381.063 105.72C380.463 105.107 379.709 104.8 378.803 104.8C377.896 104.8 377.143 105.107 376.543 105.72C375.943 106.32 375.643 107.08 375.643 108C375.643 108.907 375.943 109.673 376.543 110.3ZM394.54 111.74C393.527 112.753 392.28 113.26 390.8 113.26C389.32 113.26 388.074 112.753 387.06 111.74C386.034 110.713 385.52 109.467 385.52 108C385.52 106.533 386.034 105.287 387.06 104.26C388.074 103.247 389.32 102.74 390.8 102.74C392.28 102.74 393.527 103.247 394.54 104.26C395.567 105.287 396.08 106.533 396.08 108C396.08 109.467 395.567 110.713 394.54 111.74ZM387.68 108C387.68 108.907 387.98 109.66 388.58 110.26C389.18 110.86 389.92 111.16 390.8 111.16C391.68 111.16 392.42 110.86 393.02 110.26C393.62 109.66 393.92 108.907 393.92 108C393.92 107.093 393.62 106.34 393.02 105.74C392.42 105.14 391.68 104.84 390.8 104.84C389.92 104.84 389.18 105.14 388.58 105.74C387.98 106.34 387.68 107.093 387.68 108ZM403.263 107.88C404.329 108.36 404.863 109.153 404.863 110.26C404.863 111.127 404.509 111.847 403.803 112.42C403.096 112.98 402.136 113.26 400.923 113.26C398.909 113.26 397.549 112.46 396.843 110.86L398.603 109.82C398.963 110.82 399.743 111.32 400.943 111.32C401.503 111.32 401.943 111.207 402.263 110.98C402.583 110.74 402.743 110.427 402.743 110.04C402.743 109.693 402.616 109.42 402.363 109.22C402.109 109.007 401.756 108.9 401.303 108.9H399.883V107H400.943C401.383 107 401.723 106.9 401.963 106.7C402.216 106.487 402.343 106.2 402.343 105.84C402.343 105.493 402.203 105.213 401.923 105C401.643 104.773 401.269 104.66 400.803 104.66C399.803 104.66 399.109 105.1 398.723 105.98L396.963 104.98C397.696 103.487 398.963 102.74 400.763 102.74C401.883 102.74 402.769 103.027 403.423 103.6C404.089 104.16 404.423 104.847 404.423 105.66C404.423 106.66 404.036 107.4 403.263 107.88ZM413.367 106.98V103H415.527V113H413.367V109.02H408.787V113H406.627V103H408.787V106.98H413.367ZM420.153 109.34L425.273 103H426.933V113H424.813V106.64L419.693 113H418.033V103H420.153V109.34ZM435.52 107.58V103H437.68V113H435.52V109.62C434.733 109.913 433.893 110.06 433 110.06C431.733 110.06 430.746 109.753 430.04 109.14C429.333 108.513 428.98 107.613 428.98 106.44V103H431.14V106.24C431.14 107.44 431.853 108.04 433.28 108.04C434.093 108.04 434.84 107.887 435.52 107.58ZM446.941 106.98V103H449.101V113H446.941V109.02H442.361V113H440.201V103H442.361V106.98H446.941ZM453.768 106.4H455.968C457.048 106.4 457.921 106.707 458.588 107.32C459.268 107.92 459.608 108.713 459.608 109.7C459.608 110.673 459.268 111.467 458.588 112.08C457.921 112.693 457.048 113 455.968 113H451.608V103H453.768V106.4ZM460.808 113V103H462.968V113H460.808ZM453.768 111.06H455.988C456.414 111.06 456.768 110.933 457.048 110.68C457.341 110.427 457.488 110.1 457.488 109.7C457.488 109.3 457.348 108.973 457.068 108.72C456.788 108.467 456.428 108.34 455.988 108.34H453.768V111.06ZM470.675 107.88L474.415 113H471.915L469.435 109.58L466.935 113H464.415L468.175 107.86L464.615 103H467.115L469.415 106.16L471.715 103H474.235L470.675 107.88ZM195.26 128H204.16V138H202V130.04H197.42V138H195.26V128ZM212.326 127.74C213.686 127.74 214.86 128.253 215.846 129.28C216.82 130.293 217.306 131.533 217.306 133C217.306 134.48 216.82 135.727 215.846 136.74C214.873 137.753 213.7 138.26 212.326 138.26C210.82 138.26 209.653 137.7 208.826 136.58V142H206.666V128H208.826V129.44C209.64 128.307 210.806 127.74 212.326 127.74ZM209.726 135.3C210.326 135.9 211.08 136.2 211.986 136.2C212.893 136.2 213.646 135.9 214.246 135.3C214.846 134.687 215.146 133.92 215.146 133C215.146 132.08 214.846 131.32 214.246 130.72C213.646 130.107 212.893 129.8 211.986 129.8C211.08 129.8 210.326 130.107 209.726 130.72C209.126 131.32 208.826 132.08 208.826 133C208.826 133.907 209.126 134.673 209.726 135.3ZM227.724 136.74C226.711 137.753 225.464 138.26 223.984 138.26C222.504 138.26 221.257 137.753 220.244 136.74C219.217 135.713 218.704 134.467 218.704 133C218.704 131.533 219.217 130.287 220.244 129.26C221.257 128.247 222.504 127.74 223.984 127.74C225.464 127.74 226.711 128.247 227.724 129.26C228.751 130.287 229.264 131.533 229.264 133C229.264 134.467 228.751 135.713 227.724 136.74ZM220.864 133C220.864 133.907 221.164 134.66 221.764 135.26C222.364 135.86 223.104 136.16 223.984 136.16C224.864 136.16 225.604 135.86 226.204 135.26C226.804 134.66 227.104 133.907 227.104 133C227.104 132.093 226.804 131.34 226.204 130.74C225.604 130.14 224.864 129.84 223.984 129.84C223.104 129.84 222.364 130.14 221.764 130.74C221.164 131.34 220.864 132.093 220.864 133ZM239.626 128V135.96H240.966V140.68H238.846V138H231.986V140.68H229.866V135.96H231.086C231.7 135.107 232.006 133.9 232.006 132.34V128H239.626ZM233.466 135.96H237.506V129.98H234.126V132.34C234.126 133.78 233.906 134.987 233.466 135.96ZM246.51 135.28L249.07 128H251.37L247.53 138.32C247.064 139.587 246.41 140.533 245.57 141.16C244.73 141.787 243.757 142.067 242.65 142V139.98C243.93 140.06 244.817 139.42 245.31 138.06L245.37 137.92L241.17 128H243.47L246.51 135.28ZM257.001 132.9L261.561 138H258.981L254.881 133.38V138H252.721V128H254.881V132.42L258.761 128H261.401L257.001 132.9ZM261.954 128H270.654V130.08H267.394V138H265.234V130.08H261.954V128ZM280.185 136.74C279.172 137.753 277.925 138.26 276.445 138.26C274.965 138.26 273.718 137.753 272.705 136.74C271.678 135.713 271.165 134.467 271.165 133C271.165 131.533 271.678 130.287 272.705 129.26C273.718 128.247 274.965 127.74 276.445 127.74C277.925 127.74 279.172 128.247 280.185 129.26C281.212 130.287 281.725 131.533 281.725 133C281.725 134.467 281.212 135.713 280.185 136.74ZM273.325 133C273.325 133.907 273.625 134.66 274.225 135.26C274.825 135.86 275.565 136.16 276.445 136.16C277.325 136.16 278.065 135.86 278.665 135.26C279.265 134.66 279.565 133.907 279.565 133C279.565 132.093 279.265 131.34 278.665 130.74C278.065 130.14 277.325 129.84 276.445 129.84C275.565 129.84 274.825 130.14 274.225 130.74C273.625 131.34 273.325 132.093 273.325 133ZM290.598 132.86C291.585 133.327 292.078 134.093 292.078 135.16C292.078 136.013 291.785 136.7 291.198 137.22C290.625 137.74 289.825 138 288.798 138H283.678V128H288.398C289.411 128 290.205 128.253 290.778 128.76C291.351 129.267 291.638 129.933 291.638 130.76C291.638 131.707 291.291 132.407 290.598 132.86ZM288.238 129.84H285.738V132.06H288.238C289.118 132.06 289.558 131.687 289.558 130.94C289.558 130.207 289.118 129.84 288.238 129.84ZM285.738 136.12H288.598C289.505 136.12 289.958 135.727 289.958 134.94C289.958 134.593 289.838 134.327 289.598 134.14C289.358 133.94 289.025 133.84 288.598 133.84H285.738V136.12ZM295.994 131.4H298.194C299.274 131.4 300.148 131.707 300.814 132.32C301.494 132.92 301.834 133.713 301.834 134.7C301.834 135.673 301.494 136.467 300.814 137.08C300.148 137.693 299.274 138 298.194 138H293.834V128H295.994V131.4ZM303.034 138V128H305.194V138H303.034ZM295.994 136.06H298.214C298.641 136.06 298.994 135.933 299.274 135.68C299.568 135.427 299.714 135.1 299.714 134.7C299.714 134.3 299.574 133.973 299.294 133.72C299.014 133.467 298.654 133.34 298.214 133.34H295.994V136.06ZM312.901 132.88L316.641 138H314.141L311.661 134.58L309.161 138H306.641L310.401 132.86L306.841 128H309.341L311.641 131.16L313.941 128H316.461L312.901 132.88ZM331.092 128H333.292V138H331.192V131.42L328.312 136H328.052L325.192 131.44V138H323.092V128H325.292L328.192 132.62L331.092 128ZM343.707 129.42V128H345.867V138H343.707V136.56C342.894 137.693 341.727 138.26 340.207 138.26C338.834 138.26 337.661 137.753 336.687 136.74C335.714 135.727 335.227 134.48 335.227 133C335.227 131.52 335.714 130.273 336.687 129.26C337.661 128.247 338.834 127.74 340.207 127.74C341.727 127.74 342.894 128.3 343.707 129.42ZM338.287 135.3C338.887 135.9 339.641 136.2 340.547 136.2C341.454 136.2 342.207 135.9 342.807 135.3C343.407 134.687 343.707 133.92 343.707 133C343.707 132.08 343.407 131.32 342.807 130.72C342.207 130.107 341.454 129.8 340.547 129.8C339.641 129.8 338.887 130.107 338.287 130.72C337.687 131.32 337.387 132.08 337.387 133C337.387 133.907 337.687 134.673 338.287 135.3ZM348.385 128H355.085V130.08H350.545V138H348.385V128ZM364.078 129.42V128H366.238V138H364.078V136.56C363.265 137.693 362.098 138.26 360.578 138.26C359.205 138.26 358.032 137.753 357.058 136.74C356.085 135.727 355.598 134.48 355.598 133C355.598 131.52 356.085 130.273 357.058 129.26C358.032 128.247 359.205 127.74 360.578 127.74C362.098 127.74 363.265 128.3 364.078 129.42ZM358.658 135.3C359.258 135.9 360.012 136.2 360.918 136.2C361.825 136.2 362.578 135.9 363.178 135.3C363.778 134.687 364.078 133.92 364.078 133C364.078 132.08 363.778 131.32 363.178 130.72C362.578 130.107 361.825 129.8 360.918 129.8C360.012 129.8 359.258 130.107 358.658 130.72C358.058 131.32 357.758 132.08 357.758 133C357.758 133.907 358.058 134.673 358.658 135.3ZM374.376 132.88C375.443 133.36 375.976 134.153 375.976 135.26C375.976 136.127 375.623 136.847 374.916 137.42C374.209 137.98 373.249 138.26 372.036 138.26C370.023 138.26 368.663 137.46 367.956 135.86L369.716 134.82C370.076 135.82 370.856 136.32 372.056 136.32C372.616 136.32 373.056 136.207 373.376 135.98C373.696 135.74 373.856 135.427 373.856 135.04C373.856 134.693 373.729 134.42 373.476 134.22C373.223 134.007 372.869 133.9 372.416 133.9H370.996V132H372.056C372.496 132 372.836 131.9 373.076 131.7C373.329 131.487 373.456 131.2 373.456 130.84C373.456 130.493 373.316 130.213 373.036 130C372.756 129.773 372.383 129.66 371.916 129.66C370.916 129.66 370.223 130.1 369.836 130.98L368.076 129.98C368.809 128.487 370.076 127.74 371.876 127.74C372.996 127.74 373.883 128.027 374.536 128.6C375.203 129.16 375.536 129.847 375.536 130.66C375.536 131.66 375.149 132.4 374.376 132.88ZM379.86 134.34L384.98 128H386.64V138H384.52V131.64L379.4 138H377.74V128H379.86V134.34ZM395.887 131.98V128H398.047V138H395.887V134.02H391.307V138H389.147V128H391.307V131.98H395.887ZM409.013 136.74C408 137.753 406.753 138.26 405.273 138.26C403.793 138.26 402.546 137.753 401.533 136.74C400.506 135.713 399.993 134.467 399.993 133C399.993 131.533 400.506 130.287 401.533 129.26C402.546 128.247 403.793 127.74 405.273 127.74C406.753 127.74 408 128.247 409.013 129.26C410.04 130.287 410.553 131.533 410.553 133C410.553 134.467 410.04 135.713 409.013 136.74ZM402.153 133C402.153 133.907 402.453 134.66 403.053 135.26C403.653 135.86 404.393 136.16 405.273 136.16C406.153 136.16 406.893 135.86 407.493 135.26C408.093 134.66 408.393 133.907 408.393 133C408.393 132.093 408.093 131.34 407.493 130.74C406.893 130.14 406.153 129.84 405.273 129.84C404.393 129.84 403.653 130.14 403.053 130.74C402.453 131.34 402.153 132.093 402.153 133ZM419.426 132.86C420.413 133.327 420.906 134.093 420.906 135.16C420.906 136.013 420.613 136.7 420.026 137.22C419.453 137.74 418.653 138 417.626 138H412.506V128H417.226C418.239 128 419.033 128.253 419.606 128.76C420.179 129.267 420.466 129.933 420.466 130.76C420.466 131.707 420.119 132.407 419.426 132.86ZM417.066 129.84H414.566V132.06H417.066C417.946 132.06 418.386 131.687 418.386 130.94C418.386 130.207 417.946 129.84 417.066 129.84ZM414.566 136.12H417.426C418.333 136.12 418.786 135.727 418.786 134.94C418.786 134.593 418.666 134.327 418.426 134.14C418.186 133.94 417.853 133.84 417.426 133.84H414.566V136.12ZM207 163H204.52L203.54 160.18H197.58L196.6 163H194.1L199.18 149H201.94L207 163ZM200.56 151.7L198.34 158.02H202.78L200.56 151.7ZM208.365 153H217.265V163H215.105V155.04H210.525V163H208.365V153ZM229.432 158.92H221.472C221.632 159.667 221.992 160.247 222.552 160.66C223.125 161.073 223.832 161.28 224.672 161.28C225.805 161.28 226.665 160.867 227.252 160.04L229.032 161.08C228.058 162.533 226.598 163.26 224.652 163.26C223.038 163.26 221.725 162.767 220.712 161.78C219.712 160.78 219.212 159.52 219.212 158C219.212 156.52 219.705 155.273 220.692 154.26C221.665 153.247 222.932 152.74 224.492 152.74C225.945 152.74 227.145 153.253 228.092 154.28C229.038 155.307 229.512 156.553 229.512 158.02C229.512 158.287 229.485 158.587 229.432 158.92ZM221.452 157.16H227.332C227.185 156.373 226.852 155.767 226.332 155.34C225.825 154.913 225.205 154.7 224.472 154.7C223.672 154.7 223.005 154.92 222.472 155.36C221.938 155.8 221.598 156.4 221.452 157.16ZM231.802 153H239.462V163H237.302V155.08H233.962V158.8C233.962 160.36 233.622 161.48 232.942 162.16C232.262 162.84 231.268 163.12 229.962 163V160.98C230.575 161.087 231.035 160.96 231.342 160.6C231.648 160.227 231.802 159.593 231.802 158.7V153ZM244.139 156.4H246.339C247.419 156.4 248.292 156.707 248.959 157.32C249.639 157.92 249.979 158.713 249.979 159.7C249.979 160.673 249.639 161.467 248.959 162.08C248.292 162.693 247.419 163 246.339 163H241.979V153H244.139V156.4ZM244.139 161.06H246.359C246.785 161.06 247.139 160.933 247.419 160.68C247.712 160.427 247.859 160.1 247.859 159.7C247.859 159.3 247.719 158.973 247.439 158.72C247.159 158.467 246.799 158.34 246.359 158.34H244.139V161.06ZM256.347 163.26C254.841 163.26 253.581 162.753 252.567 161.74C251.567 160.713 251.067 159.467 251.067 158C251.067 156.507 251.567 155.26 252.567 154.26C253.581 153.247 254.841 152.74 256.347 152.74C257.321 152.74 258.207 152.973 259.007 153.44C259.807 153.907 260.407 154.533 260.807 155.32L258.947 156.4C258.721 155.92 258.374 155.547 257.907 155.28C257.454 155 256.927 154.86 256.327 154.86C255.447 154.86 254.707 155.16 254.107 155.76C253.521 156.373 253.227 157.12 253.227 158C253.227 158.88 253.521 159.627 254.107 160.24C254.707 160.84 255.447 161.14 256.327 161.14C256.914 161.14 257.441 161.007 257.907 160.74C258.387 160.46 258.747 160.08 258.987 159.6L260.847 160.66C260.421 161.46 259.801 162.093 258.987 162.56C258.187 163.027 257.307 163.26 256.347 163.26ZM264.587 159.34L269.707 153H271.367V163H269.247V156.64L264.127 163H262.467V153H264.587V159.34ZM280.613 156.98V153H282.773V163H280.613V159.02H276.033V163H273.873V153H276.033V156.98H280.613ZM292.82 157.96H285.42V155.88H292.82V157.96ZM307.235 163.26C305.128 163.26 303.382 162.567 301.995 161.18C300.608 159.767 299.915 158.04 299.915 156C299.915 153.947 300.608 152.227 301.995 150.84C303.368 149.44 305.115 148.74 307.235 148.74C308.502 148.74 309.668 149.04 310.735 149.64C311.815 150.24 312.655 151.053 313.255 152.08L311.255 153.24C310.882 152.547 310.335 152 309.615 151.6C308.908 151.187 308.115 150.98 307.235 150.98C305.755 150.98 304.542 151.453 303.595 152.4C302.675 153.333 302.215 154.533 302.215 156C302.215 157.467 302.675 158.667 303.595 159.6C304.542 160.547 305.755 161.02 307.235 161.02C308.115 161.02 308.915 160.82 309.635 160.42C310.355 160.007 310.895 159.453 311.255 158.76L313.255 159.9C312.682 160.913 311.848 161.733 310.755 162.36C309.702 162.96 308.528 163.26 307.235 163.26ZM317.243 159.34L322.363 153H324.023V163H321.903V156.64L316.783 163H315.123V153H317.243V159.34ZM325.47 153H334.17V155.08H330.91V163H328.75V155.08H325.47V153ZM337.751 159.34L342.871 153H344.531V163H342.411V156.64L337.291 163H335.631V153H337.751V159.34ZM352.037 153H358.737V155.08H354.197V163H352.037V153ZM359.705 160.24C360.118 160.24 360.471 160.387 360.765 160.68C361.058 160.973 361.205 161.327 361.205 161.74C361.205 162.153 361.058 162.507 360.765 162.8C360.471 163.093 360.118 163.24 359.705 163.24C359.291 163.24 358.938 163.093 358.645 162.8C358.351 162.507 358.205 162.153 358.205 161.74C358.205 161.327 358.345 160.973 358.625 160.68C358.918 160.387 359.278 160.24 359.705 160.24ZM374.346 161.16C372.946 162.56 371.233 163.26 369.206 163.26C367.179 163.26 365.459 162.56 364.046 161.16C362.646 159.747 361.946 158.027 361.946 156C361.946 153.973 362.646 152.26 364.046 150.86C365.459 149.447 367.179 148.74 369.206 148.74C371.233 148.74 372.946 149.447 374.346 150.86C375.759 152.26 376.466 153.973 376.466 156C376.466 158.027 375.759 159.747 374.346 161.16ZM365.666 159.6C366.639 160.547 367.819 161.02 369.206 161.02C370.606 161.02 371.779 160.547 372.726 159.6C373.686 158.64 374.166 157.44 374.166 156C374.166 154.56 373.686 153.367 372.726 152.42C371.779 151.46 370.606 150.98 369.206 150.98C367.806 150.98 366.626 151.46 365.666 152.42C364.719 153.367 364.246 154.56 364.246 156C364.246 157.427 364.719 158.627 365.666 159.6ZM382.704 157.9L387.264 163H384.684L380.584 158.38V163H378.424V153H380.584V157.42L384.464 153H387.104L382.704 157.9ZM387.657 153H396.357V155.08H393.097V163H390.937V155.08H387.657V153ZM400.493 153H404.953V163H402.833V159.64H401.633L399.093 163H396.553L399.253 159.44C398.56 159.213 398 158.813 397.573 158.24C397.16 157.667 396.953 157.027 396.953 156.32C396.953 155.4 397.28 154.62 397.933 153.98C398.586 153.327 399.44 153 400.493 153ZM400.613 157.78H402.833V154.96H400.613C400.16 154.96 399.786 155.093 399.493 155.36C399.213 155.613 399.073 155.953 399.073 156.38C399.073 156.807 399.213 157.147 399.493 157.4C399.786 157.653 400.16 157.78 400.613 157.78ZM412.107 163.26C410.587 163.26 409.334 162.767 408.347 161.78C407.387 160.78 406.907 159.507 406.907 157.96C406.907 156.28 407.16 154.973 407.667 154.04C408.16 153.12 409.187 152.273 410.747 151.5C410.8 151.473 410.887 151.433 411.007 151.38C411.14 151.313 411.28 151.247 411.427 151.18C411.574 151.113 411.72 151.047 411.867 150.98C412.427 150.727 412.774 150.567 412.907 150.5C412.987 150.46 413.22 150.313 413.607 150.06C414.074 149.727 414.387 149.253 414.547 148.64L416.307 149.66C416.24 150.393 415.78 151.067 414.927 151.68C414.78 151.813 414.507 151.973 414.107 152.16L413.247 152.56L412.247 152.98C411.38 153.327 410.74 153.68 410.327 154.04C409.914 154.4 409.627 154.86 409.467 155.42C410.267 154.513 411.354 154.06 412.727 154.06C413.9 154.06 414.92 154.48 415.787 155.32C416.667 156.16 417.107 157.247 417.107 158.58C417.107 159.94 416.64 161.06 415.707 161.94C414.787 162.82 413.587 163.26 412.107 163.26ZM412.087 161.24C412.927 161.24 413.614 160.993 414.147 160.5C414.68 159.993 414.947 159.353 414.947 158.58C414.947 157.793 414.68 157.147 414.147 156.64C413.627 156.133 412.947 155.88 412.107 155.88C411.36 155.88 410.687 156.12 410.087 156.6C409.487 157.053 409.187 157.68 409.187 158.48C409.187 159.28 409.467 159.94 410.027 160.46C410.587 160.98 411.274 161.24 412.087 161.24ZM424.475 152.74C425.835 152.74 427.008 153.253 427.995 154.28C428.968 155.293 429.455 156.533 429.455 158C429.455 159.48 428.968 160.727 427.995 161.74C427.021 162.753 425.848 163.26 424.475 163.26C422.968 163.26 421.801 162.7 420.975 161.58V167H418.815V153H420.975V154.44C421.788 153.307 422.955 152.74 424.475 152.74ZM421.875 160.3C422.475 160.9 423.228 161.2 424.135 161.2C425.041 161.2 425.795 160.9 426.395 160.3C426.995 159.687 427.295 158.92 427.295 158C427.295 157.08 426.995 156.32 426.395 155.72C425.795 155.107 425.041 154.8 424.135 154.8C423.228 154.8 422.475 155.107 421.875 155.72C421.275 156.32 420.975 157.08 420.975 158C420.975 158.907 421.275 159.673 421.875 160.3ZM433.572 156.4H435.772C436.852 156.4 437.726 156.707 438.392 157.32C439.072 157.92 439.412 158.713 439.412 159.7C439.412 160.673 439.072 161.467 438.392 162.08C437.726 162.693 436.852 163 435.772 163H431.412V153H433.572V156.4ZM433.572 161.06H435.792C436.219 161.06 436.572 160.933 436.852 160.68C437.146 160.427 437.292 160.1 437.292 159.7C437.292 159.3 437.152 158.973 436.872 158.72C436.592 158.467 436.232 158.34 435.792 158.34H433.572V161.06ZM445.781 163.26C444.274 163.26 443.014 162.753 442.001 161.74C441.001 160.713 440.501 159.467 440.501 158C440.501 156.507 441.001 155.26 442.001 154.26C443.014 153.247 444.274 152.74 445.781 152.74C446.754 152.74 447.641 152.973 448.441 153.44C449.241 153.907 449.841 154.533 450.241 155.32L448.381 156.4C448.154 155.92 447.807 155.547 447.341 155.28C446.887 155 446.361 154.86 445.761 154.86C444.881 154.86 444.141 155.16 443.541 155.76C442.954 156.373 442.661 157.12 442.661 158C442.661 158.88 442.954 159.627 443.541 160.24C444.141 160.84 444.881 161.14 445.761 161.14C446.347 161.14 446.874 161.007 447.341 160.74C447.821 160.46 448.181 160.08 448.421 159.6L450.281 160.66C449.854 161.46 449.234 162.093 448.421 162.56C447.621 163.027 446.741 163.26 445.781 163.26ZM456.181 157.9L460.741 163H458.161L454.061 158.38V163H451.901V153H454.061V157.42L457.941 153H460.581L456.181 157.9ZM464.314 159.34L469.434 153H471.094V163H468.974V156.64L463.854 163H462.194V153H464.314V159.34ZM480.84 151.6H475.24V149.72H480.84V151.6ZM475.72 159.34L480.84 153H482.5V163H480.38V156.64L475.26 163H473.6V153H475.72V159.34ZM485.606 160.6H488.006L486.606 165.8H484.806L485.606 160.6ZM195.26 178H201.96V180.08H197.42V188H195.26V178ZM202.927 185.24C203.341 185.24 203.694 185.387 203.987 185.68C204.281 185.973 204.427 186.327 204.427 186.74C204.427 187.153 204.281 187.507 203.987 187.8C203.694 188.093 203.341 188.24 202.927 188.24C202.514 188.24 202.161 188.093 201.867 187.8C201.574 187.507 201.427 187.153 201.427 186.74C201.427 186.327 201.567 185.973 201.847 185.68C202.141 185.387 202.501 185.24 202.927 185.24ZM209.165 179.4H212.165C213.458 179.4 214.532 179.807 215.385 180.62C216.238 181.433 216.665 182.46 216.665 183.7C216.665 184.94 216.238 185.967 215.385 186.78C214.532 187.593 213.458 188 212.165 188H206.865V174H215.465V176.2H209.165V179.4ZM209.165 185.84H212.165C212.805 185.84 213.332 185.647 213.745 185.26C214.158 184.86 214.365 184.34 214.365 183.7C214.365 183.06 214.158 182.547 213.745 182.16C213.332 181.76 212.805 181.56 212.165 181.56H209.165V185.84ZM228.084 183.92H220.124C220.284 184.667 220.644 185.247 221.204 185.66C221.777 186.073 222.484 186.28 223.324 186.28C224.457 186.28 225.317 185.867 225.904 185.04L227.684 186.08C226.711 187.533 225.251 188.26 223.304 188.26C221.691 188.26 220.377 187.767 219.364 186.78C218.364 185.78 217.864 184.52 217.864 183C217.864 181.52 218.357 180.273 219.344 179.26C220.317 178.247 221.584 177.74 223.144 177.74C224.597 177.74 225.797 178.253 226.744 179.28C227.691 180.307 228.164 181.553 228.164 183.02C228.164 183.287 228.137 183.587 228.084 183.92ZM220.104 182.16H225.984C225.837 181.373 225.504 180.767 224.984 180.34C224.477 179.913 223.857 179.7 223.124 179.7C222.324 179.7 221.657 179.92 221.124 180.36C220.591 180.8 220.251 181.4 220.104 182.16ZM230.454 178H238.114V188H235.954V180.08H232.614V183.8C232.614 185.36 232.274 186.48 231.594 187.16C230.914 187.84 229.921 188.12 228.614 188V185.98C229.227 186.087 229.687 185.96 229.994 185.6C230.301 185.227 230.454 184.593 230.454 183.7V178ZM250.291 183.92H242.331C242.491 184.667 242.851 185.247 243.411 185.66C243.984 186.073 244.691 186.28 245.531 186.28C246.664 186.28 247.524 185.867 248.111 185.04L249.891 186.08C248.918 187.533 247.458 188.26 245.511 188.26C243.898 188.26 242.584 187.767 241.571 186.78C240.571 185.78 240.071 184.52 240.071 183C240.071 181.52 240.564 180.273 241.551 179.26C242.524 178.247 243.791 177.74 245.351 177.74C246.804 177.74 248.004 178.253 248.951 179.28C249.898 180.307 250.371 181.553 250.371 183.02C250.371 183.287 250.344 183.587 250.291 183.92ZM242.311 182.16H248.191C248.044 181.373 247.711 180.767 247.191 180.34C246.684 179.913 246.064 179.7 245.331 179.7C244.531 179.7 243.864 179.92 243.331 180.36C242.798 180.8 242.458 181.4 242.311 182.16ZM256.853 188.26C255.333 188.26 254.08 187.767 253.093 186.78C252.133 185.78 251.653 184.507 251.653 182.96C251.653 181.28 251.906 179.973 252.413 179.04C252.906 178.12 253.933 177.273 255.493 176.5C255.546 176.473 255.633 176.433 255.753 176.38C255.886 176.313 256.026 176.247 256.173 176.18C256.32 176.113 256.466 176.047 256.613 175.98C257.173 175.727 257.52 175.567 257.653 175.5C257.733 175.46 257.966 175.313 258.353 175.06C258.82 174.727 259.133 174.253 259.293 173.64L261.053 174.66C260.986 175.393 260.526 176.067 259.673 176.68C259.526 176.813 259.253 176.973 258.853 177.16L257.993 177.56L256.993 177.98C256.126 178.327 255.486 178.68 255.073 179.04C254.66 179.4 254.373 179.86 254.213 180.42C255.013 179.513 256.1 179.06 257.473 179.06C258.646 179.06 259.666 179.48 260.533 180.32C261.413 181.16 261.853 182.247 261.853 183.58C261.853 184.94 261.386 186.06 260.453 186.94C259.533 187.82 258.333 188.26 256.853 188.26ZM256.833 186.24C257.673 186.24 258.36 185.993 258.893 185.5C259.426 184.993 259.693 184.353 259.693 183.58C259.693 182.793 259.426 182.147 258.893 181.64C258.373 181.133 257.693 180.88 256.853 180.88C256.106 180.88 255.433 181.12 254.833 181.6C254.233 182.053 253.933 182.68 253.933 183.48C253.933 184.28 254.213 184.94 254.773 185.46C255.333 185.98 256.02 186.24 256.833 186.24ZM273.221 183.92H265.261C265.421 184.667 265.781 185.247 266.341 185.66C266.914 186.073 267.621 186.28 268.461 186.28C269.594 186.28 270.454 185.867 271.041 185.04L272.821 186.08C271.847 187.533 270.387 188.26 268.441 188.26C266.827 188.26 265.514 187.767 264.501 186.78C263.501 185.78 263.001 184.52 263.001 183C263.001 181.52 263.494 180.273 264.481 179.26C265.454 178.247 266.721 177.74 268.281 177.74C269.734 177.74 270.934 178.253 271.881 179.28C272.827 180.307 273.301 181.553 273.301 183.02C273.301 183.287 273.274 183.587 273.221 183.92ZM265.241 182.16H271.121C270.974 181.373 270.641 180.767 270.121 180.34C269.614 179.913 268.994 179.7 268.261 179.7C267.461 179.7 266.794 179.92 266.261 180.36C265.727 180.8 265.387 181.4 265.241 182.16ZM282.441 176.6H276.841V174.72H282.441V176.6ZM277.321 184.34L282.441 178H284.101V188H281.981V181.64L276.861 188H275.201V178H277.321V184.34ZM287.208 185.6H289.608L288.208 190.8H286.408L287.208 185.6ZM291.901 178H298.601V180.08H294.061V188H291.901V178ZM299.568 185.24C299.981 185.24 300.334 185.387 300.628 185.68C300.921 185.973 301.068 186.327 301.068 186.74C301.068 187.153 300.921 187.507 300.628 187.8C300.334 188.093 299.981 188.24 299.568 188.24C299.154 188.24 298.801 188.093 298.508 187.8C298.214 187.507 298.068 187.153 298.068 186.74C298.068 186.327 298.208 185.973 298.488 185.68C298.781 185.387 299.141 185.24 299.568 185.24ZM300.413 174H310.613V176.2H306.673V188H304.373V176.2H300.413V174ZM314.753 185.28L317.313 178H319.613L315.773 188.32C315.306 189.587 314.653 190.533 313.813 191.16C312.973 191.787 311.999 192.067 310.893 192V189.98C312.173 190.06 313.059 189.42 313.553 188.06L313.613 187.92L309.413 178H311.713L314.753 185.28ZM328.203 176.6H322.603V174.72H328.203V176.6ZM323.083 184.34L328.203 178H329.863V188H327.743V181.64L322.623 188H320.963V178H323.083V184.34ZM340.369 178H342.569V188H340.469V181.42L337.589 186H337.329L334.469 181.44V188H332.369V178H334.569L337.469 182.62L340.369 178ZM352.985 179.42V178H355.145V188H352.985V186.56C352.171 187.693 351.005 188.26 349.485 188.26C348.111 188.26 346.938 187.753 345.965 186.74C344.991 185.727 344.505 184.48 344.505 183C344.505 181.52 344.991 180.273 345.965 179.26C346.938 178.247 348.111 177.74 349.485 177.74C351.005 177.74 352.171 178.3 352.985 179.42ZM347.565 185.3C348.165 185.9 348.918 186.2 349.825 186.2C350.731 186.2 351.485 185.9 352.085 185.3C352.685 184.687 352.985 183.92 352.985 183C352.985 182.08 352.685 181.32 352.085 180.72C351.485 180.107 350.731 179.8 349.825 179.8C348.918 179.8 348.165 180.107 347.565 180.72C346.965 181.32 346.665 182.08 346.665 183C346.665 183.907 346.965 184.673 347.565 185.3ZM363.282 182.88C364.349 183.36 364.882 184.153 364.882 185.26C364.882 186.127 364.529 186.847 363.822 187.42C363.116 187.98 362.156 188.26 360.942 188.26C358.929 188.26 357.569 187.46 356.862 185.86L358.622 184.82C358.982 185.82 359.762 186.32 360.962 186.32C361.522 186.32 361.962 186.207 362.282 185.98C362.602 185.74 362.762 185.427 362.762 185.04C362.762 184.693 362.636 184.42 362.382 184.22C362.129 184.007 361.776 183.9 361.322 183.9H359.902V182H360.962C361.402 182 361.742 181.9 361.982 181.7C362.236 181.487 362.362 181.2 362.362 180.84C362.362 180.493 362.222 180.213 361.942 180C361.662 179.773 361.289 179.66 360.822 179.66C359.822 179.66 359.129 180.1 358.742 180.98L356.982 179.98C357.716 178.487 358.982 177.74 360.782 177.74C361.902 177.74 362.789 178.027 363.442 178.6C364.109 179.16 364.442 179.847 364.442 180.66C364.442 181.66 364.056 182.4 363.282 182.88ZM368.807 181.4H371.007C372.087 181.4 372.96 181.707 373.627 182.32C374.307 182.92 374.647 183.713 374.647 184.7C374.647 185.673 374.307 186.467 373.627 187.08C372.96 187.693 372.087 188 371.007 188H366.647V178H368.807V181.4ZM375.847 188V178H378.007V188H375.847ZM368.807 186.06H371.027C371.453 186.06 371.807 185.933 372.087 185.68C372.38 185.427 372.527 185.1 372.527 184.7C372.527 184.3 372.387 183.973 372.107 183.72C371.827 183.467 371.467 183.34 371.027 183.34H368.807V186.06ZM381.814 190H379.654C381.121 187.067 381.854 184.067 381.854 181C381.854 177.933 381.121 174.933 379.654 172H381.814C383.281 174.933 384.014 177.933 384.014 181C384.014 184.067 383.281 187.067 381.814 190Z" fill="#111111"/>
</svg>
