<svg width="47" height="48" viewBox="0 0 47 48" fill="none" xmlns="http://www.w3.org/2000/svg">
<circle cx="23.4999" cy="23.8427" r="23.4628" fill="white"/>
<path d="M32.7807 13.2064C32.5452 13.0069 32.2601 12.8749 31.9556 12.8245C31.6511 12.774 31.3387 12.807 31.0515 12.92L11.4678 20.6113C11.1243 20.7422 10.8334 20.9823 10.6398 21.2948C10.4462 21.6072 10.3606 21.9747 10.3964 22.3405C10.4282 22.7062 10.5778 23.0517 10.8226 23.3252C11.0674 23.5987 11.3943 23.7855 11.7543 23.8575L16.7297 24.8441V31.0608C16.7296 31.3971 16.8293 31.7259 17.0163 32.0055C17.2033 32.285 17.4691 32.5027 17.78 32.6309C17.9858 32.7137 18.2053 32.7569 18.4271 32.7582C18.6501 32.759 18.8709 32.7153 19.0768 32.6297C19.2826 32.5441 19.4693 32.4183 19.6259 32.2596L22.3842 29.512L26.5534 33.1826C26.8612 33.454 27.2569 33.6048 27.6673 33.6069C27.8478 33.6106 28.0274 33.5819 28.1977 33.522C28.4777 33.4335 28.7297 33.2733 28.9287 33.0575C29.1278 32.8417 29.2671 32.5776 29.3329 32.2914L33.3217 14.872C33.3914 14.5714 33.3779 14.2575 33.2826 13.964C33.1873 13.6706 33.0137 13.4086 32.7807 13.2064ZM17.3769 23.2422L12.0938 22.192L26.9035 16.3678L17.3769 23.2422ZM18.4271 31.0608V26.0323L21.1005 28.3874L18.4271 31.0608ZM27.6779 31.9095L18.9364 24.2182L31.5289 15.1266L27.6779 31.9095Z" fill="#281B1B"/>
</svg>
