<svg width="86" height="86" viewBox="0 0 86 86" fill="none" xmlns="http://www.w3.org/2000/svg">
<circle cx="43" cy="43" r="43" fill="#DEB279"/>
<path d="M63.038 24.7421C62.6065 24.3764 62.0839 24.1345 61.5259 24.0421C60.9679 23.9496 60.3953 24.0101 59.8689 24.2171L23.9782 38.3129C23.3487 38.5527 22.8155 38.9928 22.4607 39.5655C22.1058 40.1381 21.9491 40.8115 22.0145 41.482C22.0729 42.1522 22.347 42.7854 22.7957 43.2867C23.2444 43.7879 23.8435 44.1302 24.5032 44.2622L33.6217 46.0704V57.4636C33.6213 58.08 33.8041 58.6825 34.1468 59.1949C34.4895 59.7072 34.9766 60.1061 35.5465 60.3411C35.9236 60.4929 36.3259 60.572 36.7324 60.5744C37.141 60.5759 37.5458 60.4958 37.923 60.3389C38.3002 60.182 38.6424 59.9514 38.9294 59.6606L43.9845 54.625L51.6253 61.3521C52.1894 61.8496 52.9146 62.1259 53.6668 62.1298C53.9975 62.1366 54.3268 62.0839 54.6389 61.9743C55.152 61.8119 55.6138 61.5185 55.9786 61.1229C56.3435 60.7274 56.5988 60.2434 56.7192 59.7189L64.0296 27.7945C64.1573 27.2437 64.1325 26.6684 63.9578 26.1306C63.7831 25.5927 63.4651 25.1127 63.038 24.7421ZM34.8076 43.1346L25.1253 41.2098L52.2669 30.5359L34.8076 43.1346ZM36.7324 57.4636V48.2479L41.6319 52.5641L36.7324 57.4636ZM53.6862 59.019L37.6657 44.9233L60.7438 28.2611L53.6862 59.019Z" fill="#111111"/>
</svg>
