<svg width="47" height="48" viewBox="0 0 47 48" fill="none" xmlns="http://www.w3.org/2000/svg">
<circle cx="23.4999" cy="23.8427" r="23.4628" fill="white"/>
<g clip-path="url(#clip0_301_96)">
<path d="M23.145 31.5C26.617 31.5 25.379 29.302 25.647 28.67C25.643 28.198 25.639 27.744 25.655 27.468C25.875 27.53 26.394 27.793 27.466 28.835C29.121 30.505 29.544 31.5 30.881 31.5H33.342C34.122 31.5 34.528 31.177 34.731 30.906C34.927 30.644 35.119 30.184 34.909 29.468C34.36 27.744 31.158 24.767 30.959 24.453C30.9912 24.3935 31.0256 24.3351 31.062 24.278H31.06C31.692 23.443 34.104 19.829 34.459 18.383C34.4602 18.3805 34.4609 18.3778 34.461 18.375C34.653 17.715 34.477 17.287 34.295 17.045C34.021 16.683 33.585 16.5 32.996 16.5H30.535C29.711 16.5 29.086 16.915 28.77 17.672C28.241 19.017 26.755 21.783 25.641 22.762C25.6162 21.6844 25.6185 20.6064 25.648 19.529C25.684 17.994 25.8 16.5 24.207 16.5H20.339C19.341 16.5 18.386 17.59 19.42 18.884C20.324 20.018 19.745 20.65 19.94 23.796C19.18 22.981 17.828 20.78 16.872 17.967C16.604 17.206 16.198 16.501 15.055 16.501H12.594C11.596 16.501 11 17.045 11 17.956C11 20.002 15.529 31.5 23.145 31.5ZM15.055 18.001C15.272 18.001 15.294 18.001 15.455 18.458C16.434 21.341 18.63 25.607 20.234 25.607C21.439 25.607 21.439 24.372 21.439 23.907L21.438 20.205C21.372 18.98 20.926 18.37 20.633 18L24.141 18.004C24.143 18.021 24.121 22.099 24.151 23.087C24.151 24.49 25.265 25.294 27.004 23.534C28.839 21.463 30.108 18.367 30.159 18.241C30.234 18.061 30.299 18 30.535 18H33.006L33.004 18.009C32.779 19.059 30.558 22.405 29.815 23.444L29.781 23.494C29.454 24.028 29.188 24.618 29.826 25.448C29.884 25.518 30.036 25.682 30.256 25.91C30.94 26.616 33.286 29.03 33.494 29.99C33.356 30.012 33.206 29.996 30.881 30.001C30.386 30.001 29.999 29.261 28.522 27.771C27.194 26.479 26.332 25.951 25.547 25.951C24.023 25.951 24.134 27.188 24.148 28.684C24.153 30.306 24.143 29.793 24.154 29.895C24.065 29.93 23.81 30 23.145 30C16.8 30 12.668 19.929 12.509 18.004C12.564 17.999 13.321 18.002 15.055 18.001Z" fill="black"/>
</g>
<defs>
<clipPath id="clip0_301_96">
<rect width="24" height="18" fill="white" transform="translate(11 15)"/>
</clipPath>
</defs>
</svg>
