<svg width="86" height="86" viewBox="0 0 86 86" fill="none" xmlns="http://www.w3.org/2000/svg">
<circle cx="43" cy="43" r="43" fill="#DEB279"/>
<g clip-path="url(#clip0_234_2635)">
<path d="M43.2538 57.4166C49.3298 57.4166 47.1633 53.6311 47.6323 52.5427C47.6253 51.7298 47.6182 50.9479 47.6462 50.4726C48.0312 50.5794 48.9395 51.0323 50.8155 52.8269C53.7117 55.703 54.452 57.4166 56.7918 57.4166H61.0985C62.4635 57.4166 63.174 56.8603 63.5293 56.3936C63.8723 55.9424 64.2083 55.1501 63.8408 53.917C62.88 50.9479 57.2765 45.8209 56.9282 45.2801C56.9847 45.1775 57.0448 45.077 57.1085 44.9787H57.105C58.211 43.5406 62.432 37.3165 63.0532 34.8262C63.0554 34.8219 63.0566 34.8172 63.0568 34.8124C63.3928 33.6758 63.0848 32.9386 62.7663 32.5219C62.2868 31.8984 61.5238 31.5833 60.493 31.5833H56.1862C54.7442 31.5833 53.6505 32.298 53.0975 33.6017C52.1718 35.9181 49.5712 40.6818 47.6217 42.3678C47.5783 40.512 47.5824 38.6554 47.634 36.7999C47.697 34.1563 47.9 31.5833 45.1122 31.5833H38.3432C36.5967 31.5833 34.9255 33.4605 36.735 35.689C38.317 37.642 37.3037 38.7305 37.645 44.1486C36.315 42.745 33.949 38.9544 32.276 34.1098C31.807 32.7991 31.0965 31.585 29.0962 31.585H24.7895C23.043 31.585 22 32.5219 22 34.0908C22 37.6145 29.9258 57.4166 43.2538 57.4166ZM29.0962 34.1683C29.476 34.1683 29.5145 34.1683 29.7962 34.9554C31.5095 39.9205 35.3525 47.2675 38.1595 47.2675C40.2683 47.2675 40.2683 45.1406 40.2683 44.3398L40.2665 37.9641C40.151 35.8544 39.3705 34.8038 38.8578 34.1666L44.9967 34.1735C45.0002 34.2028 44.9618 41.226 45.0143 42.9275C45.0143 45.3438 46.9637 46.7285 50.007 43.6974C53.2182 40.1306 55.439 34.7986 55.5283 34.5816C55.6595 34.2716 55.7732 34.1666 56.1862 34.1666H60.5105L60.507 34.1821C60.1132 35.9904 56.2265 41.753 54.9263 43.5424L54.8668 43.6285C54.2945 44.5481 53.829 45.5643 54.9455 46.9937C55.047 47.1143 55.313 47.3967 55.698 47.7894C56.895 49.0053 61.0005 53.1627 61.3645 54.816C61.123 54.8539 60.8605 54.8264 56.7918 54.835C55.9255 54.835 55.2482 53.5605 52.6635 50.9944C50.3395 48.7693 48.831 47.86 47.4572 47.86C44.7902 47.86 44.9845 49.9904 45.009 52.5668C45.0177 55.3603 45.0003 54.4768 45.0195 54.6524C44.8638 54.7127 44.4175 54.8333 43.2538 54.8333C32.15 54.8333 24.919 37.4888 24.6407 34.1735C24.737 34.1649 26.0617 34.17 29.0962 34.1683Z" fill="black"/>
</g>
<defs>
<clipPath id="clip0_234_2635">
<rect width="42" height="31" fill="white" transform="translate(22 29)"/>
</clipPath>
</defs>
</svg>
